<?xml version="1.0" encoding="UTF-8" standalone="no"?>
<!-- Created with Inkscape (http://www.inkscape.org/) -->

<svg
   width="41.379791mm"
   height="41.238968mm"
   viewBox="0 0 41.379791 41.238968"
   version="1.1"
   id="svg1"
   inkscape:version="1.4.2 (ebf0e94, 2025-05-08)"
   sodipodi:docname="faviconflat.svg"
   xmlns:inkscape="http://www.inkscape.org/namespaces/inkscape"
   xmlns:sodipodi="http://sodipodi.sourceforge.net/DTD/sodipodi-0.dtd"
   xmlns="http://www.w3.org/2000/svg"
   xmlns:svg="http://www.w3.org/2000/svg">
  <sodipodi:namedview
     id="namedview1"
     pagecolor="#ffffff"
     bordercolor="#000000"
     borderopacity="0.25"
     inkscape:showpageshadow="2"
     inkscape:pageopacity="0.0"
     inkscape:pagecheckerboard="0"
     inkscape:deskcolor="#d1d1d1"
     inkscape:document-units="mm"
     inkscape:zoom="2.9433782"
     inkscape:cx="71.346591"
     inkscape:cy="80.010105"
     inkscape:window-width="1920"
     inkscape:window-height="1048"
     inkscape:window-x="0"
     inkscape:window-y="0"
     inkscape:window-maximized="1"
     inkscape:current-layer="layer1" />
  <defs
     id="defs1">
    <filter
       inkscape:collect="always"
       style="color-interpolation-filters:sRGB"
       id="filter24"
       x="-0.047802872"
       y="-0.047977262"
       width="1.0956057"
       height="1.0959545">
      <feGaussianBlur
         inkscape:collect="always"
         stdDeviation="3.0042027"
         id="feGaussianBlur24" />
    </filter>
  </defs>
  <g
     inkscape:label="Layer 1"
     inkscape:groupmode="layer"
     id="layer1"
     transform="translate(314.04522,-134.19196)">
    <g
       id="path7"
       style="stroke-width:5.86618;filter:url(#filter24)"
       transform="matrix(0.24657713,0,0,0.24657713,1212.376,292.22215)" />
    <path
       id="path18"
       style="fill:#090a11;fill-opacity:1;stroke:none;stroke-width:0.296257;stroke-opacity:1"
       d="m -293.82621,136.3288 c -2.04334,0 -3.59532,0.57462 -5.94726,1.20484 -0.68069,0.18239 4.48573,0.76715 -0.99342,0.56255 -1.47004,-0.0549 -2.46385,1.74663 -3.39983,2.07422 -3.23755,1.13313 2.93016,-0.44537 -1.32542,1.14564 -1.02481,0.38313 -2.7937,2.70011 -3.73794,4.4586 -0.18605,0.69772 -2.04987,0.60548 -2.67095,2.92369 -0.18869,0.70346 3.51789,-3.26158 0.37008,4.03912 -0.84815,5.45224 2.31316,5.22144 0.57109,8.3173 -0.7906,1.40494 1.22448,-1.30842 0.94779,-0.0877 -0.89305,3.94 9.50349,11.79972 8.7243,10.04065 -0.53008,-1.19663 1.41937,0.68908 3.58287,1.26879 0.79304,0.21247 1.30417,-0.47147 1.03122,0.5475 -0.16346,0.60725 0.80565,-0.27293 1.46337,-0.11937 1.61234,0.3765 2.68052,0.0151 3.49251,0.0151 1.28354,0 2.29361,-0.74648 3.02289,0.51666 0.25212,0.43678 0.31686,-1.51918 0.60809,-1.22791 0.39455,0.39456 -0.20425,1.18951 0.25917,0.79564 3.39733,-2.88644 4.31804,-2.54803 5.39458,-3.66938 1.67262,-1.74227 0.36124,0.6927 1.10644,-0.16438 1.06102,-1.22031 4.47053,-3.86289 4.65284,-8.52759 0.15244,-3.89954 0.4578,1.10267 0.94409,-0.92135 1.40988,-5.8679 1.20099,-7.15261 -0.55559,-10.78327 -0.32645,-0.95383 0.26309,-2.09645 1.04344,-1.69357 0.64141,0.33118 -0.064,-1.36349 -1.14035,-1.28386 -0.46668,0.0346 0.55375,-0.66259 0.55375,-1.39846 0,-3.32197 0.0179,0.4156 -2.95813,-1.30271 -1.22882,-0.70944 -1.82239,-2.46575 -3.15979,-2.6928 -5.52265,-0.93757 -1.8154,-1.60153 -3.00507,-1.92031 -3.98656,-1.0682 -3.10679,-2.11756 -8.87477,-2.11756 z m -4.93553,8.2582 c 4.29237,2.4167 8.61201,-2.06843 11.75837,0.92875 0.26416,0.25161 -0.0847,-1.25148 0.23414,-0.69919 1.42846,2.47418 2.37804,5.30416 3.67045,7.92759 2.79519,3.26037 0.9887,7.15655 -2.28855,8.99711 -0.28717,0.15814 -0.74218,0.47032 -0.73187,0.77927 0.0261,0.78303 0.55165,2.20809 0.19583,3.01433 -0.53707,1.21764 -2.92725,-2.3945 -7.07944,-0.96337 -4.08876,-1.40929 -6.40287,2.30115 -7.13007,1.23681 -0.82998,-1.21472 0.66377,-2.36027 -0.46364,-3.79968 -0.20204,-0.25795 -0.1525,-0.35774 0.16994,-0.2974 5.49067,1.02757 5.40973,-5.30217 7.07105,-5.30217 1.7007,0 1.61658,6.78655 7.65001,5.16986 3.68255,-0.9867 8.70639,-6.81192 2.46121,-8.91836 0,0 -0.50434,-1.4217 -3.26223,-1.4217 -0.67429,0 -1.36975,0.14967 -1.99687,0.26578 -2.39646,0.44374 0.27543,-0.3025 -1.4019,0.008 -0.50261,0.0931 -1.75279,0.312 -1.55622,2.12036 -0.63834,0.15575 -1.26618,0.26348 -1.894,0.26348 -0.80447,0 -1.60102,-0.21418 -2.43724,-0.40919 -1.79825,-0.41936 -3.25389,-1.12934 -5.4395,-1.12934 -0.58372,0 -1.72124,0.12205 -2.53221,0.28471 -0.23455,0.047 -0.39913,-0.0963 -0.39913,-0.33563 0,-4.06118 1.10339,-10.14001 5.40187,-7.71986 z m 1.45775,8.60222 c 0.27517,0.36989 0.99223,0.33002 1.40412,0.48945 1.50258,-1.5302 -0.67388,-3.21047 -1.09315,-3.10737 -0.323,0.0794 1.04535,0.89207 -1.35095,-0.009 -3.08655,-1.16068 -5.64212,1.49268 -4.84675,1.36112 2.97479,-0.49201 5.17576,0.31012 5.88673,1.26584 z m -4.27184,0.18179 c 1.57907,0.016 3.5535,0.47599 4.72762,0.83186 2.08737,0.63266 1.38949,2.79587 1.38949,2.79587 -1.29171,4.87704 -4.08726,4.79576 -6.81375,3.41665 -2.72653,-1.37911 -2.13694,-4.22971 -1.70828,-6.01828 0.18755,-0.7825 1.17674,-1.03856 2.40492,-1.0261 z m 16.44063,0 c 1.22817,-0.0125 2.21735,0.2436 2.4049,1.0261 0.42866,1.78857 1.01821,4.63917 -1.70827,6.01828 -2.72649,1.37911 -5.52217,1.46039 -6.81383,-3.41665 0,0 -0.69782,-2.16321 1.38956,-2.79587 1.17417,-0.35587 3.14852,-0.81582 4.72764,-0.83186 z m -14.22503,0.80349 c -0.81617,-3e-5 -1.47783,1.16015 -1.47783,2.59132 0,1.43118 0.66166,2.59136 1.47783,2.59132 0.81613,-5e-5 1.47774,-1.1602 1.47774,-2.59132 0,-1.43111 -0.66161,-2.59127 -1.47774,-2.59132 z m 12.00941,0 c -0.81613,5e-5 -1.47774,1.16021 -1.47774,2.59132 0,1.43112 0.66161,2.59127 1.47774,2.59132 0.81617,5e-5 1.47785,-1.16013 1.47785,-2.59132 0,-1.43119 -0.66168,-2.59137 -1.47785,-2.59132 z m -2.81065,11.60279 c 0.0388,-0.009 0.54978,0.77076 1.37502,0.63603 3.06748,-0.5008 1.37568,4.66236 1.45184,4.04492 0.0956,-0.77496 -1.36375,-0.6788 -3.26248,-0.36258 -1.12576,0.18748 -1.28787,-0.0359 -1.12168,-1.25549 1.54257,-0.3226 0.82805,-1.35222 -0.37836,-1.16846 -3.59651,0.54783 -3.11538,-0.50122 -3.44888,-0.30867 -0.24933,0.14395 0.76843,1.05123 1.95502,1.38084 -0.21604,-0.0561 -0.90809,-0.21081 -0.759,0.15469 0.7546,1.84995 -0.43906,1.1418 -1.21382,0.96893 -3.47985,-0.77643 -2.74978,-2.64262 -1.02002,-3.69899 0.37287,-0.23367 0.0268,0.66833 0.20808,0.50256 0.93524,-0.85037 0.079,0.22634 0.64421,0.0221 1.0088,-0.36452 2.31456,-0.53763 2.82731,-0.53763 1.07644,0 2.86911,0.4749 2.65986,0.0484 -0.22986,-0.46845 0.47961,0.58198 0.20727,-0.0909 -0.0978,-0.2417 -0.13733,-0.33258 -0.12437,-0.33572 z"
       sodipodi:nodetypes="ssssscccsssscsssscsssscsssssssssscssccssssscssscsssssssssssssssssssscsssssssssssssssscsscsssssssssss" />
  </g>
</svg>
