<?xml version="1.0" encoding="UTF-8" standalone="no"?>
<!-- Created with Inkscape (http://www.inkscape.org/) -->

<svg
   width="180.6194mm"
   height="180.6194mm"
   viewBox="0 0 180.6194 180.6194"
   version="1.1"
   id="svg1"
   inkscape:version="1.3.2 (091e20ef0f, 2023-11-25, custom)"
   sodipodi:docname="publish.svg"
   xmlns:inkscape="http://www.inkscape.org/namespaces/inkscape"
   xmlns:sodipodi="http://sodipodi.sourceforge.net/DTD/sodipodi-0.dtd"
   xmlns="http://www.w3.org/2000/svg"
   xmlns:svg="http://www.w3.org/2000/svg">
  <sodipodi:namedview
     id="namedview1"
     pagecolor="#ffffff"
     bordercolor="#000000"
     borderopacity="0.25"
     inkscape:showpageshadow="2"
     inkscape:pageopacity="0.0"
     inkscape:pagecheckerboard="0"
     inkscape:deskcolor="#d1d1d1"
     inkscape:document-units="mm"
     inkscape:zoom="1.4716891"
     inkscape:cx="265.68111"
     inkscape:cy="373.72023"
     inkscape:window-width="1920"
     inkscape:window-height="1048"
     inkscape:window-x="0"
     inkscape:window-y="0"
     inkscape:window-maximized="1"
     inkscape:current-layer="layer1" />
  <defs
     id="defs1" />
  <g
     inkscape:label="Layer 1"
     inkscape:groupmode="layer"
     id="layer1"
     transform="translate(433.88577,-46.706825)">
    <path
       id="path949"
       style="vector-effect:none;fill:#ffffff;fill-opacity:1;fill-rule:evenodd;stroke:none;stroke-width:1;stroke-linecap:round;stroke-linejoin:miter;stroke-miterlimit:4;stroke-dasharray:none;stroke-dashoffset:65.0041;stroke-opacity:1;paint-order:markers fill stroke"
       d="m -345.3621,82.948446 c -29.04577,0 -52.61846,24.220634 -52.61846,54.068684 0,14.33951 5.54371,28.09154 15.4106,38.23108 9.867,10.13945 23.25391,15.8377 37.20786,15.8377 13.95403,0 27.33615,-5.69825 37.20304,-15.8377 9.867,-10.13954 15.41061,-23.89157 15.41061,-38.23108 0,-8.64319 -2.01494,-17.0738 -5.77589,-24.62812 -0.32773,0.56509 -0.65929,1.16268 -0.98835,1.78784 l -0.31811,-0.3873 c -3.59528,6.76664 -7.11599,17.11205 -7.15155,32.29622 -22.92763,3.79345 -41.68365,31.73199 -41.31018,32.08259 l -1.27628,-0.0673 c 3.94454,-13.69581 13.80297,-45.68891 18.45992,-52.17157 0.32484,-0.62949 1.1622,-2.01234 2.14045,-3.62546 0.95528,-1.57506 2.09634,-3.46496 3.4516,-5.70632 0.62468,-1.03294 1.16326,-1.92834 1.83762,-3.05931 0.63814,-1.06984 1.24899,-2.09451 1.91201,-3.22806 0.048,-0.0865 0.10283,-0.18068 0.15377,-0.26814 0.64582,-1.10626 1.28723,-2.22482 1.93689,-3.36722 0.28063,-0.49302 0.55549,-0.97787 0.8342,-1.47502 0.78132,-1.39198 1.55295,-2.78646 2.2994,-4.18162 0.0191,-0.0384 0.0385,-0.0769 0.0577,-0.10956 0.80632,-1.510091 1.58795,-3.009711 2.3143,-4.474637 0.007,-0.01923 0.0191,-0.02883 0.0288,-0.04805 v -0.0049 l 3.41191,-5.929862 c 2.50651,-4.361333 16.38799,3.76635 15.27154,7.538945 l -2.80607,9.460944 c 3.10208,0.45842 5.69989,-0.11052 7.32041,-1.59919 3.72741,-3.43421 1.38544,-10.748455 -5.22955,-16.339354 -3.95386,-3.341565 -8.75198,-5.458948 -12.82308,-5.651638 -2.48536,-0.117248 -4.54008,0.490135 -5.90007,1.74315 -1.72988,1.87635 -1.80715,4.312032 -1.31605,6.411539 -8.5715,-5.861916 -18.69422,-9.068549 -29.14264,-9.068549 z m 49.89706,15.043099 -1.37575,-2.493151 c -3.15982,4.807546 -21.9366,39.352626 -26.89773,51.575626 4.97353,-3.928 7.16377,-7.12589 12.08807,-8.1001 -0.85052,-12.28201 8.5467,-27.11435 16.18541,-40.982375 z M -345.3621,84.920133 a 50.735176,52.097161 0 0 1 30.62256,10.672635 c 0.0961,0.148002 0.1826,0.280626 0.26813,0.396913 -8.79562,-6.99403 -19.64988,-10.846489 -30.89079,-10.846489 v 0.005 c -1.8034,0 -3.58442,0.09611 -5.33881,0.282548 7.02421,11.828296 4.32961,28.53459 -4.33559,46.6738 -10.91625,22.59309 3.14369,44.95053 3.14369,44.95053 0.19702,0.60739 -39.17186,-26.89493 -41.55842,-55.8516 -1.54931,4.98465 -2.38888,10.2981 -2.38888,15.8128 0,13.7575 5.31844,26.94856 14.78487,36.67658 9.46651,9.72802 22.30564,15.19706 35.69314,15.19706 13.38769,0 26.22682,-5.46904 35.69324,-15.19706 9.46653,-9.72802 14.77987,-22.91908 14.77987,-36.67658 0,-7.79085 -1.70336,-15.40186 -4.90183,-22.30383 0.0385,-0.0769 0.0769,-0.15569 0.11918,-0.23353 a 50.735176,52.097161 0 0 1 5.04079,22.53726 50.735176,52.097161 0 0 1 -50.73135,52.09709 50.735176,52.097161 0 0 1 -50.73624,-52.09709 50.735176,52.097161 0 0 1 50.73624,-52.096996 z m 17.18863,42.685827 c -0.0385,-10e-4 -0.0769,6.1e-4 -0.10955,0.005 -0.76115,0.0769 -1.93997,1.21793 -2.88055,2.79108 -1.01593,1.70057 -1.47598,3.43094 -1.08762,4.10224 l -16.57771,43.43082 16.95521,-43.16259 c 0.73135,0.123 2.03127,-1.05947 3.06421,-2.78618 1.15633,-1.93411 1.5642,-3.85362 0.91395,-4.29089 -0.0769,-0.0576 -0.17106,-0.0865 -0.27773,-0.0865 z" />
  </g>
</svg>
