<?xml version="1.0" encoding="UTF-8" standalone="no"?>
<!-- Created with Inkscape (http://www.inkscape.org/) -->

<svg
   width="180.6194mm"
   height="180.6194mm"
   viewBox="0 0 180.6194 180.6194"
   version="1.1"
   id="svg1"
   inkscape:version="1.3.2 (091e20ef0f, 2023-11-25, custom)"
   sodipodi:docname="uiux.svg"
   xmlns:inkscape="http://www.inkscape.org/namespaces/inkscape"
   xmlns:sodipodi="http://sodipodi.sourceforge.net/DTD/sodipodi-0.dtd"
   xmlns="http://www.w3.org/2000/svg"
   xmlns:svg="http://www.w3.org/2000/svg">
  <sodipodi:namedview
     id="namedview1"
     pagecolor="#ffffff"
     bordercolor="#000000"
     borderopacity="0.25"
     inkscape:showpageshadow="2"
     inkscape:pageopacity="0.0"
     inkscape:pagecheckerboard="0"
     inkscape:deskcolor="#d1d1d1"
     inkscape:document-units="mm"
     inkscape:zoom="0.26016034"
     inkscape:cx="822.56965"
     inkscape:cy="392.06591"
     inkscape:window-width="1920"
     inkscape:window-height="1048"
     inkscape:window-x="0"
     inkscape:window-y="0"
     inkscape:window-maximized="1"
     inkscape:current-layer="layer1" />
  <defs
     id="defs1" />
  <g
     inkscape:label="Layer 1"
     inkscape:groupmode="layer"
     id="layer1"
     transform="translate(433.88577,-46.706825)">
    <path
       id="path42"
       style="color:#000000;fill:#ffffff;stroke:none;stroke-width:0.529167;stroke-linecap:butt;stroke-linejoin:miter;-inkscape-stroke:none"
       d="m -365.35786,77.896709 c -8.66592,0 -15.55635,6.896156 -15.55635,15.562083 0,8.665708 6.89043,15.556358 15.55635,15.556358 h 15.55637 V 77.896709 Z m 28.00717,0 v 31.118441 h 15.55637 c 5.70445,0 9.18764,-1.9145 11.67725,-4.71528 2.48962,-2.80077 3.87911,-6.778825 3.87911,-10.841078 0,-4.062253 -1.38949,-8.046029 -3.87911,-10.846801 -2.48961,-2.800772 -5.9728,-4.715282 -11.67725,-4.715282 z m -28.00717,43.563531 c -8.66592,0 -15.55635,6.89042 -15.55635,15.55636 0,8.66604 6.89043,15.55636 15.55635,15.55636 h 15.55637 v -31.11272 z m 43.56354,0 c -4.06236,0 -8.04031,1.38949 -10.84109,3.8791 -2.80087,2.48961 -4.71528,5.97281 -4.71528,11.67726 0,5.70446 1.91441,9.19326 4.71528,11.68286 2.80078,2.48962 6.77873,3.8735 10.84109,3.8735 4.06225,0 8.0402,-1.38388 10.84108,-3.8735 2.80076,-2.4896 4.71528,-5.9784 4.71528,-11.68286 0,-5.70445 -1.91452,-9.18765 -4.71528,-11.67726 -2.80088,-2.48961 -6.77883,-3.8791 -10.84108,-3.8791 z m -15.21505,39.39991 c 0.3126,0.1904 0.6307,0.36981 0.94988,0.54593 -0.31918,-0.17612 -0.63728,-0.35661 -0.94988,-0.54593 z m 2.09316,1.14326 c 0.32249,0.1596 0.64498,0.3203 0.97299,0.46669 -0.32801,-0.14639 -0.64939,-0.30709 -0.97299,-0.46669 z m 2.45714,1.06875 c 0.22123,0.088 0.43697,0.18273 0.6593,0.26197 -0.22233,-0.077 -0.43918,-0.17722 -0.6593,-0.26197 z m 2.79273,0.91576 c 0.29059,0.077 0.58336,0.142 0.87614,0.21024 -0.29167,-0.0661 -0.58555,-0.13209 -0.87614,-0.21024 z m 2.34907,0.52393 c 0.28177,0.055 0.56353,0.099 0.8475,0.14198 -0.28286,-0.044 -0.56573,-0.088 -0.8475,-0.14198 z m 2.46859,0.3412 c 0.23884,0.022 0.47769,0.055 0.71654,0.0771 -0.23996,-0.0221 -0.4777,-0.055 -0.71654,-0.0771 z m -40.50918,0.17061 c -8.66592,0 -15.55635,6.89054 -15.55635,15.55635 0,5.70447 1.91451,9.18765 4.71527,11.67726 2.8009,2.48962 6.77884,3.87911 10.84108,3.87911 4.06226,0 8.04031,-1.38949 10.84119,-3.87911 2.80077,-2.48961 4.71518,-5.97279 4.71518,-11.67726 v -15.55635 z" />
  </g>
</svg>
