<?xml version="1.0" encoding="UTF-8" standalone="no"?>
<!-- Created with Inkscape (http://www.inkscape.org/) -->

<svg
   width="190.5mm"
   height="190.5mm"
   viewBox="0 0 190.5 190.5"
   version="1.1"
   id="svg1"
   inkscape:version="1.4.2 (ebf0e94, 2025-05-08)"
   sodipodi:docname="3.svg"
   xmlns:inkscape="http://www.inkscape.org/namespaces/inkscape"
   xmlns:sodipodi="http://sodipodi.sourceforge.net/DTD/sodipodi-0.dtd"
   xmlns="http://www.w3.org/2000/svg"
   xmlns:svg="http://www.w3.org/2000/svg">
  <sodipodi:namedview
     id="namedview1"
     pagecolor="#505050"
     bordercolor="#eeeeee"
     borderopacity="1"
     inkscape:showpageshadow="0"
     inkscape:pageopacity="0"
     inkscape:pagecheckerboard="0"
     inkscape:deskcolor="#505050"
     inkscape:document-units="mm"
     inkscape:zoom="0.50709218"
     inkscape:cx="120.29371"
     inkscape:cy="267.2098"
     inkscape:window-width="1920"
     inkscape:window-height="1048"
     inkscape:window-x="0"
     inkscape:window-y="0"
     inkscape:window-maximized="1"
     inkscape:current-layer="layer1" />
  <defs
     id="defs1">
    <clipPath
       clipPathUnits="userSpaceOnUse"
       id="clipPath207">
      <rect
         style="opacity:1;fill:#ffffff;fill-rule:evenodd;stroke-width:1.99999;stroke-linecap:round;stroke-linejoin:round"
         id="rect207"
         width="162.65349"
         height="246.62869"
         x="-876.19897"
         y="4227.231"
         transform="rotate(-45)" />
    </clipPath>
    <clipPath
       clipPathUnits="userSpaceOnUse"
       id="clipPath206">
      <rect
         style="opacity:1;fill:#ffffff;fill-rule:evenodd;stroke-width:2;stroke-linecap:round;stroke-linejoin:round"
         id="rect206"
         width="39.206257"
         height="246.62869"
         x="-713.54547"
         y="4227.231"
         transform="rotate(-45)" />
    </clipPath>
    <clipPath
       clipPathUnits="userSpaceOnUse"
       id="clipPath3842">
      <rect
         style="opacity:1;fill:#73828c;fill-opacity:1;fill-rule:evenodd;stroke:none;stroke-width:0.25;stroke-linecap:square;stroke-linejoin:round;stroke-dasharray:none;stroke-opacity:1"
         id="rect3843"
         width="1253.2329"
         height="147.42061"
         x="2692.4861"
         y="3523.957" />
    </clipPath>
    <clipPath
       clipPathUnits="userSpaceOnUse"
       id="clipPath3842-3">
      <rect
         style="opacity:1;fill:#73828c;fill-opacity:1;fill-rule:evenodd;stroke:none;stroke-width:0.25;stroke-linecap:square;stroke-linejoin:round;stroke-dasharray:none;stroke-opacity:1"
         id="rect3843-6"
         width="1253.2329"
         height="147.42061"
         x="2692.4861"
         y="3523.957" />
    </clipPath>
  </defs>
  <g
     inkscape:label="Layer 1"
     inkscape:groupmode="layer"
     id="layer1"
     transform="translate(405.8385,28.039751)">
    <g
       id="g1"
       transform="matrix(0.62294999,0,0,0.62294999,-315.79198,45.664258)"
       style="stroke-width:1.60527">
      <g
         id="g4013"
         transform="translate(458.65018,-12197.661)"
         style="stroke-width:1.60527">
        <rect
           style="fill:#f2f2f2;fill-opacity:1;stroke:none;stroke-width:0.149796;stroke-miterlimit:10"
           id="rect24065"
           width="305.80304"
           height="144.16409"
           x="-603.19873"
           y="-12304.33"
           inkscape:export-filename="reacawast4.png"
           inkscape:export-xdpi="300"
           inkscape:export-ydpi="300"
           transform="scale(1,-1)" />
        <g
           id="g3973"
           transform="translate(-431.74791,150.22561)"
           style="stroke-width:1.60527">
          <g
             id="g3953"
             transform="matrix(0.29251218,0,0,0.29251218,-972.4484,11534.305)"
             style="stroke-width:5.48786">
            <path
               id="path3946"
               style="font-size:129.545px;line-height:1.25;font-family:'Helvetica Black';-inkscape-font-specification:'Helvetica Black, ';text-align:justify;letter-spacing:0px;fill:#003c66;fill-opacity:1;stroke-width:1.45199"
               d="m 3038.3643,1647.0512 c -14.5678,0 -25.2506,6.2315 -25.2506,18.6139 0,22.2563 33.5059,16.1867 33.5059,25.0083 0,2.7517 -3.1563,4.2891 -7.9313,4.2891 -1.8614,0 -3.8852,-0.4854 -5.4229,-1.4567 -1.6186,-0.9711 -2.7517,-2.5085 -3.1564,-4.6127 h -18.2903 c 0.4047,10.5212 10.44,19.5043 25.817,19.5043 16.0245,0 27.2743,-6.5556 27.2743,-20.0712 0,-21.2041 -33.506,-15.7819 -33.506,-24.5225 0,-2.1043 1.862,-3.3181 6.0705,-3.3181 1.8614,0 3.5602,0.3237 4.9361,1.0521 1.3758,0.7284 2.4286,1.9429 2.7523,3.9662 h 18.1286 c -1.3759,-10.1973 -8.7409,-18.4527 -24.9272,-18.4527 z m -169.7178,1.5374 v 15.2962 h 17.1576 v 42.9747 h 19.1001 v -42.9747 h 17.1571 v -15.2962 z m 71.531,0 v 58.2709 h 48.64 v -13.5961 h -29.5398 v -9.1457 h 24.0367 v -13.5966 h -24.0367 v -8.3359 h 28.407 v -13.5966 z m -11.9858,47.3599 a 6.3578238,6.2244186 0 0 0 -6.3583,6.2244 6.3578238,6.2244186 0 0 0 6.3583,6.2245 6.3578238,6.2244186 0 0 0 6.3578,-6.2245 6.3578238,6.2244186 0 0 0 -6.3578,-6.2244 z m 74.3702,0 a 6.3578238,6.2244186 0 0 0 -6.3578,6.2244 6.3578238,6.2244186 0 0 0 6.3578,6.2245 6.3578238,6.2244186 0 0 0 6.3577,-6.2245 6.3578238,6.2244186 0 0 0 -6.3577,-6.2244 z" />
            <g
               id="g3952"
               transform="translate(687.33302,6.5585937e-5)"
               style="stroke-width:5.48786">
              <path
                 id="path3947"
                 style="color:#000000;fill:#003c66;fill-opacity:1;fill-rule:evenodd;stroke-width:5.48784;-inkscape-stroke:none"
                 d="m 2101.2466,1652.0503 v 25.6741 h 3.764 v -21.9103 h 43.8204 v 43.8212 h -21.9103 v 3.7631 h 25.6742 v -51.3481 z" />
              <path
                 style="color:#000000;fill:#003c66;fill-opacity:1;fill-rule:evenodd;stroke-width:5.48784;-inkscape-stroke:none"
                 d="m 2066.2456,1669.2974 v 16.8542 h 52.248 v 52.2479 h 16.8542 v -69.1021 z"
                 id="path3948" />
              <path
                 style="fill:#e79c19;fill-opacity:1;fill-rule:evenodd;stroke:none;stroke-width:1.37196;stroke-dasharray:none"
                 d="m 2088.1562,1638.9599 v 9.8296 20.5077 h 9.8297 v -20.5077 h 57.8697 v 57.8697 h -20.5077 v 9.8298 h 20.5077 9.8297 v -9.8298 -67.6993 z"
                 id="path3949" />
              <g
                 id="g3951"
                 style="stroke-width:5.48786">
                <ellipse
                   style="fill:#e79c19;fill-opacity:1;fill-rule:evenodd;stroke-width:2.74393;stroke-linecap:square"
                   id="ellipse3949"
                   cx="2387.9199"
                   cy="1653.2756"
                   rx="6.3578238"
                   ry="6.2244186" />
                <text
                   xml:space="preserve"
                   style="font-size:8.4872px;line-height:1.25;font-family:Poppins;-inkscape-font-specification:'Poppins, Normal';text-align:justify;letter-spacing:0px;fill:#ffffff;stroke-width:1.45199"
                   x="2384.8521"
                   y="1656.3311"
                   id="text3949"><tspan
                     sodipodi:role="line"
                     id="tspan3949"
                     style="font-style:normal;font-variant:normal;font-weight:normal;font-stretch:normal;font-family:Helvetica;-inkscape-font-specification:Helvetica;fill:#ffffff;stroke-width:1.45199"
                     x="2384.8521"
                     y="1656.3311">R</tspan></text>
                <path
                   id="path3951"
                   style="font-size:16.5195px;line-height:1.25;font-family:Helvetica;-inkscape-font-specification:Helvetica;text-align:justify;letter-spacing:0px;fill:#003c66;fill-opacity:1;stroke-width:1.45199"
                   d="m 2339.9631,1722.5898 c -2.8744,0 -4.0804,1.8173 -4.0804,3.6675 0,2.0648 1.7511,2.6098 2.5275,2.7915 l 2.4283,0.5617 c 1.9493,0.4625 2.5275,0.8592 2.5275,2.0981 0,1.7015 -1.9495,1.9988 -3.1058,1.9988 -1.5198,0 -3.2706,-0.628 -3.2706,-2.7755 h -1.5033 c 0,1.1068 0.198,2.0985 1.2056,3.0071 0.5287,0.479 1.3877,1.1394 3.5848,1.1394 2.0319,0 4.6421,-0.7765 4.6421,-3.5848 0,-1.8832 -1.1565,-2.8079 -2.6928,-3.1714 l -3.3864,-0.7767 c -0.6938,-0.1652 -1.404,-0.4955 -1.404,-1.5032 0,-1.8006 1.7011,-2.0815 2.7088,-2.0815 1.3381,0 2.8584,0.5781 2.941,2.4117 h 1.5032 c -0.066,-1.305 -0.4791,-3.7827 -4.6255,-3.7827 z m -117.9825,0.1493 c -1.4207,0 -2.2464,0.5945 -2.2464,1.8996 v 1.4868 h -1.1896 v 1.2061 h 1.1896 v 7.4337 h 1.4537 v -7.4337 h 1.4536 v -1.2061 h -1.4536 v -1.0739 c 0,-0.6938 0.231,-1.0077 0.8588,-1.0077 0.1817,0 0.413,0.016 0.5948,0.033 v -1.3048 c -0.2313,-0.016 -0.4462,-0.033 -0.6609,-0.033 z m 148.2628,0.1638 v 1.6521 h 1.4536 v -1.6521 z m -61.0893,6e-4 v 1.652 h 1.4536 v -1.652 z m -163.9063,5e-4 v 1.4206 h 4.0142 v 10.4407 h 1.6025 v -10.4407 h 4.0143 v -1.4206 z m 26.3979,0 v 11.8613 h 1.4536 v -4.7083 c 0,-2.1806 1.2224,-2.8742 2.4118,-2.8742 1.3877,0 1.7182,0.7598 1.7182,1.9327 v 5.6498 h 1.4537 v -5.8813 c 0,-2.4614 -1.685,-3.0066 -3.0231,-3.0066 -1.3876,0 -2.1145,0.8595 -2.5275,1.4046 h -0.033 v -4.378 z m 18.403,0 v 1.6521 h 1.4537 v -1.6521 z m 21.1119,0 v 11.8613 h 1.4536 v -11.8613 z m 31.9484,0 v 11.8613 h 8.7556 v -1.4206 h -7.1531 v -3.9646 h 6.4921 v -1.4211 h -6.4921 v -3.6344 h 7.0373 v -1.4206 z m 29.0742,0 v 1.6521 h 1.4537 v -1.6521 z m 87.8014,2.9724 c -1.0903,0 -1.8502,0.6769 -2.4283,1.6846 h -0.033 v -1.4371 h -1.3709 v 8.6398 h 1.4536 v -5.0214 c 0,-1.2555 0.8587,-2.313 2.2133,-2.313 h 0.5452 v -1.5033 c -0.1157,-0.033 -0.1981,-0.05 -0.3798,-0.05 z m 17.4609,0 c -2.8579,0 -4.146,2.1314 -4.146,4.8075 0,2.4945 1.4371,4.3279 3.8654,4.3279 2.5275,0 3.37,-1.9326 3.5187,-3.3037 h -1.4041 c -0.2478,1.3216 -1.0904,2.0484 -2.065,2.0484 -1.9989,0 -2.3626,-1.8339 -2.3626,-3.3207 0,-1.5363 0.5786,-3.2541 2.3792,-3.2541 1.2224,0 1.8667,0.6937 2.0484,1.8501 h 1.4041 c -0.1157,-1.5033 -0.975,-3.1554 -3.2381,-3.1554 z m 8.4254,0 c -2.8579,0 -4.1466,2.1314 -4.1466,4.8075 0,2.4945 1.437,4.3279 3.8654,4.3279 1.3876,0 1.9492,-0.3305 2.3456,-0.5948 1.0903,-0.7268 1.4868,-1.9492 1.5364,-2.3622 h -1.4537 c -0.049,0.6443 -0.8587,1.7017 -2.2298,1.7017 -1.6685,0 -2.511,-1.0411 -2.511,-2.8417 h 6.3102 c 0,-3.056 -1.222,-5.0384 -3.7165,-5.0384 z m 8.4578,0 c -1.7015,0 -3.2711,0.8593 -3.2711,2.759 0,1.1894 0.793,1.8007 1.9989,2.0981 l 1.6851,0.4129 c 1.2389,0.3138 1.7178,0.5448 1.7178,1.2386 0,0.9582 -0.9417,1.3715 -1.9824,1.3715 -2.0485,0 -2.2464,-1.0905 -2.2959,-1.7678 h -1.4041 c 0.05,1.0407 0.2971,3.0231 3.7166,3.0231 1.9493,0 3.4199,-1.0737 3.4199,-2.8578 0,-1.1728 -0.6276,-1.8334 -2.4282,-2.2794 l -1.4542,-0.3638 c -1.1233,-0.2808 -1.5694,-0.4457 -1.5694,-1.156 0,-1.0738 1.2722,-1.2227 1.7182,-1.2227 1.8337,0 2.032,0.9086 2.0485,1.4537 h 1.404 c 0,-0.4295 -0.2146,-2.7094 -3.3037,-2.7094 z m -86.9259,5e-4 c -1.0903,0 -1.8501,0.677 -2.4283,1.6847 h -0.033 v -1.4372 h -1.371 v 8.6398 h 1.4537 v -5.0214 c 0,-1.2555 0.8592,-2.313 2.2138,-2.313 h 0.5452 v -1.5033 c -0.1156,-0.033 -0.1986,-0.05 -0.3803,-0.05 z m 9.3999,0 c -1.4868,0 -2.2963,1.0081 -2.6102,1.4707 h -0.033 v -1.2226 h -1.371 v 8.6397 h 1.4536 v -4.7082 c 0,-2.3458 1.4536,-2.8742 2.2795,-2.8742 1.4207,0 1.8505,0.7596 1.8505,2.2629 v 5.3195 h 1.4537 v -5.8813 c 0,-2.4613 -1.685,-3.0065 -3.0231,-3.0065 z m 8.3587,0 c -2.2962,0 -3.6014,1.8836 -3.6014,4.3119 0,2.065 0.8593,4.8235 3.7998,4.8235 1.1563,0 1.916,-0.5448 2.296,-1.156 v -0.066 h 0.033 v 0.3633 c 0,1.0242 0.05,3.0396 -2.4614,3.0396 -0.3469,0 -1.6849,10e-5 -1.9492,-1.371 h -1.4537 c 0.2808,2.2962 2.2795,2.5771 3.3037,2.5771 3.9977,0 4.0142,-3.1059 4.0142,-4.3449 v -7.9292 h -1.3709 v 1.2226 h -0.033 c -0.3469,-0.4956 -1.0077,-1.4707 -2.5771,-1.4707 z m 25.3411,0 c -2.8578,0 -4.1465,2.1314 -4.1465,4.8075 0,2.4945 1.4371,4.3279 3.8653,4.3279 1.3877,0 1.9497,-0.3305 2.3462,-0.5948 1.0903,-0.7268 1.4867,-1.9492 1.5363,-2.3622 h -1.4537 c -0.05,0.6443 -0.8592,1.7018 -2.2303,1.7018 -1.6685,0 -2.511,-1.0411 -2.511,-2.8417 h 6.3102 c 0,-3.0561 -1.222,-5.0385 -3.7165,-5.0385 z m -192.5681,5e-4 c -2.8579,0 -4.146,2.1314 -4.146,4.8075 0,2.4945 1.437,4.3279 3.8654,4.3279 1.3876,0 1.9492,-0.3305 2.3456,-0.5948 1.0903,-0.7268 1.4868,-1.9491 1.5363,-2.3621 h -1.4536 c -0.05,0.6443 -0.8588,1.7017 -2.2299,1.7017 -1.6685,0 -2.5109,-1.0411 -2.5109,-2.8417 h 6.3102 c 0,-3.0561 -1.2227,-5.0385 -3.7171,-5.0385 z m 9.0196,0 c -2.8578,0 -4.146,2.1314 -4.146,4.8075 0,2.4945 1.437,4.3279 3.8654,4.3279 2.5275,0 3.3699,-1.9326 3.5186,-3.3037 h -1.404 c -0.2478,1.3216 -1.0904,2.0485 -2.065,2.0485 -1.9989,0 -2.3621,-1.834 -2.3621,-3.3208 0,-1.5363 0.578,-3.254 2.3786,-3.254 1.2224,0 1.8668,0.6936 2.0485,1.85 h 1.404 c -0.1157,-1.5033 -0.9748,-3.1554 -3.238,-3.1554 z m 17.8909,0 c -1.4868,0 -2.2964,1.0081 -2.6102,1.4707 h -0.033 v -1.2226 h -1.3709 v 8.6398 h 1.4536 v -4.7083 c 0,-2.3458 1.454,-2.8742 2.28,-2.8742 1.4207,0 1.85,0.7596 1.85,2.2629 v 5.3196 h 1.4537 v -5.8813 c 0,-2.4614 -1.6851,-3.0066 -3.0231,-3.0066 z m 12.4059,0 c -2.8579,0 -4.146,2.1314 -4.146,4.8075 0,2.4945 1.437,4.3279 3.8654,4.3279 2.5274,0 3.37,-1.9326 3.5187,-3.3037 h -1.4041 c -0.2478,1.3216 -1.0903,2.0485 -2.065,2.0485 -1.9988,0 -2.3626,-1.834 -2.3626,-3.3208 0,-1.5363 0.5786,-3.254 2.3792,-3.254 1.2225,0 1.8666,0.6936 2.0484,1.85 h 1.4041 c -0.1156,-1.5033 -0.9749,-3.1554 -3.2381,-3.1554 z m 8.2104,0 c -2.131,0 -3.5022,0.8094 -3.5683,2.8743 l 1.3385,5e-4 c 0.099,-0.6607 0.3297,-1.6686 1.9817,-1.6686 1.3711,0 2.032,0.4955 2.032,1.404 0,0.859 -0.4128,0.9912 -0.7597,1.0242 l -2.3952,0.2977 c -2.4119,0.2973 -2.6267,1.982 -2.6267,2.7089 0,1.4867 1.1235,2.4944 2.7094,2.4944 1.685,0 2.5601,-0.7929 3.1218,-1.4041 0.05,0.6608 0.2477,1.3214 1.5363,1.3214 0.3304,0 0.5454,-0.099 0.7932,-0.1648 v -1.0573 c -0.1652,0.033 -0.3468,0.066 -0.479,0.066 -0.2973,0 -0.479,-0.1487 -0.479,-0.5121 v -4.9728 c 0,-2.2136 -2.5112,-2.4118 -3.205,-2.4118 z m 21.5413,0 c -2.7588,0 -4.0142,2.3293 -4.0142,4.5594 0,2.2302 1.2554,4.5595 4.0142,4.5595 2.7588,0 4.0142,-2.3293 4.0142,-4.5595 0,-2.2301 -1.2554,-4.5594 -4.0142,-4.5594 z m 9.6971,0 c -1.0902,0 -1.8501,0.677 -2.4283,1.6847 h -0.033 v -1.4371 h -1.3709 v 8.6397 h 1.4536 v -5.0214 c 0,-1.2555 0.8587,-2.313 2.2133,-2.313 h 0.5452 v -1.5033 c -0.1156,-0.033 -0.198,-0.05 -0.3798,-0.05 z m 21.0953,0 c -1.4866,0 -2.2963,1.0081 -2.6101,1.4707 h -0.033 v -1.2226 h -1.371 v 8.6398 h 1.4537 v -4.7083 c 0,-2.3458 1.4539,-2.8742 2.2799,-2.8742 1.4207,0 1.8501,0.7596 1.8501,2.2629 v 5.3196 h 1.4536 v -5.8813 c 0,-2.4614 -1.685,-3.0066 -3.0231,-3.0066 z m 8.3587,0 c -2.2962,0 -3.6008,1.8836 -3.6008,4.3119 0,2.065 0.8589,4.8235 3.7992,4.8235 1.1564,0 1.9166,-0.5448 2.2966,-1.156 v -0.066 h 0.032 v 0.3633 c 0,1.0242 0.05,3.0396 -2.4613,3.0396 -0.3469,0 -1.685,2e-4 -1.9493,-1.3709 h -1.4536 c 0.2808,2.2962 2.28,2.5771 3.3042,2.5771 3.9977,0 4.0137,-3.106 4.0137,-4.345 v -7.9292 h -1.371 v 1.2226 h -0.033 c -0.347,-0.4956 -1.0077,-1.4707 -2.5771,-1.4707 z m 13.6782,0 c -1.4867,0 -2.2963,1.0081 -2.6101,1.4707 h -0.033 v -1.2226 h -1.3715 v 8.6398 h 1.4537 v -4.7083 c 0,-2.3458 1.4539,-2.8742 2.2799,-2.8742 1.4207,0 1.8501,0.7596 1.8501,2.2629 v 5.3196 h 1.4536 v -5.8813 c 0,-2.4614 -1.685,-3.0066 -3.0231,-3.0066 z m 8.9044,0 c -2.8579,0 -4.1465,2.1314 -4.1465,4.8075 0,2.4945 1.4371,4.3279 3.8654,4.3279 1.3877,0 1.9491,-0.3305 2.3456,-0.5948 1.0903,-0.7268 1.4868,-1.9491 1.5363,-2.3621 h -1.4536 c -0.05,0.6443 -0.8588,1.7017 -2.2299,1.7017 -1.6685,0 -2.5109,-1.0411 -2.5109,-2.8417 h 6.3102 c 0,-3.0561 -1.2222,-5.0385 -3.7166,-5.0385 z m 9.1845,0 c -2.8579,0 -4.1466,2.1314 -4.1466,4.8075 0,2.4945 1.4376,4.3279 3.866,4.3279 1.3876,0 1.9492,-0.3305 2.3456,-0.5948 1.0903,-0.7268 1.4868,-1.9491 1.5363,-2.3621 h -1.4537 c -0.05,0.6443 -0.8592,1.7017 -2.2303,1.7017 -1.6685,0 -2.511,-1.0411 -2.511,-2.8417 h 6.3108 c 0,-3.0561 -1.2227,-5.0385 -3.7171,-5.0385 z m 63.0881,0.247 3.1554,8.6398 h 1.5528 l 3.2872,-8.6398 h -1.586 l -2.4448,7.0373 h -0.033 l -2.2468,-7.0373 z m 9.2346,0 v 8.6398 h 1.4536 v -8.6398 z m -61.0893,6e-4 v 8.6397 h 1.4536 v -8.6397 z m -119.1054,5e-4 v 8.6398 h 1.4537 v -8.6398 z m 82.1345,0 v 8.6398 h 1.4537 v -8.6398 z m -45.1807,1.0077 c 2.0815,0 2.511,2.1473 2.511,3.3036 0,1.1564 -0.4295,3.3042 -2.511,3.3042 -2.0815,0 -2.5109,-2.1478 -2.5109,-3.3042 0,-1.1563 0.4294,-3.3036 2.5109,-3.3036 z m 158.6699,0.049 c 1.7676,0 2.3292,1.239 2.4118,2.5771 h -4.807 c 0,-1.3381 1.0571,-2.5771 2.3952,-2.5771 z m -60.2464,6e-4 c 2.0979,0 2.329,2.2633 2.329,3.6674 0,2.2962 -1.437,2.9074 -2.3621,2.9074 -1.5859,0 -2.3296,-1.4375 -2.3296,-3.3373 0,-1.1068 0.116,-3.2375 2.3627,-3.2375 z m 24.878,0 c 1.7676,0 2.3292,1.239 2.4118,2.5771 h -4.807 c 0,-1.3381 1.0571,-2.5771 2.3952,-2.5771 z m -192.5675,5e-4 c 1.7675,0 2.3291,1.239 2.4117,2.5771 h -4.8069 c 0,-1.3381 1.0571,-2.5771 2.3952,-2.5771 z m 108.6817,0 c 2.098,0 2.3291,2.2634 2.3291,3.6675 0,2.2962 -1.4371,2.9073 -2.3622,2.9073 -1.5859,0 -2.3296,-1.4375 -2.3296,-3.3373 0,-1.1068 0.1161,-3.2375 2.3627,-3.2375 z m 22.1196,0 c 1.7676,0 2.3291,1.239 2.4117,2.5771 h -4.8069 c 0,-1.3381 1.0571,-2.5771 2.3952,-2.5771 z m 9.1849,0 c 1.7675,0 2.3292,1.239 2.4118,2.5771 h -4.8075 c 0,-1.3381 1.0576,-2.5771 2.3957,-2.5771 z m -90.5102,3.1714 v 1.4211 c 0,1.1564 -1.3217,2.0319 -2.6763,2.0319 -1.0903,0 -1.5694,-0.5617 -1.5694,-1.5033 0,-1.0903 1.1397,-1.3055 1.85,-1.4046 1.8007,-0.2313 2.1644,-0.3634 2.3957,-0.5451 z" />
              </g>
            </g>
          </g>
          <g
             id="g3972"
             transform="matrix(1.9412862,0,0,1.9412862,157.92455,-12286.89)"
             style="stroke-width:0.826907">
            <g
               id="g3960"
               transform="matrix(0.72275435,0,0,0.7229636,-0.9735492,3953.7345)"
               style="stroke-width:1.14394">
              <g
                 id="g3959"
                 transform="matrix(1.8809842,0,0,1.8809842,148.6708,11671.539)"
                 style="stroke-width:0.608161">
                <text
                   xml:space="preserve"
                   style="font-weight:bold;font-size:1.94028px;line-height:1.5;font-family:Alexandria;-inkscape-font-specification:'Alexandria Bold';fill:#003c66;fill-opacity:1;stroke-width:0.304081;stroke-linecap:round"
                   x="-141.65704"
                   y="140.05418"
                   id="text3954"><tspan
                     sodipodi:role="line"
                     style="font-style:normal;font-variant:normal;font-weight:normal;font-stretch:normal;font-size:1.94028px;line-height:1.5;font-family:Helvetica;-inkscape-font-specification:Helvetica;direction:ltr;fill:#003c66;fill-opacity:1;stroke-width:0.304081"
                     x="-141.65704"
                     y="140.05418"
                     id="tspan3953">+20 12 345 678 9</tspan><tspan
                     sodipodi:role="line"
                     style="font-style:normal;font-variant:normal;font-weight:normal;font-stretch:normal;font-size:1.94028px;line-height:1.5;font-family:Helvetica;-inkscape-font-specification:Helvetica;direction:ltr;fill:#003c66;fill-opacity:1;stroke-width:0.304081"
                     x="-141.65704"
                     y="142.9993"
                     id="tspan3954">info@technical4eng.com</tspan></text>
                <text
                   xml:space="preserve"
                   style="font-weight:bold;font-size:1.94028px;line-height:1.5;font-family:Alexandria;-inkscape-font-specification:'Alexandria Bold';fill:#003c66;fill-opacity:1;stroke-width:0.304081;stroke-linecap:round"
                   x="-117.19982"
                   y="140.08717"
                   id="text3956"><tspan
                     sodipodi:role="line"
                     style="font-style:normal;font-variant:normal;font-weight:normal;font-stretch:normal;font-size:1.94028px;line-height:1.5;font-family:Helvetica;-inkscape-font-specification:Helvetica;direction:ltr;fill:#003c66;fill-opacity:1;stroke-width:0.304081"
                     x="-117.19982"
                     y="140.08717"
                     id="tspan3955">1B18/33 second industrial zone - </tspan><tspan
                     sodipodi:role="line"
                     style="font-style:normal;font-variant:normal;font-weight:normal;font-stretch:normal;font-size:1.94028px;line-height:1.5;font-family:Helvetica;-inkscape-font-specification:Helvetica;direction:ltr;fill:#003c66;fill-opacity:1;stroke-width:0.304081"
                     x="-117.19982"
                     y="143.03229"
                     id="tspan3956">New Borg Alarab / Alexandria</tspan></text>
                <g
                   style="fill:#e67f19;fill-opacity:1;stroke-width:2.32312"
                   id="g3956"
                   transform="matrix(0.0017316,0,0,0.0017316,-118.96182,140.92435)">
                  <path
                     d="m 480,-892.38265 q 33,0 56.5,-23.5 23.5,-23.5 23.5,-56.5 0,-32.99995 -23.5,-56.49995 -23.5,-23.5 -56.5,-23.5 -33,0 -56.5,23.5 -23.5,23.5 -23.5,56.49995 0,33 23.5,56.5 23.5,23.5 56.5,23.5 z m 0,294 q 122,-112 181,-203.5 59,-91.5 59,-162.5 0,-108.99995 -69.5,-178.49995 -69.5,-69.5 -170.5,-69.5 -101,0 -170.5,69.5 -69.5,69.5 -69.5,178.49995 0,71 59,162.5 59,91.5 181,203.5 z m 0,106 q -161,-137 -240.5,-254.5 -79.5,-117.5 -79.5,-217.5 0,-149.99995 96.5,-238.99995 96.5,-89 223.5,-89 127,0 223.5,89 96.5,89 96.5,238.99995 0,100 -79.5,217.5 -79.5,117.5 -240.5,254.5 z m 0,-480 z"
                     id="path3956"
                     style="fill:#e67f19;fill-opacity:1;stroke-width:2.32312" />
                </g>
                <g
                   style="fill:#e67f19;fill-opacity:1;stroke-width:2.3356"
                   id="g3957"
                   transform="matrix(0.00172234,0,0,0.00172234,-143.91407,143.90521)">
                  <path
                     d="m 160,-574.59979 q -33,0 -56.5,-23.5 -23.5,-23.5 -23.5,-56.5 v -480.00001 q 0,-33 23.5,-56.5 23.5,-23.5 56.5,-23.5 h 640 q 33,0 56.5,23.5 23.5,23.5 23.5,56.5 v 480.00001 q 0,33 -23.5,56.5 -23.5,23.5 -56.5,23.5 z m 320,-280 -320,-200.00001 v 400.00001 h 640 v -400.00001 z m 0,-80 320,-200.00001 H 160 Z M 160,-1054.5998 v -80 480.00001 z"
                     id="path3957"
                     style="fill:#e67f19;fill-opacity:1;stroke-width:2.3356" />
                </g>
                <g
                   style="fill:#e67f19;fill-opacity:1;stroke-width:2.10206"
                   id="g3958"
                   transform="matrix(0.00191371,0,0,0.00191371,-144.00593,141.01176)">
                  <path
                     d="m 798,-493.14002 q -125,0 -247,-54.5 -122,-54.5 -222,-154.5 -100,-100 -154.5,-222 Q 120,-1046.14 120,-1171.14 q 0,-18 12,-30 12,-12 30,-12 h 162 q 14,0 25,9.5 11,9.5 13,22.5 l 26,140 q 2,16 -1,27 -3,11 -11,18.99998 l -97,98 q 20,37 47.5,71.5 27.5,34.5 60.5,66.5 31,31 65,57.5 34,26.5 72,48.5 l 94,-94 q 9,-9 23.5,-13.5 14.5,-4.5 28.5,-2.5 l 138,28 q 14,4 23,14.5 9,10.5 9,23.5 v 162 q 0,18 -12,30 -12,12 -30,12 z m -557,-480 66,-65.99998 -17,-94 h -89 q 5,41 14,81 9,40 26,78.99998 z m 358,358 q 39,17 79.5,27 40.5,10 81.5,13 v -88 l -94,-19 z m -358,-358 z m 358,358 z"
                     id="path3958"
                     style="fill:#e67f19;fill-opacity:1;stroke-width:2.10206" />
                </g>
              </g>
            </g>
            <g
               id="g3971"
               transform="matrix(0.06106789,0,0,0.06106789,-331.79681,12363.953)"
               style="fill:#73828c;fill-opacity:1;stroke-width:13.5409"
               clip-path="url(#clipPath3842-3)">
              <path
                 id="path3960"
                 style="color:#000000;fill:#73828c;fill-opacity:1;fill-rule:evenodd;stroke-width:13.5408;-inkscape-stroke:none"
                 d="m 2117.5208,3279.1185 v 77.5292 h 77.5291 v -9.8294 -20.5078 -13.4829 h 43.8201 v 43.8211 h -13.4829 -30.3372 v 77.5291 h 77.5292 v -9.8294 -20.5078 -13.4829 h 43.82 v 43.8211 h -13.4829 v -5e-4 h -30.3371 v 77.5286 h 77.5291 v -9.8293 -20.5078 -13.4829 h 43.82 v 43.8211 h -13.4829 -30.3371 v 77.5291 h 77.5291 v -9.8294 -20.5078 -13.4829 h 43.8201 v 43.8211 h -13.4829 v 0 h -30.3372 v 77.5291 h 77.5291 v -9.8294 -20.5078 -13.4829 h 43.8201 v 43.8211 h -13.4829 -30.3372 v 77.5291 h 77.5291 v -9.8293 -20.5078 -13.4829 h 43.8201 v 43.8211 h -13.4829 v -5e-4 h -30.3372 v 77.5291 h 77.5291 v -9.8294 -20.5078 -13.4829 h 43.8201 v 43.8211 h -13.4829 -30.3372 v 77.5291 h 77.5292 v -9.8293 -20.5078 -13.4829 h 43.82 v 43.8211 h -13.4829 v 3.763 h 17.247 v -51.3482 h -51.3482 v 17.247 26.5735 h -70.0015 v -70.0014 h 26.5736 v 0 h 17.247 v -51.3483 h -51.3483 v 17.247 26.5736 h -70.0014 v -70.0014 h 26.5736 v -5e-4 h 17.247 v -51.3483 h -51.3483 v 17.247 26.5736 H 2508.93 v -70.0015 h 26.5736 v 0 h 17.247 v -51.3483 h -51.3483 v 17.247 26.5736 h -70.0014 v -70.0014 h 26.5736 17.247 v -51.3483 h -51.3483 v 17.247 26.5736 h -70.0014 v -70.0014 h 26.5735 v 0 h 17.2471 v -51.3482 h -51.3483 v 17.247 26.5735 h -70.0014 v -70.0009 h 26.5735 v -5e-4 h 17.247 v -51.3483 h -51.3483 v 17.247 26.5736 h -70.0014 v -70.0014 h 26.5736 v 0 h 17.247 v -51.3483 h -51.3483 v 17.247 26.5736 h -70.0014 v -70.0014 h 26.5736 v -3.7642 z m 7.0244,7.0249 v 63.4799 h 63.4798 v -23.3128 -20.5078 h 57.8699 v 57.8699 h -20.5078 v 0 h -23.3128 v 63.4798 h 63.4799 v -23.3128 -20.5078 h 57.8698 v 57.8694 h -20.5078 v 5e-4 h -23.3128 v 63.4798 h 63.4799 v -23.3127 -20.5078 h 57.8698 v 57.8698 h -20.5078 v 0 h -23.3127 v 63.4798 h 63.4798 v -23.3128 -20.5078 h 57.8699 v 57.8699 h -20.5078 -23.3128 v 63.4798 h 63.4798 v -23.3128 -20.5078 h 57.8699 v 57.8699 h -20.5078 v 0 h -23.3128 v 63.4799 h 63.4798 v -23.3128 -20.5078 h 57.8699 v 57.8698 h -20.5078 v 6e-4 h -23.3128 v 63.4798 h 63.4799 v -23.3128 -20.5078 h 57.8698 v 57.8699 h -20.5078 v 0 h -23.3128 v 63.4799 h 63.4799 v -23.3128 -20.5078 h 57.8698 v 57.8698 h -20.5078 v 9.8299 h 20.5078 9.8294 v -9.8299 -67.6992 h -77.5291 v 9.8294 20.5078 13.4829 h -43.8201 v -43.8211 h 13.4829 20.5078 9.8294 v -9.8299 -67.6993 h -77.5291 v 9.8294 20.5078 13.4829 h -43.8201 v -43.8211 h 13.4829 v 5e-4 h 20.5078 9.8294 v -9.8299 -67.6992 h -77.5292 v 9.8294 20.5078 13.4829 h -43.82 v -43.8211 h 13.4829 20.5078 9.8293 v -9.8299 -67.6992 h -77.5291 v 9.8293 20.5078 13.4829 h -43.82 v -43.8211 h 13.4829 v 0 h 20.5078 9.8293 v -9.8299 -67.6993 h -77.5291 v 9.8294 20.5078 13.4829 h -43.8201 v -43.8211 h 13.4829 20.5078 9.8294 v -9.8299 -67.6992 h -77.5291 v 9.8294 20.5078 13.4829 h -43.8201 v -43.8211 h 13.4829 v 5e-4 h 20.5078 9.8294 v -9.8299 -67.6992 h -77.5291 v 9.8298 20.5078 13.4829 h -43.8201 v -43.8211 h 13.4829 20.5078 9.8294 v -9.8298 -67.6993 h -77.5291 v 9.8294 20.5078 13.4829 h -43.8201 v -43.8211 h 13.4829 v -9.8289 z" />
              <path
                 id="path3961"
                 style="color:#000000;fill:#73828c;fill-opacity:1;fill-rule:evenodd;stroke-width:13.5408;-inkscape-stroke:none"
                 d="m 2272.1327,3279.1185 v 77.5292 h 77.5291 v -9.8294 -20.5078 -13.4829 h 43.8201 v 43.8211 h -13.4829 -30.3372 v 77.5291 h 77.5292 v -9.8294 -20.5078 -13.4829 h 43.82 v 43.8211 h -13.4829 v -5e-4 h -30.3371 v 77.5286 h 77.5291 v -9.8293 -20.5078 -13.4829 h 43.82 v 43.8211 h -13.4829 -30.3371 v 77.5291 h 77.5291 v -9.8294 -20.5078 -13.4829 h 43.8201 v 43.8211 h -13.4829 v 0 h -30.3372 v 77.5291 h 77.5291 v -9.8294 -20.5078 -13.4829 h 43.8201 v 43.8211 h -13.4829 -30.3372 v 77.5291 h 77.5291 v -9.8293 -20.5078 -13.4829 h 43.8201 v 43.8211 h -13.4829 v -5e-4 h -30.3372 v 77.5291 h 77.5291 v -9.8294 -20.5078 -13.4829 h 43.8201 v 43.8211 h -13.4829 -30.3372 v 77.5291 h 77.5292 v -9.8293 -20.5078 -13.4829 h 43.82 v 43.8211 h -13.4829 v 3.763 h 17.247 v -51.3482 h -51.3482 v 17.247 26.5735 h -70.0015 v -70.0014 h 26.5736 v 0 h 17.247 v -51.3483 h -51.3483 v 17.247 26.5736 h -70.0014 v -70.0014 h 26.5736 v -5e-4 h 17.247 v -51.3483 h -51.3483 v 17.247 26.5736 h -70.0014 v -70.0015 h 26.5736 v 0 h 17.247 v -51.3483 h -51.3483 v 17.247 26.5736 h -70.0014 v -70.0014 h 26.5736 17.247 v -51.3483 h -51.3483 v 17.247 26.5736 h -70.0014 v -70.0014 h 26.5735 v 0 h 17.2471 v -51.3482 h -51.3483 v 17.247 26.5735 h -70.0014 v -70.0009 h 26.5735 v -5e-4 h 17.247 v -51.3483 h -51.3483 v 17.247 26.5736 h -70.0014 v -70.0014 h 26.5736 v 0 h 17.247 v -51.3483 h -51.3483 v 17.247 26.5736 h -70.0014 v -70.0014 h 26.5736 v -3.7642 z m 7.0244,7.0249 v 63.4799 h 63.4798 v -23.3128 -20.5078 h 57.8699 v 57.8699 h -20.5078 v 0 h -23.3128 v 63.4798 h 63.4799 v -23.3128 -20.5078 h 57.8698 v 57.8694 h -20.5078 v 5e-4 h -23.3128 v 63.4798 h 63.4799 v -23.3127 -20.5078 h 57.8698 v 57.8698 h -20.5078 v 0 h -23.3127 v 63.4798 h 63.4798 v -23.3128 -20.5078 h 57.8699 v 57.8699 h -20.5078 -23.3128 v 63.4798 h 63.4798 v -23.3128 -20.5078 h 57.8699 v 57.8699 h -20.5078 v 0 h -23.3128 v 63.4799 h 63.4798 v -23.3128 -20.5078 h 57.8699 v 57.8698 h -20.5078 v 6e-4 h -23.3128 v 63.4798 h 63.4799 v -23.3128 -20.5078 h 57.8698 v 57.8699 h -20.5078 v 0 h -23.3128 v 63.4799 h 63.4799 v -23.3128 -20.5078 h 57.8698 v 57.8698 h -20.5078 v 9.8299 h 20.5078 9.8294 v -9.8299 -67.6992 h -77.5291 v 9.8294 20.5078 13.4829 h -43.8201 v -43.8211 h 13.4829 20.5078 9.8294 v -9.8299 -67.6993 h -77.5291 v 9.8294 20.5078 13.4829 h -43.8201 v -43.8211 h 13.4829 v 5e-4 h 20.5078 9.8294 v -9.8299 -67.6992 h -77.5292 v 9.8294 20.5078 13.4829 h -43.82 v -43.8211 h 13.4829 20.5078 9.8293 v -9.8299 -67.6992 h -77.5291 v 9.8293 20.5078 13.4829 h -43.82 v -43.8211 h 13.4829 v 0 h 20.5078 9.8293 v -9.8299 -67.6993 h -77.5291 v 9.8294 20.5078 13.4829 h -43.8201 v -43.8211 h 13.4829 20.5078 9.8294 v -9.8299 -67.6992 h -77.5291 v 9.8294 20.5078 13.4829 h -43.8201 v -43.8211 h 13.4829 v 5e-4 h 20.5078 9.8294 v -9.8299 -67.6992 h -77.5291 v 9.8298 20.5078 13.4829 h -43.8201 v -43.8211 h 13.4829 20.5078 9.8294 v -9.8298 -67.6993 h -77.5291 v 9.8294 20.5078 13.4829 h -43.8201 v -43.8211 h 13.4829 v -9.8289 z" />
              <path
                 id="path3962"
                 style="color:#000000;fill:#73828c;fill-opacity:1;fill-rule:evenodd;stroke-width:13.5408;-inkscape-stroke:none"
                 d="m 2427.6384,3279.1185 v 77.5292 h 77.5291 v -9.8294 -20.5078 -13.4829 h 43.8201 v 43.8211 h -13.4829 -30.3372 v 77.5291 h 77.5292 v -9.8294 -20.5078 -13.4829 h 43.82 v 43.8211 h -13.4829 v -5e-4 h -30.3371 v 77.5286 h 77.5291 v -9.8293 -20.5078 -13.4829 h 43.82 v 43.8211 h -13.4829 -30.3371 v 77.5291 h 77.5291 v -9.8294 -20.5078 -13.4829 h 43.8201 v 43.8211 h -13.4829 v 0 h -30.3372 v 77.5291 h 77.5291 v -9.8294 -20.5078 -13.4829 h 43.8201 v 43.8211 h -13.4829 -30.3372 v 77.5291 h 77.5291 v -9.8293 -20.5078 -13.4829 h 43.8201 v 43.8211 h -13.4829 v -5e-4 h -30.3372 v 77.5291 h 77.5291 v -9.8294 -20.5078 -13.4829 h 43.8201 v 43.8211 h -13.4829 -30.3372 v 77.5291 h 77.5292 v -9.8293 -20.5078 -13.4829 h 43.82 v 43.8211 h -13.4829 v 3.763 h 17.247 v -51.3482 h -51.3482 v 17.247 26.5735 h -70.0015 v -70.0014 h 26.5736 v 0 h 17.247 v -51.3483 h -51.3483 v 17.247 26.5736 h -70.0014 v -70.0014 h 26.5736 v -5e-4 h 17.247 v -51.3483 h -51.3483 v 17.247 26.5736 h -70.0014 v -70.0015 h 26.5736 v 0 h 17.247 v -51.3483 h -51.3483 v 17.247 26.5736 h -70.0014 v -70.0014 h 26.5736 17.247 v -51.3483 h -51.3483 v 17.247 26.5736 h -70.0014 v -70.0014 h 26.5735 v 0 h 17.2471 v -51.3482 h -51.3483 v 17.247 26.5735 h -70.0014 v -70.0009 h 26.5735 v -5e-4 h 17.247 v -51.3483 h -51.3483 v 17.247 26.5736 h -70.0014 v -70.0014 h 26.5736 v 0 h 17.247 v -51.3483 h -51.3483 v 17.247 26.5736 h -70.0014 v -70.0014 h 26.5736 v -3.7642 z m 7.0244,7.0249 v 63.4799 h 63.4798 v -23.3128 -20.5078 h 57.8699 v 57.8699 h -20.5078 v 0 h -23.3128 v 63.4798 h 63.4799 v -23.3128 -20.5078 h 57.8698 v 57.8694 h -20.5078 v 5e-4 h -23.3128 v 63.4798 h 63.4799 v -23.3127 -20.5078 h 57.8698 v 57.8698 h -20.5078 v 0 h -23.3127 v 63.4798 h 63.4798 v -23.3128 -20.5078 h 57.8699 v 57.8699 h -20.5078 -23.3128 v 63.4798 h 63.4798 v -23.3128 -20.5078 h 57.8699 v 57.8699 h -20.5078 v 0 h -23.3128 v 63.4799 h 63.4798 v -23.3128 -20.5078 h 57.8699 v 57.8698 h -20.5078 v 6e-4 h -23.3128 v 63.4798 h 63.4799 v -23.3128 -20.5078 h 57.8698 v 57.8699 h -20.5078 v 0 h -23.3128 v 63.4799 h 63.4799 v -23.3128 -20.5078 h 57.8698 v 57.8698 h -20.5078 v 9.8299 h 20.5078 9.8294 v -9.8299 -67.6992 h -77.5291 v 9.8294 20.5078 13.4829 h -43.8201 v -43.8211 h 13.4829 20.5078 9.8294 v -9.8299 -67.6993 h -77.5291 v 9.8294 20.5078 13.4829 h -43.8201 v -43.8211 h 13.4829 v 5e-4 h 20.5078 9.8294 v -9.8299 -67.6992 h -77.5292 v 9.8294 20.5078 13.4829 h -43.82 v -43.8211 h 13.4829 20.5078 9.8293 v -9.8299 -67.6992 h -77.5291 v 9.8293 20.5078 13.4829 h -43.82 v -43.8211 h 13.4829 v 0 h 20.5078 9.8293 v -9.8299 -67.6993 h -77.5291 v 9.8294 20.5078 13.4829 H 2677.08 v -43.8211 h 13.4829 20.5078 9.8294 v -9.8299 -67.6992 h -77.5291 v 9.8294 20.5078 13.4829 h -43.8201 v -43.8211 h 13.4829 v 5e-4 h 20.5078 9.8294 v -9.8299 -67.6992 h -77.5291 v 9.8298 20.5078 13.4829 h -43.8201 v -43.8211 h 13.4829 20.5078 9.8294 v -9.8298 -67.6993 h -77.5291 v 9.8294 20.5078 13.4829 h -43.8201 v -43.8211 h 13.4829 v -9.8289 z" />
              <path
                 id="path3963"
                 style="color:#000000;fill:#73828c;fill-opacity:1;fill-rule:evenodd;stroke-width:13.5408;-inkscape-stroke:none"
                 d="m 2582.697,3279.1185 v 77.5292 h 77.5291 v -9.8294 -20.5078 -13.4829 h 43.8201 v 43.8211 h -13.4829 -30.3372 v 77.5291 h 77.5292 v -9.8294 -20.5078 -13.4829 h 43.82 v 43.8211 h -13.4829 v -5e-4 h -30.3371 v 77.5286 h 77.5291 v -9.8293 -20.5078 -13.4829 h 43.82 v 43.8211 h -13.4829 -30.3371 v 77.5291 h 77.5291 v -9.8294 -20.5078 -13.4829 h 43.8201 v 43.8211 h -13.4829 v 0 h -30.3372 v 77.5291 h 77.5291 v -9.8294 -20.5078 -13.4829 h 43.8201 v 43.8211 h -13.4829 -30.3372 v 77.5291 h 77.5291 v -9.8293 -20.5078 -13.4829 h 43.8201 v 43.8211 h -13.4829 v -5e-4 h -30.3372 v 77.5291 h 77.5291 v -9.8294 -20.5078 -13.4829 h 43.8201 v 43.8211 h -13.4829 -30.3372 v 77.5291 h 77.5292 v -9.8293 -20.5078 -13.4829 h 43.82 v 43.8211 h -13.4829 v 3.763 h 17.247 v -51.3482 h -51.3482 v 17.247 26.5735 h -70.0015 v -70.0014 h 26.5736 v 0 h 17.247 v -51.3483 h -51.3483 v 17.247 26.5736 h -70.0014 v -70.0014 h 26.5736 v -5e-4 h 17.247 v -51.3483 h -51.3483 v 17.247 26.5736 h -70.0014 v -70.0015 h 26.5736 v 0 h 17.247 v -51.3483 h -51.3483 v 17.247 26.5736 h -70.0014 v -70.0014 h 26.5736 17.247 v -51.3483 h -51.3483 v 17.247 26.5736 h -70.0014 v -70.0014 h 26.5735 v 0 h 17.2471 v -51.3482 h -51.3483 v 17.247 26.5735 h -70.0014 v -70.0009 h 26.5735 v -5e-4 h 17.247 v -51.3483 h -51.3483 v 17.247 26.5736 h -70.0014 v -70.0014 h 26.5736 v 0 h 17.247 v -51.3483 h -51.3483 v 17.247 26.5736 h -70.0014 v -70.0014 h 26.5736 v -3.7642 z m 7.0244,7.0249 v 63.4799 h 63.4798 v -23.3128 -20.5078 h 57.8699 v 57.8699 h -20.5078 v 0 h -23.3128 v 63.4798 h 63.4799 v -23.3128 -20.5078 h 57.8698 v 57.8694 h -20.5078 v 5e-4 h -23.3128 v 63.4798 h 63.4799 v -23.3127 -20.5078 h 57.8698 v 57.8698 h -20.5078 v 0 h -23.3127 v 63.4798 h 63.4798 v -23.3128 -20.5078 h 57.8699 v 57.8699 h -20.5078 -23.3128 v 63.4798 h 63.4798 v -23.3128 -20.5078 h 57.8699 v 57.8699 h -20.5078 v 0 h -23.3128 v 63.4799 h 63.4798 v -23.3128 -20.5078 h 57.8699 v 57.8698 h -20.5078 v 6e-4 h -23.3128 v 63.4798 h 63.4799 v -23.3128 -20.5078 h 57.8698 v 57.8699 h -20.5078 v 0 h -23.3128 v 63.4799 h 63.4799 v -23.3128 -20.5078 h 57.8698 v 57.8698 h -20.5078 v 9.8299 h 20.5078 9.8294 v -9.8299 -67.6992 h -77.5291 v 9.8294 20.5078 13.4829 h -43.8201 v -43.8211 h 13.4829 20.5078 9.8294 v -9.8299 -67.6993 h -77.5291 v 9.8294 20.5078 13.4829 h -43.8201 v -43.8211 h 13.4829 v 5e-4 h 20.5078 9.8294 v -9.8299 -67.6992 h -77.5292 v 9.8294 20.5078 13.4829 h -43.82 v -43.8211 h 13.4829 20.5078 9.8293 v -9.8299 -67.6992 h -77.5291 v 9.8293 20.5078 13.4829 h -43.82 v -43.8211 h 13.4829 v 0 h 20.5078 9.8293 v -9.8299 -67.6993 h -77.5291 v 9.8294 20.5078 13.4829 h -43.8201 v -43.8211 h 13.4829 20.5078 9.8294 v -9.8299 -67.6992 h -77.5291 v 9.8294 20.5078 13.4829 h -43.8201 v -43.8211 h 13.4829 v 5e-4 h 20.5078 9.8294 v -9.8299 -67.6992 h -77.5291 v 9.8298 20.5078 13.4829 h -43.8201 v -43.8211 h 13.4829 20.5078 9.8294 v -9.8298 -67.6993 h -77.5291 v 9.8294 20.5078 13.4829 h -43.8201 v -43.8211 h 13.4829 v -9.8289 z" />
              <path
                 id="path3964"
                 style="color:#000000;fill:#73828c;fill-opacity:1;fill-rule:evenodd;stroke-width:13.5408;-inkscape-stroke:none"
                 d="m 2737.3089,3279.1185 v 77.5292 h 77.5291 v -9.8294 -20.5078 -13.4829 h 43.8201 v 43.8211 h -13.4829 -30.3372 v 77.5291 h 77.5292 v -9.8294 -20.5078 -13.4829 h 43.82 v 43.8211 h -13.4829 v -5e-4 h -30.3371 v 77.5286 h 77.5291 v -9.8293 -20.5078 -13.4829 h 43.82 v 43.8211 h -13.4829 -30.3371 v 77.5291 h 77.5291 v -9.8294 -20.5078 -13.4829 h 43.8201 v 43.8211 h -13.4829 v 0 h -30.3372 v 77.5291 h 77.5291 v -9.8294 -20.5078 -13.4829 h 43.8201 v 43.8211 h -13.4829 -30.3372 v 77.5291 h 77.5291 v -9.8293 -20.5078 -13.4829 h 43.8201 v 43.8211 h -13.4829 v -5e-4 h -30.3372 v 77.5291 h 77.5291 v -9.8294 -20.5078 -13.4829 h 43.8201 v 43.8211 h -13.4829 -30.3372 v 77.5291 h 77.5292 v -9.8293 -20.5078 -13.4829 h 43.82 v 43.8211 h -13.4829 v 3.763 h 17.247 v -51.3482 h -51.3482 v 17.247 26.5735 h -70.0015 v -70.0014 h 26.5736 v 0 h 17.247 v -51.3483 h -51.3483 v 17.247 26.5736 h -70.0014 v -70.0014 h 26.5736 v -5e-4 h 17.247 v -51.3483 h -51.3483 v 17.247 26.5736 h -70.0014 v -70.0015 h 26.5736 v 0 h 17.247 v -51.3483 h -51.3483 v 17.247 26.5736 h -70.0014 v -70.0014 h 26.5736 17.247 v -51.3483 h -51.3483 v 17.247 26.5736 h -70.0014 v -70.0014 h 26.5735 v 0 h 17.2471 v -51.3482 h -51.3483 v 17.247 26.5735 h -70.0014 v -70.0009 h 26.5735 v -5e-4 h 17.247 v -51.3483 h -51.3483 v 17.247 26.5736 h -70.0014 v -70.0014 h 26.5736 v 0 h 17.247 v -51.3483 h -51.3483 v 17.247 26.5736 h -70.0014 v -70.0014 h 26.5736 v -3.7642 z m 7.0244,7.0249 v 63.4799 h 63.4798 v -23.3128 -20.5078 h 57.8699 v 57.8699 h -20.5078 v 0 h -23.3128 v 63.4798 h 63.4799 v -23.3128 -20.5078 h 57.8698 v 57.8694 h -20.5078 v 5e-4 h -23.3128 v 63.4798 h 63.4799 v -23.3127 -20.5078 h 57.8698 v 57.8698 h -20.5078 v 0 h -23.3127 v 63.4798 h 63.4798 v -23.3128 -20.5078 h 57.8699 v 57.8699 h -20.5078 -23.3128 v 63.4798 h 63.4798 v -23.3128 -20.5078 h 57.8699 v 57.8699 h -20.5078 v 0 h -23.3128 v 63.4799 h 63.4798 v -23.3128 -20.5078 h 57.8699 v 57.8698 h -20.5078 v 6e-4 h -23.3128 v 63.4798 h 63.4799 v -23.3128 -20.5078 h 57.8698 v 57.8699 h -20.5078 v 0 h -23.3128 v 63.4799 h 63.4799 v -23.3128 -20.5078 h 57.8698 v 57.8698 h -20.5078 v 9.8299 h 20.5078 9.8294 v -9.8299 -67.6992 h -77.5291 v 9.8294 20.5078 13.4829 h -43.8201 v -43.8211 h 13.4829 20.5078 9.8294 v -9.8299 -67.6993 h -77.5291 v 9.8294 20.5078 13.4829 h -43.8201 v -43.8211 h 13.4829 v 5e-4 h 20.5078 9.8294 v -9.8299 -67.6992 h -77.5292 v 9.8294 20.5078 13.4829 h -43.82 v -43.8211 h 13.4829 20.5078 9.8293 v -9.8299 -67.6992 h -77.5291 v 9.8293 20.5078 13.4829 h -43.82 v -43.8211 h 13.4829 v 0 h 20.5078 9.8293 v -9.8299 -67.6993 h -77.5291 v 9.8294 20.5078 13.4829 h -43.8201 v -43.8211 h 13.4829 20.5078 9.8294 v -9.8299 -67.6992 h -77.5291 v 9.8294 20.5078 13.4829 h -43.8201 v -43.8211 h 13.4829 v 5e-4 h 20.5078 9.8294 v -9.8299 -67.6992 h -77.5291 v 9.8298 20.5078 13.4829 h -43.8201 v -43.8211 h 13.4829 20.5078 9.8294 v -9.8298 -67.6993 h -77.5291 v 9.8294 20.5078 13.4829 h -43.8201 v -43.8211 h 13.4829 v -9.8289 z" />
              <path
                 id="path3965"
                 style="color:#000000;fill:#73828c;fill-opacity:1;fill-rule:evenodd;stroke-width:13.5408;-inkscape-stroke:none"
                 d="m 2892.8146,3279.1185 v 77.5292 h 77.5291 v -9.8294 -20.5078 -13.4829 h 43.8201 v 43.8211 h -13.4829 -30.3372 v 77.5291 h 77.5292 v -9.8294 -20.5078 -13.4829 h 43.82 v 43.8211 H 3078.21 v -5e-4 h -30.3371 v 77.5286 h 77.5291 v -9.8293 -20.5078 -13.4829 h 43.82 v 43.8211 h -13.4829 -30.3371 v 77.5291 h 77.5291 v -9.8294 -20.5078 -13.4829 h 43.8201 v 43.8211 h -13.4829 v 0 h -30.3372 v 77.5291 h 77.5291 v -9.8294 -20.5078 -13.4829 h 43.8201 v 43.8211 h -13.4829 -30.3372 v 77.5291 h 77.5291 v -9.8293 -20.5078 -13.4829 h 43.8201 v 43.8211 h -13.4829 v -5e-4 h -30.3372 v 77.5291 h 77.5291 v -9.8294 -20.5078 -13.4829 h 43.8201 v 43.8211 h -13.4829 -30.3372 v 77.5291 h 77.5292 v -9.8293 -20.5078 -13.4829 h 43.82 v 43.8211 h -13.4829 v 3.763 h 17.247 v -51.3482 h -51.3482 v 17.247 26.5735 h -70.0015 v -70.0014 h 26.5736 v 0 h 17.247 v -51.3483 h -51.3483 v 17.247 26.5736 h -70.0014 v -70.0014 h 26.5736 v -5e-4 h 17.247 v -51.3483 h -51.3483 v 17.247 26.5736 h -70.0014 v -70.0015 h 26.5736 v 0 h 17.247 v -51.3483 h -51.3483 v 17.247 26.5736 h -70.0014 v -70.0014 h 26.5736 17.247 v -51.3483 h -51.3483 v 17.247 26.5736 h -70.0014 v -70.0014 h 26.5735 v 0 h 17.2471 v -51.3482 h -51.3483 v 17.247 26.5735 h -70.0014 v -70.0009 h 26.5735 v -5e-4 h 17.247 v -51.3483 h -51.3483 v 17.247 26.5736 h -70.0014 v -70.0014 h 26.5736 v 0 h 17.247 v -51.3483 h -51.3483 v 17.247 26.5736 h -70.0014 v -70.0014 h 26.5736 v -3.7642 z m 7.0244,7.0249 v 63.4799 h 63.4798 v -23.3128 -20.5078 h 57.8699 v 57.8699 h -20.5078 v 0 h -23.3128 v 63.4798 h 63.4799 v -23.3128 -20.5078 h 57.8698 v 57.8694 H 3078.21 v 5e-4 h -23.3128 v 63.4798 h 63.4799 v -23.3127 -20.5078 h 57.8698 v 57.8698 h -20.5078 v 0 h -23.3127 v 63.4798 h 63.4798 v -23.3128 -20.5078 h 57.8699 v 57.8699 h -20.5078 -23.3128 v 63.4798 h 63.4798 v -23.3128 -20.5078 h 57.8699 v 57.8699 h -20.5078 v 0 h -23.3128 v 63.4799 h 63.4798 v -23.3128 -20.5078 h 57.8699 v 57.8698 h -20.5078 v 6e-4 h -23.3128 v 63.4798 h 63.4799 v -23.3128 -20.5078 h 57.8698 v 57.8699 h -20.5078 v 0 h -23.3128 v 63.4799 h 63.4799 v -23.3128 -20.5078 h 57.8698 v 57.8698 h -20.5078 v 9.8299 h 20.5078 9.8294 v -9.8299 -67.6992 h -77.5291 v 9.8294 20.5078 13.4829 h -43.8201 v -43.8211 h 13.4829 20.5078 9.8294 v -9.8299 -67.6993 h -77.5291 v 9.8294 20.5078 13.4829 h -43.8201 v -43.8211 h 13.4829 v 5e-4 h 20.5078 9.8294 v -9.8299 -67.6992 h -77.5292 v 9.8294 20.5078 13.4829 h -43.82 v -43.8211 h 13.4829 20.5078 9.8293 v -9.8299 -67.6992 h -77.5291 v 9.8293 20.5078 13.4829 h -43.82 v -43.8211 h 13.4829 v 0 h 20.5078 9.8293 v -9.8299 -67.6993 h -77.5291 v 9.8294 20.5078 13.4829 h -43.8201 v -43.8211 h 13.4829 20.5078 9.8294 v -9.8299 -67.6992 h -77.5291 v 9.8294 20.5078 13.4829 h -43.8201 v -43.8211 h 13.4829 v 5e-4 h 20.5078 9.8294 v -9.8299 -67.6992 h -77.5291 v 9.8298 20.5078 13.4829 h -43.8201 v -43.8211 h 13.4829 20.5078 9.8294 v -9.8298 -67.6993 h -77.5291 v 9.8294 20.5078 13.4829 h -43.8201 v -43.8211 h 13.4829 v -9.8289 z" />
              <path
                 id="path3966"
                 style="color:#000000;fill:#73828c;fill-opacity:1;fill-rule:evenodd;stroke-width:13.5408;-inkscape-stroke:none"
                 d="m 3047.8733,3279.1185 v 77.5292 h 77.5291 v -9.8294 -20.5078 -13.4829 h 43.8201 v 43.8211 h -13.4829 -30.3372 v 77.5291 h 77.5292 v -9.8294 -20.5078 -13.4829 h 43.82 v 43.8211 h -13.4829 v -5e-4 h -30.3371 v 77.5286 h 77.5291 v -9.8293 -20.5078 -13.4829 h 43.82 v 43.8211 h -13.4829 -30.3371 v 77.5291 h 77.5291 v -9.8294 -20.5078 -13.4829 h 43.8201 v 43.8211 h -13.4829 v 0 h -30.3372 v 77.5291 h 77.5291 v -9.8294 -20.5078 -13.4829 h 43.8201 v 43.8211 h -13.4829 -30.3372 v 77.5291 h 77.5291 v -9.8293 -20.5078 -13.4829 h 43.8201 v 43.8211 h -13.4829 v -5e-4 h -30.3372 v 77.5291 h 77.5291 v -9.8294 -20.5078 -13.4829 h 43.8201 v 43.8211 h -13.4829 -30.3372 v 77.5291 h 77.5292 v -9.8293 -20.5078 -13.4829 h 43.82 v 43.8211 h -13.4829 v 3.763 h 17.247 v -51.3482 h -51.3482 v 17.247 26.5735 h -70.0015 v -70.0014 h 26.5736 v 0 h 17.247 v -51.3483 h -51.3483 v 17.247 26.5736 h -70.0014 v -70.0014 h 26.5736 v -5e-4 h 17.247 v -51.3483 h -51.3483 v 17.247 26.5736 h -70.0014 v -70.0015 h 26.5736 v 0 h 17.247 v -51.3483 h -51.3483 v 17.247 26.5736 h -70.0014 v -70.0014 h 26.5736 17.247 v -51.3483 h -51.3483 v 17.247 26.5736 h -70.0014 v -70.0014 h 26.5735 v 0 h 17.2471 v -51.3482 h -51.3483 v 17.247 26.5735 h -70.0014 v -70.0009 h 26.5735 v -5e-4 h 17.247 v -51.3483 h -51.3483 v 17.247 26.5736 h -70.0014 v -70.0014 h 26.5736 v 0 h 17.247 v -51.3483 h -51.3483 v 17.247 26.5736 h -70.0014 v -70.0014 h 26.5736 v -3.7642 z m 7.0244,7.0249 v 63.4799 h 63.4798 v -23.3128 -20.5078 h 57.8699 v 57.8699 h -20.5078 v 0 h -23.3128 v 63.4798 h 63.4799 v -23.3128 -20.5078 h 57.8698 v 57.8694 h -20.5078 v 5e-4 h -23.3128 v 63.4798 h 63.4799 v -23.3127 -20.5078 h 57.8698 v 57.8698 h -20.5078 v 0 h -23.3127 v 63.4798 h 63.4798 v -23.3128 -20.5078 h 57.8699 v 57.8699 h -20.5078 -23.3128 v 63.4798 h 63.4798 v -23.3128 -20.5078 h 57.8699 v 57.8699 h -20.5078 v 0 h -23.3128 v 63.4799 h 63.4798 v -23.3128 -20.5078 h 57.8699 v 57.8698 h -20.5078 v 6e-4 h -23.3128 v 63.4798 h 63.4799 v -23.3128 -20.5078 h 57.8698 v 57.8699 h -20.5078 v 0 h -23.3128 v 63.4799 h 63.4799 v -23.3128 -20.5078 h 57.8698 v 57.8698 h -20.5078 v 9.8299 h 20.5078 9.8294 v -9.8299 -67.6992 h -77.5291 v 9.8294 20.5078 13.4829 h -43.8201 v -43.8211 h 13.4829 20.5078 9.8294 v -9.8299 -67.6993 h -77.5291 v 9.8294 20.5078 13.4829 h -43.8201 v -43.8211 h 13.4829 v 5e-4 h 20.5078 9.8294 v -9.8299 -67.6992 h -77.5292 v 9.8294 20.5078 13.4829 h -43.82 v -43.8211 h 13.4829 20.5078 9.8293 v -9.8299 -67.6992 h -77.5291 v 9.8293 20.5078 13.4829 h -43.82 v -43.8211 h 13.4829 v 0 h 20.5078 9.8293 v -9.8299 -67.6993 h -77.5291 v 9.8294 20.5078 13.4829 h -43.8201 v -43.8211 h 13.4829 20.5078 9.8294 v -9.8299 -67.6992 h -77.5291 v 9.8294 20.5078 13.4829 h -43.8201 v -43.8211 h 13.4829 v 5e-4 h 20.5078 9.8294 v -9.8299 -67.6992 h -77.5291 v 9.8298 20.5078 13.4829 h -43.8201 v -43.8211 h 13.4829 20.5078 9.8294 v -9.8298 -67.6993 h -77.5291 v 9.8294 20.5078 13.4829 h -43.8201 v -43.8211 h 13.4829 v -9.8289 z" />
              <path
                 id="path3967"
                 style="color:#000000;fill:#73828c;fill-opacity:1;fill-rule:evenodd;stroke-width:13.5408;-inkscape-stroke:none"
                 d="m 3202.4852,3279.1185 v 77.5292 h 77.5291 v -9.8294 -20.5078 -13.4829 h 43.8201 v 43.8211 h -13.4829 -30.3372 v 77.5291 h 77.5292 v -9.8294 -20.5078 -13.4829 h 43.82 v 43.8211 h -13.4829 v -5e-4 h -30.3371 v 77.5286 h 77.5291 v -9.8293 -20.5078 -13.4829 h 43.82 v 43.8211 h -13.4829 -30.3371 v 77.5291 h 77.5291 v -9.8294 -20.5078 -13.4829 h 43.8201 v 43.8211 h -13.4829 v 0 h -30.3372 v 77.5291 h 77.5291 v -9.8294 -20.5078 -13.4829 h 43.8201 v 43.8211 h -13.4829 -30.3372 v 77.5291 h 77.5291 v -9.8293 -20.5078 -13.4829 h 43.8201 v 43.8211 h -13.4829 v -5e-4 h -30.3372 v 77.5291 h 77.5291 v -9.8294 -20.5078 -13.4829 h 43.8201 v 43.8211 h -13.4829 -30.3372 v 77.5291 h 77.5292 v -9.8293 -20.5078 -13.4829 h 43.82 v 43.8211 h -13.4829 v 3.763 h 17.247 v -51.3482 h -51.3482 v 17.247 26.5735 h -70.0015 v -70.0014 h 26.5736 v 0 h 17.247 v -51.3483 h -51.3483 v 17.247 26.5736 h -70.0014 v -70.0014 h 26.5736 v -5e-4 h 17.247 v -51.3483 h -51.3483 v 17.247 26.5736 h -70.0014 v -70.0015 h 26.5736 v 0 h 17.247 v -51.3483 h -51.3483 v 17.247 26.5736 h -70.0014 v -70.0014 h 26.5736 17.247 v -51.3483 h -51.3483 v 17.247 26.5736 h -70.0014 v -70.0014 h 26.5735 v 0 h 17.2471 v -51.3482 h -51.3483 v 17.247 26.5735 h -70.0014 v -70.0009 h 26.5735 v -5e-4 h 17.247 v -51.3483 h -51.3483 v 17.247 26.5736 h -70.0014 v -70.0014 h 26.5736 v 0 h 17.247 v -51.3483 h -51.3483 v 17.247 26.5736 h -70.0014 v -70.0014 h 26.5736 v -3.7642 z m 7.0244,7.0249 v 63.4799 h 63.4798 v -23.3128 -20.5078 h 57.8699 v 57.8699 h -20.5078 v 0 h -23.3128 v 63.4798 h 63.4799 v -23.3128 -20.5078 h 57.8698 v 57.8694 h -20.5078 v 5e-4 h -23.3128 v 63.4798 h 63.4799 v -23.3127 -20.5078 h 57.8698 v 57.8698 h -20.5078 v 0 h -23.3127 v 63.4798 h 63.4798 v -23.3128 -20.5078 h 57.8699 v 57.8699 h -20.5078 -23.3128 v 63.4798 h 63.4798 v -23.3128 -20.5078 h 57.8699 v 57.8699 h -20.5078 v 0 h -23.3128 v 63.4799 h 63.4798 v -23.3128 -20.5078 h 57.8699 v 57.8698 h -20.5078 v 6e-4 h -23.3128 v 63.4798 h 63.4799 v -23.3128 -20.5078 h 57.8698 v 57.8699 h -20.5078 v 0 h -23.3128 v 63.4799 h 63.4799 v -23.3128 -20.5078 h 57.8698 v 57.8698 h -20.5078 v 9.8299 h 20.5078 9.8294 v -9.8299 -67.6992 h -77.5291 v 9.8294 20.5078 13.4829 h -43.8201 v -43.8211 h 13.4829 20.5078 9.8294 v -9.8299 -67.6993 h -77.5291 v 9.8294 20.5078 13.4829 h -43.8201 v -43.8211 h 13.4829 v 5e-4 h 20.5078 9.8294 v -9.8299 -67.6992 h -77.5292 v 9.8294 20.5078 13.4829 h -43.82 v -43.8211 h 13.4829 20.5078 9.8293 v -9.8299 -67.6992 h -77.5291 v 9.8293 20.5078 13.4829 h -43.82 v -43.8211 h 13.4829 v 0 h 20.5078 9.8293 v -9.8299 -67.6993 h -77.5291 v 9.8294 20.5078 13.4829 h -43.8201 v -43.8211 h 13.4829 20.5078 9.8294 v -9.8299 -67.6992 h -77.5291 v 9.8294 20.5078 13.4829 h -43.8201 v -43.8211 h 13.4829 v 5e-4 h 20.5078 9.8294 v -9.8299 -67.6992 h -77.5291 v 9.8298 20.5078 13.4829 h -43.8201 v -43.8211 h 13.4829 20.5078 9.8294 v -9.8298 -67.6993 h -77.5291 v 9.8294 20.5078 13.4829 h -43.8201 v -43.8211 h 13.4829 v -9.8289 z" />
              <path
                 id="path3968"
                 style="color:#000000;fill:#73828c;fill-opacity:1;fill-rule:evenodd;stroke-width:13.5408;-inkscape-stroke:none"
                 d="m 3357.9909,3279.1185 v 77.5292 h 77.5291 v -9.8294 -20.5078 -13.4829 h 43.8201 v 43.8211 h -13.4829 -30.3372 v 77.5291 h 77.5292 v -9.8294 -20.5078 -13.4829 h 43.82 v 43.8211 h -13.4829 v -5e-4 h -30.3371 v 77.5286 h 77.5291 v -9.8293 -20.5078 -13.4829 h 43.82 v 43.8211 h -13.4829 -30.3371 v 77.5291 h 77.5291 v -9.8294 -20.5078 -13.4829 h 43.8201 v 43.8211 h -13.4829 v 0 h -30.3372 v 77.5291 h 77.5291 v -9.8294 -20.5078 -13.4829 h 43.8201 v 43.8211 h -13.4829 -30.3372 v 77.5291 h 77.5291 v -9.8293 -20.5078 -13.4829 h 43.8201 v 43.8211 h -13.4829 v -5e-4 h -30.3372 v 77.5291 h 77.5291 v -9.8294 -20.5078 -13.4829 h 43.8201 v 43.8211 h -13.4829 -30.3372 v 77.5291 h 77.5292 v -9.8293 -20.5078 -13.4829 h 43.82 v 43.8211 h -13.4829 v 3.763 h 17.247 v -51.3482 h -51.3482 v 17.247 26.5735 h -70.0015 v -70.0014 h 26.5736 v 0 h 17.247 v -51.3483 h -51.3483 v 17.247 26.5736 h -70.0014 v -70.0014 h 26.5736 v -5e-4 h 17.247 v -51.3483 h -51.3483 v 17.247 26.5736 h -70.0014 v -70.0015 h 26.5736 v 0 h 17.247 v -51.3483 h -51.3483 v 17.247 26.5736 h -70.0014 v -70.0014 h 26.5736 17.247 v -51.3483 h -51.3483 v 17.247 26.5736 h -70.0014 v -70.0014 h 26.5735 v 0 h 17.2471 v -51.3482 h -51.3483 v 17.247 26.5735 h -70.0014 v -70.0009 h 26.5735 v -5e-4 h 17.247 v -51.3483 h -51.3483 v 17.247 26.5736 h -70.0014 v -70.0014 h 26.5736 v 0 h 17.247 v -51.3483 h -51.3483 v 17.247 26.5736 h -70.0014 v -70.0014 h 26.5736 v -3.7642 z m 7.0244,7.0249 v 63.4799 h 63.4798 v -23.3128 -20.5078 h 57.8699 v 57.8699 h -20.5078 v 0 h -23.3128 v 63.4798 h 63.4799 v -23.3128 -20.5078 h 57.8698 v 57.8694 h -20.5078 v 5e-4 h -23.3128 v 63.4798 h 63.4799 v -23.3127 -20.5078 h 57.8698 v 57.8698 h -20.5078 v 0 h -23.3127 v 63.4798 h 63.4798 v -23.3128 -20.5078 h 57.8699 v 57.8699 h -20.5078 -23.3128 v 63.4798 h 63.4798 v -23.3128 -20.5078 h 57.8699 v 57.8699 h -20.5078 v 0 h -23.3128 v 63.4799 h 63.4798 v -23.3128 -20.5078 h 57.8699 v 57.8698 h -20.5078 v 6e-4 H 3830.19 v 63.4798 h 63.4799 v -23.3128 -20.5078 h 57.8698 v 57.8699 h -20.5078 v 0 h -23.3128 v 63.4799 h 63.4799 v -23.3128 -20.5078 h 57.8698 v 57.8698 h -20.5078 v 9.8299 h 20.5078 9.8294 v -9.8299 -67.6992 h -77.5291 v 9.8294 20.5078 13.4829 h -43.8201 v -43.8211 h 13.4829 20.5078 9.8294 v -9.8299 -67.6993 H 3883.84 v 9.8294 20.5078 13.4829 h -43.8201 v -43.8211 h 13.4829 v 5e-4 h 20.5078 9.8294 v -9.8299 -67.6992 h -77.5292 v 9.8294 20.5078 13.4829 h -43.82 v -43.8211 h 13.4829 20.5078 9.8293 v -9.8299 -67.6992 h -77.5291 v 9.8293 20.5078 13.4829 h -43.82 v -43.8211 h 13.4829 v 0 h 20.5078 9.8293 v -9.8299 -67.6993 h -77.5291 v 9.8294 20.5078 13.4829 h -43.8201 v -43.8211 h 13.4829 20.5078 9.8294 v -9.8299 -67.6992 h -77.5291 v 9.8294 20.5078 13.4829 h -43.8201 v -43.8211 h 13.4829 v 5e-4 h 20.5078 9.8294 v -9.8299 -67.6992 h -77.5291 v 9.8298 20.5078 13.4829 h -43.8201 v -43.8211 h 13.4829 20.5078 9.8294 v -9.8298 -67.6993 h -77.5291 v 9.8294 20.5078 13.4829 h -43.8201 v -43.8211 h 13.4829 v -9.8289 z" />
              <path
                 id="path3969"
                 style="color:#000000;fill:#73828c;fill-opacity:1;fill-rule:evenodd;stroke-width:13.5408;-inkscape-stroke:none"
                 d="m 3513.0495,3279.1185 v 77.5292 h 77.5291 v -9.8294 -20.5078 -13.4829 h 43.8201 v 43.8211 h -13.4829 -30.3372 v 77.5291 h 77.5292 v -9.8294 -20.5078 -13.4829 h 43.82 v 43.8211 h -13.4829 v -5e-4 h -30.3371 v 77.5286 h 77.5291 v -9.8293 -20.5078 -13.4829 h 43.82 v 43.8211 h -13.4829 -30.3371 v 77.5291 h 77.5291 v -9.8294 -20.5078 -13.4829 h 43.8201 v 43.8211 h -13.4829 v 0 h -30.3372 v 77.5291 h 77.5291 v -9.8294 -20.5078 -13.4829 h 43.8201 v 43.8211 h -13.4829 -30.3372 v 77.5291 h 77.5291 v -9.8293 -20.5078 -13.4829 h 43.8201 v 43.8211 h -13.4829 v -5e-4 h -30.3372 v 77.5291 h 77.5291 v -9.8294 -20.5078 -13.4829 h 43.8201 v 43.8211 h -13.4829 -30.3372 v 77.5291 h 77.5292 v -9.8293 -20.5078 -13.4829 h 43.82 v 43.8211 h -13.4829 v 3.763 h 17.247 v -51.3482 h -51.3482 v 17.247 26.5735 h -70.0015 v -70.0014 h 26.5736 v 0 h 17.247 v -51.3483 h -51.3483 v 17.247 26.5736 h -70.0014 v -70.0014 h 26.5736 v -5e-4 h 17.247 v -51.3483 h -51.3483 v 17.247 26.5736 h -70.0014 v -70.0015 h 26.5736 v 0 h 17.247 v -51.3483 h -51.3483 v 17.247 26.5736 h -70.0014 v -70.0014 h 26.5736 17.247 v -51.3483 h -51.3483 v 17.247 26.5736 h -70.0014 v -70.0014 h 26.5735 v 0 h 17.2471 v -51.3482 h -51.3483 v 17.247 26.5735 h -70.0014 v -70.0009 h 26.5735 v -5e-4 h 17.247 v -51.3483 h -51.3483 v 17.247 26.5736 h -70.0014 v -70.0014 h 26.5736 v 0 h 17.247 v -51.3483 h -51.3483 v 17.247 26.5736 h -70.0014 v -70.0014 h 26.5736 v -3.7642 z m 7.0244,7.0249 v 63.4799 h 63.4798 v -23.3128 -20.5078 h 57.8699 v 57.8699 h -20.5078 v 0 h -23.3128 v 63.4798 h 63.4799 v -23.3128 -20.5078 h 57.8698 v 57.8694 h -20.5078 v 5e-4 h -23.3128 v 63.4798 h 63.4799 v -23.3127 -20.5078 h 57.8698 v 57.8698 h -20.5078 v 0 h -23.3127 v 63.4798 h 63.4798 v -23.3128 -20.5078 h 57.8699 v 57.8699 h -20.5078 -23.3128 v 63.4798 h 63.4798 v -23.3128 -20.5078 h 57.8699 v 57.8699 h -20.5078 v 0 h -23.3128 v 63.4799 h 63.4798 v -23.3128 -20.5078 h 57.8699 v 57.8698 h -20.5078 v 6e-4 h -23.3128 v 63.4798 h 63.4799 v -23.3128 -20.5078 h 57.8698 v 57.8699 h -20.5078 v 0 h -23.3128 v 63.4799 h 63.4799 v -23.3128 -20.5078 h 57.8698 v 57.8698 h -20.5078 v 9.8299 h 20.5078 9.8294 v -9.8299 -67.6992 h -77.5291 v 9.8294 20.5078 13.4829 h -43.8201 v -43.8211 h 13.4829 20.5078 9.8294 v -9.8299 -67.6993 h -77.5291 v 9.8294 20.5078 13.4829 h -43.8201 v -43.8211 h 13.4829 v 5e-4 h 20.5078 9.8294 v -9.8299 -67.6992 h -77.5292 v 9.8294 20.5078 13.4829 h -43.82 v -43.8211 h 13.4829 20.5078 9.8293 v -9.8299 -67.6992 h -77.5291 v 9.8293 20.5078 13.4829 h -43.82 v -43.8211 h 13.4829 v 0 h 20.5078 9.8293 v -9.8299 -67.6993 h -77.5291 v 9.8294 20.5078 13.4829 h -43.8201 v -43.8211 h 13.4829 20.5078 9.8294 v -9.8299 -67.6992 h -77.5291 v 9.8294 20.5078 13.4829 h -43.8201 v -43.8211 h 13.4829 v 5e-4 h 20.5078 9.8294 v -9.8299 -67.6992 h -77.5291 v 9.8298 20.5078 13.4829 h -43.8201 v -43.8211 h 13.4829 20.5078 9.8294 v -9.8298 -67.6993 h -77.5291 v 9.8294 20.5078 13.4829 h -43.8201 v -43.8211 h 13.4829 v -9.8289 z" />
              <path
                 id="path3970"
                 style="color:#000000;fill:#73828c;fill-opacity:1;fill-rule:evenodd;stroke-width:13.5408;-inkscape-stroke:none"
                 d="m 3667.6614,3279.1185 v 77.5292 h 77.5291 v -9.8294 -20.5078 -13.4829 h 43.8201 v 43.8211 h -13.4829 -30.3372 v 77.5291 h 77.5292 v -9.8294 -20.5078 -13.4829 h 43.82 v 43.8211 h -13.4829 v -5e-4 h -30.3371 v 77.5286 h 77.5291 v -9.8293 -20.5078 -13.4829 h 43.82 v 43.8211 h -13.4829 -30.3371 v 77.5291 h 77.5291 v -9.8294 -20.5078 -13.4829 h 43.8201 v 43.8211 h -13.4829 v 0 h -30.3372 v 77.5291 h 77.5291 v -9.8294 -20.5078 -13.4829 h 43.8201 v 43.8211 h -13.4829 -30.3372 v 77.5291 h 77.5291 v -9.8293 -20.5078 -13.4829 h 43.8201 v 43.8211 h -13.4829 v -5e-4 h -30.3372 v 77.5291 h 77.5291 v -9.8294 -20.5078 -13.4829 h 43.8201 v 43.8211 h -13.4829 -30.3372 v 77.5291 h 77.5292 v -9.8293 -20.5078 -13.4829 h 43.82 v 43.8211 h -13.4829 v 3.763 h 17.247 v -51.3482 h -51.3482 v 17.247 26.5735 h -70.0015 v -70.0014 h 26.5736 v 0 h 17.247 v -51.3483 h -51.3483 v 17.247 26.5736 h -70.0014 v -70.0014 h 26.5736 v -5e-4 h 17.247 v -51.3483 h -51.3483 v 17.247 26.5736 h -70.0014 v -70.0015 h 26.5736 v 0 h 17.247 v -51.3483 h -51.3483 v 17.247 26.5736 h -70.0014 v -70.0014 h 26.5736 17.247 v -51.3483 h -51.3483 v 17.247 26.5736 h -70.0014 v -70.0014 h 26.5735 v 0 h 17.2471 v -51.3482 h -51.3483 v 17.247 26.5735 h -70.0014 v -70.0009 h 26.5735 v -5e-4 h 17.247 v -51.3483 h -51.3483 v 17.247 26.5736 h -70.0014 v -70.0014 h 26.5736 v 0 h 17.247 v -51.3483 h -51.3483 v 17.247 26.5736 h -70.0014 v -70.0014 h 26.5736 v -3.7642 z m 7.0244,7.0249 v 63.4799 h 63.4798 v -23.3128 -20.5078 h 57.8699 v 57.8699 h -20.5078 v 0 h -23.3128 v 63.4798 h 63.4799 v -23.3128 -20.5078 h 57.8698 v 57.8694 h -20.5078 v 5e-4 h -23.3128 v 63.4798 h 63.4799 v -23.3127 -20.5078 h 57.8698 v 57.8698 h -20.5078 v 0 h -23.3127 v 63.4798 h 63.4798 v -23.3128 -20.5078 h 57.8699 v 57.8699 h -20.5078 -23.3128 v 63.4798 h 63.4798 v -23.3128 -20.5078 h 57.8699 v 57.8699 h -20.5078 v 0 h -23.3128 v 63.4799 h 63.4798 v -23.3128 -20.5078 h 57.8699 v 57.8698 h -20.5078 v 6e-4 h -23.3128 v 63.4798 h 63.4799 v -23.3128 -20.5078 h 57.8698 v 57.8699 h -20.5078 v 0 h -23.3128 v 63.4799 h 63.4799 v -23.3128 -20.5078 h 57.8698 v 57.8698 h -20.5078 v 9.8299 h 20.5078 9.8294 v -9.8299 -67.6992 h -77.5291 v 9.8294 20.5078 13.4829 h -43.8201 v -43.8211 h 13.4829 20.5078 9.8294 v -9.8299 -67.6993 h -77.5291 v 9.8294 20.5078 13.4829 h -43.8201 v -43.8211 h 13.4829 v 5e-4 h 20.5078 9.8294 v -9.8299 -67.6992 h -77.5292 v 9.8294 20.5078 13.4829 h -43.82 v -43.8211 h 13.4829 20.5078 9.8293 v -9.8299 -67.6992 h -77.5291 v 9.8293 20.5078 13.4829 h -43.82 v -43.8211 h 13.4829 v 0 h 20.5078 9.8293 v -9.8299 -67.6993 h -77.5291 v 9.8294 20.5078 13.4829 h -43.8201 v -43.8211 h 13.4829 20.5078 9.8294 v -9.8299 -67.6992 h -77.5291 v 9.8294 20.5078 13.4829 h -43.8201 v -43.8211 h 13.4829 v 5e-4 h 20.5078 9.8294 v -9.8299 -67.6992 h -77.5291 v 9.8298 20.5078 13.4829 h -43.8201 v -43.8211 h 13.4829 20.5078 9.8294 v -9.8298 -67.6993 h -77.5291 v 9.8294 20.5078 13.4829 h -43.8201 v -43.8211 h 13.4829 v -9.8289 z" />
              <path
                 id="path3971"
                 style="color:#000000;fill:#73828c;fill-opacity:1;fill-rule:evenodd;stroke-width:13.5408;-inkscape-stroke:none"
                 d="m 3823.1671,3279.1185 v 77.5292 h 77.5291 v -9.8294 -20.5078 -13.4829 h 43.8201 v 43.8211 h -13.4829 -30.3372 v 77.5291 h 77.5292 v -9.8294 -20.5078 -13.4829 h 43.82 v 43.8211 h -13.4829 v -5e-4 h -30.3371 v 77.5286 h 77.5291 v -9.8293 -20.5078 -13.4829 h 43.82 v 43.8211 h -13.4829 -30.3371 v 77.5291 h 77.5291 v -9.8294 -20.5078 -13.4829 h 43.8201 v 43.8211 h -13.4829 v 0 h -30.3372 v 77.5291 h 77.5291 v -9.8294 -20.5078 -13.4829 h 43.8201 v 43.8211 h -13.4829 -30.3372 v 77.5291 h 77.5291 v -9.8293 -20.5078 -13.4829 h 43.8201 v 43.8211 h -13.4829 v -5e-4 h -30.3372 v 77.5291 h 77.5291 v -9.8294 -20.5078 -13.4829 h 43.8201 v 43.8211 h -13.4829 -30.3372 v 77.5291 h 77.5292 v -9.8293 -20.5078 -13.4829 h 43.82 v 43.8211 h -13.4829 v 3.763 h 17.247 v -51.3482 h -51.3482 v 17.247 26.5735 h -70.0015 v -70.0014 h 26.5736 v 0 h 17.247 v -51.3483 h -51.3483 v 17.247 26.5736 h -70.0014 v -70.0014 h 26.5736 v -5e-4 h 17.247 v -51.3483 h -51.3483 v 17.247 26.5736 h -70.0014 v -70.0015 h 26.5736 v 0 h 17.247 v -51.3483 h -51.3483 v 17.247 26.5736 h -70.0014 v -70.0014 h 26.5736 17.247 v -51.3483 h -51.3483 v 17.247 26.5736 h -70.0014 v -70.0014 h 26.5735 v 0 h 17.2471 v -51.3482 h -51.3483 v 17.247 26.5735 h -70.0014 v -70.0009 h 26.5735 v -5e-4 h 17.247 v -51.3483 h -51.3483 v 17.247 26.5736 h -70.0014 v -70.0014 h 26.5736 v 0 h 17.247 v -51.3483 h -51.3483 v 17.247 26.5736 h -70.0014 v -70.0014 h 26.5736 v -3.7642 z m 7.0244,7.0249 v 63.4799 h 63.4798 v -23.3128 -20.5078 h 57.8699 v 57.8699 h -20.5078 v 0 h -23.3128 v 63.4798 h 63.4799 v -23.3128 -20.5078 h 57.8698 v 57.8694 h -20.5078 v 5e-4 h -23.3128 v 63.4798 h 63.4799 v -23.3127 -20.5078 h 57.8698 v 57.8698 h -20.5078 v 0 h -23.3127 v 63.4798 h 63.4798 v -23.3128 -20.5078 h 57.8699 v 57.8699 h -20.5078 -23.3128 v 63.4798 h 63.4798 v -23.3128 -20.5078 h 57.8699 v 57.8699 h -20.5078 v 0 h -23.3128 v 63.4799 h 63.4798 v -23.3128 -20.5078 h 57.8699 v 57.8698 h -20.5078 v 6e-4 h -23.3128 v 63.4798 h 63.4799 v -23.3128 -20.5078 h 57.8698 v 57.8699 h -20.5078 v 0 h -23.3128 v 63.4799 h 63.4799 v -23.3128 -20.5078 h 57.8698 v 57.8698 h -20.5078 v 9.8299 h 20.5078 9.8294 v -9.8299 -67.6992 h -77.5291 v 9.8294 20.5078 13.4829 h -43.8201 v -43.8211 h 13.4829 20.5078 9.8294 v -9.8299 -67.6993 h -77.5291 v 9.8294 20.5078 13.4829 h -43.8201 v -43.8211 h 13.4829 v 5e-4 h 20.5078 9.8294 v -9.8299 -67.6992 h -77.5292 v 9.8294 20.5078 13.4829 h -43.82 v -43.8211 h 13.4829 20.5078 9.8293 v -9.8299 -67.6992 h -77.5291 v 9.8293 20.5078 13.4829 h -43.82 v -43.8211 h 13.4829 v 0 h 20.5078 9.8293 v -9.8299 -67.6993 h -77.5291 v 9.8294 20.5078 13.4829 h -43.8201 v -43.8211 h 13.4829 20.5078 9.8294 v -9.8299 -67.6992 h -77.5291 v 9.8294 20.5078 13.4829 h -43.8201 v -43.8211 h 13.4829 v 5e-4 h 20.5078 9.8294 v -9.8299 -67.6992 h -77.5291 v 9.8298 20.5078 13.4829 h -43.8201 v -43.8211 h 13.4829 20.5078 9.8294 v -9.8298 -67.6993 h -77.5291 v 9.8294 20.5078 13.4829 h -43.8201 v -43.8211 h 13.4829 v -9.8289 z" />
            </g>
          </g>
        </g>
      </g>
    </g>
    <text
       xml:space="preserve"
       style="font-style:normal;font-variant:normal;font-weight:normal;font-stretch:normal;font-size:7.58971px;line-height:1.25;font-family:'IBM Plex Sans Arabic';-inkscape-font-specification:'IBM Plex Sans Arabic, Normal';font-variant-ligatures:normal;font-variant-caps:normal;font-variant-numeric:normal;font-variant-east-asian:normal;letter-spacing:0px;white-space:pre;inline-size:194.542;display:inline;fill:#003c66;fill-opacity:1;stroke:none;stroke-width:0.474356"
       x="-753.65961"
       y="1349.4268"
       id="text6712"
       transform="matrix(0.55777249,0,0,0.55777249,17.093576,-634.78087)"><tspan
         x="-753.65961"
         y="1349.4268"
         id="tspan1952"
         style="font-size:7.58971px;stroke-width:0.474356"><tspan
   style="font-weight:bold;font-size:7.58971px;-inkscape-font-specification:'IBM Plex Sans Arabic Bold';stroke-width:0.474356"
   id="tspan1951">DL Envelope</tspan>
210  99 mm</tspan></text>
  </g>
</svg>
