<?xml version="1.0" encoding="UTF-8" standalone="no"?>
<!-- Created with Inkscape (http://www.inkscape.org/) -->

<svg
   width="176.38889mm"
   height="175.74295mm"
   viewBox="0 0 176.38889 175.74295"
   version="1.1"
   id="svg1"
   inkscape:version="1.4.2 (ebf0e94, 2025-05-08)"
   sodipodi:docname="behance-logo.svg"
   xml:space="preserve"
   xmlns:inkscape="http://www.inkscape.org/namespaces/inkscape"
   xmlns:sodipodi="http://sodipodi.sourceforge.net/DTD/sodipodi-0.dtd"
   xmlns="http://www.w3.org/2000/svg"
   xmlns:svg="http://www.w3.org/2000/svg"><sodipodi:namedview
     id="namedview1"
     pagecolor="#ffffff"
     bordercolor="#000000"
     borderopacity="0.25"
     inkscape:showpageshadow="2"
     inkscape:pageopacity="0.0"
     inkscape:pagecheckerboard="0"
     inkscape:deskcolor="#d1d1d1"
     inkscape:document-units="mm"
     inkscape:zoom="0.73584456"
     inkscape:cx="296.93771"
     inkscape:cy="321.3994"
     inkscape:window-width="1920"
     inkscape:window-height="1048"
     inkscape:window-x="0"
     inkscape:window-y="0"
     inkscape:window-maximized="1"
     inkscape:current-layer="layer1" /><defs
     id="defs1"><style
       id="style1">.cls-1{fill:none;}.cls-2{clip-path:url(#clippath);}</style><clipPath
       id="clippath-1"><path
         class="cls-1"
         d="m 1249.92,225.18 c 333.75,0 373.28,1.25 505.09,7.27 121.88,5.56 188.06,25.9 232.1,43.03 58.37,22.69 99.99,49.74 143.73,93.48 43.73,43.74 70.84,85.37 93.48,143.73 17.13,44.04 37.47,110.22 43.03,232.1 6.01,131.81 7.27,171.33 7.27,505.09 0,333.76 -1.25,373.27 -7.27,505.08 -5.56,121.88 -25.9,188.06 -43.03,232.1 -22.69,58.37 -49.74,99.99 -93.48,143.73 -43.74,43.73 -85.37,70.84 -143.73,93.48 -44.04,17.13 -110.22,37.47 -232.1,43.03 -131.8,6.01 -171.33,7.27 -505.09,7.27 -333.76,0 -373.27,-1.25 -505.08,-7.27 -121.88,-5.56 -188.06,-25.9 -232.1,-43.03 -58.37,-22.7 -99.99,-49.75 -143.73,-93.48 -43.73,-43.74 -70.84,-85.37 -93.48,-143.73 -17.14,-44.04 -37.47,-110.22 -43.03,-232.1 -6.01,-131.8 -7.27,-171.33 -7.27,-505.08 0,-333.75 1.25,-373.27 7.27,-505.09 5.56,-121.88 25.9,-188.06 43.03,-232.1 22.69,-58.37 49.74,-99.99 93.48,-143.73 43.74,-43.73 85.37,-70.84 143.73,-93.48 44.04,-17.13 110.22,-37.47 232.1,-43.03 131.8,-5.96 171.33,-7.27 505.08,-7.27 z M 1249.92,0 C 910.46,0 867.88,1.45 734.57,7.51 601.51,13.57 510.68,34.72 431.18,65.62 348.97,97.58 279.29,140.32 209.8,209.8 140.32,279.29 97.54,348.97 65.62,431.18 34.71,510.69 13.57,601.56 7.51,734.57 1.45,867.89 0,910.47 0,1249.92 c 0,339.45 1.45,382.04 7.51,515.35 6.06,133.06 27.21,223.89 58.11,303.39 31.96,82.21 74.7,151.89 144.18,221.38 69.49,69.49 139.22,112.22 221.38,144.18 79.51,30.91 170.38,52.05 303.39,58.11 133.31,6.06 175.89,7.51 515.35,7.51 339.46,0 382.04,-1.45 515.35,-7.51 133.06,-6.06 223.89,-27.21 303.39,-58.11 82.21,-31.97 151.89,-74.7 221.38,-144.18 69.49,-69.49 112.22,-139.22 144.18,-221.38 30.91,-79.5 52.05,-170.38 58.11,-303.39 6.06,-133.31 7.51,-175.89 7.51,-515.35 0,-339.46 -1.45,-382.04 -7.51,-515.35 -6.06,-133.06 -27.21,-223.89 -58.11,-303.39 C 2402.25,348.97 2359.52,279.29 2290.04,209.8 2220.55,140.32 2150.82,97.58 2068.66,65.62 1989.16,34.71 1898.28,13.57 1765.27,7.51 1631.97,1.45 1589.38,0 1249.92,0 Z m 0,608.08 c -354.49,0 -641.84,287.35 -641.84,641.84 0,354.49 287.35,641.85 641.84,641.85 354.49,0 641.85,-287.36 641.85,-641.85 0,-354.49 -287.36,-641.84 -641.85,-641.84 z m 0,1058.51 c -230.09,0 -416.66,-186.51 -416.66,-416.66 0,-230.15 186.57,-416.66 416.66,-416.66 230.09,0 416.66,186.51 416.66,416.66 0,230.15 -186.57,416.66 -416.66,416.66 z m 667.2,-1233.85 c -82.86,0 -149.99,67.13 -149.99,149.99 0,82.86 67.13,150 149.99,150 82.86,0 150,-67.14 150,-150 0,-82.86 -67.13,-149.99 -150,-149.99 z"
         id="path1-2" /></clipPath><clipPath
       clipPathUnits="userSpaceOnUse"
       id="clipPath1"><path
         class="cls-1"
         d="m 1246.7402,221.99998 c 333.7499,0 373.28,1.25006 505.0897,7.27 121.8802,5.55998 188.0602,25.89998 232.1003,43.03 58.3699,22.68999 99.9899,49.73999 143.7298,93.47999 43.7301,43.74 70.8401,85.37002 93.4802,143.73 17.1299,44.03996 37.4698,110.22007 43.0299,232.1 6.0099,131.81001 7.2699,171.32996 7.2699,505.09013 0,333.7599 -1.2492,373.2699 -7.2699,505.0799 -5.5601,121.8799 -25.9,188.06 -43.0299,232.1001 -22.6901,58.3699 -49.7402,99.9899 -93.4802,143.7298 -43.7399,43.7301 -85.3699,70.8399 -143.7298,93.48 -44.0401,17.1301 -110.2201,37.47 -232.1003,43.03 -131.7998,6.0101 -171.3298,7.2701 -505.0897,7.2701 -333.76017,0 -373.27015,-1.2508 -505.08016,-7.2701 -121.87997,-5.56 -188.05992,-25.8999 -232.09992,-43.03 -58.37007,-22.7 -99.99,-49.7499 -143.73012,-93.48 -43.72984,-43.7399 -70.8399,-85.3699 -93.47988,-143.7298 -17.14004,-44.0401 -37.4701,-110.2202 -43.03001,-232.1001 -6.01008,-131.8 -7.27009,-171.3301 -7.27009,-505.0799 0,-333.75 1.25081,-373.27011 7.27009,-505.09013 5.55991,-121.87993 25.89991,-188.06004 43.03001,-232.1 22.69001,-58.36999 49.73992,-99.99 93.47988,-143.73 43.74012,-43.73 85.37014,-70.83999 143.73012,-93.47999 44.04,-17.13002 110.21995,-37.47002 232.09992,-43.03 131.80004,-5.96001 171.33012,-7.27 505.08016,-7.27 z m 0,-225.1800119 c -339.4601,0 -382.04012,1.4500362 -515.3501,7.5100116 C 598.33005,10.389971 507.50005,31.539966 428.00014,62.439964 c -82.2101,31.959998 -151.89007,74.700006 -221.38,144.180006 -69.48,69.49 -112.26,139.17 -144.180098,221.37998 C 31.530076,507.50999 10.390017,598.3799 4.3300736,731.38995 -1.7298858,864.71006 -3.179922,907.28992 -3.179922,1246.74 c 0,339.4499 1.4497371,382.0399 7.5099956,515.3501 6.0599434,133.0598 27.2099544,223.8898 58.1099684,303.3898 31.96003,82.2102 74.700098,151.8901 144.180098,221.3801 69.48993,69.4899 139.21994,112.22 221.38,144.1799 79.51,30.9101 170.37991,52.05 303.38996,58.1102 133.30998,6.0599 175.89,7.5099 515.3501,7.5099 339.4599,0 382.0399,-1.4497 515.35,-7.5099 133.0599,-6.0602 223.8898,-27.2102 303.3899,-58.1102 82.21,-31.97 151.8899,-74.7 221.3801,-144.1799 69.4899,-69.49 112.2198,-139.22 144.1799,-221.3801 30.9099,-79.5 52.05,-170.3799 58.11,-303.3898 6.0601,-133.3102 7.5099,-175.89 7.5099,-515.3501 0,-339.46005 -1.4497,-382.03995 -7.5099,-515.35005 -6.06,-133.05993 -27.21,-223.88997 -58.11,-303.39 -31.9701,-82.20998 -74.7,-151.88998 -144.1799,-221.37998 C 2217.37,137.13997 2147.64,94.399962 2065.4801,62.439964 1985.98,31.52997 1895.1,10.389971 1762.0902,4.3299797 c -133.3001,-6.0600073 -175.8901,-7.5100116 -515.35,-7.5100116 z m 0,608.0799619 c -354.49025,0 -641.84008,287.35003 -641.84008,641.84007 0,354.4899 287.34983,641.85 641.84008,641.85 354.4898,0 641.8499,-287.3601 641.8499,-641.85 0,-354.49004 -287.3601,-641.84007 -641.8499,-641.84007 z m 0,1058.51017 c -230.0901,0 -416.66019,-186.5102 -416.66019,-416.6601 0,-230.1501 186.57009,-416.66005 416.66019,-416.66005 230.0898,0 416.6599,186.50995 416.6599,416.66005 0,230.1499 -186.5701,416.6601 -416.6599,416.6601 z M 1913.9401,429.55997 c -82.86,0 -149.9901,67.12999 -149.9901,149.98994 0,82.86007 67.1301,149.99999 149.9901,149.99999 82.8599,0 150,-67.13992 150,-149.99999 0,-82.85995 -67.1299,-149.98994 -150,-149.98994 z"
         id="path1"
         style="fill:#000000;stroke-width:0.999996" /></clipPath></defs><g
     inkscape:label="Layer 1"
     inkscape:groupmode="layer"
     id="layer1"
     transform="translate(334.80045,-60.325)"><path
       id="path3"
       style="fill:#0057ff;fill-opacity:1;fill-rule:evenodd;stroke-width:1"
       d="M -246.60583 60.325 A 87.871361 87.871361 0 0 0 -334.47747 148.19612 A 87.871361 87.871361 0 0 0 -246.60583 236.06776 A 87.871361 87.871361 0 0 0 -158.73471 148.19612 A 87.871361 87.871361 0 0 0 -246.60583 60.325 z M -307.61296 108.52051 L -270.86688 108.52051 C -267.22692 108.52051 -263.86443 108.79801 -260.77913 109.63 C -257.69383 110.18466 -255.16316 111.32895 -252.90984 112.7156 C -250.65654 114.10225 -248.99264 116.07813 -247.84865 118.60878 C -246.73933 121.13941 -246.14953 124.22441 -246.14953 127.58704 C -246.14953 131.50435 -246.98165 134.86717 -248.95763 137.39781 C -250.65628 139.92846 -253.42962 142.18201 -256.82691 143.846 C -252.04296 145.23266 -248.40281 147.76302 -246.18415 151.12566 C -243.96551 154.48829 -242.54458 158.68307 -242.54458 163.46702 C -242.54458 167.38431 -243.37635 170.74681 -244.79767 173.55478 C -246.18432 176.36276 -248.43772 178.89347 -250.96836 180.55745 C -253.499 182.25609 -256.58451 183.64254 -259.94714 184.47453 C -263.30978 185.30652 -266.67226 185.86152 -270.03489 185.86152 L -307.61296 185.93077 L -307.61296 108.52051 z M -225.14203 113.8592 L -193.73413 113.8592 L -193.73413 121.41688 L -225.14203 121.41688 L -225.14203 113.8592 z M -290.48791 121.72849 L -290.48791 139.96303 C -290.48791 139.92833 -273.11998 139.92841 -273.11998 139.92841 C -270.03467 139.92841 -267.50414 139.09664 -265.56282 137.67532 C -263.62151 136.254 -262.75472 133.75794 -262.75472 130.67264 C -262.75472 128.97399 -263.03203 127.3099 -263.58671 126.20057 C -264.14136 125.09124 -264.97382 124.22446 -266.11782 123.39247 C -267.22714 122.8378 -268.37074 122.28332 -269.75739 122.00599 C -271.14404 121.72867 -272.56548 121.72849 -274.22947 121.72849 L -290.48791 121.72849 z M -208.32858 128.38441 C -203.54462 128.38441 -199.3502 129.21653 -195.71023 131.19251 C -192.07027 133.16849 -189.26226 135.38703 -187.00895 138.74967 C -184.75564 141.83497 -183.09175 145.47514 -181.94776 149.39243 C -181.3931 153.30974 -181.11595 157.26185 -181.39328 161.7338 L -222.05643 161.7338 C -222.05643 166.30976 -220.39265 170.50411 -218.13935 172.75741 C -215.88603 175.01072 -212.52355 176.12 -208.0516 176.12 C -204.96631 176.12 -202.15812 175.28823 -199.90481 173.86691 C -197.6515 172.16826 -196.26489 170.50437 -195.71023 168.80572 L -181.98239 168.80572 C -184.2357 175.53099 -187.59818 180.31487 -192.07014 183.40017 C -196.54209 186.20814 -201.88064 187.87174 -208.32858 187.87174 C -212.80054 187.87174 -216.7525 187.03996 -220.39245 185.61864 C -224.03242 184.23199 -226.84058 182.25593 -229.37123 179.44796 C -231.90187 176.91731 -233.84344 173.83217 -234.98742 170.1922 C -236.37409 166.55224 -236.96301 162.63497 -236.96301 158.12833 C -236.96301 153.93372 -236.40874 149.98195 -234.98742 146.34197 C -233.5661 142.70201 -231.62436 139.61668 -229.09372 136.8087 C -226.56308 134.27806 -223.4781 132.02467 -220.11546 130.63802 C -216.47549 129.25135 -212.83521 128.38441 -208.32858 128.38441 z M -209.16057 140.20591 C -211.69121 140.20591 -213.6326 140.7604 -215.33126 141.59239 C -217.02991 142.42438 -218.13953 143.56867 -219.24885 144.67799 C -220.35818 145.78731 -220.94711 147.20841 -221.22444 148.59506 C -221.50177 149.98173 -221.77944 151.12582 -221.77944 152.23515 L -196.54222 152.23515 C -197.09688 148.07519 -198.51799 145.26697 -200.4593 143.291 C -202.43528 141.31501 -205.52061 140.20591 -209.16057 140.20591 z M -290.48791 151.40316 L -290.48791 173.00029 L -272.28799 173.00029 L -272.28799 173.03492 C -270.58934 173.03492 -268.92562 172.75724 -267.5043 172.47991 C -266.11765 172.20259 -264.69602 171.64796 -263.58671 170.78131 C -262.47737 169.91465 -261.61113 169.08289 -260.77913 167.69622 C -260.22448 166.30958 -259.66964 164.611 -259.66964 162.63503 C -259.66964 158.71774 -260.77891 155.90973 -263.03222 153.93376 C -265.28555 152.23511 -268.37104 151.40316 -272.011 151.40316 L -290.48791 151.40316 z " /></g></svg>
