<?xml version="1.0" encoding="UTF-8" standalone="no"?>
<!-- Created with Inkscape (http://www.inkscape.org/) -->

<svg
   width="180.6194mm"
   height="180.6194mm"
   viewBox="0 0 180.6194 180.6194"
   version="1.1"
   id="svg1"
   inkscape:version="1.3.2 (091e20ef0f, 2023-11-25, custom)"
   sodipodi:docname="branding.svg"
   xmlns:inkscape="http://www.inkscape.org/namespaces/inkscape"
   xmlns:sodipodi="http://sodipodi.sourceforge.net/DTD/sodipodi-0.dtd"
   xmlns="http://www.w3.org/2000/svg"
   xmlns:svg="http://www.w3.org/2000/svg">
  <sodipodi:namedview
     id="namedview1"
     pagecolor="#ffffff"
     bordercolor="#000000"
     borderopacity="0.25"
     inkscape:showpageshadow="2"
     inkscape:pageopacity="0.0"
     inkscape:pagecheckerboard="0"
     inkscape:deskcolor="#d1d1d1"
     inkscape:document-units="mm"
     inkscape:zoom="0.73584456"
     inkscape:cx="203.8474"
     inkscape:cy="555.82391"
     inkscape:window-width="1920"
     inkscape:window-height="1048"
     inkscape:window-x="0"
     inkscape:window-y="0"
     inkscape:window-maximized="1"
     inkscape:current-layer="layer1" />
  <defs
     id="defs1" />
  <g
     inkscape:label="Layer 1"
     inkscape:groupmode="layer"
     id="layer1"
     transform="translate(433.88577,-46.706825)">
    <path
       style="fill:#ffffff;stroke-width:0.264584"
       d="m -343.7522,83.310709 c -6.70163,0.06658 -11.49092,5.974203 -11.49092,5.974203 0,0 -16.05241,16.289728 -21.22643,22.008358 -1.57972,1.74608 -6.59814,6.57028 -10.58497,10.63025 -8.41564,8.56933 -17.33015,16.54175 -4.49673,19.98007 13.68945,3.6681 14.49876,4.17715 16.57402,5.60118 1.8952,1.30066 3.24608,1.076 -5.2446,5.4331 -7.59673,3.89818 -2.75084,5.59328 -0.90071,6.45262 6.15139,2.85661 14.70723,4.85672 20.18123,7.42609 5.47401,2.56955 -1.5898,8.00989 -1.5898,8.00989 -1.39188,1.74446 -1.48318,3.3297 -0.97956,3.83228 3.26531,3.25826 8.30293,2.14145 10.63899,3.91692 3.94916,3.00127 1.946,6.15177 4.6664,7.36683 5.93502,2.65022 16.08732,-2.12262 18.99186,-4.24525 2.90465,-2.12262 -0.22351,-3.57499 -0.22351,-3.57499 -5.5929,-1.62489 -2.4579,-3.91007 -2.4579,-3.91007 4.80442,-5.26504 14.77297,-7.11745 14.77297,-7.11745 0,0 9.16569,-4.3183 2.767,-8.85839 -6.27028,-4.44879 -12.96192,-4.69865 -1.89921,-9.16094 13.29453,-5.36254 9.94287,-1.45228 22.00845,-8.49051 12.06549,-7.03812 -1.11719,-17.20431 -1.11719,-17.20431 0,0 -25.02445,-24.35449 -36.97857,-37.984207 -3.92234,-4.472281 -7.73644,-6.021663 -11.09077,-6.084818 -0.10749,-0.002 -0.21401,-0.0024 -0.32054,-0.0014 z m 0.1788,4.025349 c 4.47619,-0.07609 7.26678,3.457337 7.26678,3.457337 0,0 11.45125,11.562735 14.41163,14.467365 2.96028,2.90464 1.34042,6.2002 1.34042,6.2002 l -8.04347,-6.31205 -1.45237,9.44001 -6.53536,-3.57481 -10.61322,6.5915 -3.46332,-13.96451 -5.75355,12.17706 c 0,0 -9.10473,-0.0571 -13.46212,-0.0571 -4.35691,0 -1.56412,-3.91026 -1.56412,-3.91026 0,0 10.5571,-11.50708 19.60657,-20.3885 3.11066,-3.053015 5.91762,-4.086221 8.26242,-4.127595 z m -19.79118,62.698222 c 0,0 7.18841,0.5526 14.37719,2.21203 7.18889,1.65895 7.5837,2.76492 7.5837,2.76492 0,0 0.79038,0.63154 -1.26396,1.57982 -2.05394,0.94827 -5.92464,-0.0761 -5.92464,-0.0761 0,0 -15.40422,-4.26589 -14.7721,-6.47792 z"
       id="path920" />
  </g>
</svg>
