<?xml version="1.0" encoding="UTF-8" standalone="no"?>
<!-- Created with Inkscape (http://www.inkscape.org/) -->

<svg
   width="176.38889mm"
   height="175.74295mm"
   viewBox="0 0 176.38889 175.74295"
   version="1.1"
   id="svg1"
   inkscape:version="1.4.2 (ebf0e94, 2025-05-08)"
   sodipodi:docname="dribbble-logo.svg"
   xmlns:inkscape="http://www.inkscape.org/namespaces/inkscape"
   xmlns:sodipodi="http://sodipodi.sourceforge.net/DTD/sodipodi-0.dtd"
   xmlns="http://www.w3.org/2000/svg"
   xmlns:svg="http://www.w3.org/2000/svg">
  <sodipodi:namedview
     id="namedview1"
     pagecolor="#ffffff"
     bordercolor="#000000"
     borderopacity="0.25"
     inkscape:showpageshadow="2"
     inkscape:pageopacity="0.0"
     inkscape:pagecheckerboard="0"
     inkscape:deskcolor="#d1d1d1"
     inkscape:document-units="mm"
     inkscape:zoom="1.0406414"
     inkscape:cx="408.88246"
     inkscape:cy="355.06949"
     inkscape:window-width="1920"
     inkscape:window-height="1048"
     inkscape:window-x="0"
     inkscape:window-y="0"
     inkscape:window-maximized="1"
     inkscape:current-layer="layer1" />
  <defs
     id="defs1" />
  <g
     inkscape:label="Layer 1"
     inkscape:groupmode="layer"
     id="layer1"
     transform="translate(334.80045,-60.325)">
    <path
       id="circle1"
       style="fill:#ea4c89;stroke-width:0.264584"
       class="cls-2"
       d="m -246.60235,66.682087 c -6.45843,-0.02888 -12.8982,0.695691 -19.18873,2.159032 11.17819,15.271428 21.3614,31.246821 30.4864,47.827001 29.03868,-10.89031 41.37689,-27.378158 42.83109,-29.452813 -14.92113,-13.239585 -34.18067,-20.545508 -54.12876,-20.53322 z m -34.73892,7.672017 c -23.16575,10.940267 -39.89111,32.074016 -45.21588,57.133706 25.48127,-0.16401 50.84245,-3.50757 75.49557,-9.95318 -9.22975,-16.26456 -19.33792,-32.014704 -30.27969,-47.180526 z m 97.89036,22.297308 c -1.7515,2.281467 -15.44701,19.906558 -45.52625,32.154128 1.86137,3.83909 3.72929,7.87841 5.3903,11.82091 0.62047,1.45419 1.11778,2.9023 1.7641,4.25307 27.17084,-3.4319 54.13495,2.06774 56.83006,2.5848 -0.17568,-18.54742 -6.68876,-36.47703 -18.45821,-50.812908 z m -60.97336,37.518668 c -40.7498,12.27989 -80.36198,11.73654 -83.89082,11.63323 v 2.48842 c -9.2e-4,20.13585 7.45392,39.55891 20.92762,54.52259 1.86784,-3.10874 24.26865,-40.24535 66.36925,-53.81785 1.0535,-0.28437 2.19127,-0.62082 3.23183,-0.93105 -2.07465,-4.66636 -4.253,-9.33239 -6.63788,-13.89534 z m 45.83267,22.27602 c -5.74569,-0.0675 -11.94791,0.277 -18.35122,1.28846 10.69642,29.34245 15.03944,53.19127 15.86671,58.16785 18.75366,-12.5476 31.42028,-32.35211 34.94619,-54.6391 -2.09889,-0.70771 -15.2246,-4.61484 -32.46168,-4.81721 z m -33.49415,5.01776 c -0.20681,0.10352 -0.31024,0.10341 -0.51705,0.20672 -46.0431,16.07371 -62.63392,48.01428 -64.0881,51.01962 14.29932,11.18134 31.93664,17.2418 50.08855,17.2112 10.98989,0.034 21.86982,-2.18795 31.96646,-6.52808 -3.8329,-21.14486 -9.67603,-41.87542 -17.44986,-61.90946 z"
       sodipodi:nodetypes="ccccccccccccccccccccccscccscccccc" />
  </g>
</svg>
