<?xml version="1.0" encoding="UTF-8" standalone="no"?>
<!-- Created with Inkscape (http://www.inkscape.org/) -->

<svg
   width="176.38889mm"
   height="175.74295mm"
   viewBox="0 0 176.38889 175.74295"
   version="1.1"
   id="svg1"
   inkscape:version="1.3.2 (091e20ef0f, 2023-11-25, custom)"
   sodipodi:docname="facebook-logo.svg"
   xmlns:inkscape="http://www.inkscape.org/namespaces/inkscape"
   xmlns:sodipodi="http://sodipodi.sourceforge.net/DTD/sodipodi-0.dtd"
   xmlns="http://www.w3.org/2000/svg"
   xmlns:svg="http://www.w3.org/2000/svg">
  <sodipodi:namedview
     id="namedview1"
     pagecolor="#ffffff"
     bordercolor="#000000"
     borderopacity="0.25"
     inkscape:showpageshadow="2"
     inkscape:pageopacity="0.0"
     inkscape:pagecheckerboard="0"
     inkscape:deskcolor="#d1d1d1"
     inkscape:document-units="mm"
     inkscape:zoom="0.26016034"
     inkscape:cx="422.81618"
     inkscape:cy="695.7248"
     inkscape:window-width="1920"
     inkscape:window-height="1048"
     inkscape:window-x="0"
     inkscape:window-y="0"
     inkscape:window-maximized="1"
     inkscape:current-layer="layer1" />
  <defs
     id="defs1" />
  <g
     inkscape:label="Layer 1"
     inkscape:groupmode="layer"
     id="layer1"
     transform="translate(334.80045,-60.325)">
    <g
       id="g1">
      <path
         id="path1"
         clip-path="none"
         mask="none"
         style="fill:#0866ff;fill-opacity:1;fill-rule:nonzero;stroke:none"
         d="M -249.9995 250 C -388.07036 250 -500 138.07036 -500 -0.0005008797 C -500 -117.24489 -419.28521 -215.62224 -310.39501 -242.6387 L -310.39501 -76.396501 L -361.94579 -76.396501 L -361.94579 -0.0005008797 L -310.39501 -0.0005008797 L -310.39501 32.918934 C -310.39501 38.236153 -310.24323 43.374192 -309.94091 48.336416 C -309.94085 48.337358 -309.94097 48.338403 -309.94091 48.339345 C -309.94088 48.339839 -309.94094 48.340316 -309.94091 48.34081 C -309.94079 48.342817 -309.94103 48.344663 -309.94091 48.34667 C -309.03328 63.233009 -306.75828 76.529601 -303.07226 88.275382 C -301.84338 92.191293 -300.45762 95.934898 -298.91356 99.507805 C -297.37264 103.07346 -295.67244 106.46727 -293.81444 109.69433 C -293.8107 109.70082 -293.80793 109.70834 -293.80419 109.71484 C -293.80398 109.7152 -293.8044 109.71594 -293.80419 109.7163 C -293.80007 109.72346 -293.79513 109.72966 -293.79101 109.73681 C -291.93215 112.9615 -289.91427 116.01888 -287.73534 118.9082 C -285.55137 121.80419 -283.20693 124.53312 -280.69823 127.09521 C -278.18953 129.6573 -275.51776 132.05198 -272.68114 134.2832 C -272.68083 134.28344 -272.67998 134.28296 -272.67968 134.2832 C -269.84333 136.51414 -266.84265 138.58218 -263.67528 140.48535 C -251.00441 148.09885 -235.67101 153.1015 -217.57518 155.59082 C -208.52727 156.83547 -198.78952 157.45117 -188.34715 157.45117 C -180.42816 157.45117 -169.63623 156.675 -159.42674 155.51025 C -159.42626 155.51019 -159.42576 155.5103 -159.42528 155.51025 C -154.32107 154.92791 -149.36176 154.24889 -144.98045 153.52099 C -140.60334 152.79379 -136.80441 152.01884 -134.01024 151.24316 C -134.00727 151.24234 -134.00294 151.24105 -133.99998 151.24023 C -133.99962 151.24013 -133.99887 151.24033 -133.99852 151.24023 L -133.99852 81.985343 C -136.94901 82.295843 -140.98716 82.530164 -145.8784 82.685538 C -150.76965 82.840663 -156.51435 82.916984 -162.88084 82.916984 C -165.4429 82.916984 -167.90756 82.857458 -170.27537 82.733878 C -191.58568 81.621663 -205.12041 75.412077 -212.53905 62.447256 C -214.18763 59.566185 -215.534 56.351627 -216.59667 52.785146 C -217.128 51.001906 -217.58927 49.130353 -217.98094 47.168935 C -218.37262 45.207518 -218.69557 43.156341 -218.95213 41.012196 C -218.95219 41.011699 -218.95207 41.011229 -218.95213 41.010732 C -219.46516 36.722827 -219.71239 32.064492 -219.71239 27.018543 L -219.71239 -0.0005008797 L -138.05467 -0.0005008797 L -138.0532 -0.0005008797 L -152.08201 -76.396501 L -219.71239 -76.396501 L -219.71239 -248.16848 C -95.926512 -233.2175 -0.00046308442 -127.81837 -0.00046308442 -0.0005008797 C -0.00046308442 138.07036 -111.92864 250 -249.9995 250 z "
         transform="matrix(0.35277776,0,0,-0.35277776,-158.41157,148.51944)" />
    </g>
  </g>
</svg>
