<?xml version="1.0" encoding="UTF-8" standalone="no"?>
<!-- Created with Inkscape (http://www.inkscape.org/) -->

<svg
   width="180.6194mm"
   height="180.6194mm"
   viewBox="0 0 180.6194 180.6194"
   version="1.1"
   id="svg1"
   inkscape:version="1.3.2 (091e20ef0f, 2023-11-25, custom)"
   sodipodi:docname="graphic.svg"
   xmlns:inkscape="http://www.inkscape.org/namespaces/inkscape"
   xmlns:sodipodi="http://sodipodi.sourceforge.net/DTD/sodipodi-0.dtd"
   xmlns="http://www.w3.org/2000/svg"
   xmlns:svg="http://www.w3.org/2000/svg">
  <sodipodi:namedview
     id="namedview1"
     pagecolor="#ffffff"
     bordercolor="#000000"
     borderopacity="0.25"
     inkscape:showpageshadow="2"
     inkscape:pageopacity="0.0"
     inkscape:pagecheckerboard="0"
     inkscape:deskcolor="#d1d1d1"
     inkscape:document-units="mm"
     inkscape:zoom="0.73584456"
     inkscape:cx="270.43755"
     inkscape:cy="339.74567"
     inkscape:window-width="1920"
     inkscape:window-height="1048"
     inkscape:window-x="0"
     inkscape:window-y="0"
     inkscape:window-maximized="1"
     inkscape:current-layer="layer1" />
  <defs
     id="defs1" />
  <g
     inkscape:label="Layer 1"
     inkscape:groupmode="layer"
     id="layer1"
     transform="translate(433.88577,-46.706825)">
    <path
       sodipodi:nodetypes="ccsccccccccsssccccsscssssssssscsccccccscscscccsssccscssssccccscscscccssssscsccccscscccsccccsccccscccsc"
       d="m -290.99264,97.175925 c -5.65598,14.212885 -20.7276,22.047955 -36.22311,24.989175 -2.67811,-1.71499 -5.79178,-2.62644 -8.97191,-2.62644 -3.8724,0 -7.62338,1.35067 -10.60662,3.81946 -20.02867,-1.54243 -27.40799,-22.35641 -27.40799,-22.35641 l -1.2e-4,-1.2e-4 -0.93352,25.94456 c -1.58347,2.36666 -2.43565,5.14688 -2.45023,7.99434 -4.44518,-4.12471 -9.81832,-6.46433 -14.73379,-6.41503 l -2.1e-4,-1.1e-4 c -1.13375,0.0111 -2.2273,0.15326 -3.26417,0.41801 -4.1217,1.05465 -7.14074,4.03059 -8.39271,8.2732 -1.25207,4.24259 -0.6345,9.40426 1.7166,14.34954 2.22473,4.67969 5.83475,8.81274 10.11325,11.57905 4.27874,2.76631 8.91297,3.96352 12.98301,3.35388 0.0964,0.075 0.1833,0.1329 0.2851,0.20684 0.0215,0.0322 0.0643,0.0643 0.0857,0.0963 0.88316,0.51017 3.84325,2.6199 3.84325,2.6199 27.36556,13.89875 67.04178,19.38035 83.95431,-8.933 15.32059,-25.64801 7.15821,-59.00478 6.50358,-61.20853 -1.47164,-5.91757 -3.57455,-9.051811 -6.50042,-2.104615 z m -45.19097,25.456625 c 3.59149,0 7.03593,1.42678 9.57554,3.9664 2.53952,2.53952 3.9663,5.98395 3.9663,9.57554 0,3.59139 -1.42678,7.03582 -3.9663,9.57544 -2.53961,2.53962 -5.98405,3.96629 -9.57554,3.96629 -3.5916,0 -7.03592,-1.42667 -9.57556,-3.96629 -2.53962,-2.53962 -3.96629,-5.98405 -3.96629,-9.57544 0,-3.59159 1.42667,-7.03602 3.96629,-9.57554 2.53964,-2.53962 5.98396,-3.9664 9.57556,-3.9664 z m -26.89022,0.96677 v 0 c 2.43298,0.003 4.80145,0.78239 6.75983,2.22611 1.95838,1.4435 3.40435,3.47509 4.12684,5.79821 -0.25936,0.91316 -0.44051,1.84757 -0.54125,2.79193 -1.09559,-3.11883 -4.04089,-5.20594 -7.34654,-5.20594 l -3.2e-4,2.2e-4 c -1.11872,0.003 -2.22376,0.24758 -3.23951,0.71597 0.34728,-0.0858 0.70418,-0.13507 1.06323,-0.13613 1.15443,0 2.26149,0.45872 3.07779,1.27479 0.81669,0.81671 1.27489,1.92345 1.27489,3.07779 0,1.15442 -0.45874,2.26158 -1.27489,3.07788 -0.81671,0.8167 -1.92336,1.27489 -3.07779,1.27489 -1.15443,0 -2.2616,-0.45764 -3.07788,-1.27479 -0.8167,-0.81671 -1.27501,-1.92345 -1.27501,-3.07798 0.003,-0.76634 0.20578,-1.51908 0.59056,-2.18155 -1.19301,1.40652 -1.8481,3.19074 -1.84854,5.03509 0,2.06514 0.81994,4.04571 2.2808,5.50604 1.46022,1.46033 3.44079,2.28068 5.50592,2.28068 1.7046,0 3.36203,-0.55947 4.71796,-1.59216 1.35614,-1.03321 2.33576,-2.48196 2.7887,-4.12513 0.0215,0.0857 0.0322,0.18113 0.0536,0.27223 -0.85743,2.09548 -2.31968,3.88827 -4.1994,5.15063 -1.87961,1.26249 -4.09234,1.93718 -6.35662,1.93855 -3.02708,0 -5.93026,-1.20254 -8.07074,-3.34314 -2.14049,-2.14038 -3.34304,-5.04355 -3.34304,-8.07062 0,-3.02709 1.20246,-5.93006 3.34271,-8.07065 2.14038,-2.14037 5.04336,-3.34304 8.07031,-3.34325 z m 30.27806,6.0938 v 0 c -1.39462,0 -2.76942,0.32798 -4.01387,0.95818 0.4405,-0.12218 0.89601,-0.18433 1.35378,-0.18433 1.34671,0 2.63843,0.53481 3.59083,1.48733 0.95284,0.95282 1.48734,2.24413 1.48734,3.59084 0,1.34691 -0.53482,2.63864 -1.48734,3.59095 -0.95283,0.95283 -2.24412,1.48743 -3.59083,1.48743 -1.34692,0 -2.63857,-0.53482 -3.59095,-1.48743 -0.95284,-0.95283 -1.48734,-2.24404 -1.48734,-3.59095 0,-0.68917 0.14149,-1.37083 0.41373,-2.00384 -1.02465,1.48509 -1.57394,3.24659 -1.57448,5.05095 0,2.36011 0.93781,4.62364 2.60649,6.29252 1.66892,1.6689 3.93243,2.60641 6.29252,2.60641 2.36011,0 4.62364,-0.93783 6.29253,-2.60641 1.6689,-1.66888 2.60641,-3.93241 2.60641,-6.29252 0,-2.3602 -0.93783,-4.62363 -2.60641,-6.29252 -1.66889,-1.66889 -3.93242,-2.60651 -6.29253,-2.60651 z m -58.47094,1.92463 c 4.94386,-0.003 10.35142,2.85687 14.29435,7.55703 0.70954,2.36964 2.01315,4.51868 3.78708,6.24279 1.62711,3.99428 1.90213,8.048 0.76956,11.34744 -1.13236,3.29952 -3.58817,5.60067 -6.87451,6.44151 -3.45247,0.88315 -7.54589,0.0857 -11.37981,-2.21884 -3.83391,-2.30437 -7.09411,-5.92609 -9.06343,-10.06858 -1.96955,-4.14228 -2.48668,-8.46612 -1.43793,-12.01988 1.04929,-3.55388 3.57766,-6.04676 7.03024,-6.93013 0.86816,-0.22186 1.78453,-0.33976 2.73425,-0.35048 v 0 h 0.14042 z m 69.20843,21.96874 c 4.53626,1.37853 10.63961,3.89683 11.51677,8.49817 -13.65127,5.98224 -28.08644,6.3877 -41.69603,2.04519 20.16416,0.86388 24.67665,0.1447 34.43449,-5.99681 l -4.25599,-4.54623 z m -55.7652,12.64002 c -0.0111,0.003 -0.0214,0.005 -0.0214,0.005 -0.0111,0.003 -0.0215,0.005 -0.0321,0.005 0.0111,-0.003 0.0214,-0.005 0.0321,-0.005 0.0111,-0.003 0.0214,-0.005 0.0214,-0.005 z"
       style="fill:#ffffff;stroke-width:0.264583"
       id="path16" />
  </g>
</svg>
