<?xml version="1.0" encoding="UTF-8" standalone="no"?>
<!-- Created with Inkscape (http://www.inkscape.org/) -->

<svg
   width="176.38889mm"
   height="175.74295mm"
   viewBox="0 0 176.38889 175.74295"
   version="1.1"
   id="svg1"
   inkscape:version="1.4.2 (ebf0e94, 2025-05-08)"
   sodipodi:docname="pinterest-logo.svg"
   xml:space="preserve"
   xmlns:inkscape="http://www.inkscape.org/namespaces/inkscape"
   xmlns:sodipodi="http://sodipodi.sourceforge.net/DTD/sodipodi-0.dtd"
   xmlns="http://www.w3.org/2000/svg"
   xmlns:svg="http://www.w3.org/2000/svg"><sodipodi:namedview
     id="namedview1"
     pagecolor="#ffffff"
     bordercolor="#000000"
     borderopacity="0.25"
     inkscape:showpageshadow="2"
     inkscape:pageopacity="0.0"
     inkscape:pagecheckerboard="0"
     inkscape:deskcolor="#d1d1d1"
     inkscape:document-units="mm"
     inkscape:zoom="0.73584456"
     inkscape:cx="-103.96217"
     inkscape:cy="411.09225"
     inkscape:window-width="1920"
     inkscape:window-height="1048"
     inkscape:window-x="0"
     inkscape:window-y="0"
     inkscape:window-maximized="1"
     inkscape:current-layer="layer1" /><defs
     id="defs1" /><g
     inkscape:label="Layer 1"
     inkscape:groupmode="layer"
     id="layer1"
     transform="translate(334.80045,-60.325)"><path
       id="path64"
       style="fill:#e60023;fill-opacity:1;fill-rule:nonzero;stroke:none;stroke-width:0.330729"
       d="m -246.60646,60.325 c -48.5298,0 -87.87137,39.341598 -87.87137,87.87137 0,37.22679 23.16137,69.05055 55.84879,81.85396 -0.76783,-6.95236 -1.46222,-17.64458 0.30469,-25.23442 1.59693,-6.85801 10.30396,-43.67783 10.30396,-43.67783 0,0 -2.62839,-5.26396 -2.62839,-13.04614 0,-12.21852 7.08203,-21.34047 15.90001,-21.34047 7.49693,0 11.11789,5.62846 11.11789,12.37771 0,7.53944 -4.80012,18.81149 -7.27723,29.25733 -2.07016,8.74595 4.38594,15.87841 13.0123,15.87841 15.61764,0 27.62295,-16.4676 27.62295,-40.23839 0,-21.03937 -15.11774,-35.74943 -36.70456,-35.74943 -25.00249,0 -39.67796,18.75314 -39.67796,38.13366 0,7.55238 2.9093,15.65076 6.53964,20.05327 0.71815,0.87013 0.8233,1.63221 0.60939,2.52034 -0.66701,2.77534 -2.1494,8.74378 -2.44041,9.9654 -0.38319,1.60844 -1.27348,1.94988 -2.93884,1.17482 -10.97456,-5.1084 -17.83618,-21.15389 -17.83618,-34.04159 0,-27.71876 20.13971,-53.175036 58.06015,-53.175036 30.48257,0 54.17122,21.721506 54.17122,50.750496 0,30.28377 -19.09455,54.65599 -45.59744,54.65599 -8.90441,0 -17.27506,-4.62579 -20.14043,-10.09004 0,0 -4.40611,16.77735 -5.47431,20.88884 -1.98373,7.63235 -7.33919,17.19943 -10.92127,23.03606 8.22157,2.54556 16.95885,3.91846 26.0174,3.91846 48.53052,0 87.8721,-39.3416 87.8721,-87.8714 0,-48.529772 -39.34158,-87.87137 -87.8721,-87.87137" /></g></svg>
