<?xml version="1.0" encoding="UTF-8" standalone="no"?>
<!-- Created with Inkscape (http://www.inkscape.org/) -->

<svg
   width="176.38889mm"
   height="175.74295mm"
   viewBox="0 0 176.38889 175.74295"
   version="1.1"
   id="svg1"
   inkscape:version="1.3.2 (091e20ef0f, 2023-11-25, custom)"
   sodipodi:docname="whatsapp-logo.svg"
   xmlns:inkscape="http://www.inkscape.org/namespaces/inkscape"
   xmlns:sodipodi="http://sodipodi.sourceforge.net/DTD/sodipodi-0.dtd"
   xmlns="http://www.w3.org/2000/svg"
   xmlns:svg="http://www.w3.org/2000/svg">
  <sodipodi:namedview
     id="namedview1"
     pagecolor="#ffffff"
     bordercolor="#000000"
     borderopacity="0.25"
     inkscape:showpageshadow="2"
     inkscape:pageopacity="0.0"
     inkscape:pagecheckerboard="0"
     inkscape:deskcolor="#d1d1d1"
     inkscape:document-units="mm"
     inkscape:zoom="0.52032068"
     inkscape:cx="98.016477"
     inkscape:cy="315.19024"
     inkscape:window-width="1920"
     inkscape:window-height="1048"
     inkscape:window-x="0"
     inkscape:window-y="0"
     inkscape:window-maximized="1"
     inkscape:current-layer="layer1" />
  <defs
     id="defs1" />
  <g
     inkscape:label="Layer 1"
     inkscape:groupmode="layer"
     id="layer1"
     transform="translate(334.80045,-60.325)">
    <path
       fill-rule="evenodd"
       clip-rule="evenodd"
       d="M -184.64079,85.863514 C -201.07972,69.403431 -222.9434,60.3341 -246.23884,60.325746 c -48.00216,0 -87.06878,39.062468 -87.08549,87.077264 -0.009,15.34924 4.00438,30.33118 11.6248,43.53451 l -12.35552,45.12949 46.16507,-12.10925 c 12.71866,6.94004 27.04086,10.59347 41.61374,10.59784 h 0.0375 c 47.99391,0 87.06512,-39.06684 87.08165,-87.08166 0.009,-23.27015 -9.04028,-45.14614 -25.4836,-61.606258 z M -246.23884,219.8491 h -0.0292 c -12.98616,-0.004 -25.72553,-3.49504 -36.84077,-10.0882 l -2.64328,-1.56971 -27.39591,7.18589 7.31141,-26.71129 -1.72037,-2.73909 c -7.24461,-11.52431 -11.0736,-24.84473 -11.06525,-38.51932 0.0165,-39.90605 32.48591,-72.375304 72.41295,-72.375304 19.33254,0.0092 37.50491,7.545286 51.17124,21.228615 13.6668,13.679199 21.18693,31.868099 21.17867,51.204989 -0.0165,39.91024 -32.48583,72.37955 -72.37954,72.37955 z m 39.70134,-54.20715 c -2.17553,-1.08971 -12.87296,-6.35123 -14.86924,-7.07754 -1.99578,-0.7268 -3.44451,-1.08971 -4.89374,1.08971 -1.44873,2.17992 -5.62005,7.08191 -6.88951,8.53065 -1.26947,1.45311 -2.53893,1.63286 -4.71448,0.54267 -2.17505,-1.08971 -9.18602,-3.38623 -17.49949,-10.798 -6.46783,-5.77066 -10.83591,-12.89386 -12.10488,-15.07377 -1.26946,-2.17942 -0.13368,-3.35707 0.95174,-4.43852 0.977,-0.977 2.17552,-2.54282 3.26523,-3.81229 1.09021,-1.26946 1.44924,-2.17942 2.17555,-3.62864 0.7268,-1.45311 0.3634,-2.72209 -0.17921,-3.81228 -0.54317,-1.08971 -4.89375,-11.80027 -6.71026,-16.15522 -1.76646,-4.2423 -3.5616,-3.66606 -4.89374,-3.73703 -1.26946,-0.0626 -2.7182,-0.0751 -4.17131,-0.0751 -1.45312,0 -3.80841,0.54282 -5.80417,2.72249 -1.99578,2.17942 -7.61627,7.44481 -7.61627,18.15099 0,10.70619 7.79601,21.0577 8.88572,22.51081 1.08971,1.45311 15.34487,23.42903 37.17066,32.85748 5.19058,2.24209 9.24481,3.5825 12.40561,4.58477 5.21146,1.65762 9.9546,1.42395 13.7042,0.86428 4.18007,-0.62624 12.87346,-5.26541 14.6856,-10.34716 1.81213,-5.08176 1.81213,-9.44107 1.26948,-10.34714 -0.54267,-0.90608 -1.99578,-1.45312 -4.17133,-2.54283 z"
       fill="#25d366"
       id="path1-3"
       style="stroke-width:0.264583" />
  </g>
</svg>
