<?xml version="1.0" encoding="UTF-8" standalone="no"?>
<!-- Created with Inkscape (http://www.inkscape.org/) -->

<svg
   width="381.00061mm"
   height="19.04966mm"
   viewBox="0 0 381.00061 19.04966"
   version="1.1"
   id="svg1"
   inkscape:version="1.4.2 (ebf0e94, 2025-05-08)"
   sodipodi:docname="pattern1.svg"
   xmlns:inkscape="http://www.inkscape.org/namespaces/inkscape"
   xmlns:sodipodi="http://sodipodi.sourceforge.net/DTD/sodipodi-0.dtd"
   xmlns="http://www.w3.org/2000/svg"
   xmlns:svg="http://www.w3.org/2000/svg">
  <sodipodi:namedview
     id="namedview1"
     pagecolor="#505050"
     bordercolor="#eeeeee"
     borderopacity="1"
     inkscape:showpageshadow="0"
     inkscape:pageopacity="0"
     inkscape:pagecheckerboard="0"
     inkscape:deskcolor="#505050"
     inkscape:document-units="mm"
     inkscape:zoom="0.71713664"
     inkscape:cx="465.74109"
     inkscape:cy="-191.73473"
     inkscape:window-width="1920"
     inkscape:window-height="1048"
     inkscape:window-x="0"
     inkscape:window-y="0"
     inkscape:window-maximized="1"
     inkscape:current-layer="layer1" />
  <defs
     id="defs1" />
  <g
     inkscape:label="Layer 1"
     inkscape:groupmode="layer"
     id="layer1"
     transform="translate(18.2562,-199.23125)">
    <g
       id="g585"
       transform="translate(3898.455,-728.61185)">
      <path
         id="path576"
         style="baseline-shift:baseline;display:inline;overflow:visible;opacity:1;vector-effect:none;fill:#666666;fill-opacity:1;fill-rule:evenodd;stroke-width:1;stroke-linecap:round;enable-background:accumulate;stop-color:#000000;stop-opacity:1"
         d="m -3916.7112,927.8431 v 4.01939 l 15.0313,15.03027 h 4.0191 z m 19.0504,19.04966 h 4.0193 l 15.0303,-15.03027 v -4.01939 z m -15.4974,-19.04966 15.4974,15.49738 15.4974,-15.49738 h -4.0193 l -11.4781,11.47801 -11.4773,-11.47801 z m 7.1068,0 8.3906,8.39056 8.3898,-8.39056 h -4.0196 l -4.3702,4.37045 -4.3712,-4.37045 z m 7.1077,0 1.2829,1.28303 1.2829,-1.28303 z m -17.7675,7.10463 v 4.01938 l 7.9255,7.92565 h 4.0196 z m 38.1,0 -11.945,11.94503 h 4.02 l 7.925,-7.92565 z m -38.1,7.10681 v 4.02012 l 0.8182,0.8181 h 4.0193 z m 38.1,0 -4.8382,4.83822 h 4.0194 l 0.8188,-0.8181 z" />
      <path
         id="path577"
         style="baseline-shift:baseline;display:inline;overflow:visible;opacity:1;vector-effect:none;fill:#666666;fill-opacity:1;fill-rule:evenodd;stroke-width:1;stroke-linecap:round;enable-background:accumulate;stop-color:#000000;stop-opacity:1"
         d="m -3878.6112,927.8431 v 4.01939 l 15.0313,15.03027 h 4.0191 z m 19.0504,19.04966 h 4.0195 l 15.0303,-15.03027 v -4.01939 z m -15.4974,-19.04966 15.4974,15.49738 15.4973,-15.49738 h -4.0193 l -11.478,11.47801 -11.4772,-11.47801 z m 7.1069,0 8.3905,8.39056 8.3898,-8.39056 h -4.0193 l -4.3705,4.37045 -4.3713,-4.37045 z m 7.1076,0 1.2829,1.28303 1.2831,-1.28303 z m -17.7675,7.10463 v 4.01938 l 7.9257,7.92565 h 4.0195 z m 38.1002,0 -11.9451,11.94503 h 4.0202 l 7.9249,-7.92565 z m -38.1002,7.10681 v 4.02012 l 0.8183,0.8181 h 4.0192 z m 38.1002,0 -4.8383,4.83822 h 4.0192 l 0.8191,-0.8181 z" />
      <path
         id="path578"
         style="baseline-shift:baseline;display:inline;overflow:visible;opacity:1;vector-effect:none;fill:#666666;fill-opacity:1;fill-rule:evenodd;stroke-width:1;stroke-linecap:round;enable-background:accumulate;stop-color:#000000;stop-opacity:1"
         d="m -3840.511,927.8431 v 4.01939 l 15.031,15.03027 h 4.0192 z m 19.0502,19.04966 h 4.0195 l 15.0303,-15.03027 v -4.01939 z m -15.4973,-19.04966 15.4973,15.49738 15.4972,-15.49738 h -4.019 l -11.4782,11.47801 -11.4771,-11.47801 z m 7.1068,0 8.3905,8.39056 8.3899,-8.39056 h -4.0194 l -4.3705,4.37045 -4.3712,-4.37045 z m 7.1076,0 1.2829,1.28303 1.2831,-1.28303 z m -17.7673,7.10463 v 4.01938 l 7.9255,7.92565 h 4.0195 z m 38.1,0 -11.9452,11.94503 h 4.0203 l 7.9249,-7.92565 z m -38.1,7.10681 v 4.02012 l 0.8183,0.8181 h 4.0191 z m 38.1,0 -4.8381,4.83822 h 4.019 l 0.8191,-0.8181 z" />
      <path
         id="path579"
         style="baseline-shift:baseline;display:inline;overflow:visible;opacity:1;vector-effect:none;fill:#666666;fill-opacity:1;fill-rule:evenodd;stroke-width:1;stroke-linecap:round;enable-background:accumulate;stop-color:#000000;stop-opacity:1"
         d="m -3802.411,927.8431 v 4.01939 l 15.0309,15.03027 h 4.0195 z m 19.0504,19.04966 h 4.0193 l 15.0304,-15.03027 v -4.01939 z m -15.4972,-19.04966 15.4972,15.49738 15.4972,-15.49738 h -4.0191 l -11.4781,11.47801 -11.4773,-11.47801 z m 7.1064,0 8.3908,8.39056 8.3899,-8.39056 h -4.0196 l -4.3703,4.37045 -4.3712,-4.37045 z m 7.1079,0 1.2829,1.28303 1.283,-1.28303 z m -17.7675,7.10463 v 4.01938 l 7.9255,7.92565 h 4.0196 z m 38.1001,0 -11.9453,11.94503 h 4.0201 l 7.9252,-7.92565 z m -38.1001,7.10681 v 4.02012 l 0.8183,0.8181 h 4.0192 z m 38.1001,0 -4.8381,4.83822 h 4.0191 l 0.819,-0.8181 z" />
      <path
         id="path580"
         style="baseline-shift:baseline;display:inline;overflow:visible;opacity:1;vector-effect:none;fill:#666666;fill-opacity:1;fill-rule:evenodd;stroke-width:1;stroke-linecap:round;enable-background:accumulate;stop-color:#000000;stop-opacity:1"
         d="m -3764.3109,927.8431 v 4.01939 l 15.0308,15.03027 h 4.0195 z m 19.0503,19.04966 h 4.0194 l 15.0302,-15.03027 v -4.01939 z m -15.4972,-19.04966 15.4972,15.49738 15.4972,-15.49738 h -4.019 l -11.4782,11.47801 -11.4772,-11.47801 z m 7.1066,0 8.3906,8.39056 8.3899,-8.39056 h -4.0195 l -4.3704,4.37045 -4.3711,-4.37045 z m 7.1078,0 1.2828,1.28303 1.2828,-1.28303 z m -17.7675,7.10463 v 4.01938 l 7.9255,7.92565 h 4.0195 z m 38.0999,0 -11.9449,11.94503 h 4.0199 l 7.925,-7.92565 z m -38.0999,7.10681 v 4.02012 l 0.8182,0.8181 h 4.019 z m 38.0999,0 -4.8379,4.83822 h 4.019 l 0.8189,-0.8181 z" />
      <path
         id="path581"
         style="baseline-shift:baseline;display:inline;overflow:visible;opacity:1;vector-effect:none;fill:#666666;fill-opacity:1;fill-rule:evenodd;stroke-width:1;stroke-linecap:round;enable-background:accumulate;stop-color:#000000;stop-opacity:1"
         d="m -3726.211,927.8431 v 4.01939 l 15.031,15.03027 h 4.0193 z m 19.0503,19.04966 h 4.0196 l 15.0302,-15.03027 v -4.01939 z m -15.4971,-19.04966 15.4971,15.49738 15.4973,-15.49738 h -4.0191 l -11.4782,11.47801 -11.4771,-11.47801 z m 7.1067,0 8.3904,8.39056 8.3902,-8.39056 h -4.0197 l -4.3705,4.37045 -4.371,-4.37045 z m 7.1078,0 1.2826,1.28303 1.283,-1.28303 z m -17.7677,7.10463 v 4.01938 l 7.9259,7.92565 h 4.0194 z m 38.1001,0 -11.9449,11.94503 h 4.0201 l 7.9248,-7.92565 z m -38.1001,7.10681 v 4.02012 l 0.8181,0.8181 h 4.0193 z m 38.1001,0 -4.8381,4.83822 h 4.0192 l 0.8189,-0.8181 z" />
      <path
         id="path582"
         style="baseline-shift:baseline;display:inline;overflow:visible;opacity:1;vector-effect:none;fill:#666666;fill-opacity:1;fill-rule:evenodd;stroke-width:1;stroke-linecap:round;enable-background:accumulate;stop-color:#000000;stop-opacity:1"
         d="m -3688.1109,927.8431 v 4.01939 l 15.031,15.03027 h 4.0196 z m 19.0506,19.04966 h 4.0192 l 15.0301,-15.03027 v -4.01939 z m -15.4975,-19.04966 15.4975,15.49738 15.497,-15.49738 h -4.0192 l -11.4778,11.47801 -11.4774,-11.47801 z m 7.1067,0 8.3908,8.39056 8.3898,-8.39056 h -4.0195 l -4.3703,4.37045 -4.3712,-4.37045 z m 7.1079,0 1.2829,1.28303 1.2828,-1.28303 z m -17.7677,7.10463 v 4.01938 l 7.9258,7.92565 h 4.0194 z m 38.0999,0 -11.9448,11.94503 h 4.0201 l 7.9247,-7.92565 z m -38.0999,7.10681 v 4.02012 l 0.8181,0.8181 h 4.0194 z m 38.0999,0 -4.838,4.83822 h 4.0192 l 0.8188,-0.8181 z" />
      <path
         id="path583"
         style="baseline-shift:baseline;display:inline;overflow:visible;opacity:1;vector-effect:none;fill:#666666;fill-opacity:1;fill-rule:evenodd;stroke-width:1;stroke-linecap:round;enable-background:accumulate;stop-color:#000000;stop-opacity:1"
         d="m -3650.011,927.8431 v 4.01939 l 15.0311,15.03027 h 4.0196 z m 19.0507,19.04966 h 4.0192 l 15.0303,-15.03027 v -4.01939 z m -15.4973,-19.04966 15.4973,15.49738 15.4971,-15.49738 h -4.0193 l -11.4778,11.47801 -11.4773,-11.47801 z m 7.1065,0 8.3908,8.39056 8.3899,-8.39056 h -4.0196 l -4.3703,4.37045 -4.3712,-4.37045 z m 7.1076,0 1.2832,1.28303 1.2829,-1.28303 z m -17.7675,7.10463 v 4.01938 l 7.926,7.92565 h 4.0193 z m 38.1002,0 -11.9451,11.94503 h 4.0202 l 7.9249,-7.92565 z m -38.1002,7.10681 v 4.02012 l 0.8182,0.8181 h 4.0194 z m 38.1002,0 -4.8382,4.83822 h 4.0194 l 0.8188,-0.8181 z" />
      <path
         id="path584"
         style="baseline-shift:baseline;display:inline;overflow:visible;opacity:1;vector-effect:none;fill:#666666;fill-opacity:1;fill-rule:evenodd;stroke-width:1;stroke-linecap:round;enable-background:accumulate;stop-color:#000000;stop-opacity:1"
         d="m -3611.9108,927.8431 v 4.01939 l 15.0309,15.03027 h 4.0196 z m 19.0505,19.04966 h 4.0193 l 15.0304,-15.03027 v -4.01939 z m -15.4972,-19.04966 15.4972,15.49738 15.4973,-15.49738 h -4.0194 l -11.4779,11.47801 -11.4772,-11.47801 z m 7.1067,0 8.3905,8.39056 8.3899,-8.39056 h -4.0196 l -4.3703,4.37045 -4.3711,-4.37045 z m 7.1074,0 1.2831,1.28303 1.283,-1.28303 z m -17.7674,7.10463 v 4.01938 l 7.9258,7.92565 h 4.0192 z m 38.1002,0 -11.9454,11.94503 h 4.0203 l 7.9251,-7.92565 z m -38.1002,7.10681 v 4.02012 l 0.8181,0.8181 h 4.0195 z m 38.1002,0 -4.8384,4.83822 h 4.0196 l 0.8188,-0.8181 z" />
      <path
         id="path585"
         style="baseline-shift:baseline;display:inline;overflow:visible;opacity:1;vector-effect:none;fill:#666666;fill-opacity:1;fill-rule:evenodd;stroke-width:1;stroke-linecap:round;enable-background:accumulate;stop-color:#000000;stop-opacity:1"
         d="m -3573.8106,927.8431 v 4.01939 l 15.0309,15.03027 h 4.0194 z m 19.0503,19.04966 h 4.0194 l 15.0303,-15.03027 v -4.01939 z m -15.4973,-19.04966 15.4973,15.49738 15.4974,-15.49738 h -4.0194 l -11.478,11.47801 -11.4772,-11.47801 z m 7.1068,0 8.3905,8.39056 8.3899,-8.39056 h -4.0196 l -4.3703,4.37045 -4.3711,-4.37045 z m 7.1074,0 1.2831,1.28303 1.2829,-1.28303 z m -17.7672,7.10463 v 4.01938 l 7.9256,7.92565 h 4.0193 z m 38.1,0 -11.9451,11.94503 h 4.0202 l 7.9249,-7.92565 z m -38.1,7.10681 v 4.02012 l 0.818,0.8181 h 4.0194 z m 38.1,0 -4.8382,4.83822 h 4.0194 l 0.8188,-0.8181 z" />
    </g>
  </g>
</svg>
