<?xml version="1.0" encoding="UTF-8" standalone="no"?>
<!-- Created with Inkscape (http://www.inkscape.org/) -->

<svg
   width="381.00061mm"
   height="19.04966mm"
   viewBox="0 0 381.00061 19.04966"
   version="1.1"
   id="svg1"
   inkscape:version="1.4.2 (ebf0e94, 2025-05-08)"
   sodipodi:docname="pattern4.svg"
   xmlns:inkscape="http://www.inkscape.org/namespaces/inkscape"
   xmlns:sodipodi="http://sodipodi.sourceforge.net/DTD/sodipodi-0.dtd"
   xmlns="http://www.w3.org/2000/svg"
   xmlns:svg="http://www.w3.org/2000/svg">
  <sodipodi:namedview
     id="namedview1"
     pagecolor="#505050"
     bordercolor="#eeeeee"
     borderopacity="1"
     inkscape:showpageshadow="0"
     inkscape:pageopacity="0"
     inkscape:pagecheckerboard="0"
     inkscape:deskcolor="#505050"
     inkscape:document-units="mm"
     inkscape:zoom="0.35856832"
     inkscape:cx="384.86389"
     inkscape:cy="18.127647"
     inkscape:window-width="1920"
     inkscape:window-height="1048"
     inkscape:window-x="0"
     inkscape:window-y="0"
     inkscape:window-maximized="1"
     inkscape:current-layer="layer1" />
  <defs
     id="defs1" />
  <g
     inkscape:label="Layer 1"
     inkscape:groupmode="layer"
     id="layer1"
     transform="translate(18.2562,-199.23125)">
    <g
       id="g588"
       transform="matrix(0.91223182,0,0,0.91223182,2499.7685,-645.50462)"
       style="stroke-width:1.09621">
      <path
         sodipodi:type="star"
         style="opacity:1;fill:#00ff00;fill-opacity:1;fill-rule:evenodd;stroke:none;stroke-width:3.98693;stroke-linecap:round"
         id="path482"
         inkscape:flatsided="false"
         sodipodi:sides="6"
         sodipodi:cx="-2691.2593"
         sodipodi:cy="598.04639"
         sodipodi:r1="7.8332772"
         sodipodi:r2="6.6582856"
         sodipodi:arg1="1.5707963"
         sodipodi:arg2="2.0943951"
         inkscape:rounded="0.4"
         inkscape:randomized="0"
         d="m -2691.2593,605.87966 c -1.5674,0 -1.9717,-1.2833 -3.3291,-2.06703 -1.3575,-0.78373 -2.671,-0.49214 -3.4547,-1.8496 -0.7837,-1.35746 0.1255,-2.34918 0.1255,-3.91664 0,-1.56746 -0.9092,-2.55918 -0.1255,-3.91664 0.7837,-1.35746 2.0972,-1.06588 3.4547,-1.84961 1.3574,-0.78373 1.7617,-2.06703 3.3291,-2.06703 1.5675,0 1.9717,1.2833 3.3292,2.06703 1.3574,0.78373 2.6709,0.49215 3.4546,1.84961 0.7838,1.35746 -0.1255,2.34918 -0.1255,3.91664 0,1.56746 0.9093,2.55918 0.1255,3.91664 -0.7837,1.35746 -2.0972,1.06587 -3.4546,1.8496 -1.3575,0.78373 -1.7617,2.06703 -3.3292,2.06703 z"
         transform="matrix(0.54990346,0,0,0.54990346,-1213.8943,601.44986)" />
      <path
         sodipodi:type="star"
         style="opacity:1;fill:#00ff00;fill-opacity:1;fill-rule:evenodd;stroke:none;stroke-width:3.12109;stroke-linecap:round"
         id="path483"
         inkscape:flatsided="false"
         sodipodi:sides="4"
         sodipodi:cx="-2681.3457"
         sodipodi:cy="609.32959"
         sodipodi:r1="6.1321349"
         sodipodi:r2="5.2123146"
         sodipodi:arg1="1.5707963"
         sodipodi:arg2="2.3561945"
         inkscape:rounded="0.4"
         inkscape:randomized="0"
         d="m -2681.3457,615.46172 c -1.7695,0 -2.4344,-1.19525 -3.6857,-2.44647 -1.2512,-1.25122 -2.4464,-1.91617 -2.4464,-3.68566 0,-1.76949 1.1952,-2.43444 2.4464,-3.68566 1.2513,-1.25122 1.9162,-2.44648 3.6857,-2.44648 1.7695,0 2.4344,1.19526 3.6857,2.44648 1.2512,1.25121 2.4464,1.91617 2.4464,3.68566 0,1.76949 -1.1952,2.43444 -2.4464,3.68566 -1.2513,1.25122 -1.9162,2.44647 -3.6857,2.44647 z"
         transform="matrix(0.70245458,0,0,0.70245458,-854.13019,502.29128)" />
      <path
         sodipodi:type="star"
         style="opacity:1;fill:#00ff00;fill-opacity:1;fill-rule:evenodd;stroke:none;stroke-width:3.03034;stroke-linecap:round"
         id="path484"
         inkscape:flatsided="false"
         sodipodi:sides="3"
         sodipodi:cx="-2681.3457"
         sodipodi:cy="609.32959"
         sodipodi:r1="6.1321349"
         sodipodi:r2="4.2924943"
         sodipodi:arg1="1.5707963"
         sodipodi:arg2="2.6179939"
         inkscape:rounded="0.35"
         inkscape:randomized="0"
         d="m -2681.3457,615.46172 c -1.9076,0 -2.7636,-2.33383 -3.7174,-3.98588 -0.9538,-1.65206 -2.547,-3.56026 -1.5932,-5.21232 0.9538,-1.65205 3.403,-1.22642 5.3106,-1.22642 1.9076,0 4.3568,-0.42563 5.3106,1.22642 0.9538,1.65206 -0.6394,3.56026 -1.5932,5.21232 -0.9538,1.65205 -1.8098,3.98588 -3.7174,3.98588 z"
         transform="matrix(0.72349,0,0,-0.72349,-775.61266,1371.8092)" />
      <path
         sodipodi:type="star"
         style="opacity:1;fill:#00ff00;fill-opacity:1;fill-rule:evenodd;stroke:none;stroke-width:3.98693;stroke-linecap:round"
         id="path485"
         inkscape:flatsided="false"
         sodipodi:sides="6"
         sodipodi:cx="-2691.2593"
         sodipodi:cy="598.04639"
         sodipodi:r1="7.8332772"
         sodipodi:r2="6.6582856"
         sodipodi:arg1="1.5707963"
         sodipodi:arg2="2.0943951"
         inkscape:rounded="0.4"
         inkscape:randomized="0"
         d="m -2691.2593,605.87966 c -1.5674,0 -1.9717,-1.2833 -3.3291,-2.06703 -1.3575,-0.78373 -2.671,-0.49214 -3.4547,-1.8496 -0.7837,-1.35746 0.1255,-2.34918 0.1255,-3.91664 0,-1.56746 -0.9092,-2.55918 -0.1255,-3.91664 0.7837,-1.35746 2.0972,-1.06588 3.4547,-1.84961 1.3574,-0.78373 1.7617,-2.06703 3.3291,-2.06703 1.5675,0 1.9717,1.2833 3.3292,2.06703 1.3574,0.78373 2.6709,0.49215 3.4546,1.84961 0.7838,1.35746 -0.1255,2.34918 -0.1255,3.91664 0,1.56746 0.9093,2.55918 0.1255,3.91664 -0.7837,1.35746 -2.0972,1.06587 -3.4546,1.8496 -1.3575,0.78373 -1.7617,2.06703 -3.3292,2.06703 z"
         transform="matrix(0.54990346,0,0,0.54990346,-1148.1024,601.44986)" />
      <path
         sodipodi:type="star"
         style="opacity:1;fill:#00ff00;fill-opacity:1;fill-rule:evenodd;stroke:none;stroke-width:3.12109;stroke-linecap:round"
         id="path486"
         inkscape:flatsided="false"
         sodipodi:sides="4"
         sodipodi:cx="-2681.3457"
         sodipodi:cy="609.32959"
         sodipodi:r1="6.1321349"
         sodipodi:r2="5.2123146"
         sodipodi:arg1="1.5707963"
         sodipodi:arg2="2.3561945"
         inkscape:rounded="0.4"
         inkscape:randomized="0"
         d="m -2681.3457,615.46172 c -1.7695,0 -2.4344,-1.19525 -3.6857,-2.44647 -1.2512,-1.25122 -2.4464,-1.91617 -2.4464,-3.68566 0,-1.76949 1.1952,-2.43444 2.4464,-3.68566 1.2513,-1.25122 1.9162,-2.44648 3.6857,-2.44648 1.7695,0 2.4344,1.19526 3.6857,2.44648 1.2512,1.25121 2.4464,1.91617 2.4464,3.68566 0,1.76949 -1.1952,2.43444 -2.4464,3.68566 -1.2513,1.25122 -1.9162,2.44647 -3.6857,2.44647 z"
         transform="matrix(0.70245458,0,0,0.70245458,-788.3382,502.29128)" />
      <path
         sodipodi:type="star"
         style="opacity:1;fill:#00ff00;fill-opacity:1;fill-rule:evenodd;stroke:none;stroke-width:3.03034;stroke-linecap:round"
         id="path487"
         inkscape:flatsided="false"
         sodipodi:sides="3"
         sodipodi:cx="-2681.3457"
         sodipodi:cy="609.32959"
         sodipodi:r1="6.1321349"
         sodipodi:r2="4.2924943"
         sodipodi:arg1="1.5707963"
         sodipodi:arg2="2.6179939"
         inkscape:rounded="0.35"
         inkscape:randomized="0"
         d="m -2681.3457,615.46172 c -1.9076,0 -2.7636,-2.33383 -3.7174,-3.98588 -0.9538,-1.65206 -2.547,-3.56026 -1.5932,-5.21232 0.9538,-1.65205 3.403,-1.22642 5.3106,-1.22642 1.9076,0 4.3568,-0.42563 5.3106,1.22642 0.9538,1.65206 -0.6394,3.56026 -1.5932,5.21232 -0.9538,1.65205 -1.8098,3.98588 -3.7174,3.98588 z"
         transform="matrix(0.72349,0,0,-0.72349,-709.82067,1371.8092)" />
      <path
         sodipodi:type="star"
         style="opacity:1;fill:#00ff00;fill-opacity:1;fill-rule:evenodd;stroke:none;stroke-width:3.98693;stroke-linecap:round"
         id="path488"
         inkscape:flatsided="false"
         sodipodi:sides="6"
         sodipodi:cx="-2691.2593"
         sodipodi:cy="598.04639"
         sodipodi:r1="7.8332772"
         sodipodi:r2="6.6582856"
         sodipodi:arg1="1.5707963"
         sodipodi:arg2="2.0943951"
         inkscape:rounded="0.4"
         inkscape:randomized="0"
         d="m -2691.2593,605.87966 c -1.5674,0 -1.9717,-1.2833 -3.3291,-2.06703 -1.3575,-0.78373 -2.671,-0.49214 -3.4547,-1.8496 -0.7837,-1.35746 0.1255,-2.34918 0.1255,-3.91664 0,-1.56746 -0.9092,-2.55918 -0.1255,-3.91664 0.7837,-1.35746 2.0972,-1.06588 3.4547,-1.84961 1.3574,-0.78373 1.7617,-2.06703 3.3291,-2.06703 1.5675,0 1.9717,1.2833 3.3292,2.06703 1.3574,0.78373 2.6709,0.49215 3.4546,1.84961 0.7838,1.35746 -0.1255,2.34918 -0.1255,3.91664 0,1.56746 0.9093,2.55918 0.1255,3.91664 -0.7837,1.35746 -2.0972,1.06587 -3.4546,1.8496 -1.3575,0.78373 -1.7617,2.06703 -3.3292,2.06703 z"
         transform="matrix(0.54990346,0,0,0.54990346,-1082.3103,601.44986)" />
      <path
         sodipodi:type="star"
         style="opacity:1;fill:#00ff00;fill-opacity:1;fill-rule:evenodd;stroke:none;stroke-width:3.12109;stroke-linecap:round"
         id="path489"
         inkscape:flatsided="false"
         sodipodi:sides="4"
         sodipodi:cx="-2681.3457"
         sodipodi:cy="609.32959"
         sodipodi:r1="6.1321349"
         sodipodi:r2="5.2123146"
         sodipodi:arg1="1.5707963"
         sodipodi:arg2="2.3561945"
         inkscape:rounded="0.4"
         inkscape:randomized="0"
         d="m -2681.3457,615.46172 c -1.7695,0 -2.4344,-1.19525 -3.6857,-2.44647 -1.2512,-1.25122 -2.4464,-1.91617 -2.4464,-3.68566 0,-1.76949 1.1952,-2.43444 2.4464,-3.68566 1.2513,-1.25122 1.9162,-2.44648 3.6857,-2.44648 1.7695,0 2.4344,1.19526 3.6857,2.44648 1.2512,1.25121 2.4464,1.91617 2.4464,3.68566 0,1.76949 -1.1952,2.43444 -2.4464,3.68566 -1.2513,1.25122 -1.9162,2.44647 -3.6857,2.44647 z"
         transform="matrix(0.70245458,0,0,0.70245458,-722.54622,502.29128)" />
      <path
         sodipodi:type="star"
         style="opacity:1;fill:#00ff00;fill-opacity:1;fill-rule:evenodd;stroke:none;stroke-width:3.03034;stroke-linecap:round"
         id="path490"
         inkscape:flatsided="false"
         sodipodi:sides="3"
         sodipodi:cx="-2681.3457"
         sodipodi:cy="609.32959"
         sodipodi:r1="6.1321349"
         sodipodi:r2="4.2924943"
         sodipodi:arg1="1.5707963"
         sodipodi:arg2="2.6179939"
         inkscape:rounded="0.35"
         inkscape:randomized="0"
         d="m -2681.3457,615.46172 c -1.9076,0 -2.7636,-2.33383 -3.7174,-3.98588 -0.9538,-1.65206 -2.547,-3.56026 -1.5932,-5.21232 0.9538,-1.65205 3.403,-1.22642 5.3106,-1.22642 1.9076,0 4.3568,-0.42563 5.3106,1.22642 0.9538,1.65206 -0.6394,3.56026 -1.5932,5.21232 -0.9538,1.65205 -1.8098,3.98588 -3.7174,3.98588 z"
         transform="matrix(0.72349,0,0,-0.72349,-644.02869,1371.8092)" />
      <path
         sodipodi:type="star"
         style="opacity:1;fill:#00ff00;fill-opacity:1;fill-rule:evenodd;stroke:none;stroke-width:3.98693;stroke-linecap:round"
         id="path491"
         inkscape:flatsided="false"
         sodipodi:sides="6"
         sodipodi:cx="-2691.2593"
         sodipodi:cy="598.04639"
         sodipodi:r1="7.8332772"
         sodipodi:r2="6.6582856"
         sodipodi:arg1="1.5707963"
         sodipodi:arg2="2.0943951"
         inkscape:rounded="0.4"
         inkscape:randomized="0"
         d="m -2691.2593,605.87966 c -1.5674,0 -1.9717,-1.2833 -3.3291,-2.06703 -1.3575,-0.78373 -2.671,-0.49214 -3.4547,-1.8496 -0.7837,-1.35746 0.1255,-2.34918 0.1255,-3.91664 0,-1.56746 -0.9092,-2.55918 -0.1255,-3.91664 0.7837,-1.35746 2.0972,-1.06588 3.4547,-1.84961 1.3574,-0.78373 1.7617,-2.06703 3.3291,-2.06703 1.5675,0 1.9717,1.2833 3.3292,2.06703 1.3574,0.78373 2.6709,0.49215 3.4546,1.84961 0.7838,1.35746 -0.1255,2.34918 -0.1255,3.91664 0,1.56746 0.9093,2.55918 0.1255,3.91664 -0.7837,1.35746 -2.0972,1.06587 -3.4546,1.8496 -1.3575,0.78373 -1.7617,2.06703 -3.3292,2.06703 z"
         transform="matrix(0.54990346,0,0,0.54990346,-1016.5183,601.44986)" />
      <path
         sodipodi:type="star"
         style="opacity:1;fill:#00ff00;fill-opacity:1;fill-rule:evenodd;stroke:none;stroke-width:3.12109;stroke-linecap:round"
         id="path492"
         inkscape:flatsided="false"
         sodipodi:sides="4"
         sodipodi:cx="-2681.3457"
         sodipodi:cy="609.32959"
         sodipodi:r1="6.1321349"
         sodipodi:r2="5.2123146"
         sodipodi:arg1="1.5707963"
         sodipodi:arg2="2.3561945"
         inkscape:rounded="0.4"
         inkscape:randomized="0"
         d="m -2681.3457,615.46172 c -1.7695,0 -2.4344,-1.19525 -3.6857,-2.44647 -1.2512,-1.25122 -2.4464,-1.91617 -2.4464,-3.68566 0,-1.76949 1.1952,-2.43444 2.4464,-3.68566 1.2513,-1.25122 1.9162,-2.44648 3.6857,-2.44648 1.7695,0 2.4344,1.19526 3.6857,2.44648 1.2512,1.25121 2.4464,1.91617 2.4464,3.68566 0,1.76949 -1.1952,2.43444 -2.4464,3.68566 -1.2513,1.25122 -1.9162,2.44647 -3.6857,2.44647 z"
         transform="matrix(0.70245458,0,0,0.70245458,-656.75423,502.29128)" />
      <path
         sodipodi:type="star"
         style="opacity:1;fill:#00ff00;fill-opacity:1;fill-rule:evenodd;stroke:none;stroke-width:3.03034;stroke-linecap:round"
         id="path493"
         inkscape:flatsided="false"
         sodipodi:sides="3"
         sodipodi:cx="-2681.3457"
         sodipodi:cy="609.32959"
         sodipodi:r1="6.1321349"
         sodipodi:r2="4.2924943"
         sodipodi:arg1="1.5707963"
         sodipodi:arg2="2.6179939"
         inkscape:rounded="0.35"
         inkscape:randomized="0"
         d="m -2681.3457,615.46172 c -1.9076,0 -2.7636,-2.33383 -3.7174,-3.98588 -0.9538,-1.65206 -2.547,-3.56026 -1.5932,-5.21232 0.9538,-1.65205 3.403,-1.22642 5.3106,-1.22642 1.9076,0 4.3568,-0.42563 5.3106,1.22642 0.9538,1.65206 -0.6394,3.56026 -1.5932,5.21232 -0.9538,1.65205 -1.8098,3.98588 -3.7174,3.98588 z"
         transform="matrix(0.72349,0,0,-0.72349,-578.23671,1371.8092)" />
      <path
         sodipodi:type="star"
         style="opacity:1;fill:#00ff00;fill-opacity:1;fill-rule:evenodd;stroke:none;stroke-width:3.98693;stroke-linecap:round"
         id="path494"
         inkscape:flatsided="false"
         sodipodi:sides="6"
         sodipodi:cx="-2691.2593"
         sodipodi:cy="598.04639"
         sodipodi:r1="7.8332772"
         sodipodi:r2="6.6582856"
         sodipodi:arg1="1.5707963"
         sodipodi:arg2="2.0943951"
         inkscape:rounded="0.4"
         inkscape:randomized="0"
         d="m -2691.2593,605.87966 c -1.5674,0 -1.9717,-1.2833 -3.3291,-2.06703 -1.3575,-0.78373 -2.671,-0.49214 -3.4547,-1.8496 -0.7837,-1.35746 0.1255,-2.34918 0.1255,-3.91664 0,-1.56746 -0.9092,-2.55918 -0.1255,-3.91664 0.7837,-1.35746 2.0972,-1.06588 3.4547,-1.84961 1.3574,-0.78373 1.7617,-2.06703 3.3291,-2.06703 1.5675,0 1.9717,1.2833 3.3292,2.06703 1.3574,0.78373 2.6709,0.49215 3.4546,1.84961 0.7838,1.35746 -0.1255,2.34918 -0.1255,3.91664 0,1.56746 0.9093,2.55918 0.1255,3.91664 -0.7837,1.35746 -2.0972,1.06587 -3.4546,1.8496 -1.3575,0.78373 -1.7617,2.06703 -3.3292,2.06703 z"
         transform="matrix(0.54990346,0,0,0.54990346,-950.72635,601.44986)" />
      <path
         sodipodi:type="star"
         style="opacity:1;fill:#00ff00;fill-opacity:1;fill-rule:evenodd;stroke:none;stroke-width:3.12109;stroke-linecap:round"
         id="path495"
         inkscape:flatsided="false"
         sodipodi:sides="4"
         sodipodi:cx="-2681.3457"
         sodipodi:cy="609.32959"
         sodipodi:r1="6.1321349"
         sodipodi:r2="5.2123146"
         sodipodi:arg1="1.5707963"
         sodipodi:arg2="2.3561945"
         inkscape:rounded="0.4"
         inkscape:randomized="0"
         d="m -2681.3457,615.46172 c -1.7695,0 -2.4344,-1.19525 -3.6857,-2.44647 -1.2512,-1.25122 -2.4464,-1.91617 -2.4464,-3.68566 0,-1.76949 1.1952,-2.43444 2.4464,-3.68566 1.2513,-1.25122 1.9162,-2.44648 3.6857,-2.44648 1.7695,0 2.4344,1.19526 3.6857,2.44648 1.2512,1.25121 2.4464,1.91617 2.4464,3.68566 0,1.76949 -1.1952,2.43444 -2.4464,3.68566 -1.2513,1.25122 -1.9162,2.44647 -3.6857,2.44647 z"
         transform="matrix(0.70245458,0,0,0.70245458,-590.96226,502.29128)" />
      <path
         sodipodi:type="star"
         style="opacity:1;fill:#00ff00;fill-opacity:1;fill-rule:evenodd;stroke:none;stroke-width:3.03034;stroke-linecap:round"
         id="path496"
         inkscape:flatsided="false"
         sodipodi:sides="3"
         sodipodi:cx="-2681.3457"
         sodipodi:cy="609.32959"
         sodipodi:r1="6.1321349"
         sodipodi:r2="4.2924943"
         sodipodi:arg1="1.5707963"
         sodipodi:arg2="2.6179939"
         inkscape:rounded="0.35"
         inkscape:randomized="0"
         d="m -2681.3457,615.46172 c -1.9076,0 -2.7636,-2.33383 -3.7174,-3.98588 -0.9538,-1.65206 -2.547,-3.56026 -1.5932,-5.21232 0.9538,-1.65205 3.403,-1.22642 5.3106,-1.22642 1.9076,0 4.3568,-0.42563 5.3106,1.22642 0.9538,1.65206 -0.6394,3.56026 -1.5932,5.21232 -0.9538,1.65205 -1.8098,3.98588 -3.7174,3.98588 z"
         transform="matrix(0.72349,0,0,-0.72349,-512.44472,1371.8092)" />
      <path
         sodipodi:type="star"
         style="opacity:1;fill:#00ff00;fill-opacity:1;fill-rule:evenodd;stroke:none;stroke-width:3.98693;stroke-linecap:round"
         id="path497"
         inkscape:flatsided="false"
         sodipodi:sides="6"
         sodipodi:cx="-2691.2593"
         sodipodi:cy="598.04639"
         sodipodi:r1="7.8332772"
         sodipodi:r2="6.6582856"
         sodipodi:arg1="1.5707963"
         sodipodi:arg2="2.0943951"
         inkscape:rounded="0.4"
         inkscape:randomized="0"
         d="m -2691.2593,605.87966 c -1.5674,0 -1.9717,-1.2833 -3.3291,-2.06703 -1.3575,-0.78373 -2.671,-0.49214 -3.4547,-1.8496 -0.7837,-1.35746 0.1255,-2.34918 0.1255,-3.91664 0,-1.56746 -0.9092,-2.55918 -0.1255,-3.91664 0.7837,-1.35746 2.0972,-1.06588 3.4547,-1.84961 1.3574,-0.78373 1.7617,-2.06703 3.3291,-2.06703 1.5675,0 1.9717,1.2833 3.3292,2.06703 1.3574,0.78373 2.6709,0.49215 3.4546,1.84961 0.7838,1.35746 -0.1255,2.34918 -0.1255,3.91664 0,1.56746 0.9093,2.55918 0.1255,3.91664 -0.7837,1.35746 -2.0972,1.06587 -3.4546,1.8496 -1.3575,0.78373 -1.7617,2.06703 -3.3292,2.06703 z"
         transform="matrix(0.54990346,0,0,0.54990346,-884.93435,601.44986)" />
      <path
         sodipodi:type="star"
         style="opacity:1;fill:#00ff00;fill-opacity:1;fill-rule:evenodd;stroke:none;stroke-width:3.12109;stroke-linecap:round"
         id="path498"
         inkscape:flatsided="false"
         sodipodi:sides="4"
         sodipodi:cx="-2681.3457"
         sodipodi:cy="609.32959"
         sodipodi:r1="6.1321349"
         sodipodi:r2="5.2123146"
         sodipodi:arg1="1.5707963"
         sodipodi:arg2="2.3561945"
         inkscape:rounded="0.4"
         inkscape:randomized="0"
         d="m -2681.3457,615.46172 c -1.7695,0 -2.4344,-1.19525 -3.6857,-2.44647 -1.2512,-1.25122 -2.4464,-1.91617 -2.4464,-3.68566 0,-1.76949 1.1952,-2.43444 2.4464,-3.68566 1.2513,-1.25122 1.9162,-2.44648 3.6857,-2.44648 1.7695,0 2.4344,1.19526 3.6857,2.44648 1.2512,1.25121 2.4464,1.91617 2.4464,3.68566 0,1.76949 -1.1952,2.43444 -2.4464,3.68566 -1.2513,1.25122 -1.9162,2.44647 -3.6857,2.44647 z"
         transform="matrix(0.70245458,0,0,0.70245458,-525.17026,502.29128)" />
      <path
         sodipodi:type="star"
         style="opacity:1;fill:#00ff00;fill-opacity:1;fill-rule:evenodd;stroke:none;stroke-width:3.03034;stroke-linecap:round"
         id="path499"
         inkscape:flatsided="false"
         sodipodi:sides="3"
         sodipodi:cx="-2681.3457"
         sodipodi:cy="609.32959"
         sodipodi:r1="6.1321349"
         sodipodi:r2="4.2924943"
         sodipodi:arg1="1.5707963"
         sodipodi:arg2="2.6179939"
         inkscape:rounded="0.35"
         inkscape:randomized="0"
         d="m -2681.3457,615.46172 c -1.9076,0 -2.7636,-2.33383 -3.7174,-3.98588 -0.9538,-1.65206 -2.547,-3.56026 -1.5932,-5.21232 0.9538,-1.65205 3.403,-1.22642 5.3106,-1.22642 1.9076,0 4.3568,-0.42563 5.3106,1.22642 0.9538,1.65206 -0.6394,3.56026 -1.5932,5.21232 -0.9538,1.65205 -1.8098,3.98588 -3.7174,3.98588 z"
         transform="matrix(0.72349,0,0,-0.72349,-446.65273,1371.8092)" />
      <path
         sodipodi:type="star"
         style="opacity:1;fill:#00ff00;fill-opacity:1;fill-rule:evenodd;stroke:none;stroke-width:3.98693;stroke-linecap:round"
         id="path500"
         inkscape:flatsided="false"
         sodipodi:sides="6"
         sodipodi:cx="-2691.2593"
         sodipodi:cy="598.04639"
         sodipodi:r1="7.8332772"
         sodipodi:r2="6.6582856"
         sodipodi:arg1="1.5707963"
         sodipodi:arg2="2.0943951"
         inkscape:rounded="0.4"
         inkscape:randomized="0"
         d="m -2691.2593,605.87966 c -1.5674,0 -1.9717,-1.2833 -3.3291,-2.06703 -1.3575,-0.78373 -2.671,-0.49214 -3.4547,-1.8496 -0.7837,-1.35746 0.1255,-2.34918 0.1255,-3.91664 0,-1.56746 -0.9092,-2.55918 -0.1255,-3.91664 0.7837,-1.35746 2.0972,-1.06588 3.4547,-1.84961 1.3574,-0.78373 1.7617,-2.06703 3.3291,-2.06703 1.5675,0 1.9717,1.2833 3.3292,2.06703 1.3574,0.78373 2.6709,0.49215 3.4546,1.84961 0.7838,1.35746 -0.1255,2.34918 -0.1255,3.91664 0,1.56746 0.9093,2.55918 0.1255,3.91664 -0.7837,1.35746 -2.0972,1.06587 -3.4546,1.8496 -1.3575,0.78373 -1.7617,2.06703 -3.3292,2.06703 z"
         transform="matrix(0.54990346,0,0,0.54990346,-1203.1126,613.71725)" />
      <path
         sodipodi:type="star"
         style="opacity:1;fill:#00ff00;fill-opacity:1;fill-rule:evenodd;stroke:none;stroke-width:3.12109;stroke-linecap:round"
         id="path501"
         inkscape:flatsided="false"
         sodipodi:sides="4"
         sodipodi:cx="-2681.3457"
         sodipodi:cy="609.32959"
         sodipodi:r1="6.1321349"
         sodipodi:r2="5.2123146"
         sodipodi:arg1="1.5707963"
         sodipodi:arg2="2.3561945"
         inkscape:rounded="0.4"
         inkscape:randomized="0"
         d="m -2681.3457,615.46172 c -1.7695,0 -2.4344,-1.19525 -3.6857,-2.44647 -1.2512,-1.25122 -2.4464,-1.91617 -2.4464,-3.68566 0,-1.76949 1.1952,-2.43444 2.4464,-3.68566 1.2513,-1.25122 1.9162,-2.44648 3.6857,-2.44648 1.7695,0 2.4344,1.19526 3.6857,2.44648 1.2512,1.25121 2.4464,1.91617 2.4464,3.68566 0,1.76949 -1.1952,2.43444 -2.4464,3.68566 -1.2513,1.25122 -1.9162,2.44647 -3.6857,2.44647 z"
         transform="matrix(0.70245458,0,0,0.70245458,-843.34851,514.55867)" />
      <path
         sodipodi:type="star"
         style="opacity:1;fill:#00ff00;fill-opacity:1;fill-rule:evenodd;stroke:none;stroke-width:3.03034;stroke-linecap:round"
         id="path502"
         inkscape:flatsided="false"
         sodipodi:sides="3"
         sodipodi:cx="-2681.3457"
         sodipodi:cy="609.32959"
         sodipodi:r1="6.1321349"
         sodipodi:r2="4.2924943"
         sodipodi:arg1="1.5707963"
         sodipodi:arg2="2.6179939"
         inkscape:rounded="0.35"
         inkscape:randomized="0"
         d="m -2681.3457,615.46172 c -1.9076,0 -2.7636,-2.33383 -3.7174,-3.98588 -0.9538,-1.65206 -2.547,-3.56026 -1.5932,-5.21232 0.9538,-1.65205 3.403,-1.22642 5.3106,-1.22642 1.9076,0 4.3568,-0.42563 5.3106,1.22642 0.9538,1.65206 -0.6394,3.56026 -1.5932,5.21232 -0.9538,1.65205 -1.8098,3.98588 -3.7174,3.98588 z"
         transform="matrix(0.72349,0,0,-0.72349,-764.83098,1384.0766)" />
      <path
         sodipodi:type="star"
         style="opacity:1;fill:#00ff00;fill-opacity:1;fill-rule:evenodd;stroke:none;stroke-width:3.98693;stroke-linecap:round"
         id="path503"
         inkscape:flatsided="false"
         sodipodi:sides="6"
         sodipodi:cx="-2691.2593"
         sodipodi:cy="598.04639"
         sodipodi:r1="7.8332772"
         sodipodi:r2="6.6582856"
         sodipodi:arg1="1.5707963"
         sodipodi:arg2="2.0943951"
         inkscape:rounded="0.4"
         inkscape:randomized="0"
         d="m -2691.2593,605.87966 c -1.5674,0 -1.9717,-1.2833 -3.3291,-2.06703 -1.3575,-0.78373 -2.671,-0.49214 -3.4547,-1.8496 -0.7837,-1.35746 0.1255,-2.34918 0.1255,-3.91664 0,-1.56746 -0.9092,-2.55918 -0.1255,-3.91664 0.7837,-1.35746 2.0972,-1.06588 3.4547,-1.84961 1.3574,-0.78373 1.7617,-2.06703 3.3291,-2.06703 1.5675,0 1.9717,1.2833 3.3292,2.06703 1.3574,0.78373 2.6709,0.49215 3.4546,1.84961 0.7838,1.35746 -0.1255,2.34918 -0.1255,3.91664 0,1.56746 0.9093,2.55918 0.1255,3.91664 -0.7837,1.35746 -2.0972,1.06587 -3.4546,1.8496 -1.3575,0.78373 -1.7617,2.06703 -3.3292,2.06703 z"
         transform="matrix(0.54990346,0,0,0.54990346,-1137.3207,613.71725)" />
      <path
         sodipodi:type="star"
         style="opacity:1;fill:#00ff00;fill-opacity:1;fill-rule:evenodd;stroke:none;stroke-width:3.12109;stroke-linecap:round"
         id="path504"
         inkscape:flatsided="false"
         sodipodi:sides="4"
         sodipodi:cx="-2681.3457"
         sodipodi:cy="609.32959"
         sodipodi:r1="6.1321349"
         sodipodi:r2="5.2123146"
         sodipodi:arg1="1.5707963"
         sodipodi:arg2="2.3561945"
         inkscape:rounded="0.4"
         inkscape:randomized="0"
         d="m -2681.3457,615.46172 c -1.7695,0 -2.4344,-1.19525 -3.6857,-2.44647 -1.2512,-1.25122 -2.4464,-1.91617 -2.4464,-3.68566 0,-1.76949 1.1952,-2.43444 2.4464,-3.68566 1.2513,-1.25122 1.9162,-2.44648 3.6857,-2.44648 1.7695,0 2.4344,1.19526 3.6857,2.44648 1.2512,1.25121 2.4464,1.91617 2.4464,3.68566 0,1.76949 -1.1952,2.43444 -2.4464,3.68566 -1.2513,1.25122 -1.9162,2.44647 -3.6857,2.44647 z"
         transform="matrix(0.70245458,0,0,0.70245458,-777.55652,514.55867)" />
      <path
         sodipodi:type="star"
         style="opacity:1;fill:#00ff00;fill-opacity:1;fill-rule:evenodd;stroke:none;stroke-width:3.03034;stroke-linecap:round"
         id="path505"
         inkscape:flatsided="false"
         sodipodi:sides="3"
         sodipodi:cx="-2681.3457"
         sodipodi:cy="609.32959"
         sodipodi:r1="6.1321349"
         sodipodi:r2="4.2924943"
         sodipodi:arg1="1.5707963"
         sodipodi:arg2="2.6179939"
         inkscape:rounded="0.35"
         inkscape:randomized="0"
         d="m -2681.3457,615.46172 c -1.9076,0 -2.7636,-2.33383 -3.7174,-3.98588 -0.9538,-1.65206 -2.547,-3.56026 -1.5932,-5.21232 0.9538,-1.65205 3.403,-1.22642 5.3106,-1.22642 1.9076,0 4.3568,-0.42563 5.3106,1.22642 0.9538,1.65206 -0.6394,3.56026 -1.5932,5.21232 -0.9538,1.65205 -1.8098,3.98588 -3.7174,3.98588 z"
         transform="matrix(0.72349,0,0,-0.72349,-699.03899,1384.0766)" />
      <path
         sodipodi:type="star"
         style="opacity:1;fill:#00ff00;fill-opacity:1;fill-rule:evenodd;stroke:none;stroke-width:3.98693;stroke-linecap:round"
         id="path506"
         inkscape:flatsided="false"
         sodipodi:sides="6"
         sodipodi:cx="-2691.2593"
         sodipodi:cy="598.04639"
         sodipodi:r1="7.8332772"
         sodipodi:r2="6.6582856"
         sodipodi:arg1="1.5707963"
         sodipodi:arg2="2.0943951"
         inkscape:rounded="0.4"
         inkscape:randomized="0"
         d="m -2691.2593,605.87966 c -1.5674,0 -1.9717,-1.2833 -3.3291,-2.06703 -1.3575,-0.78373 -2.671,-0.49214 -3.4547,-1.8496 -0.7837,-1.35746 0.1255,-2.34918 0.1255,-3.91664 0,-1.56746 -0.9092,-2.55918 -0.1255,-3.91664 0.7837,-1.35746 2.0972,-1.06588 3.4547,-1.84961 1.3574,-0.78373 1.7617,-2.06703 3.3291,-2.06703 1.5675,0 1.9717,1.2833 3.3292,2.06703 1.3574,0.78373 2.6709,0.49215 3.4546,1.84961 0.7838,1.35746 -0.1255,2.34918 -0.1255,3.91664 0,1.56746 0.9093,2.55918 0.1255,3.91664 -0.7837,1.35746 -2.0972,1.06587 -3.4546,1.8496 -1.3575,0.78373 -1.7617,2.06703 -3.3292,2.06703 z"
         transform="matrix(0.54990346,0,0,0.54990346,-1071.5286,613.71725)" />
      <path
         sodipodi:type="star"
         style="opacity:1;fill:#00ff00;fill-opacity:1;fill-rule:evenodd;stroke:none;stroke-width:3.12109;stroke-linecap:round"
         id="path507"
         inkscape:flatsided="false"
         sodipodi:sides="4"
         sodipodi:cx="-2681.3457"
         sodipodi:cy="609.32959"
         sodipodi:r1="6.1321349"
         sodipodi:r2="5.2123146"
         sodipodi:arg1="1.5707963"
         sodipodi:arg2="2.3561945"
         inkscape:rounded="0.4"
         inkscape:randomized="0"
         d="m -2681.3457,615.46172 c -1.7695,0 -2.4344,-1.19525 -3.6857,-2.44647 -1.2512,-1.25122 -2.4464,-1.91617 -2.4464,-3.68566 0,-1.76949 1.1952,-2.43444 2.4464,-3.68566 1.2513,-1.25122 1.9162,-2.44648 3.6857,-2.44648 1.7695,0 2.4344,1.19526 3.6857,2.44648 1.2512,1.25121 2.4464,1.91617 2.4464,3.68566 0,1.76949 -1.1952,2.43444 -2.4464,3.68566 -1.2513,1.25122 -1.9162,2.44647 -3.6857,2.44647 z"
         transform="matrix(0.70245458,0,0,0.70245458,-711.76454,514.55867)" />
      <path
         sodipodi:type="star"
         style="opacity:1;fill:#00ff00;fill-opacity:1;fill-rule:evenodd;stroke:none;stroke-width:3.03034;stroke-linecap:round"
         id="path508"
         inkscape:flatsided="false"
         sodipodi:sides="3"
         sodipodi:cx="-2681.3457"
         sodipodi:cy="609.32959"
         sodipodi:r1="6.1321349"
         sodipodi:r2="4.2924943"
         sodipodi:arg1="1.5707963"
         sodipodi:arg2="2.6179939"
         inkscape:rounded="0.35"
         inkscape:randomized="0"
         d="m -2681.3457,615.46172 c -1.9076,0 -2.7636,-2.33383 -3.7174,-3.98588 -0.9538,-1.65206 -2.547,-3.56026 -1.5932,-5.21232 0.9538,-1.65205 3.403,-1.22642 5.3106,-1.22642 1.9076,0 4.3568,-0.42563 5.3106,1.22642 0.9538,1.65206 -0.6394,3.56026 -1.5932,5.21232 -0.9538,1.65205 -1.8098,3.98588 -3.7174,3.98588 z"
         transform="matrix(0.72349,0,0,-0.72349,-633.24701,1384.0766)" />
      <path
         sodipodi:type="star"
         style="opacity:1;fill:#00ff00;fill-opacity:1;fill-rule:evenodd;stroke:none;stroke-width:3.98693;stroke-linecap:round"
         id="path509"
         inkscape:flatsided="false"
         sodipodi:sides="6"
         sodipodi:cx="-2691.2593"
         sodipodi:cy="598.04639"
         sodipodi:r1="7.8332772"
         sodipodi:r2="6.6582856"
         sodipodi:arg1="1.5707963"
         sodipodi:arg2="2.0943951"
         inkscape:rounded="0.4"
         inkscape:randomized="0"
         d="m -2691.2593,605.87966 c -1.5674,0 -1.9717,-1.2833 -3.3291,-2.06703 -1.3575,-0.78373 -2.671,-0.49214 -3.4547,-1.8496 -0.7837,-1.35746 0.1255,-2.34918 0.1255,-3.91664 0,-1.56746 -0.9092,-2.55918 -0.1255,-3.91664 0.7837,-1.35746 2.0972,-1.06588 3.4547,-1.84961 1.3574,-0.78373 1.7617,-2.06703 3.3291,-2.06703 1.5675,0 1.9717,1.2833 3.3292,2.06703 1.3574,0.78373 2.6709,0.49215 3.4546,1.84961 0.7838,1.35746 -0.1255,2.34918 -0.1255,3.91664 0,1.56746 0.9093,2.55918 0.1255,3.91664 -0.7837,1.35746 -2.0972,1.06587 -3.4546,1.8496 -1.3575,0.78373 -1.7617,2.06703 -3.3292,2.06703 z"
         transform="matrix(0.54990346,0,0,0.54990346,-1005.7366,613.71725)" />
      <path
         sodipodi:type="star"
         style="opacity:1;fill:#00ff00;fill-opacity:1;fill-rule:evenodd;stroke:none;stroke-width:3.12109;stroke-linecap:round"
         id="path510"
         inkscape:flatsided="false"
         sodipodi:sides="4"
         sodipodi:cx="-2681.3457"
         sodipodi:cy="609.32959"
         sodipodi:r1="6.1321349"
         sodipodi:r2="5.2123146"
         sodipodi:arg1="1.5707963"
         sodipodi:arg2="2.3561945"
         inkscape:rounded="0.4"
         inkscape:randomized="0"
         d="m -2681.3457,615.46172 c -1.7695,0 -2.4344,-1.19525 -3.6857,-2.44647 -1.2512,-1.25122 -2.4464,-1.91617 -2.4464,-3.68566 0,-1.76949 1.1952,-2.43444 2.4464,-3.68566 1.2513,-1.25122 1.9162,-2.44648 3.6857,-2.44648 1.7695,0 2.4344,1.19526 3.6857,2.44648 1.2512,1.25121 2.4464,1.91617 2.4464,3.68566 0,1.76949 -1.1952,2.43444 -2.4464,3.68566 -1.2513,1.25122 -1.9162,2.44647 -3.6857,2.44647 z"
         transform="matrix(0.70245458,0,0,0.70245458,-645.97255,514.55867)" />
      <path
         sodipodi:type="star"
         style="opacity:1;fill:#00ff00;fill-opacity:1;fill-rule:evenodd;stroke:none;stroke-width:3.03034;stroke-linecap:round"
         id="path511"
         inkscape:flatsided="false"
         sodipodi:sides="3"
         sodipodi:cx="-2681.3457"
         sodipodi:cy="609.32959"
         sodipodi:r1="6.1321349"
         sodipodi:r2="4.2924943"
         sodipodi:arg1="1.5707963"
         sodipodi:arg2="2.6179939"
         inkscape:rounded="0.35"
         inkscape:randomized="0"
         d="m -2681.3457,615.46172 c -1.9076,0 -2.7636,-2.33383 -3.7174,-3.98588 -0.9538,-1.65206 -2.547,-3.56026 -1.5932,-5.21232 0.9538,-1.65205 3.403,-1.22642 5.3106,-1.22642 1.9076,0 4.3568,-0.42563 5.3106,1.22642 0.9538,1.65206 -0.6394,3.56026 -1.5932,5.21232 -0.9538,1.65205 -1.8098,3.98588 -3.7174,3.98588 z"
         transform="matrix(0.72349,0,0,-0.72349,-567.45503,1384.0766)" />
      <path
         sodipodi:type="star"
         style="opacity:1;fill:#00ff00;fill-opacity:1;fill-rule:evenodd;stroke:none;stroke-width:3.98693;stroke-linecap:round"
         id="path512"
         inkscape:flatsided="false"
         sodipodi:sides="6"
         sodipodi:cx="-2691.2593"
         sodipodi:cy="598.04639"
         sodipodi:r1="7.8332772"
         sodipodi:r2="6.6582856"
         sodipodi:arg1="1.5707963"
         sodipodi:arg2="2.0943951"
         inkscape:rounded="0.4"
         inkscape:randomized="0"
         d="m -2691.2593,605.87966 c -1.5674,0 -1.9717,-1.2833 -3.3291,-2.06703 -1.3575,-0.78373 -2.671,-0.49214 -3.4547,-1.8496 -0.7837,-1.35746 0.1255,-2.34918 0.1255,-3.91664 0,-1.56746 -0.9092,-2.55918 -0.1255,-3.91664 0.7837,-1.35746 2.0972,-1.06588 3.4547,-1.84961 1.3574,-0.78373 1.7617,-2.06703 3.3291,-2.06703 1.5675,0 1.9717,1.2833 3.3292,2.06703 1.3574,0.78373 2.6709,0.49215 3.4546,1.84961 0.7838,1.35746 -0.1255,2.34918 -0.1255,3.91664 0,1.56746 0.9093,2.55918 0.1255,3.91664 -0.7837,1.35746 -2.0972,1.06587 -3.4546,1.8496 -1.3575,0.78373 -1.7617,2.06703 -3.3292,2.06703 z"
         transform="matrix(0.54990346,0,0,0.54990346,-939.94467,613.71725)" />
      <path
         sodipodi:type="star"
         style="opacity:1;fill:#00ff00;fill-opacity:1;fill-rule:evenodd;stroke:none;stroke-width:3.12109;stroke-linecap:round"
         id="path513"
         inkscape:flatsided="false"
         sodipodi:sides="4"
         sodipodi:cx="-2681.3457"
         sodipodi:cy="609.32959"
         sodipodi:r1="6.1321349"
         sodipodi:r2="5.2123146"
         sodipodi:arg1="1.5707963"
         sodipodi:arg2="2.3561945"
         inkscape:rounded="0.4"
         inkscape:randomized="0"
         d="m -2681.3457,615.46172 c -1.7695,0 -2.4344,-1.19525 -3.6857,-2.44647 -1.2512,-1.25122 -2.4464,-1.91617 -2.4464,-3.68566 0,-1.76949 1.1952,-2.43444 2.4464,-3.68566 1.2513,-1.25122 1.9162,-2.44648 3.6857,-2.44648 1.7695,0 2.4344,1.19526 3.6857,2.44648 1.2512,1.25121 2.4464,1.91617 2.4464,3.68566 0,1.76949 -1.1952,2.43444 -2.4464,3.68566 -1.2513,1.25122 -1.9162,2.44647 -3.6857,2.44647 z"
         transform="matrix(0.70245458,0,0,0.70245458,-580.18058,514.55867)" />
      <path
         sodipodi:type="star"
         style="opacity:1;fill:#00ff00;fill-opacity:1;fill-rule:evenodd;stroke:none;stroke-width:3.03034;stroke-linecap:round"
         id="path514"
         inkscape:flatsided="false"
         sodipodi:sides="3"
         sodipodi:cx="-2681.3457"
         sodipodi:cy="609.32959"
         sodipodi:r1="6.1321349"
         sodipodi:r2="4.2924943"
         sodipodi:arg1="1.5707963"
         sodipodi:arg2="2.6179939"
         inkscape:rounded="0.35"
         inkscape:randomized="0"
         d="m -2681.3457,615.46172 c -1.9076,0 -2.7636,-2.33383 -3.7174,-3.98588 -0.9538,-1.65206 -2.547,-3.56026 -1.5932,-5.21232 0.9538,-1.65205 3.403,-1.22642 5.3106,-1.22642 1.9076,0 4.3568,-0.42563 5.3106,1.22642 0.9538,1.65206 -0.6394,3.56026 -1.5932,5.21232 -0.9538,1.65205 -1.8098,3.98588 -3.7174,3.98588 z"
         transform="matrix(0.72349,0,0,-0.72349,-501.66304,1384.0766)" />
      <path
         sodipodi:type="star"
         style="opacity:1;fill:#00ff00;fill-opacity:1;fill-rule:evenodd;stroke:none;stroke-width:3.12109;stroke-linecap:round"
         id="path515"
         inkscape:flatsided="false"
         sodipodi:sides="4"
         sodipodi:cx="-2681.3457"
         sodipodi:cy="609.32959"
         sodipodi:r1="6.1321349"
         sodipodi:r2="5.2123146"
         sodipodi:arg1="1.5707963"
         sodipodi:arg2="2.3561945"
         inkscape:rounded="0.4"
         inkscape:randomized="0"
         d="m -2681.3457,615.46172 c -1.7695,0 -2.4344,-1.19525 -3.6857,-2.44647 -1.2512,-1.25122 -2.4464,-1.91617 -2.4464,-3.68566 0,-1.76949 1.1952,-2.43444 2.4464,-3.68566 1.2513,-1.25122 1.9162,-2.44648 3.6857,-2.44648 1.7695,0 2.4344,1.19526 3.6857,2.44648 1.2512,1.25121 2.4464,1.91617 2.4464,3.68566 0,1.76949 -1.1952,2.43444 -2.4464,3.68566 -1.2513,1.25122 -1.9162,2.44647 -3.6857,2.44647 z"
         transform="matrix(0.70245458,0,0,0.70245458,-514.38858,514.55867)" />
      <path
         sodipodi:type="star"
         style="opacity:1;fill:#00ff00;fill-opacity:1;fill-rule:evenodd;stroke:none;stroke-width:3.03034;stroke-linecap:round"
         id="path516"
         inkscape:flatsided="false"
         sodipodi:sides="3"
         sodipodi:cx="-2681.3457"
         sodipodi:cy="609.32959"
         sodipodi:r1="6.1321349"
         sodipodi:r2="4.2924943"
         sodipodi:arg1="1.5707963"
         sodipodi:arg2="2.6179939"
         inkscape:rounded="0.35"
         inkscape:randomized="0"
         d="m -2681.3457,615.46172 c -1.9076,0 -2.7636,-2.33383 -3.7174,-3.98588 -0.9538,-1.65206 -2.547,-3.56026 -1.5932,-5.21232 0.9538,-1.65205 3.403,-1.22642 5.3106,-1.22642 1.9076,0 4.3568,-0.42563 5.3106,1.22642 0.9538,1.65206 -0.6394,3.56026 -1.5932,5.21232 -0.9538,1.65205 -1.8098,3.98588 -3.7174,3.98588 z"
         transform="matrix(0.72349,0,0,-0.72349,-435.87105,1384.0766)" />
    </g>
  </g>
</svg>
