<?xml version="1.0" encoding="UTF-8" standalone="no"?>
<!-- Created with Inkscape (http://www.inkscape.org/) -->

<svg
   width="381.00061mm"
   height="19.04966mm"
   viewBox="0 0 381.00061 19.04966"
   version="1.1"
   id="svg1"
   inkscape:version="1.4.2 (ebf0e94, 2025-05-08)"
   sodipodi:docname="pattern2.svg"
   xmlns:inkscape="http://www.inkscape.org/namespaces/inkscape"
   xmlns:sodipodi="http://sodipodi.sourceforge.net/DTD/sodipodi-0.dtd"
   xmlns="http://www.w3.org/2000/svg"
   xmlns:svg="http://www.w3.org/2000/svg">
  <sodipodi:namedview
     id="namedview1"
     pagecolor="#505050"
     bordercolor="#eeeeee"
     borderopacity="1"
     inkscape:showpageshadow="0"
     inkscape:pageopacity="0"
     inkscape:pagecheckerboard="0"
     inkscape:deskcolor="#505050"
     inkscape:document-units="mm"
     inkscape:zoom="5.7370931"
     inkscape:cx="22.31095"
     inkscape:cy="46.277792"
     inkscape:window-width="1920"
     inkscape:window-height="1048"
     inkscape:window-x="0"
     inkscape:window-y="0"
     inkscape:window-maximized="1"
     inkscape:current-layer="layer1" />
  <defs
     id="defs1" />
  <g
     inkscape:label="Layer 1"
     inkscape:groupmode="layer"
     id="layer1"
     transform="translate(18.2562,-199.23125)">
    <path
       id="path435"
       style="fill:#ffffff;fill-opacity:1;fill-rule:evenodd;stroke:none;stroke-width:2;stroke-linecap:round"
       d="m -7.84413,199.73903 -10.41177,18.0341 h 8.63772 l 10.41177,-18.0341 z m 8.63772,0 10.41228,18.0341 h 8.63772 L 9.43182,199.73903 Z m 19.05,18.0341 h 8.63823 l 10.41177,-18.0341 h -8.63772 z m 19.05,-18.0341 10.41176,18.0341 h 8.63824 l -10.41177,-18.0341 z m 19.05,18.0341 h 8.63771 l 10.41229,-18.0341 h -8.63824 z m 19.05,-18.0341 10.41176,18.0341 h 8.63824 L 85.6313,199.73903 Z m 19.05,18.0341 h 8.63771 l 10.41177,-18.0341 h -8.63772 z m 19.04948,-18.0341 10.41228,18.0341 h 8.63772 l -10.41177,-18.0341 z m 19.05,18.0341 h 8.63823 l 10.41177,-18.0341 h -8.63823 z m 19.05,-18.0341 10.41177,18.0341 h 8.63823 l -10.41228,-18.0341 z m 19.05,18.0341 h 8.63772 l 10.41228,-18.0341 h -8.63823 z m 19.05,-18.0341 10.41177,18.0341 h 8.63771 l -10.41177,-18.0341 z m 19.04948,18.0341 h 8.63823 l 10.41177,-18.0341 h -8.63771 z m 19.05,-18.0341 10.41177,18.0341 h 8.63823 l -10.41177,-18.0341 z m 19.05,18.0341 h 8.63823 l 10.41177,-18.0341 h -8.63823 z m 19.05,-18.0341 10.41177,18.0341 h 8.63823 l -10.41228,-18.0341 z m 19.05,18.0341 h 8.63772 l 10.41176,-18.0341 h -8.63771 z m 19.04948,-18.0341 10.41229,18.0341 h 8.63772 l -10.41177,-18.0341 z m 19.05001,18.0341 h 8.63823 l 10.41177,-18.0341 h -8.63824 z m 19.05,-18.0341 10.41176,18.0341 h 8.63824 l -10.41177,-18.0341 z" />
  </g>
</svg>
