<?xml version="1.0" encoding="UTF-8" standalone="no"?>
<!-- Created with Inkscape (http://www.inkscape.org/) -->

<svg
   width="381.00061mm"
   height="19.04966mm"
   viewBox="0 0 381.00061 19.04966"
   version="1.1"
   id="svg1"
   inkscape:version="1.4.2 (ebf0e94, 2025-05-08)"
   sodipodi:docname="pattern2.svg"
   xmlns:inkscape="http://www.inkscape.org/namespaces/inkscape"
   xmlns:sodipodi="http://sodipodi.sourceforge.net/DTD/sodipodi-0.dtd"
   xmlns="http://www.w3.org/2000/svg"
   xmlns:svg="http://www.w3.org/2000/svg">
  <sodipodi:namedview
     id="namedview1"
     pagecolor="#505050"
     bordercolor="#eeeeee"
     borderopacity="1"
     inkscape:showpageshadow="0"
     inkscape:pageopacity="0"
     inkscape:pagecheckerboard="0"
     inkscape:deskcolor="#505050"
     inkscape:document-units="mm"
     inkscape:zoom="0.50709218"
     inkscape:cx="798.67136"
     inkscape:cy="-215.93707"
     inkscape:window-width="1920"
     inkscape:window-height="1048"
     inkscape:window-x="0"
     inkscape:window-y="0"
     inkscape:window-maximized="1"
     inkscape:current-layer="layer1" />
  <defs
     id="defs1" />
  <g
     inkscape:label="Layer 1"
     inkscape:groupmode="layer"
     id="layer1"
     transform="translate(18.2562,-199.23125)">
    <path
       id="path286"
       style="fill:#ffffff;fill-rule:evenodd;stroke-width:2;stroke-linecap:round"
       d="m -18.2559,199.23114 v 1.3255 h 1.1276 c 0.8327,-2e-4 1.602,0.43895 2.0185,1.15135 l 3.4458,5.89628 c 0.4162,0.7125 0.4162,1.5903 0,2.3027 l -3.4458,5.8968 c -0.4165,0.7124 -1.1858,1.15103 -2.0185,1.15083 h -1.1276 v 1.32602 h 1.6986 5e-4 c 0.9618,-0.005 1.8494,-0.51379 2.3306,-1.33739 l 4.0019,-6.84971 c 0.4837,-0.8277 0.4837,-1.84759 0,-2.67529 l -4.0019,-6.84971 c -0.4837,-0.8277 -1.3777,-1.33748 -2.345,-1.33738 z m 8.4786,0 c -0.1729,0.668 -0.08,1.38699 0.2785,2.00039 l 4.0023,6.84971 c 0.1505,0.2575 0.341,0.48418 0.5607,0.67438 -0.2197,0.1901 -0.4102,0.41698 -0.5607,0.67438 l -4.0023,6.84971 c -0.3586,0.6134 -0.4514,1.33271 -0.2785,2.00091 h 1.5053 c -0.1827,-0.6006 -0.1116,-1.25786 0.2134,-1.81436 l 3.4458,-5.8968 c 0.4164,-0.7121 1.1853,-1.15063 2.0175,-1.15083 h 6.892 c 0.8323,2e-4 1.6016,0.43873 2.018,1.15083 l 3.4453,5.8968 c 0.325,0.5565 0.3961,1.21376 0.2134,1.81436 h 1.5048 c 0.1729,-0.6682 0.08,-1.38751 -0.2785,-2.00091 L 7.1979,209.43 c -0.1504,-0.2574 -0.341,-0.48428 -0.5607,-0.67438 0.2197,-0.1902 0.4103,-0.41688 0.5607,-0.67438 l 4.0018,-6.84971 c 0.3584,-0.6134 0.4514,-1.33239 0.2785,-2.00039 H 9.9734 c 0.1827,0.6005 0.1116,1.25754 -0.2134,1.81384 l -3.4453,5.8968 c -0.4128,0.7061 -1.1726,1.14323 -1.9968,1.15083 H -2.616 c -0.8242,-0.01 -1.584,-0.44453 -1.9968,-1.15083 l -3.4458,-5.8968 c -0.325,-0.5563 -0.3961,-1.21334 -0.2134,-1.81384 z m 8.5628,0 -0.215,0.36793 c -0.1068,0.1836 -0.1066,0.40643 0,0.58963 l 0.8816,1.50895 c 0.1066,0.1823 0.3035,0.29498 0.5167,0.29508 h 1.7638 c 0.1846,0 0.3973,-0.091 0.5167,-0.29508 l 0.8821,-1.50895 c 0.1067,-0.1833 0.1068,-0.40623 0,-0.58963 l -0.2149,-0.36793 z m 19.4871,0 c -0.9672,0 -1.8608,0.50978 -2.3445,1.33738 l -4.0024,6.84971 c -0.4838,0.8277 -0.4838,1.84759 0,2.67529 l 4.0024,6.84971 c 0.4813,0.8236 1.3692,1.33246 2.3311,1.33739 h 8.0326 c 0.9616,-0.005 1.8488,-0.51379 2.3301,-1.33739 l 4.0023,-6.84971 c 0.4837,-0.8277 0.4837,-1.84759 0,-2.67529 l -4.0023,-6.84971 c -0.4837,-0.8277 -1.3774,-1.33748 -2.3446,-1.33738 z m 14.7986,0 c -0.1729,0.668 -0.08,1.38699 0.2786,2.00039 l 4.0023,6.84971 c 0.1505,0.2575 0.341,0.48418 0.5607,0.67438 -0.2197,0.1901 -0.4102,0.41698 -0.5607,0.67438 l -4.0023,6.84971 c -0.3585,0.6134 -0.4515,1.33271 -0.2786,2.00091 h 1.5054 c -0.1827,-0.6006 -0.1117,-1.25786 0.2134,-1.81436 l 3.4458,-5.8968 c 0.4164,-0.7121 1.1852,-1.15063 2.0174,-1.15083 h 6.8921 c 0.8323,2e-4 1.6016,0.43873 2.018,1.15083 l 3.4452,5.8968 c 0.3251,0.5565 0.3961,1.21376 0.2134,1.81436 h 1.5049 c 0.1728,-0.6682 0.08,-1.38751 -0.2786,-2.00091 L 50.0464,209.43 c -0.1504,-0.2574 -0.341,-0.48428 -0.5607,-0.67438 0.2197,-0.1902 0.4103,-0.41688 0.5607,-0.67438 l 4.0018,-6.84971 c 0.3585,-0.6134 0.4514,-1.33239 0.2786,-2.00039 h -1.5049 c 0.1827,0.6005 0.1117,1.25754 -0.2134,1.81384 l -3.4452,5.8968 c -0.4128,0.7061 -1.1726,1.14323 -1.9968,1.15083 h -6.934 c -0.8242,-0.01 -1.5839,-0.44453 -1.9967,-1.15083 l -3.4458,-5.8968 c -0.3251,-0.5563 -0.3961,-1.21334 -0.2134,-1.81384 z m 8.5628,0 -0.215,0.36793 c -0.1068,0.1836 -0.1066,0.40643 0,0.58963 l 0.8816,1.50895 c 0.1066,0.1823 0.3036,0.29498 0.5168,0.29508 h 1.7637 c 0.1846,0 0.3974,-0.091 0.5168,-0.29508 L 45.98,200.1887 c 0.1067,-0.1833 0.1068,-0.40623 0,-0.58963 l -0.215,-0.36793 z m 19.4867,0 c -0.9672,0 -1.8609,0.50978 -2.3446,1.33738 l -4.0023,6.84971 c -0.4838,0.8277 -0.4838,1.84759 0,2.67529 l 4.0023,6.84971 c 0.4813,0.8236 1.3694,1.33246 2.3311,1.33739 h 8.0326 c 0.9617,-0.005 1.8494,-0.51379 2.3306,-1.33739 l 4.0018,-6.84971 c 0.4837,-0.8277 0.4837,-1.84759 0,-2.67529 l -4.0018,-6.84971 c -0.4837,-0.8277 -1.3779,-1.33748 -2.3451,-1.33738 z m 14.7991,0 c -0.1729,0.668 -0.08,1.38699 0.2785,2.00039 l 4.0023,6.84971 c 0.1505,0.2575 0.341,0.48418 0.5607,0.67438 -0.2197,0.1901 -0.4102,0.41698 -0.5607,0.67438 l -4.0023,6.84971 c -0.3586,0.6134 -0.4514,1.33271 -0.2785,2.00091 h 1.5053 c -0.1827,-0.6006 -0.1116,-1.25786 0.2134,-1.81436 l 3.4458,-5.8968 c 0.4164,-0.7121 1.1853,-1.15063 2.0175,-1.15083 h 6.892 c 0.8323,2e-4 1.6016,0.43873 2.018,1.15083 l 3.4453,5.8968 c 0.325,0.5565 0.3961,1.21376 0.2134,1.81436 h 1.5048 c 0.1729,-0.6682 0.08,-1.38751 -0.2785,-2.00091 L 92.895,209.43 c -0.1504,-0.2574 -0.341,-0.48428 -0.5607,-0.67438 0.2197,-0.1902 0.4103,-0.41688 0.5607,-0.67438 l 4.0018,-6.84971 c 0.3584,-0.6134 0.4514,-1.33239 0.2785,-2.00039 h -1.5048 c 0.1827,0.6005 0.1116,1.25754 -0.2134,1.81384 l -3.4453,5.8968 c -0.4128,0.7061 -1.1726,1.14323 -1.9968,1.15083 h -6.9339 c -0.8242,-0.01 -1.584,-0.44453 -1.9968,-1.15083 l -3.4458,-5.8968 c -0.3251,-0.5563 -0.3961,-1.21334 -0.2134,-1.81384 z m 8.5627,0 -0.2149,0.36793 c -0.1068,0.1836 -0.1066,0.40643 0,0.58963 l 0.8816,1.50895 c 0.1066,0.1823 0.3035,0.29498 0.5167,0.29508 h 1.7638 c 0.1846,0 0.3973,-0.091 0.5167,-0.29508 l 0.8821,-1.50895 c 0.1067,-0.1833 0.1068,-0.40623 0,-0.58963 l -0.2149,-0.36793 z m 19.4867,0 c -0.9672,0 -1.8608,0.50978 -2.3445,1.33738 l -4.0024,6.84971 c -0.4838,0.8277 -0.4838,1.84759 0,2.67529 l 4.0024,6.84971 c 0.4814,0.8236 1.3692,1.33246 2.3311,1.33739 h 8.0326 c 0.9617,-0.005 1.8493,-0.51379 2.3306,-1.33739 l 4.0018,-6.84971 c 0.4837,-0.8277 0.4837,-1.84759 0,-2.67529 l -4.0018,-6.84971 c -0.4837,-0.8277 -1.3779,-1.33748 -2.3451,-1.33738 z m 14.7986,0 c -0.1729,0.668 -0.08,1.38699 0.2785,2.00039 l 4.0024,6.84971 c 0.1505,0.2575 0.341,0.48418 0.5607,0.67438 -0.2197,0.1901 -0.4102,0.41698 -0.5607,0.67438 l -4.0024,6.84971 c -0.3585,0.6134 -0.4514,1.33271 -0.2785,2.00091 h 1.5053 c -0.1827,-0.6006 -0.1115,-1.25786 0.2135,-1.81436 l 3.4457,-5.8968 c 0.4164,-0.7121 1.1853,-1.15063 2.0175,-1.15083 h 6.8921 c 0.8323,2e-4 1.6015,0.43873 2.0179,1.15083 l 3.4453,5.8968 c 0.325,0.5565 0.3961,1.21376 0.2134,1.81436 h 1.5048 c 0.1729,-0.6682 0.08,-1.38751 -0.2785,-2.00091 L 135.743,209.43 c -0.1504,-0.2574 -0.341,-0.48428 -0.5607,-0.67438 0.2197,-0.1902 0.4103,-0.41688 0.5607,-0.67438 l 4.0018,-6.84971 c 0.3585,-0.6134 0.4514,-1.33239 0.2785,-2.00039 h -1.5048 c 0.1827,0.6005 0.1117,1.25754 -0.2134,1.81384 l -3.4453,5.8968 c -0.4128,0.7061 -1.1725,1.14323 -1.9967,1.15083 h -6.934 c -0.8242,-0.01 -1.584,-0.44453 -1.9968,-1.15083 l -3.4457,-5.8968 c -0.325,-0.5563 -0.3962,-1.21334 -0.2135,-1.81384 z m 8.5628,0 -0.215,0.36793 c -0.1068,0.1836 -0.1066,0.40643 0,0.58963 l 0.8816,1.50895 c 0.1066,0.1823 0.3036,0.29498 0.5168,0.29508 h 1.7637 c 0.1846,0 0.3974,-0.091 0.5168,-0.29508 l 0.8821,-1.50895 c 0.1067,-0.1833 0.1068,-0.40623 0,-0.58963 l -0.215,-0.36793 z m 19.4872,0 c -0.9672,0 -1.8609,0.50978 -2.3446,1.33738 l -4.0023,6.84971 c -0.4838,0.8277 -0.4838,1.84759 0,2.67529 l 4.0023,6.84971 c 0.4813,0.8236 1.3688,1.33246 2.3306,1.33739 h 8.0331 c 0.9617,-0.005 1.8489,-0.51379 2.3301,-1.33739 l 4.0023,-6.84971 c 0.4837,-0.8277 0.4837,-1.84759 0,-2.67529 l -4.0023,-6.84971 c -0.4837,-0.8277 -1.3774,-1.33748 -2.3446,-1.33738 z m 14.7985,0 c -0.1729,0.668 -0.08,1.38699 0.2786,2.00039 l 4.0023,6.84971 c 0.1505,0.2575 0.341,0.48418 0.5607,0.67438 -0.2197,0.1901 -0.4102,0.41698 -0.5607,0.67438 l -4.0023,6.84971 c -0.3586,0.6134 -0.4515,1.33271 -0.2786,2.00091 h 1.5054 c -0.1827,-0.6006 -0.1117,-1.25786 0.2134,-1.81436 l 3.4458,-5.8968 c 0.4164,-0.7121 1.1852,-1.15063 2.0174,-1.15083 h 6.8921 c 0.8323,2e-4 1.6016,0.43873 2.018,1.15083 l 3.4453,5.8968 c 0.325,0.5565 0.3961,1.21376 0.2134,1.81436 h 1.5048 c 0.1728,-0.6682 0.08,-1.38751 -0.2785,-2.00091 L 178.5915,209.43 c -0.1504,-0.2574 -0.341,-0.48428 -0.5607,-0.67438 0.2197,-0.1902 0.4103,-0.41688 0.5607,-0.67438 l 4.0019,-6.84971 c 0.3585,-0.6134 0.4513,-1.33239 0.2785,-2.00039 h -1.5048 c 0.1827,0.6005 0.1117,1.25754 -0.2134,1.81384 l -3.4453,5.8968 c -0.4128,0.7061 -1.1726,1.14323 -1.9968,1.15083 h -6.9339 c -0.8242,-0.01 -1.584,-0.44453 -1.9968,-1.15083 l -3.4458,-5.8968 c -0.3251,-0.5563 -0.3961,-1.21334 -0.2134,-1.81384 z m 8.5628,0 -0.2149,0.36793 c -0.1068,0.1836 -0.1066,0.40643 0,0.58963 l 0.8816,1.50895 c 0.1066,0.1823 0.3035,0.29498 0.5167,0.29508 h 1.7637 c 0.1846,0 0.3974,-0.091 0.5168,-0.29508 l 0.8821,-1.50895 c 0.1067,-0.1833 0.1068,-0.40623 0,-0.58963 l -0.215,-0.36793 z m 19.4867,0 c -0.9672,0 -1.8609,0.50978 -2.3446,1.33738 l -4.0023,6.84971 c -0.4838,0.8277 -0.4838,1.84759 0,2.67529 l 4.0023,6.84971 c 0.4814,0.8236 1.3694,1.33246 2.3312,1.33739 h 8.0325 c 0.9618,-0.005 1.8495,-0.51379 2.3306,-1.33739 l 4.0019,-6.84971 c 0.4837,-0.8277 0.4837,-1.84759 0,-2.67529 l -4.0019,-6.84971 c -0.4837,-0.8277 -1.3778,-1.33748 -2.345,-1.33738 z m 14.7991,0 c -0.1729,0.668 -0.08,1.38699 0.2785,2.00039 l 4.0024,6.84971 c 0.1505,0.2575 0.341,0.48418 0.5607,0.67438 -0.2197,0.1901 -0.4102,0.41698 -0.5607,0.67438 l -4.0024,6.84971 c -0.3585,0.6134 -0.4514,1.33271 -0.2785,2.00091 h 1.5053 c -0.1827,-0.6006 -0.1116,-1.25786 0.2134,-1.81436 l 3.4458,-5.8968 c 0.4164,-0.7121 1.1853,-1.15063 2.0175,-1.15083 h 6.8921 c 0.8323,2e-4 1.6015,0.43873 2.0179,1.15083 l 3.4453,5.8968 c 0.325,0.5565 0.3961,1.21376 0.2134,1.81436 h 1.5048 c 0.1729,-0.6682 0.08,-1.38751 -0.2785,-2.00091 L 221.4401,209.43 c -0.1504,-0.2574 -0.341,-0.48428 -0.5607,-0.67438 0.2197,-0.1902 0.4103,-0.41688 0.5607,-0.67438 l 4.0018,-6.84971 c 0.3585,-0.6134 0.4514,-1.33239 0.2785,-2.00039 h -1.5048 c 0.1827,0.6005 0.1116,1.25754 -0.2134,1.81384 l -3.4453,5.8968 c -0.4128,0.7061 -1.1725,1.14323 -1.9967,1.15083 h -6.934 c -0.8242,-0.01 -1.584,-0.44453 -1.9968,-1.15083 l -3.4458,-5.8968 c -0.325,-0.5563 -0.3961,-1.21334 -0.2134,-1.81384 z m 8.5628,0 -0.215,0.36793 c -0.1068,0.1836 -0.1066,0.40643 0,0.58963 l 0.8816,1.50895 c 0.1066,0.1823 0.3036,0.29498 0.5168,0.29508 h 1.7637 c 0.1846,0 0.3973,-0.091 0.5167,-0.29508 l 0.8822,-1.50895 c 0.1067,-0.1833 0.1068,-0.40623 0,-0.58963 l -0.215,-0.36793 z m 19.4866,0 c -0.9672,0 -1.8608,0.50978 -2.3445,1.33738 l -4.0024,6.84971 c -0.4838,0.8277 -0.4838,1.84759 0,2.67529 l 4.0024,6.84971 c 0.4813,0.8236 1.3692,1.33246 2.3311,1.33739 h 8.0326 c 0.9617,-0.005 1.8494,-0.51379 2.3306,-1.33739 l 4.0018,-6.84971 c 0.4837,-0.8277 0.4837,-1.84759 0,-2.67529 l -4.0018,-6.84971 c -0.4837,-0.8277 -1.3779,-1.33748 -2.3451,-1.33738 z m 14.7986,0 c -0.1729,0.668 -0.08,1.38699 0.2786,2.00039 l 4.0023,6.84971 c 0.1505,0.2575 0.341,0.48418 0.5607,0.67438 -0.2197,0.1901 -0.4102,0.41698 -0.5607,0.67438 l -4.0023,6.84971 c -0.3585,0.6134 -0.4515,1.33271 -0.2786,2.00091 h 1.5054 c -0.1827,-0.6006 -0.1117,-1.25786 0.2134,-1.81436 l 3.4458,-5.8968 c 0.4164,-0.7121 1.1852,-1.15063 2.0174,-1.15083 h 6.8921 c 0.8323,2e-4 1.6016,0.43873 2.018,1.15083 l 3.4452,5.8968 c 0.3251,0.5565 0.3962,1.21376 0.2135,1.81436 h 1.5048 c 0.1728,-0.6682 0.08,-1.38751 -0.2786,-2.00091 L 264.2881,209.43 c -0.1504,-0.2574 -0.341,-0.48428 -0.5607,-0.67438 0.2197,-0.1902 0.4103,-0.41688 0.5607,-0.67438 l 4.0018,-6.84971 c 0.3585,-0.6134 0.4514,-1.33239 0.2786,-2.00039 h -1.5048 c 0.1827,0.6005 0.1116,1.25754 -0.2135,1.81384 l -3.4452,5.8968 c -0.4128,0.7061 -1.1726,1.14323 -1.9968,1.15083 h -6.934 c -0.8242,-0.01 -1.5839,-0.44453 -1.9967,-1.15083 l -3.4458,-5.8968 c -0.3251,-0.5563 -0.3961,-1.21334 -0.2134,-1.81384 z m 8.5628,0 -0.215,0.36793 c -0.1068,0.1836 -0.1066,0.40643 0,0.58963 l 0.8816,1.50895 c 0.1066,0.1823 0.3036,0.29498 0.5168,0.29508 h 1.7637 c 0.1846,0 0.3974,-0.091 0.5168,-0.29508 l 0.8821,-1.50895 c 0.1067,-0.1833 0.1068,-0.40623 0,-0.58963 l -0.215,-0.36793 z m 19.4872,0 c -0.9672,0 -1.8609,0.50978 -2.3446,1.33738 l -4.0023,6.84971 c -0.4838,0.8277 -0.4838,1.84759 0,2.67529 l 4.0023,6.84971 c 0.4814,0.8236 1.3694,1.33246 2.3312,1.33739 h 8.0325 c 0.9617,-0.005 1.8489,-0.51379 2.3301,-1.33739 l 4.0024,-6.84971 c 0.4837,-0.8277 0.4837,-1.84759 0,-2.67529 l -4.0024,-6.84971 c -0.4837,-0.8277 -1.3773,-1.33748 -2.3445,-1.33738 z m 14.7986,0 c -0.1729,0.668 -0.08,1.38699 0.2785,2.00039 l 4.0023,6.84971 c 0.1505,0.2575 0.341,0.48418 0.5607,0.67438 -0.2197,0.1901 -0.4102,0.41698 -0.5607,0.67438 l -4.0023,6.84971 c -0.3586,0.6134 -0.4514,1.33271 -0.2785,2.00091 h 1.5053 c -0.1827,-0.6006 -0.1116,-1.25786 0.2134,-1.81436 l 3.4458,-5.8968 c 0.4164,-0.7121 1.1853,-1.15063 2.0175,-1.15083 h 6.892 c 0.8323,2e-4 1.6016,0.43873 2.018,1.15083 l 3.4453,5.8968 c 0.325,0.5565 0.3961,1.21376 0.2134,1.81436 h 1.5048 c 0.1729,-0.6682 0.08,-1.38751 -0.2785,-2.00091 L 307.1367,209.43 c -0.1504,-0.2574 -0.341,-0.48428 -0.5607,-0.67438 0.2197,-0.1902 0.4103,-0.41688 0.5607,-0.67438 l 4.0018,-6.84971 c 0.3584,-0.6134 0.4514,-1.33239 0.2785,-2.00039 h -1.5048 c 0.1827,0.6005 0.1116,1.25754 -0.2134,1.81384 l -3.4453,5.8968 c -0.4128,0.7061 -1.1726,1.14323 -1.9968,1.15083 h -6.9339 c -0.8242,-0.01 -1.584,-0.44453 -1.9968,-1.15083 l -3.4458,-5.8968 c -0.325,-0.5563 -0.3961,-1.21334 -0.2134,-1.81384 z m 8.5628,0 -0.215,0.36793 c -0.1068,0.1836 -0.1066,0.40643 0,0.58963 l 0.8816,1.50895 c 0.1066,0.1823 0.3035,0.29498 0.5167,0.29508 h 1.7638 c 0.1846,0 0.3973,-0.091 0.5167,-0.29508 l 0.8821,-1.50895 c 0.1067,-0.1833 0.1068,-0.40623 0,-0.58963 l -0.2149,-0.36793 z m 19.4866,0 c -0.9672,0 -1.8608,0.50978 -2.3445,1.33738 l -4.0024,6.84971 c -0.4838,0.8277 -0.4838,1.84759 0,2.67529 l 4.0024,6.84971 c 0.4814,0.8236 1.3692,1.33246 2.3311,1.33739 h 8.0326 c 0.9617,-0.005 1.8493,-0.51379 2.3306,-1.33739 l 4.0018,-6.84971 c 0.4837,-0.8277 0.4837,-1.84759 0,-2.67529 l -4.0018,-6.84971 c -0.4837,-0.8277 -1.3779,-1.33748 -2.3451,-1.33738 z m 14.7991,0 c -0.1729,0.668 -0.08,1.38699 0.2786,2.00039 l 4.0023,6.84971 c 0.1505,0.2575 0.341,0.48418 0.5607,0.67438 -0.2197,0.1901 -0.4102,0.41698 -0.5607,0.67438 l -4.0023,6.84971 c -0.3585,0.6134 -0.4515,1.33271 -0.2786,2.00091 h 1.5053 c -0.1827,-0.6006 -0.1116,-1.25786 0.2135,-1.81436 l 3.4458,-5.8968 c 0.4164,-0.7121 1.1852,-1.15063 2.0174,-1.15083 h 6.8921 c 0.8323,2e-4 1.6016,0.43873 2.018,1.15083 l 3.4452,5.8968 c 0.3251,0.5565 0.3961,1.21376 0.2134,1.81436 h 1.5049 c 0.1728,-0.6682 0.08,-1.38751 -0.2786,-2.00091 L 349.9852,209.43 c -0.1504,-0.2574 -0.341,-0.48428 -0.5607,-0.67438 0.2197,-0.1902 0.4103,-0.41688 0.5607,-0.67438 l 4.0018,-6.84971 c 0.3585,-0.6134 0.4514,-1.33239 0.2786,-2.00039 h -1.5049 c 0.1827,0.6005 0.1117,1.25754 -0.2134,1.81384 l -3.4452,5.8968 c -0.4128,0.7061 -1.1726,1.14323 -1.9968,1.15083 h -6.934 c -0.8242,-0.01 -1.5839,-0.44453 -1.9967,-1.15083 l -3.4458,-5.8968 c -0.3251,-0.5563 -0.3962,-1.21334 -0.2135,-1.81384 z m 8.5628,0 -0.215,0.36793 c -0.1068,0.1836 -0.1066,0.40643 0,0.58963 l 0.8816,1.50895 c 0.1066,0.1823 0.3036,0.29498 0.5168,0.29508 h 1.7637 c 0.1846,0 0.3974,-0.091 0.5168,-0.29508 l 0.8821,-1.50895 c 0.1067,-0.1833 0.1068,-0.40623 0,-0.58963 l -0.215,-0.36793 z m 19.4867,0 c -0.9672,0 -1.8609,0.50978 -2.3446,1.33738 l -4.0023,6.84971 c -0.4838,0.8277 -0.4838,1.84759 0,2.67529 l 4.0023,6.84971 c 0.4813,0.8236 1.3694,1.33246 2.3311,1.33739 h 1.6981 v -1.32602 h -1.127 c -0.8327,2e-4 -1.6025,-0.43833 -2.019,-1.15083 l -3.4453,-5.8968 c -0.4162,-0.7124 -0.4162,-1.5902 0,-2.3027 l 3.4453,-5.89628 c 0.4166,-0.7124 1.1863,-1.15155 2.019,-1.15135 h 1.127 v -1.3255 z m -342.2293,1.3255 h 6.89 c 0.8327,-2e-4 1.6019,0.43895 2.0185,1.15135 l 3.4453,5.89628 c 0.4162,0.7125 0.4162,1.5903 0,2.3027 l -3.4453,5.8968 c -0.4165,0.7124 -1.1858,1.15103 -2.0185,1.15083 h -6.89 c -0.8327,2e-4 -1.6025,-0.43833 -2.019,-1.15083 l -3.4452,-5.8968 c -0.4162,-0.7124 -0.4162,-1.5902 0,-2.3027 l 3.4452,-5.89628 c 0.4166,-0.7124 1.1863,-1.15155 2.019,-1.15135 z m 42.8481,0 h 6.89 c 0.8327,-2e-4 1.6024,0.43895 2.019,1.15135 l 3.4452,5.89628 c 0.4162,0.7125 0.4162,1.5903 0,2.3027 l -3.4452,5.8968 c -0.4165,0.7124 -1.1863,1.15103 -2.019,1.15083 h -6.89 c -0.8327,2e-4 -1.602,-0.43833 -2.0185,-1.15083 l -3.4458,-5.8968 c -0.4162,-0.7124 -0.4162,-1.5902 0,-2.3027 l 3.4458,-5.89628 c 0.4166,-0.7124 1.1858,-1.15155 2.0185,-1.15135 z m 42.8485,0 h 6.89 c 0.8327,-2e-4 1.6019,0.43895 2.0185,1.15135 l 3.4458,5.89628 c 0.4162,0.7125 0.4162,1.5903 0,2.3027 l -3.4458,5.8968 c -0.4165,0.7124 -1.1858,1.15103 -2.0185,1.15083 h -6.89 c -0.8327,2e-4 -1.6025,-0.43833 -2.019,-1.15083 l -3.4453,-5.8968 c -0.4162,-0.7124 -0.4162,-1.5902 0,-2.3027 l 3.4453,-5.89628 c 0.4166,-0.7124 1.1863,-1.15155 2.019,-1.15135 z m 42.8486,0 h 6.89 c 0.8327,-2e-4 1.6019,0.43895 2.0185,1.15135 l 3.4452,5.89628 c 0.4162,0.7125 0.4162,1.5903 0,2.3027 l -3.4452,5.8968 c -0.4165,0.7124 -1.1858,1.15103 -2.0185,1.15083 h -6.89 c -0.8327,2e-4 -1.6025,-0.43833 -2.019,-1.15083 l -3.4453,-5.8968 c -0.4162,-0.7124 -0.4162,-1.5902 0,-2.3027 l 3.4453,-5.89628 c 0.4166,-0.7124 1.1863,-1.15155 2.019,-1.15135 z m 42.848,0 h 6.89 c 0.8327,-2e-4 1.6024,0.43895 2.019,1.15135 l 3.4453,5.89628 c 0.4162,0.7125 0.4162,1.5903 0,2.3027 l -3.4453,5.8968 c -0.4165,0.7124 -1.1863,1.15103 -2.019,1.15083 h -6.89 c -0.8327,2e-4 -1.602,-0.43833 -2.0185,-1.15083 l -3.4453,-5.8968 c -0.4162,-0.7124 -0.4162,-1.5902 0,-2.3027 l 3.4453,-5.89628 c 0.4166,-0.7124 1.1858,-1.15155 2.0185,-1.15135 z m 42.8485,0 h 6.89 c 0.8327,-2e-4 1.6019,0.43895 2.0185,1.15135 l 3.4458,5.89628 c 0.4162,0.7125 0.4162,1.5903 0,2.3027 l -3.4458,5.8968 c -0.4165,0.7124 -1.1858,1.15103 -2.0185,1.15083 h -6.89 c -0.8327,2e-4 -1.6025,-0.43833 -2.019,-1.15083 l -3.4452,-5.8968 c -0.4162,-0.7124 -0.4162,-1.5902 0,-2.3027 l 3.4452,-5.89628 c 0.4166,-0.7124 1.1863,-1.15155 2.019,-1.15135 z m 42.8486,0 h 6.89 c 0.8327,-2e-4 1.6019,0.43895 2.0185,1.15135 l 3.4452,5.89628 c 0.4162,0.7125 0.4162,1.5903 0,2.3027 l -3.4452,5.8968 c -0.4165,0.7124 -1.1858,1.15103 -2.0185,1.15083 h -6.89 c -0.8327,2e-4 -1.6025,-0.43833 -2.019,-1.15083 l -3.4453,-5.8968 c -0.4162,-0.7124 -0.4162,-1.5902 0,-2.3027 l 3.4453,-5.89628 c 0.4166,-0.7124 1.1863,-1.15155 2.019,-1.15135 z m 42.848,0 h 6.89 c 0.8327,-2e-4 1.6024,0.43895 2.019,1.15135 l 3.4453,5.89628 c 0.4162,0.7125 0.4162,1.5903 0,2.3027 l -3.4453,5.8968 c -0.4165,0.7124 -1.1863,1.15103 -2.019,1.15083 h -6.89 c -0.8327,2e-4 -1.602,-0.43833 -2.0185,-1.15083 l -3.4452,-5.8968 c -0.4162,-0.7124 -0.4162,-1.5902 0,-2.3027 l 3.4452,-5.89628 c 0.4166,-0.7124 1.1858,-1.15155 2.0185,-1.15135 z m -295.6114,6.09937 -1.7642,5.1e-4 c -0.2131,1e-4 -0.4097,0.11278 -0.5163,0.29508 l -0.8821,1.50895 c -0.1068,0.1836 -0.1066,0.40643 0,0.58963 l 0.8821,1.50946 c 0.1066,0.1823 0.3031,0.29446 0.5163,0.29456 h 1.7642 c 0.1846,0 0.3974,-0.0909 0.5168,-0.29456 l 0.8821,-1.50946 c 0.1067,-0.1833 0.1068,-0.40623 0,-0.58963 l -0.8821,-1.50895 c -0.1038,-0.1775 -0.2981,-0.29559 -0.5168,-0.29559 z m 42.8485,0 -1.7642,5.1e-4 c -0.2131,1e-4 -0.4096,0.11278 -0.5162,0.29508 l -0.8822,1.50895 c -0.1068,0.1836 -0.1066,0.40643 0,0.58963 l 0.8822,1.50946 c 0.1066,0.1823 0.303,0.29446 0.5162,0.29456 h 1.7637 c 0.1846,0 0.3974,-0.0909 0.5168,-0.29456 l 0.8821,-1.50946 c 0.1067,-0.1833 0.1068,-0.40623 0,-0.58963 l -0.8821,-1.50895 c -0.1038,-0.1775 -0.2976,-0.29559 -0.5163,-0.29559 z m 42.8481,0 -1.7637,5.1e-4 c -0.2131,1e-4 -0.4102,0.11278 -0.5168,0.29508 l -0.8816,1.50895 c -0.1068,0.1836 -0.1066,0.40643 0,0.58963 l 0.8816,1.50946 c 0.1066,0.1823 0.3036,0.29446 0.5168,0.29456 h 1.7637 c 0.1846,0 0.3973,-0.0909 0.5167,-0.29456 l 0.8822,-1.50946 c 0.1067,-0.1833 0.1068,-0.40623 0,-0.58963 l -0.8822,-1.50895 c -0.1038,-0.1775 -0.298,-0.29559 -0.5167,-0.29559 z m 42.8485,0 -1.7642,5.1e-4 c -0.2131,1e-4 -0.4097,0.11278 -0.5163,0.29508 l -0.8821,1.50895 c -0.1068,0.1836 -0.1066,0.40643 0,0.58963 l 0.8821,1.50946 c 0.1066,0.1823 0.3031,0.29446 0.5163,0.29456 h 1.7642 c 0.1846,0 0.3974,-0.0909 0.5168,-0.29456 l 0.8821,-1.50946 c 0.1067,-0.1833 0.1068,-0.40623 0,-0.58963 l -0.8821,-1.50895 c -0.1038,-0.1775 -0.2981,-0.29559 -0.5168,-0.29559 z m 42.8486,0 -1.7643,5.1e-4 c -0.2131,1e-4 -0.4096,0.11278 -0.5162,0.29508 l -0.8821,1.50895 c -0.1068,0.1836 -0.1066,0.40643 0,0.58963 l 0.8821,1.50946 c 0.1066,0.1823 0.303,0.29446 0.5162,0.29456 h 1.7643 c 0.1846,0 0.3973,-0.0909 0.5167,-0.29456 l 0.8816,-1.50946 c 0.1067,-0.1833 0.1068,-0.40623 0,-0.58963 l -0.8816,-1.50895 c -0.1038,-0.1775 -0.298,-0.29559 -0.5167,-0.29559 z m 42.8485,0 -1.7642,5.1e-4 c -0.2131,1e-4 -0.4102,0.11278 -0.5168,0.29508 l -0.8816,1.50895 c -0.1068,0.1836 -0.1066,0.40643 0,0.58963 l 0.8816,1.50946 c 0.1066,0.1823 0.3036,0.29446 0.5168,0.29456 h 1.7637 c 0.1846,0 0.3974,-0.0909 0.5168,-0.29456 l 0.8821,-1.50946 c 0.1067,-0.1833 0.1068,-0.40623 0,-0.58963 l -0.8821,-1.50895 c -0.1038,-0.1775 -0.2976,-0.29559 -0.5163,-0.29559 z m 42.848,0 -1.7642,5.1e-4 c -0.2131,1e-4 -0.4096,0.11278 -0.5162,0.29508 l -0.8822,1.50895 c -0.1068,0.1836 -0.1066,0.40643 0,0.58963 l 0.8822,1.50946 c 0.1066,0.1823 0.303,0.29446 0.5162,0.29456 h 1.7642 c 0.1846,0 0.3974,-0.0909 0.5168,-0.29456 l 0.8821,-1.50946 c 0.1067,-0.1833 0.1068,-0.40623 0,-0.58963 l -0.8821,-1.50895 c -0.1038,-0.1775 -0.2981,-0.29559 -0.5168,-0.29559 z m 42.8486,0 -1.7642,5.1e-4 c -0.2131,1e-4 -0.4097,0.11278 -0.5163,0.29508 l -0.8821,1.50895 c -0.1068,0.1836 -0.1066,0.40643 0,0.58963 l 0.8821,1.50946 c 0.1066,0.1823 0.3031,0.29446 0.5163,0.29456 h 1.7637 c 0.1846,0 0.3979,-0.0909 0.5173,-0.29456 l 0.8816,-1.50946 c 0.1067,-0.1833 0.1068,-0.40623 0,-0.58963 l -0.8816,-1.50895 c -0.1038,-0.1775 -0.2981,-0.29559 -0.5168,-0.29559 z m -341.3518,1.87895 v 0.4408 c 0.058,-0.14164 0.058,-0.29911 0,-0.4408 z m 381,0.003 c -0.056,0.14016 -0.056,0.29566 0,0.43563 z m -361.011,6.98045 -1.7643,5.1e-4 c -0.2131,1e-4 -0.4101,0.11236 -0.5167,0.29456 l -0.8816,1.50947 c -0.1068,0.1837 -0.1066,0.40643 0,0.58963 l 0.215,0.36845 H 2.916 l 0.2154,-0.36845 c 0.1067,-0.1832 0.1068,-0.40623 0,-0.58963 l -0.8821,-1.50947 c -0.1038,-0.1775 -0.2975,-0.29507 -0.5162,-0.29507 z m 42.8485,0 -1.7642,5.1e-4 c -0.2131,1e-4 -0.4102,0.11236 -0.5168,0.29456 l -0.8816,1.50947 c -0.1068,0.1837 -0.1066,0.40643 0,0.58963 l 0.215,0.36845 h 4.1305 l 0.2155,-0.36845 c 0.1067,-0.1832 0.1068,-0.40623 0,-0.58963 l -0.8821,-1.50947 c -0.1038,-0.1775 -0.2976,-0.29507 -0.5163,-0.29507 z m 42.8486,0 -1.7643,5.1e-4 c -0.2131,1e-4 -0.4101,0.11236 -0.5167,0.29456 l -0.8816,1.50947 c -0.1068,0.1837 -0.1066,0.40643 0,0.58963 l 0.2149,0.36845 h 4.1305 l 0.2155,-0.36845 c 0.1067,-0.1832 0.1068,-0.40623 0,-0.58963 l -0.8821,-1.50947 c -0.1038,-0.1775 -0.2975,-0.29507 -0.5162,-0.29507 z m 42.848,0 -1.7642,5.1e-4 c -0.2131,1e-4 -0.4102,0.11236 -0.5168,0.29456 l -0.8816,1.50947 c -0.1068,0.1837 -0.1066,0.40643 0,0.58963 l 0.215,0.36845 h 4.1305 l 0.2155,-0.36845 c 0.1067,-0.1832 0.1068,-0.40623 0,-0.58963 l -0.8821,-1.50947 c -0.1038,-0.1775 -0.2976,-0.29507 -0.5163,-0.29507 z m 42.8486,0 -1.7643,5.1e-4 c -0.2131,1e-4 -0.4101,0.11236 -0.5167,0.29456 l -0.8816,1.50947 c -0.1068,0.1837 -0.1066,0.40643 0,0.58963 l 0.2149,0.36845 h 4.1305 l 0.2155,-0.36845 c 0.1067,-0.1832 0.1068,-0.40623 0,-0.58963 l -0.8821,-1.50947 c -0.1038,-0.1775 -0.2975,-0.29507 -0.5162,-0.29507 z m 42.8485,0 -1.7642,5.1e-4 c -0.2131,1e-4 -0.4102,0.11236 -0.5168,0.29456 l -0.8816,1.50947 c -0.1068,0.1837 -0.1066,0.40643 0,0.58963 l 0.215,0.36845 h 4.1305 l 0.2155,-0.36845 c 0.1067,-0.1832 0.1068,-0.40623 0,-0.58963 l -0.8822,-1.50947 c -0.1038,-0.1775 -0.2975,-0.29507 -0.5162,-0.29507 z m 42.848,0 -1.7642,5.1e-4 c -0.2131,1e-4 -0.4102,0.11236 -0.5168,0.29456 l -0.8816,1.50947 c -0.1068,0.1837 -0.1066,0.40643 0,0.58963 l 0.215,0.36845 h 4.1305 l 0.2155,-0.36845 c 0.1067,-0.1832 0.1068,-0.40623 0,-0.58963 l -0.8821,-1.50947 c -0.1038,-0.1775 -0.2976,-0.29507 -0.5163,-0.29507 z m 42.8486,0 -1.7643,5.1e-4 c -0.2131,1e-4 -0.4101,0.11236 -0.5167,0.29456 l -0.8816,1.50947 c -0.1068,0.1837 -0.1066,0.40643 0,0.58963 l 0.215,0.36845 h 4.1304 l 0.2155,-0.36845 c 0.1067,-0.1832 0.1068,-0.40623 0,-0.58963 l -0.8821,-1.50947 c -0.1038,-0.1775 -0.2975,-0.29507 -0.5162,-0.29507 z m 42.8485,0 -1.7642,5.1e-4 c -0.2131,1e-4 -0.4102,0.11236 -0.5168,0.29456 l -0.8816,1.50947 c -0.1068,0.1837 -0.1066,0.40643 0,0.58963 l 0.215,0.36845 h 4.1305 l 0.2155,-0.36845 c 0.1067,-0.1832 0.1068,-0.40623 0,-0.58963 l -0.8821,-1.50947 c -0.1038,-0.1775 -0.2976,-0.29507 -0.5163,-0.29507 z" />
  </g>
</svg>
