<svg
   width="677.33331mm"
   height="381mm"
   viewBox="0 0 677.33331 381"
   >
  <g
     inkscape:label="Layer 1"
     inkscape:groupmode="layer"
     id="layer1"
     transform="translate(1495.9023,85.404198)">
    <rect
       id="rect1"
       width="677.33331"
       height="381"
       x="-1495.9023"
       y="-85.404198" />
    <path id="main-item" d="m -1400.1122,84.72444 c -1.8372,0 -3.3907,0.890884 -4.6597,2.671351 l -27.0479,38.071379 h 6.876 l 5.4263,-7.61444 h 37.0487 l 5.3981,7.61444 h 10.5409 l -27.1042,-38.156653 c -1.2502,-1.723651 -2.7845,-2.586077 -4.6028,-2.586077 z m 39.9754,0 v 29.37751 c 0,3.21999 1.127,5.91947 3.3809,8.0977 2.2541,2.17823 5.36,3.26752 9.3186,3.26752 h 47.4473 v -4.74491 h -43.4975 c -2.3109,0 -4.1298,-0.64425 -5.4556,-1.93224 -1.307,-1.288 -1.96,-2.85079 -1.96,-4.68807 V 84.72444 Z m 70.0916,0 v 40.74273 h 9.2332 v -18.83669 l 38.2702,18.83669 h 12.6437 l -40.2595,-20.37095 40.2595,-20.37178 h -12.6437 l -38.2702,19.12095 V 84.72444 Z m 98.9576,0 c -1.8374,0 -3.3907,0.890884 -4.6597,2.671351 l -27.0481,38.071379 h 6.8755 l 5.427,-7.61444 h 37.0488 l 5.398,7.61444 h 10.5407 l -27.1049,-38.156653 c -1.25,-1.723651 -2.7845,-2.586077 -4.6029,-2.586077 z m 55.516,0 c -3.9586,0 -7.0653,1.089265 -9.3194,3.267518 -2.2538,2.178204 -3.3804,4.87772 -3.3804,8.097708 v 29.377504 h 9.2332 v -17.9847 h 50.9139 v -4.77334 h -50.9139 v -6.619464 c 0,-1.837283 0.6538,-3.400072 1.9608,-4.688075 1.3258,-1.28797 3.1439,-1.932243 5.4548,-1.932243 h 43.4983 V 84.72444 Z m 71.5122,0 c -3.9586,0 -7.0652,1.089265 -9.3191,3.267518 -2.2541,2.178204 -3.3814,4.87772 -3.3814,8.097708 v 29.377504 h 9.234 v -17.9847 h 50.9141 v -4.77334 h -50.9141 v -6.619464 c 0,-1.837283 0.6538,-3.400072 1.9608,-4.688075 1.3258,-1.28797 3.1436,-1.932243 5.4548,-1.932243 h 43.4985 V 84.72444 Z m 80.57505,0 c -1.83713,0 -3.39068,0.890884 -4.65966,2.671351 l -27.04719,38.071379 h 6.8753 l 5.4263,-7.61444 h 37.04873 l 5.39877,7.61444 h 10.54099 l -27.10522,-38.156653 c -1.24995,-1.723651 -2.78423,-2.586077 -4.60259,-2.586077 z m 52.06369,0.01502 a 11.378852,11.378852 0 0 0 -11.37871,11.3644 11.378852,11.378852 0 0 0 11.37871,11.36439 h 32.77354 a 6.7619531,6.7619531 0 0 1 6.7601,6.61946 6.7619531,6.7619531 0 0 1 -6.7601,6.61948 h -44.15125 v 4.74489 h 49.83435 v -0.0501 a 11.378852,11.378852 0 0 0 10.31247,-11.31421 11.378852,11.378852 0 0 0 -10.31247,-11.31421 v -0.0501 h -33.83978 a 6.7619531,6.7619531 0 0 1 -6.75985,-6.61948 6.7619531,6.7619531 0 0 1 6.75985,-6.619467 h 4.62387 a 11.378852,11.378852 0 0 0 0,-8.26e-4 h 39.52338 v -4.744082 z m -469.54354,7.8544 c 0.3599,0 0.7196,0.245785 1.0795,0.738307 l 14.0348,19.774783 h -30.2864 l 14.0067,-19.689509 c 0.3975,-0.549288 0.7864,-0.823581 1.1654,-0.823581 z m 209.0239,0 c 0.3596,0 0.7203,0.245785 1.08,0.738307 l 14.035,19.774783 h -30.2871 l 14.0072,-19.689509 c 0.398,-0.549288 0.7859,-0.823581 1.1649,-0.823581 z m 207.60396,0 c 0.35992,0 0.71959,0.245785 1.07951,0.738307 l 14.03554,19.774783 h -30.28716 l 14.00751,-19.689509 c 0.39771,-0.549288 0.78566,-0.823581 1.1646,-0.823581 z" />

    <g id="guides">
      <circle 
         cx="-1400.7124"
         cy="88.713852"
         r="3.9201336" />
      <circle 
         cx="-1397.7013"
         cy="88.713852"
         r="3.9201336" />
      <circle 
         cx="-1400.9642"
         cy="93.251053"
         r="0.65719414" />
      <path d="M -818.69402,125.46719 H -1495.9024" />
      <path d="M -818.69402,117.99942 H -1495.9024" />
      <path d="M -818.69402,113.04264 H -1495.9024" />
      <path d="M -818.69402,84.802069 H -1495.9024" />
      <path d="M -1495.9021 216.66219 L -1283.1127 -85.404179 " />
      <path d="M -1495.9021 226.72721 L -1276.9283 -85.109672 " />
      <path d="M -1246.925,295.7208 -1515.2671,-85.404179" />
      <path d="M -1257.715,295.5958 -1525.0487,-85.109672" />
      <circle
         cx="-1191.7452"
         cy="88.713852"
         r="3.9201336" />
      <circle
         cx="-1188.7341"
         cy="88.713852"
         r="3.9201336" />
      <circle
         cx="-1191.9971"
         cy="93.251053"
         r="0.65719414" />
      <path d="m -1342.3625,295.5958 268.217,-380.999979" />
      <path d="m -1335.3321,295.5958 267.371,-380.705472"/>
      <path d="m -1048.7105,295.5958 -267.371,-380.705472"/>
      <circle
         cx="-983.56073"
         cy="88.713852"
         r="3.9201336" />
      <circle
         cx="-980.54962"
         cy="88.713852"
         r="3.9201336" />
      <circle
         cx="-983.81256"
         cy="93.251053"
         r="0.65719414" />
      <path d="M -1134.2153,295.5958 -865.96096,-85.404179"/>
      <path d="M -1127.1476,295.5958 -859.77656,-85.109672"/>
      <path d="M -840.56323,295.5958 -1107.897,-85.109672"/>
      <path d="M -1037.9951,295.7208 -1306.2999,-85.404179"/>
      <path d="M -830.38288,295.5958 -1098.6371,-85.404179"/>
      <path d="M -818.69402,120.80391 H -1495.9024"/>
      <path d="M -818.69402,107.62932 H -1495.9024"id="path26" />
      <path d="M -818.69402,102.80299 H -1495.9024"id="path27" />
      <path d="M -818.69402,89.49796 H -1495.9024"/>
      <path d="M -1360.1368,-85.234672 V 295.5958"id="path29" />
      <path d="M -1350.9031,-85.234672 V 295.5958"/>
      <path d="M -1290.0452,-85.234672 V 295.5958"id="path31" />
      <path d="M -1280.7973,-85.234672 V 295.5958"/>
      <path d="M -1148.2714,-85.234672 V 295.5958"/>
      <path d="M -1138.9383,-85.234672 V 295.5958"/>
      <path d="M -1076.7599,-85.234672 V 295.5958"/>
      <path d="M -1067.8361,-85.234672 V 295.5958"/>
      <path d="M -901.78256,-85.529179 -1496.0271,211.37336"/>
      <path d="M -893.18926,-85.654179 -1496.0271,219.38884" />
      <path
         style="fill:none;fill-rule:evenodd;stroke:#d40000;stroke-width:0.25;stroke-linecap:round;stroke-dasharray:none;stroke-opacity:1"
         d="M -893.6695,295.5958 -1496.0271,-9.1917056"
         id="path38"
         sodipodi:nodetypes="cc" />
      <path d="M -896.89413,295.5958 -1495.9023,0.76248236"/>
      <circle
         cx="-1348.8047"
         cy="114.13509"
         r="11.332097" />
      <circle
         cx="-1344.1879"
         cy="114.08868"
         r="6.7152281" />
      <circle
         cx="-1136.9398"
         cy="-96.043251"
         r="11.332097"
         transform="scale(1,-1)" />
      <circle
         cx="-1132.323"
         cy="-96.089668"
         r="6.7152281"
         transform="scale(1,-1)" />
      <circle
         cx="-1065.4888"
         cy="-96.043251"
         r="11.332097"
         transform="scale(1,-1)" />
      <circle
         cx="-1060.8719"
         cy="-96.089668"
         r="6.7152281"
         transform="scale(1,-1)" />
      <circle
         cx="-931.31891"
         cy="96.14901"
         r="11.480301" />
      <circle
         cx="-926.70056"
         cy="96.14901"
         r="6.8619843" />
      <circle
         cx="894.13062"
         cy="114.08771"
         r="11.480301"
         transform="scale(-1,1)" />
      <circle
         cx="898.74902"
         cy="114.08771"
         r="6.8619843"
         transform="scale(-1,1)" />
   </g>
  </g>
</svg>
