<?xml version="1.0" encoding="UTF-8" standalone="no"?>
<!-- Created with Inkscape (http://www.inkscape.org/) -->

<svg
   width="190.5mm"
   height="190.5mm"
   viewBox="0 0 190.5 190.5"
   version="1.1"
   id="svg1"
   inkscape:version="1.4.2 (ebf0e94, 2025-05-08)"
   sodipodi:docname="1.svg"
   xmlns:inkscape="http://www.inkscape.org/namespaces/inkscape"
   xmlns:sodipodi="http://sodipodi.sourceforge.net/DTD/sodipodi-0.dtd"
   xmlns:xlink="http://www.w3.org/1999/xlink"
   xmlns="http://www.w3.org/2000/svg"
   xmlns:svg="http://www.w3.org/2000/svg">
  <sodipodi:namedview
     id="namedview1"
     pagecolor="#505050"
     bordercolor="#eeeeee"
     borderopacity="1"
     inkscape:showpageshadow="0"
     inkscape:pageopacity="0"
     inkscape:pagecheckerboard="0"
     inkscape:deskcolor="#505050"
     inkscape:document-units="mm"
     inkscape:zoom="0.50709218"
     inkscape:cx="224.8112"
     inkscape:cy="561.04198"
     inkscape:window-width="1920"
     inkscape:window-height="1048"
     inkscape:window-x="0"
     inkscape:window-y="0"
     inkscape:window-maximized="1"
     inkscape:current-layer="layer1" />
  <defs
     id="defs1">
    <clipPath
       clipPathUnits="userSpaceOnUse"
       id="clipPath207">
      <rect
         style="opacity:1;fill:#ffffff;fill-rule:evenodd;stroke-width:1.99999;stroke-linecap:round;stroke-linejoin:round"
         id="rect207"
         width="162.65349"
         height="246.62869"
         x="-876.19897"
         y="4227.231"
         transform="rotate(-45)" />
    </clipPath>
    <clipPath
       clipPathUnits="userSpaceOnUse"
       id="clipPath206">
      <rect
         style="opacity:1;fill:#ffffff;fill-rule:evenodd;stroke-width:2;stroke-linecap:round;stroke-linejoin:round"
         id="rect206"
         width="39.206257"
         height="246.62869"
         x="-713.54547"
         y="4227.231"
         transform="rotate(-45)" />
    </clipPath>
    <linearGradient
       inkscape:collect="always"
       xlink:href="#linearGradient116"
       id="linearGradient117"
       x1="22.842369"
       y1="7850.7188"
       x2="305.36935"
       y2="7713.7939"
       gradientUnits="userSpaceOnUse" />
    <linearGradient
       id="linearGradient116"
       inkscape:collect="always">
      <stop
         style="stop-color:#1d1339;stop-opacity:1;"
         offset="0"
         id="stop116" />
      <stop
         style="stop-color:#1d1339;stop-opacity:0.5;"
         offset="0.5"
         id="stop118" />
      <stop
         style="stop-color:#1d1339;stop-opacity:1;"
         offset="1"
         id="stop117" />
    </linearGradient>
    <clipPath
       clipPathUnits="userSpaceOnUse"
       id="clipPath13117">
      <path
         style="opacity:1;fill:#ffcc00;fill-opacity:1;fill-rule:evenodd;stroke:none;stroke-width:0.500002;stroke-linecap:square;stroke-dasharray:none;stroke-opacity:1"
         d="M 9.2264281,7713.0834 V 7851.429 H 318.9853 v -138.3456 z"
         id="path13118" />
    </clipPath>
    <inkscape:path-effect
       effect="fillet_chamfer"
       id="path-effect19386"
       is_visible="true"
       lpeversion="1"
       nodesatellites_param="F,0,0,1,0,5.2787696,0,1 @ F,0,1,1,0,5.2787696,0,1 @ F,0,1,1,0,5.2787696,0,1 @ F,0,1,1,0,5.2787696,0,1"
       radius="0"
       unit="px"
       method="auto"
       mode="F"
       chamfer_steps="1"
       flexible="false"
       use_knot_distance="true"
       apply_no_radius="true"
       apply_with_radius="true"
       only_selected="false"
       hide_knots="false" />
    <inkscape:path-effect
       effect="fillet_chamfer"
       id="path-effect19388"
       is_visible="true"
       lpeversion="1"
       nodesatellites_param="F,0,0,1,0,5.1421543,0,1 @ F,0,1,1,0,5.1421543,0,1 @ F,0,1,1,0,5.1421543,0,1 @ F,0,1,1,0,5.1421543,0,1"
       radius="0"
       unit="px"
       method="auto"
       mode="F"
       chamfer_steps="1"
       flexible="false"
       use_knot_distance="true"
       apply_no_radius="true"
       apply_with_radius="true"
       only_selected="false"
       hide_knots="false" />
    <clipPath
       clipPathUnits="userSpaceOnUse"
       id="clipPath218">
      <path
         id="path250-7"
         style="fill:#5020df;fill-opacity:1;fill-rule:evenodd;stroke:none;stroke-width:5.00002;stroke-linecap:round;stroke-linejoin:round"
         d="m -2510.4201,4189.3611 26.9362,-11.0482 a 3.4487631,3.4487631 0 0 1 4.7575,3.1906 v 115.5284 a 3.4487631,3.4487631 0 0 1 -4.7575,3.1909 l -26.9362,-11.0482 a 7.6670247,7.6670247 0 0 1 -4.7575,-7.0937 v -85.6264 a 7.6670247,7.6670247 0 0 1 4.7575,-7.0934 z"
         sodipodi:nodetypes="ccccc" />
    </clipPath>
    <filter
       inkscape:collect="always"
       style="color-interpolation-filters:sRGB"
       id="filter250"
       x="-0.049020908"
       y="-0.018630781"
       width="1.0980418"
       height="1.0372616">
      <feGaussianBlur
         inkscape:collect="always"
         stdDeviation="0.74453569"
         id="feGaussianBlur250" />
    </filter>
    <linearGradient
       inkscape:collect="always"
       xlink:href="#linearGradient116"
       id="linearGradient1"
       gradientUnits="userSpaceOnUse"
       x1="22.842369"
       y1="7850.7188"
       x2="305.36935"
       y2="7713.7939" />
    <linearGradient
       inkscape:collect="always"
       xlink:href="#linearGradient116"
       id="linearGradient2"
       gradientUnits="userSpaceOnUse"
       x1="22.842369"
       y1="7850.7188"
       x2="305.36935"
       y2="7713.7939" />
  </defs>
  <g
     inkscape:label="Layer 1"
     inkscape:groupmode="layer"
     id="layer1"
     transform="translate(405.8385,28.039751)">
    <text
       xml:space="preserve"
       style="font-style:normal;font-variant:normal;font-weight:normal;font-stretch:normal;font-size:7.58971px;line-height:1.25;font-family:'IBM Plex Sans Arabic';-inkscape-font-specification:'IBM Plex Sans Arabic, Normal';font-variant-ligatures:normal;font-variant-caps:normal;font-variant-numeric:normal;font-variant-east-asian:normal;letter-spacing:0px;white-space:pre;inline-size:194.542;display:inline;fill:#5020df;fill-opacity:1;stroke:none;stroke-width:0.474356"
       x="-753.65961"
       y="1349.4268"
       id="text6712"
       transform="matrix(0.55777249,0,0,0.55777249,16.956685,-629.80445)"><tspan
         x="-753.65961"
         y="1349.4268"
         id="tspan1952"
         style="font-size:7.58971px;fill:#5020df;fill-opacity:1;stroke-width:0.474356"><tspan
   style="font-weight:bold;font-size:7.58971px;-inkscape-font-specification:'IBM Plex Sans Arabic Bold';fill:#5020df;fill-opacity:1;stroke-width:0.474356"
   id="tspan1951">Standard size</tspan>
90 × 54 mm</tspan></text>
    <rect
       style="fill:#5020df;fill-opacity:1;fill-rule:evenodd;stroke-width:0.25;stroke-linecap:square"
       id="rect19408"
       width="93.213417"
       height="53.274029"
       x="-405.83847"
       y="63.778053" />
    <text
       xml:space="preserve"
       style="font-weight:bold;font-size:5.64444px;line-height:0.8;font-family:Alexandria;-inkscape-font-specification:'Alexandria Bold';white-space:pre;inline-size:29.5099;display:inline;fill:#ffffff;fill-opacity:1;stroke-width:0.414634;stroke-linecap:round"
       x="67.114471"
       y="6170.2266"
       id="text19400"
       transform="matrix(1.2058788,0,0,1.2058788,-479.47127,-7349.9775)"><tspan
         x="67.114471"
         y="6170.2266"
         id="tspan1841"
         style="stroke-width:0.414634"><tspan
           style="font-family:'IBM Plex Sans Arabic';-inkscape-font-specification:'IBM Plex Sans Arabic Bold';stroke-width:0.414634"
           id="tspan1840">Yazeed </tspan></tspan><tspan
         x="67.114471"
         y="6175.1416"
         id="tspan1843"
         style="stroke-width:0.414634"><tspan
           style="font-family:'IBM Plex Sans Arabic';-inkscape-font-specification:'IBM Plex Sans Arabic Bold';stroke-width:0.414634"
           id="tspan1842">Alsaeed</tspan></tspan></text>
    <text
       xml:space="preserve"
       style="font-weight:bold;font-size:2.32487px;font-family:Alexandria;-inkscape-font-specification:'Alexandria Bold';fill:#ffffff;fill-opacity:1;stroke-width:0.499998;stroke-linecap:round"
       x="-394.77969"
       y="106.15488"
       id="text19402"><tspan
         sodipodi:role="line"
         style="font-style:normal;font-variant:normal;font-weight:normal;font-stretch:normal;font-size:2.32487px;font-family:'IBM Plex Sans Arabic';-inkscape-font-specification:'IBM Plex Sans Arabic';direction:ltr;fill:#ffffff;fill-opacity:1;stroke-width:0.499998"
         x="-394.77969"
         y="106.15488"
         id="tspan19401">+966 50 123 456 78</tspan><tspan
         sodipodi:role="line"
         style="font-style:normal;font-variant:normal;font-weight:normal;font-stretch:normal;font-size:2.32487px;font-family:'IBM Plex Sans Arabic';-inkscape-font-specification:'IBM Plex Sans Arabic';direction:ltr;fill:#ffffff;fill-opacity:1;stroke-width:0.499998"
         x="-394.77969"
         y="109.22547"
         id="tspan19402">yazeed@osoul.sa</tspan></text>
    <text
       xml:space="preserve"
       style="font-weight:bold;font-size:2.90861px;font-family:Alexandria;-inkscape-font-specification:'Alexandria Bold';fill:#ffcc00;fill-opacity:1;stroke-width:0.499998;stroke-linecap:round"
       x="-378.58353"
       y="99.979248"
       id="text19403"><tspan
         sodipodi:role="line"
         style="font-style:normal;font-variant:normal;font-weight:normal;font-stretch:normal;font-size:2.90861px;font-family:'IBM Plex Sans Arabic';-inkscape-font-specification:'IBM Plex Sans Arabic';direction:ltr;fill:#ffcc00;fill-opacity:1;stroke-width:0.499998"
         x="-378.58353"
         y="99.979248"
         id="tspan19403">CEO</tspan></text>
    <path
       d="m -398.25633,109.43936 q -0.0911,0 -0.15596,-0.0647 -0.0649,-0.0647 -0.0649,-0.1561 v -1.32465 q 0,-0.0914 0.0649,-0.1561 0.0649,-0.0652 0.15596,-0.0652 h 1.76669 q 0.0911,0 0.15597,0.0652 0.0649,0.0647 0.0649,0.1561 v 1.32465 q 0,0.0914 -0.0649,0.1561 -0.0649,0.0647 -0.15597,0.0647 z m 0.88335,-0.77271 -0.88335,-0.55193 v 1.10387 h 1.76669 v -1.10387 z m 0,-0.22077 0.88334,-0.55194 h -1.76669 z m -0.88335,-0.33116 v -0.22078 1.32465 z"
       id="path19403"
       style="fill:#ffcc00;fill-opacity:1;stroke-width:0.00661459" />
    <path
       d="m -396.49516,106.49069 q -0.34505,0 -0.68183,-0.14997 -0.33677,-0.15053 -0.61282,-0.4265 -0.27605,-0.27653 -0.42649,-0.61326 -0.15044,-0.33674 -0.15044,-0.68184 0,-0.0502 0.0331,-0.0825 0.0331,-0.0335 0.0828,-0.0335 h 0.44719 q 0.0386,0 0.069,0.0279 0.0304,0.0279 0.0359,0.0624 l 0.0718,0.38636 q 0.006,0.0446 -0.003,0.0747 -0.008,0.0279 -0.0304,0.0502 l -0.26776,0.27039 q 0.0552,0.10202 0.13112,0.19736 0.0759,0.0953 0.16701,0.18342 0.0856,0.0859 0.17943,0.15889 0.0939,0.073 0.19875,0.1338 l 0.25948,-0.25924 q 0.0249,-0.0279 0.0649,-0.039 0.04,-0.0112 0.0787,-0.006 l 0.38094,0.0775 q 0.0386,0.0112 0.0635,0.039 0.0249,0.0279 0.0249,0.0647 v 0.44712 q 0,0.0502 -0.0331,0.0831 -0.0331,0.0334 -0.0828,0.0334 z m -1.53757,-1.32465 0.18219,-0.18231 -0.0469,-0.2598 h -0.24568 q 0.0138,0.11318 0.0386,0.22412 0.0249,0.11039 0.0718,0.21799 z m 0.98824,0.98791 q 0.10766,0.0446 0.21946,0.0747 0.1118,0.0279 0.22498,0.0335 v -0.24252 l -0.25949,-0.0502 z m -0.98824,-0.98791 z m 0.98824,0.98791 z"
       id="path19404"
       style="fill:#ffcc00;fill-opacity:1;stroke-width:0.00661459" />
    <g
       id="g19409"
       transform="matrix(0,-0.17198626,0.17198626,0,-1662.963,118.63941)"
       clip-path="url(#clipPath13117)"
       style="mix-blend-mode:overlay;fill:url(#linearGradient117);fill-opacity:1;stroke-width:5.81441">
      <path
         id="path19408"
         style="font-weight:bold;font-size:66.3308px;line-height:1.25;font-family:'IBM Plex Sans Arabic';-inkscape-font-specification:'IBM Plex Sans Arabic Bold';letter-spacing:0px;fill:url(#linearGradient1);fill-opacity:1;stroke-width:1.5384"
         d="m -654.6565,7733.4351 c -7.98724,0 -13.75345,5.9653 -13.75345,13.8887 0,4.588 2.2806,8.2488 5.71897,10.4838 v 0.6811 l -16.06693,7.3522 3.94952,8.7146 19.60794,-8.9858 c 9.44062,-4.2663 14.1599,-10.4844 14.1599,-18.6542 0,-7.7184 -5.73127,-13.4804 -13.61595,-13.4804 z m -0.16421,9.5223 c 1.27681,0.051 2.53721,0.5305 3.42401,1.5067 1.15367,1.0478 3.46916,5.3366 -1.36101,8.8513 -3.35827,-1.6799 -9.81629,-5.0919 -5.58346,-9.2596 0.95042,-0.761 2.24363,-1.1464 3.52046,-1.0984 z m 23.7114,14.354 c -8.56203,0 -14.84144,5.3644 -14.84144,13.2079 0,2.8137 0.90732,5.2193 2.72404,7.2166 l -0.14378,0.6813 h -5.71897 v 11.0285 h 32.27139 v -11.9826 h -10.07698 c -6.26296,0 -9.39546,-1.497 -9.39546,-4.4927 0,-1.949 1.87001,-3.6764 5.17497,-3.6764 2.81431,0 5.31047,1.0887 7.48844,3.2675 l 6.53599,-9.1229 c -3.25772,-3.4202 -8.24798,-6.1272 -14.02443,-6.1272 z m -232.56091,18.8716 v 67.864 c -0.16421,19.5423 -9.47961,26.5293 -30.09135,24.6442 -10.30487,0 -19.19942,-5.0365 -19.19942,-17.9726 0,-8.6015 3.98644,-18.1775 5.85446,-22.1945 l -13.07196,-3.8122 c -4.17531,10.0579 -6.39844,20.4893 -6.39844,28.7294 0,14.7925 5.39669,37.3079 38.26133,37.3079 28.48401,0 40.98325,-15.1686 40.98325,-46.7022 v -67.864 z m 222.62148,18.0556 v 63.8321 h 16.33991 v -63.8321 z m -46.42925,0.7891 c -25.97147,-0.5401 -39.13375,20.904 -50.65183,41.1216 -2.17998,-1.4523 -3.26795,-4.1312 -3.26795,-8.0345 v -8.5775 h -14.97895 v 8.5775 c 0,6.3539 -3.63133,9.5312 -10.89193,9.5312 h -11.02946 c -0.90732,-23.4097 -10.91453,-37.1712 -27.50489,-37.1712 -12.86666,0 -27.9134,10.7297 -27.9134,33.0873 0,15.7511 8.73653,24.5086 23.41994,24.5086 h 15.79592 c -8.99723,13.1875 -26.29584,12.2541 -40.57686,12.2541 v 20.4244 c 27.47615,0.3678 45.35775,-2.7628 55.00983,-32.6785 h 4.62894 c 10.68461,0 17.2329,-4.4692 20.01437,-18.3817 h 0.81701 c 2.73017,13.6423 10.50192,18.3817 24.1014,18.3817 h 38.94285 c 24.20817,0 36.21883,-8.7592 36.21883,-29.8191 0,-12.9009 -4.40316,-33.2239 -32.13382,-33.2239 z m 1.41433,20.3481 c 8.18641,0.043 16.77719,1.9237 17.10152,11.6498 0,8.542 -5.22424,10.6204 -22.60084,10.6204 h -34.17634 l -0.40854,-0.8166 c 10.34795,-16.8041 15.04676,-21.377 36.62528,-21.377 1.12903,-0.051 2.28883,-0.082 3.45892,-0.077 z m -121.50881,5.5224 c 7.46998,0 15.65842,4.7954 15.65842,16.7478 h -17.01938 c -10.55325,0 -11.16704,-4.469 -11.16704,-6.8072 0,-6.3051 6.03717,-9.9406 12.528,-9.9406 z"
         clip-path="none"
         transform="translate(935.80336)" />
      <path
         id="path19409"
         style="font-weight:bold;font-size:66.3308px;line-height:1.25;font-family:'IBM Plex Sans Arabic';-inkscape-font-specification:'IBM Plex Sans Arabic Bold';letter-spacing:0px;fill:url(#linearGradient2);fill-opacity:1;stroke-width:1.5384"
         d="m 47.06486,7831.0773 c 7.98724,0 13.75345,-5.9653 13.75345,-13.8887 0,-4.588 -2.2806,-8.2488 -5.71897,-10.4838 v -0.6811 l 16.06693,-7.3522 -3.94952,-8.7146 -19.60794,8.9858 c -9.44062,4.2663 -14.1599,10.4844 -14.1599,18.6542 0,7.7184 5.73127,13.4804 13.61595,13.4804 z m 0.16421,-9.5223 c -1.27681,-0.051 -2.53721,-0.5305 -3.42401,-1.5067 -1.15367,-1.0478 -3.46916,-5.3366 1.36101,-8.8513 3.35827,1.6799 9.81629,5.0919 5.58346,9.2596 -0.95042,0.761 -2.24363,1.1464 -3.52046,1.0984 z m -23.7114,-14.354 c 8.56203,0 14.84144,-5.3644 14.84144,-13.2079 0,-2.8137 -0.90732,-5.2193 -2.72404,-7.2166 l 0.14378,-0.6813 h 5.71897 v -11.0285 H 9.22643 v 11.9826 h 10.07698 c 6.26296,0 9.39546,1.497 9.39546,4.4927 0,1.949 -1.87001,3.6764 -5.17497,3.6764 -2.81431,0 -5.31047,-1.0887 -7.48844,-3.2675 l -6.53599,9.1229 c 3.25772,3.4202 8.24798,6.1272 14.02443,6.1272 z m 232.56091,-18.8716 v -67.864 c 0.16421,-19.5423 9.47961,-26.5293 30.09135,-24.6442 10.30487,0 19.19942,5.0365 19.19942,17.9726 0,8.6015 -3.98644,18.1775 -5.85446,22.1945 l 13.07196,3.8122 c 4.17531,-10.0579 6.39844,-20.4893 6.39844,-28.7294 0,-14.7925 -5.39669,-37.3079 -38.26133,-37.3079 -28.48401,0 -40.98325,15.1686 -40.98325,46.7022 v 67.864 z M 33.4571,7770.2738 v -63.8321 H 17.11719 v 63.8321 z m 46.42925,-0.7891 c 25.97147,0.5401 39.13375,-20.904 50.65183,-41.1216 2.17998,1.4523 3.26795,4.1312 3.26795,8.0345 v 8.5775 h 14.97895 v -8.5775 c 0,-6.3539 3.63133,-9.5312 10.89193,-9.5312 h 11.02946 c 0.90732,23.4097 10.91453,37.1712 27.50489,37.1712 12.86666,0 27.9134,-10.7297 27.9134,-33.0873 0,-15.7511 -8.73653,-24.5086 -23.41994,-24.5086 H 186.9089 c 8.99723,-13.1875 26.29584,-12.2541 40.57686,-12.2541 v -20.4244 c -27.47615,-0.3678 -45.35775,2.7628 -55.00983,32.6785 h -4.62894 c -10.68461,0 -17.2329,4.4692 -20.01437,18.3817 h -0.81701 c -2.73017,-13.6423 -10.50192,-18.3817 -24.1014,-18.3817 H 83.97136 c -24.20817,0 -36.21883,8.7592 -36.21883,29.8191 0,12.9009 4.40316,33.2239 32.13382,33.2239 z m -1.41433,-20.3481 c -8.18641,-0.043 -16.77719,-1.9237 -17.10152,-11.6498 0,-8.542 5.22424,-10.6204 22.60084,-10.6204 h 34.17634 l 0.40854,0.8166 c -10.34795,16.8041 -15.04676,21.377 -36.62528,21.377 -1.12903,0.051 -2.28883,0.082 -3.45892,0.077 z m 121.50881,-5.5224 c -7.46998,0 -15.65842,-4.7954 -15.65842,-16.7478 h 17.01938 c 10.55325,0 11.16704,4.469 11.16704,6.8072 0,6.3051 -6.03717,9.9406 -12.528,9.9406 z"
         clip-path="none" />
    </g>
    <g
       id="g19413"
       transform="matrix(0.55751102,0,0,0.55751102,-470.49766,-6375.0306)"
       style="stroke-width:1.79369">
      <rect
         style="fill:#5020df;fill-opacity:1;fill-rule:evenodd;stroke-width:0.448422;stroke-linecap:square"
         id="rect19409"
         width="167.19565"
         height="95.556908"
         x="-457.67554"
         y="11549.204"
         transform="scale(-1,1)" />
      <g
         id="g19412"
         transform="matrix(0.57563023,0,0,0.57563023,727.45828,9538.4793)"
         style="stroke-width:3.11605">
        <path
           id="path19410"
           style="font-size:15.3852px;line-height:1.25;font-family:'IBM Plex Sans Arabic';-inkscape-font-specification:'IBM Plex Sans Arabic';letter-spacing:10.2645px;fill:#ffffff;fill-opacity:1;stroke-width:0.824454"
           d="m -592.47648,3593.9537 v 4.4621 c 0,0.198 0.0641,0.7149 0.7323,0.7149 h 0.61131 v -0.6029 h -0.65442 v -4.5741 z m -40.04159,0.6293 c -1.16579,0 -2.00698,0.8876 -2.00698,2.3255 0,1.4016 0.7936,2.3258 2.00698,2.3258 1.21249,0 2.00699,-0.9456 2.00699,-2.3258 0,-1.5327 -0.93922,-2.3255 -2.00699,-2.3255 z m 10.23425,0 c -0.79943,0 -1.58486,0.363 -1.58486,1.3094 0,0.988 0.93004,1.2485 1.78305,1.335 0.50331,0.079 0.77507,0.3037 0.77507,0.6975 0,0.4396 -0.32422,0.7235 -0.93015,0.7235 -0.32915,0 -0.82843,-0.061 -1.3178,-0.6804 l -0.491,0.3963 c 0.63958,0.8409 1.3795,0.87 1.75701,0.87 1.03328,0 1.64537,-0.5301 1.64537,-1.387 0,-0.9468 -0.80065,-1.1642 -1.36096,-1.2489 -0.48674,-0.073 -1.18203,-0.119 -1.19715,-0.7407 0,-0.3781 0.24085,-0.6888 0.86963,-0.6888 0.69781,0 1.04324,0.3978 1.1457,0.5424 l 0.45656,-0.4134 c -0.5855,-0.7149 -1.28823,-0.7149 -1.55047,-0.7149 z m 10.27741,0 c -1.1658,0 -2.00699,0.8876 -2.00699,2.3255 0,1.4016 0.7936,2.3258 2.00699,2.3258 1.21248,0 2.00698,-0.9456 2.00698,-2.3258 0,-1.5327 -0.93922,-2.3255 -2.00698,-2.3255 z m 8.84786,0.1033 v 2.8512 c 0,1.1632 0.64647,1.6968 1.49891,1.6968 0.49027,0 0.94824,-0.1503 1.24899,-0.8269 h 0.0342 l 2.8e-4,0.7236 h 0.68886 v -4.4445 h -0.68886 v 3.0749 c 0,0.7686 -0.84051,0.8526 -1.07683,0.8526 -0.6776,0 -1.01637,-0.399 -1.01637,-1.1972 v -2.7305 z m -29.35952,0.508 c 1.119,0 1.26607,1.0667 1.26607,2.0331 0,0.4157 -0.0987,1.3953 -1.26607,1.3953 -1.14469,0 -1.26634,-0.9795 -1.26634,-1.3953 0,-0.9256 0.0744,-2.0331 1.26634,-2.0331 z m 20.51166,0 c 1.11899,0 1.26629,1.0667 1.26629,2.0331 0,0.4157 -0.0989,1.3953 -1.26629,1.3953 -1.14469,0 -1.26607,-0.9795 -1.26607,-1.3953 0,-0.9256 0.0741,-2.0331 1.26607,-2.0331 z" />
        <path
           id="path19411"
           style="font-weight:bold;font-size:66.3308px;line-height:1.25;font-family:'IBM Plex Sans Arabic';-inkscape-font-specification:'IBM Plex Sans Arabic Bold';letter-spacing:0px;fill:#ffffff;fill-opacity:1;stroke-width:0.824452"
           d="m -599.76445,3552.7174 c -2.37239,0 -4.08508,1.7718 -4.08508,4.1253 0,1.3628 0.67739,2.4501 1.69866,3.1139 v 0.2023 l -4.77223,2.1838 1.17309,2.5884 5.82399,-2.669 c 2.80407,-1.2672 4.20581,-3.1141 4.20581,-5.5407 0,-2.2926 -1.70232,-4.004 -4.04424,-4.004 z m -0.0488,2.8284 c 0.37924,0.015 0.7536,0.1575 1.017,0.4474 0.34266,0.3113 1.03042,1.5852 -0.40424,2.6291 -0.99749,-0.4989 -2.91565,-1.5124 -1.65842,-2.7503 0.2823,-0.226 0.66641,-0.3405 1.04566,-0.3262 z m 7.0428,4.2634 c -2.54311,0 -4.40823,1.5934 -4.40823,3.923 0,0.8358 0.26949,1.5503 0.80909,2.1435 l -0.0427,0.2023 h -1.69866 v 3.2758 h 9.58531 v -3.5591 h -2.99308 c -1.86024,0 -2.79066,-0.4446 -2.79066,-1.3344 0,-0.5789 0.55544,-1.092 1.53708,-1.092 0.83592,0 1.57733,0.3234 2.22424,0.9705 l 1.94133,-2.7097 c -0.96762,-1.0159 -2.44983,-1.8199 -4.16557,-1.8199 z m -69.07572,5.6052 v 20.1572 c -0.0488,5.8045 -2.81565,7.8798 -8.93779,7.3199 -3.06077,0 -5.70266,-1.496 -5.70266,-5.3384 0,-2.5547 1.18407,-5.399 1.73891,-6.5921 l -3.88266,-1.1324 c -1.24016,2.9875 -1.90048,6.0859 -1.90048,8.5333 0,4.3937 1.60294,11.0813 11.36446,11.0813 8.46039,0 12.17294,-4.5055 12.17294,-13.8716 v -20.1572 z m 66.12349,5.363 v 18.9595 h 4.85332 v -18.9595 z m -13.79051,0.2344 c -7.7141,-0.1604 -11.62359,6.2089 -15.0447,12.214 -0.64751,-0.4314 -0.97066,-1.2271 -0.97066,-2.3864 v -2.5477 h -4.44908 v 2.5477 c 0,1.8873 -1.07859,2.831 -3.23515,2.831 h -3.27599 c -0.26949,-6.9532 -3.24185,-11.0407 -8.16956,-11.0407 -3.82168,0 -8.29089,3.187 -8.29089,9.8276 0,4.6785 2.59494,7.2796 6.95623,7.2796 h 4.69175 c -2.67238,3.9171 -7.81044,3.6398 -12.05222,3.6398 v 6.0665 c 8.16102,0.1092 13.47224,-0.8207 16.33912,-9.7063 h 1.3749 c 3.17356,0 5.11855,-1.3274 5.94471,-5.4597 h 0.24267 c 0.81092,4.052 3.1193,5.4597 7.15865,5.4597 h 11.56689 c 7.19035,0 10.75779,-2.6016 10.75779,-8.8569 0,-3.8318 -1.30784,-9.8682 -9.54446,-9.8682 z m 0.42009,6.0438 c 2.43154,0.013 4.98319,0.5714 5.07953,3.4602 0,2.5372 -1.55172,3.1546 -6.71295,3.1546 h -10.15113 l -0.12134,-0.2427 c 3.07357,-4.991 4.46921,-6.3494 10.87852,-6.3494 0.33534,-0.015 0.67983,-0.024 1.02737,-0.023 z m -36.0908,1.6403 c 2.21875,0 4.6509,1.4243 4.6509,4.9745 h -5.05514 c -3.13454,0 -3.31685,-1.3275 -3.31685,-2.0219 0,-1.8728 1.79317,-2.9526 3.72109,-2.9526 z" />
        <path
           id="path19412"
           style="color:#000000;fill:#ffffff;fill-rule:evenodd;stroke-width:3.11603;stroke-linecap:round;stroke-linejoin:round;-inkscape-stroke:none"
           d="m -558.13706,3540.6527 c -0.39309,8e-4 -0.79339,0.075 -1.18365,0.2336 l -15.02084,6.1618 c -1.96305,0.8051 -3.27582,2.6596 -3.43091,4.7533 -0.009,0.077 -0.0126,0.157 -0.0179,0.2352 -0.002,0.058 -0.0126,0.1146 -0.0126,0.1736 v 0.077 47.5938 0.077 c 0,0.058 0.011,0.1146 0.0126,0.1735 0.005,0.079 0.009,0.1577 0.0179,0.2353 0.15511,2.0935 1.46786,3.949 3.43091,4.754 l 15.02084,6.161 c 2.08149,0.8539 4.45229,-0.7366 4.45229,-2.9864 v -4.165 h 3.34653 c 2.33059,0 4.24868,-1.9182 4.24868,-4.2487 v -47.5938 c 0,-2.3305 -1.91809,-4.2486 -4.24868,-4.2486 h -3.34653 v -4.1652 c 0,-1.6874 -1.33358,-3.0039 -2.87842,-3.1964 -0.12873,-0.016 -0.25919,-0.023 -0.39022,-0.023 z m 0.12905,2.5912 c 0.30333,0.022 0.53139,0.2652 0.53139,0.6287 v 4.1652 h -12.40446 l 11.55019,-4.7379 c 0.1124,-0.046 0.22178,-0.063 0.32288,-0.057 z m -15.54736,7.403 h 16.07875 v 50.8737 h -16.07875 c -0.92085,0 -1.63878,-0.7194 -1.63878,-1.6404 v -47.5937 c 0,-0.9208 0.71793,-1.6396 1.63878,-1.6396 z m 18.68702,0 h 3.34652 c 0.92081,0 1.6396,0.7188 1.6396,1.6396 v 47.5937 c 0,0.921 -0.71873,1.6404 -1.6396,1.6404 h -3.34652 z m -7.70959,23.4736 c -0.76534,0.016 -1.36874,0.6959 -1.36863,1.5357 0,0.8397 0.60335,1.5506 1.36863,1.5894 0.78926,0.041 1.44737,-0.6464 1.44733,-1.5342 1.1e-4,-0.8877 -0.65807,-1.5999 -1.44733,-1.5909 z m -7.30477,30.0084 h 12.40609 v 4.165 c 0,0.4858 -0.40495,0.7572 -0.85427,0.5729 z" />
      </g>
    </g>
    <g
       id="g19389"
       transform="matrix(0.55751102,0,0,0.55751102,-733.70882,-6241.8675)"
       style="stroke-width:1.79369">
      <rect
         style="fill:#ffffff;stroke:none;stroke-width:1.79368;stroke-miterlimit:10;stroke-dasharray:none"
         id="rect19372"
         width="167.19565"
         height="95.555931"
         x="-929.79382"
         y="11207.488"
         inkscape:export-filename="rectasssaa915.png"
         inkscape:export-xdpi="300"
         inkscape:export-ydpi="300"
         transform="scale(-1,1)" />
      <path
         id="path19373"
         style="fill:none;fill-rule:evenodd;stroke:#d8d7db;stroke-width:1.79368;stroke-linecap:square;stroke-dasharray:none;stroke-opacity:1"
         d="m 774.46107,11207.988 v 11.946 h 3.78756 v -6.729 h -15.15049 v -3.364 h 7.57524 v 23.554 h -7.57524 v -3.366 h 15.15049 v -6.729 h -3.78756 v 23.554 h 3.78756 v -6.73 h -15.15049 v -3.364 h 7.57524 v 23.554 h -7.57524 v -3.365 h 15.15049 v -6.73 h -3.78756 v 23.724 h 3.78756 v -6.73 h -15.15049 v -3.365 h 7.57524 v 23.555 h -7.57524 v -3.365 h 15.15049 v -6.731 h -3.78756 v 23.555 h 3.78756 v -6.729 h -15.15049 v -3.366 h 7.57524 v 11.778"
         sodipodi:nodetypes="cccccccccccccccccccccccccccccccccccccccccccc" />
      <g
         id="g19385"
         transform="matrix(0.35096912,0,0,0.35096912,1310.9387,9940.5202)"
         style="stroke-width:5.11066">
        <g
           id="g19383"
           transform="translate(1635.1419,-735.93259)"
           style="stroke-width:5.11066">
          <path
             id="path19380"
             style="fill:#1d1339;fill-rule:evenodd;stroke-width:25.5534;stroke-linecap:round;stroke-linejoin:round"
             d="m -2509.8987,4191.3125 h 39.5145 a 5.2787641,5.2787641 45.00003 0 1 5.2788,5.2788 l -1e-4,85.353 a 5.2787751,5.2787751 135.00003 0 1 -5.2788,5.2788 h -39.5145 a 5.2787641,5.2787641 45.00003 0 1 -5.2788,-5.2788 l 1e-4,-85.353 a 5.2787751,5.2787751 135.00003 0 1 5.2788,-5.2788 z"
             inkscape:path-effect="#path-effect19386"
             inkscape:original-d="m -2515.1775,4191.3125 h 50.0721 l -1e-4,95.9106 h -50.0721 z"
             sodipodi:nodetypes="ccccc"
             transform="translate(-384.9276,242.70973)" />
          <path
             id="path19381"
             style="fill:#5020df;fill-opacity:1;fill-rule:evenodd;stroke:none;stroke-width:25.5534;stroke-linecap:round;stroke-linejoin:round"
             d="m -2510.4201,4189.361 26.9362,-11.0482 a 3.448763,3.448763 33.849143 0 1 4.7575,3.1908 v 115.5283 a 3.448763,3.448763 146.15086 0 1 -4.7575,3.1908 l -26.9362,-11.0482 a 7.6670246,7.6670246 56.150857 0 1 -4.7575,-7.0936 v -85.6263 a 7.6670246,7.6670246 123.84914 0 1 4.7575,-7.0936 z"
             sodipodi:nodetypes="ccccc"
             inkscape:path-effect="#path-effect19388"
             inkscape:original-d="m -2515.1776,4191.3124 36.4512,-14.951 v 125.8127 l -36.4512,-14.951 z"
             transform="translate(-384.9276,242.70973)" />
          <path
             id="path19382"
             style="fill:#371a8c;fill-opacity:1;fill-rule:evenodd;stroke-width:25.5534;stroke-linecap:round;stroke-linejoin:round;filter:url(#filter250)"
             d="m -2509.8989,4191.3125 a 5.2787751,5.2787751 0 0 0 -5.2788,5.2787 v 85.3529 a 5.2787641,5.2787641 0 0 0 5.2788,5.2788 h 31.1727 v -95.9104 z"
             transform="translate(-384.9276,242.70978)"
             clip-path="url(#clipPath218)" />
          <path
             id="path19383"
             style="fill:#ffcc00;fill-opacity:1;fill-rule:evenodd;stroke:none;stroke-width:25.5534;stroke-linecap:round;stroke-linejoin:round;stroke-dasharray:none"
             d="m -2875.1396,4478.4566 c -1.3725,0.016 -2.4548,1.2486 -2.4546,2.7546 0,1.506 1.0822,2.7814 2.4546,2.8509 1.4154,0.072 2.5956,-1.1593 2.5955,-2.7515 2e-4,-1.5922 -1.1801,-2.8699 -2.5955,-2.854 z" />
        </g>
        <g
           id="g19384"
           transform="matrix(0.91823404,0,0,0.91823404,1057.5206,-145.27859)"
           style="stroke-width:5.56576">
          <path
             id="path19384"
             style="font-size:15.3852px;line-height:1.25;font-family:'IBM Plex Sans Arabic';-inkscape-font-specification:'IBM Plex Sans Arabic';letter-spacing:10.2645px;fill:#5020df;fill-opacity:1;stroke-width:1.47261"
             d="m -2555.5034,4269.7519 v 7.97 c 0,0.3537 0.1145,1.2769 1.308,1.2769 h 1.0919 v -1.0769 h -1.1689 v -8.17 z m -71.5207,1.1239 c -2.0823,0 -3.5848,1.5854 -3.5848,4.1538 0,2.5034 1.4175,4.1542 3.5848,4.1542 2.1657,0 3.5848,-1.689 3.5848,-4.1542 0,-2.7377 -1.6776,-4.1538 -3.5848,-4.1538 z m 18.28,0 c -1.4279,0 -2.8308,0.6485 -2.8308,2.3389 0,1.7646 1.6612,2.2299 3.1848,2.3844 0.899,0.1411 1.3844,0.5425 1.3844,1.2459 0,0.7852 -0.5791,1.2924 -1.6614,1.2924 -0.5879,0 -1.4797,-0.1082 -2.3538,-1.2154 l -0.877,0.7079 c 1.1424,1.5019 2.464,1.5539 3.1383,1.5539 1.8456,0 2.9389,-0.9468 2.9389,-2.4773 0,-1.6912 -1.4301,-2.0796 -2.4309,-2.2309 -0.8694,-0.13 -2.1113,-0.2125 -2.1383,-1.3229 0,-0.6753 0.4302,-1.2304 1.5533,-1.2304 1.2464,0 1.8634,0.7106 2.0464,0.9689 l 0.8155,-0.7384 c -1.0458,-1.277 -2.301,-1.277 -2.7694,-1.277 z m 18.3571,0 c -2.0823,0 -3.5848,1.5854 -3.5848,4.1538 0,2.5034 1.4175,4.1542 3.5848,4.1542 2.1657,0 3.5848,-1.689 3.5848,-4.1542 0,-2.7377 -1.6776,-4.1538 -3.5848,-4.1538 z m 15.8037,0.1845 v 5.0927 c 0,2.0778 1.1547,3.0308 2.6773,3.0308 0.8757,0 1.6937,-0.2685 2.2309,-1.4769 h 0.061 l 5e-4,1.2925 h 1.2304 v -7.9386 h -1.2304 v 5.4922 c 0,1.3729 -1.5013,1.5229 -1.9234,1.5229 -1.2103,0 -1.8154,-0.7127 -1.8154,-2.1384 v -4.8772 z m -52.4408,0.9075 c 1.9987,0 2.2614,1.9053 2.2614,3.6313 0,0.7426 -0.1763,2.4923 -2.2614,2.4923 -2.0446,0 -2.2619,-1.7496 -2.2619,-2.4923 0,-1.6532 0.1329,-3.6313 2.2619,-3.6313 z m 36.6371,0 c 1.9987,0 2.2618,1.9053 2.2618,3.6313 0,0.7426 -0.1767,2.4923 -2.2618,2.4923 -2.0446,0 -2.2614,-1.7496 -2.2614,-2.4923 0,-1.6532 0.1324,-3.6313 2.2614,-3.6313 z" />
        </g>
        <path
           id="path19385"
           style="font-weight:bold;font-size:66.3308px;line-height:1.25;font-family:'IBM Plex Sans Arabic';-inkscape-font-specification:'IBM Plex Sans Arabic Bold';letter-spacing:0px;fill:#5020df;fill-opacity:1;stroke-width:1.3522"
           d="m -1300.9827,3707.7206 c -3.891,0 -6.7,2.9061 -6.7,6.766 0,2.2351 1.111,4.0184 2.786,5.1072 v 0.3318 l -7.827,3.5817 1.924,4.2452 9.552,-4.3775 c 4.599,-2.0783 6.898,-5.1074 6.898,-9.0873 0,-3.7602 -2.792,-6.5671 -6.633,-6.5671 z m -0.08,4.639 c 0.622,0.024 1.236,0.2583 1.668,0.7338 0.562,0.5106 1.69,2.5999 -0.663,4.3119 -1.636,-0.8182 -4.782,-2.4804 -2.72,-4.5108 0.463,-0.3706 1.093,-0.5584 1.715,-0.5349 z m 11.551,6.9924 c -4.171,0 -7.23,2.6134 -7.23,6.4342 0,1.3708 0.442,2.5427 1.327,3.5156 l -0.07,0.3317 h -2.786 v 5.3728 h 15.721 v -5.8374 h -4.909 c -3.051,0 -4.577,-0.7292 -4.577,-2.1885 0,-0.9495 0.911,-1.7911 2.521,-1.7911 1.371,0 2.587,0.5304 3.648,1.5917 l 3.184,-4.4442 c -1.587,-1.6661 -4.018,-2.9848 -6.832,-2.9848 z m -113.292,9.1932 v 33.06 c -0.08,9.5201 -4.618,12.9239 -14.659,12.0055 -5.02,0 -9.353,-2.4535 -9.353,-8.7556 0,-4.1899 1.942,-8.8549 2.852,-10.8117 l -6.368,-1.8573 c -2.034,4.8998 -3.117,9.9816 -3.117,13.9956 0,7.2062 2.629,18.1746 18.639,18.1746 13.876,0 19.965,-7.3896 19.965,-22.7511 v -33.06 z m 108.45,8.7959 v 31.0957 h 7.96 v -31.0957 z m -22.618,0.3844 c -12.652,-0.263 -19.064,10.1834 -24.675,20.0324 -1.062,-0.7076 -1.592,-2.0126 -1.592,-3.914 v -4.1785 h -7.297 v 4.1785 c 0,3.0954 -1.769,4.6432 -5.306,4.6432 h -5.373 c -0.442,-11.404 -5.317,-18.108 -13.399,-18.108 -6.268,0 -13.598,5.2271 -13.598,16.1184 0,7.6732 4.256,11.9393 11.409,11.9393 h 7.695 c -4.383,6.4245 -12.81,5.9697 -19.767,5.9697 v 9.9498 c 13.385,0.1791 22.096,-1.3461 26.798,-15.9195 h 2.255 c 5.205,0 8.395,-2.177 9.75,-8.9545 h 0.398 c 1.33,6.6457 5.116,8.9545 11.741,8.9545 h 18.971 c 11.793,0 17.644,-4.2668 17.644,-14.5262 0,-6.2847 -2.145,-16.1851 -15.654,-16.1851 z m 0.689,9.9126 c 3.988,0.021 8.173,0.9372 8.331,5.6751 0,4.1613 -2.545,5.1739 -11.01,5.1739 h -16.649 l -0.199,-0.398 c 5.041,-8.1859 7.33,-10.4138 17.842,-10.4138 0.55,-0.025 1.115,-0.04 1.685,-0.037 z m -59.193,2.6903 c 3.639,0 7.628,2.336 7.628,8.1587 h -8.291 c -5.141,0 -5.44,-2.1772 -5.44,-3.3161 0,-3.0717 2.941,-4.8426 6.103,-4.8426 z" />
      </g>
    </g>
    <g
       id="g19388"
       transform="matrix(0.55751102,0,0,0.55751102,-721.60642,-6241.8675)"
       style="stroke-width:1.79369">
      <rect
         style="fill:#ffffff;stroke:none;stroke-width:1.79368;stroke-miterlimit:10;stroke-dasharray:none"
         id="rect19368"
         width="167.19565"
         height="95.555931"
         x="566.38867"
         y="11207.488"
         inkscape:export-filename="rectasssaa915.png"
         inkscape:export-xdpi="300"
         inkscape:export-ydpi="300" />
      <path
         id="path12487-5"
         style="fill:none;fill-rule:evenodd;stroke:#d8d7db;stroke-width:1.79368;stroke-linecap:square;stroke-dasharray:none;stroke-opacity:1"
         d="m 721.72139,11207.988 v 11.946 h -3.78756 v -6.729 h 15.15049 v -3.364 h -7.57524 v 23.554 h 7.57524 v -3.366 h -15.15049 v -6.729 h 3.78756 v 23.554 h -3.78756 v -6.73 h 15.15049 v -3.364 h -7.57524 v 23.554 h 7.57524 v -3.365 h -15.15049 v -6.73 h 3.78756 v 23.724 h -3.78756 v -6.73 h 15.15049 v -3.365 h -7.57524 v 23.555 h 7.57524 v -3.365 h -15.15049 v -6.731 h 3.78756 v 23.555 h -3.78756 v -6.729 h 15.15049 v -3.366 h -7.57524 v 11.778"
         sodipodi:nodetypes="cccccccccccccccccccccccccccccccccccccccccccc" />
      <path
         id="path19368"
         style="fill:none;fill-rule:evenodd;stroke:#d8d7db;stroke-width:1.79368;stroke-linecap:square;stroke-dasharray:none;stroke-opacity:1"
         d="m 710.35874,11207.988 v 11.946 h 3.78756 v -6.729 h -15.15049 v -3.364 h 7.57524 v 23.554 h -7.57524 v -3.366 h 15.15049 v -6.729 h -3.78756 v 23.554 h 3.78756 v -6.73 h -15.15049 v -3.364 h 7.57524 v 23.554 h -7.57524 v -3.365 h 15.15049 v -6.73 h -3.78756 v 23.724 h 3.78756 v -6.73 h -15.15049 v -3.365 h 7.57524 v 23.555 h -7.57524 v -3.365 h 15.15049 v -6.731 h -3.78756 v 23.555 h 3.78756 v -6.729 h -15.15049 v -3.366 h 7.57524 v 11.778"
         sodipodi:nodetypes="cccccccccccccccccccccccccccccccccccccccccccc" />
      <path
         id="path19369"
         style="fill:none;fill-rule:evenodd;stroke:#d8d7db;stroke-width:1.79368;stroke-linecap:square;stroke-dasharray:none;stroke-opacity:1"
         d="m 683.84532,11207.988 v 11.946 h -3.78756 v -6.729 h 15.15049 v -3.364 h -7.57524 v 23.554 h 7.57524 v -3.366 h -15.15049 v -6.729 h 3.78756 v 23.554 h -3.78756 v -6.73 h 15.15049 v -3.364 h -7.57524 v 23.554 h 7.57524 v -3.365 h -15.15049 v -6.73 h 3.78756 v 23.724 h -3.78756 v -6.73 h 15.15049 v -3.365 h -7.57524 v 23.555 h 7.57524 v -3.365 h -15.15049 v -6.731 h 3.78756 v 23.555 h -3.78756 v -6.729 h 15.15049 v -3.366 h -7.57524 v 11.778"
         sodipodi:nodetypes="cccccccccccccccccccccccccccccccccccccccccccc" />
      <path
         id="path19370"
         style="fill:none;fill-rule:evenodd;stroke:#d8d7db;stroke-width:1.79368;stroke-linecap:square;stroke-dasharray:none;stroke-opacity:1"
         d="m 672.48267,11207.988 v 11.946 h 3.78756 v -6.729 h -15.15049 v -3.364 h 7.57524 v 23.554 h -7.57524 v -3.366 h 15.15049 v -6.729 h -3.78756 v 23.554 h 3.78756 v -6.73 h -15.15049 v -3.364 h 7.57524 v 23.554 h -7.57524 v -3.365 h 15.15049 v -6.73 h -3.78756 v 23.724 h 3.78756 v -6.73 h -15.15049 v -3.365 h 7.57524 v 23.555 h -7.57524 v -3.365 h 15.15049 v -6.731 h -3.78756 v 23.555 h 3.78756 v -6.729 h -15.15049 v -3.366 h 7.57524 v 11.778"
         sodipodi:nodetypes="cccccccccccccccccccccccccccccccccccccccccccc" />
      <text
         xml:space="preserve"
         style="font-weight:bold;font-size:5.64444px;line-height:0.8;font-family:Alexandria;-inkscape-font-specification:'Alexandria Bold';white-space:pre;inline-size:29.5099;display:inline;fill:#1d1339;fill-opacity:1;stroke-width:0.414634;stroke-linecap:round"
         x="67.114471"
         y="6170.2266"
         id="text7851"
         transform="matrix(2.1629685,0,0,2.1629685,434.31457,-2090.4655)"><tspan
           x="67.114471"
           y="6170.2266"
           id="tspan1845"
           style="stroke-width:0.414634"><tspan
             style="font-family:'IBM Plex Sans Arabic';-inkscape-font-specification:'IBM Plex Sans Arabic Bold';stroke-width:0.414634"
             id="tspan1844">Yazeed </tspan></tspan><tspan
           x="67.114471"
           y="6175.1416"
           id="tspan1847"
           style="stroke-width:0.414634"><tspan
             style="font-family:'IBM Plex Sans Arabic';-inkscape-font-specification:'IBM Plex Sans Arabic Bold';stroke-width:0.414634"
             id="tspan1846">Alsaeed</tspan></tspan></text>
      <text
         xml:space="preserve"
         style="font-weight:bold;font-size:4.17009px;font-family:Alexandria;-inkscape-font-specification:'Alexandria Bold';fill:#1d1339;fill-opacity:1;stroke-width:0.89684;stroke-linecap:round"
         x="586.22461"
         y="11283.498"
         id="text7853"><tspan
           sodipodi:role="line"
           style="font-style:normal;font-variant:normal;font-weight:normal;font-stretch:normal;font-size:4.17009px;font-family:'IBM Plex Sans Arabic';-inkscape-font-specification:'IBM Plex Sans Arabic';direction:ltr;fill:#1d1339;fill-opacity:1;stroke-width:0.89684"
           x="586.22461"
           y="11283.498"
           id="tspan7852">+966 50 123 456 78</tspan><tspan
           sodipodi:role="line"
           style="font-style:normal;font-variant:normal;font-weight:normal;font-stretch:normal;font-size:4.17009px;font-family:'IBM Plex Sans Arabic';-inkscape-font-specification:'IBM Plex Sans Arabic';direction:ltr;fill:#1d1339;fill-opacity:1;stroke-width:0.89684"
           x="586.22461"
           y="11289.006"
           id="tspan7853">yazeed@osoul.sa</tspan></text>
      <text
         xml:space="preserve"
         style="font-weight:bold;font-size:5.21714px;font-family:Alexandria;-inkscape-font-specification:'Alexandria Bold';fill:#5020df;fill-opacity:1;stroke-width:0.89684;stroke-linecap:round"
         x="615.27551"
         y="11272.421"
         id="text7855"><tspan
           sodipodi:role="line"
           style="font-style:normal;font-variant:normal;font-weight:normal;font-stretch:normal;font-size:5.21714px;font-family:'IBM Plex Sans Arabic';-inkscape-font-specification:'IBM Plex Sans Arabic';direction:ltr;fill:#5020df;fill-opacity:1;stroke-width:0.89684"
           x="615.27551"
           y="11272.421"
           id="tspan7855">CEO</tspan></text>
      <g
         style="fill:#289dd8;fill-opacity:1;stroke-width:2.3962"
         id="g19371"
         transform="matrix(0.00495139,0,0,0.00495139,574.28809,11294.056)">
        <path
           d="m 1151.3156,-942.29797 q -33,0 -56.5,-23.5 -23.5,-23.5 -23.5,-56.50003 v -480 q 0,-33 23.5,-56.5 23.5,-23.5 56.5,-23.5 h 640 q 33,0 56.5,23.5 23.5,23.5 23.5,56.5 v 480 q 0,33.00003 -23.5,56.50003 -23.5,23.5 -56.5,23.5 z m 320,-280.00003 -320,-200 v 400 h 640 v -400 z m 0,-80 320,-200 h -640 z m -320,-120 v -80 480 z"
           id="path19371"
           style="fill:#5020df;fill-opacity:1;stroke-width:2.3962" />
      </g>
      <g
         style="fill:#289dd8;fill-opacity:1;stroke-width:2.3962"
         id="g19372"
         transform="matrix(0.00495139,0,0,0.00495139,574.28809,11288.569)">
        <path
           d="m 1789.3156,-902.29797 q -125,0 -247,-54.5 -122,-54.50003 -222,-154.50003 -100,-100 -154.5,-222 -54.5,-122 -54.5,-247 0,-18 12,-30 12,-12 30,-12 h 162 q 14,0 25,9.5 11,9.5 13,22.5 l 26,140 q 2,16 -1,27 -3,11 -11,19 l -97,98 q 20,37 47.5,71.5 27.5,34.5 60.5,66.5 31,31 65,57.5 34,26.5 72,48.5 l 94,-94 q 9,-9 23.5,-13.5 14.5,-4.5 28.5,-2.5 l 138,28 q 14,4 23,14.5 9,10.5 9,23.5 v 162.00003 q 0,18 -12,30 -12,12 -30,12 z m -557,-480.00003 66,-66 -17,-94 h -89 q 5,41 14,81 9,40 26,79 z m 358,358 q 39,17 79.5,27.00003 40.5,10 81.5,13 v -88.00003 l -94,-19 z m -358,-358 z m 358,358 z"
           id="path19372"
           style="fill:#5020df;fill-opacity:1;stroke-width:2.3962" />
      </g>
    </g>
    <path
       id="path19389"
       style="font-weight:bold;font-size:66.3308px;line-height:1.25;font-family:'IBM Plex Sans Arabic';-inkscape-font-specification:'IBM Plex Sans Arabic Bold';letter-spacing:0px;fill:#5020df;fill-opacity:1;stroke-width:0.264583"
       d="m -387.2843,13.748726 c -0.32877,0 -0.56612,0.245305 -0.56612,0.571448 0,0.188997 0.0939,0.339525 0.23541,0.431514 v 0.02788 l -0.66135,0.302171 0.16257,0.359037 0.80711,-0.370188 c 0.38859,-0.175616 0.58285,-0.431513 0.58285,-0.767692 0,-0.317782 -0.23591,-0.554724 -0.56047,-0.554724 z m -0.007,0.39193 c 0.0526,0 0.10444,0.0223 0.14094,0.06188 0.0475,0.0446 0.1428,0.219659 -0.056,0.364612 -0.13824,-0.06913 -0.40406,-0.209624 -0.22983,-0.381338 0.0391,-0.03345 0.0924,-0.05018 0.14491,-0.0446 z m 0.97602,0.590962 c -0.35244,0 -0.61091,0.220774 -0.61091,0.543573 0,0.115962 0.0374,0.214642 0.11212,0.297153 l -0.006,0.02788 h -0.2354 v 0.453814 h 1.32837 v -0.49284 h -0.41479 c -0.2578,0 -0.38674,-0.06188 -0.38674,-0.185094 0,-0.08028 0.077,-0.151643 0.21301,-0.151643 0.11585,0 0.21859,0.0446 0.30824,0.134918 l 0.26904,-0.375762 c -0.1341,-0.140493 -0.33951,-0.251995 -0.57728,-0.251995 z m -9.57276,0.776612 v 2.793688 c -0.007,0.803931 -0.3902,1.091607 -1.23863,1.014113 -0.42417,0 -0.79029,-0.207394 -0.79029,-0.739817 0,-0.35402 0.16409,-0.74818 0.24098,-0.913203 l -0.53807,-0.157219 c -0.17187,0.414231 -0.26338,0.843515 -0.26338,1.182481 0,0.608802 0.22215,1.535943 1.57493,1.535943 1.17247,0 1.68697,-0.624412 1.68697,-1.922298 V 15.50823 Z m 9.16362,0.743163 v 2.627549 h 0.67259 v -2.627549 z m -1.91113,0.03345 c -1.06905,-0.0223 -1.61084,0.860797 -2.08495,1.693161 -0.0897,-0.06021 -0.13452,-0.170598 -0.13452,-0.331161 v -0.352905 h -0.61657 v 0.352905 c 0,0.261472 -0.14947,0.392487 -0.44833,0.392487 h -0.454 c -0.0374,-0.963379 -0.44927,-1.52981 -1.13217,-1.52981 -0.52962,0 -1.14898,0.441549 -1.14898,1.361442 0,0.648385 0.35962,1.009095 0.96402,1.009095 h 0.6502 c -0.37035,0.543016 -1.0824,0.504548 -1.67024,0.504548 v 0.840726 c 1.13098,0.01673 1.86703,-0.113732 2.26433,-1.345274 h 0.19054 c 0.4398,0 0.70935,-0.183979 0.82384,-0.756542 h 0.0336 c 0.11238,0.561413 0.43228,0.756542 0.99207,0.756542 h 1.60298 c 0.99646,0 1.49085,-0.36071 1.49085,-1.227639 0,-0.530751 -0.18124,-1.367575 -1.3227,-1.367575 z m 0.0582,0.837939 c 0.33697,0 0.69058,0.07917 0.70393,0.47946 0,0.351789 -0.21504,0.437088 -0.9303,0.437088 h -1.40678 l -0.0168,-0.03345 c 0.42595,-0.691871 0.61937,-0.88031 1.50759,-0.88031 0.0465,0 0.0942,0 0.14237,0 z m -5.00159,0.226907 c 0.30748,0 0.64454,0.197359 0.64454,0.689641 h -0.70056 c -0.4344,0 -0.45966,-0.183978 -0.45966,-0.280428 0,-0.259242 0.2485,-0.409213 0.51568,-0.409213 z" />
  </g>
</svg>
