<?xml version="1.0" encoding="UTF-8" standalone="no"?>
<!-- Created with Inkscape (http://www.inkscape.org/) -->

<svg
   width="190.5mm"
   height="190.5mm"
   viewBox="0 0 190.5 190.5"
   version="1.1"
   id="svg1"
   inkscape:version="1.4.2 (ebf0e94, 2025-05-08)"
   sodipodi:docname="4.svg"
   xmlns:inkscape="http://www.inkscape.org/namespaces/inkscape"
   xmlns:sodipodi="http://sodipodi.sourceforge.net/DTD/sodipodi-0.dtd"
   xmlns="http://www.w3.org/2000/svg"
   xmlns:svg="http://www.w3.org/2000/svg">
  <sodipodi:namedview
     id="namedview1"
     pagecolor="#505050"
     bordercolor="#eeeeee"
     borderopacity="1"
     inkscape:showpageshadow="0"
     inkscape:pageopacity="0"
     inkscape:pagecheckerboard="0"
     inkscape:deskcolor="#505050"
     inkscape:document-units="mm"
     inkscape:zoom="0.71713667"
     inkscape:cx="401.59709"
     inkscape:cy="382.77223"
     inkscape:window-width="1920"
     inkscape:window-height="1048"
     inkscape:window-x="0"
     inkscape:window-y="0"
     inkscape:window-maximized="1"
     inkscape:current-layer="layer1" />
  <defs
     id="defs1">
    <rect
       x="-615.27274"
       y="-200.00134"
       width="1055.035"
       height="383.39995"
       id="rect39" />
    <clipPath
       clipPathUnits="userSpaceOnUse"
       id="clipPath207">
      <rect
         style="opacity:1;fill:#ffffff;fill-rule:evenodd;stroke-width:1.99999;stroke-linecap:round;stroke-linejoin:round"
         id="rect207"
         width="162.65349"
         height="246.62869"
         x="-876.19897"
         y="4227.231"
         transform="rotate(-45)" />
    </clipPath>
    <clipPath
       clipPathUnits="userSpaceOnUse"
       id="clipPath206">
      <rect
         style="opacity:1;fill:#ffffff;fill-rule:evenodd;stroke-width:2;stroke-linecap:round;stroke-linejoin:round"
         id="rect206"
         width="39.206257"
         height="246.62869"
         x="-713.54547"
         y="4227.231"
         transform="rotate(-45)" />
    </clipPath>
    <clipPath
       clipPathUnits="userSpaceOnUse"
       id="clipPath3842">
      <rect
         style="opacity:1;fill:#73828c;fill-opacity:1;fill-rule:evenodd;stroke:none;stroke-width:0.25;stroke-linecap:square;stroke-linejoin:round;stroke-dasharray:none;stroke-opacity:1"
         id="rect3843"
         width="1253.2329"
         height="147.42061"
         x="2692.4861"
         y="3523.957" />
    </clipPath>
    <clipPath
       clipPathUnits="userSpaceOnUse"
       id="clipPath3842-3">
      <rect
         style="opacity:1;fill:#73828c;fill-opacity:1;fill-rule:evenodd;stroke:none;stroke-width:0.25;stroke-linecap:square;stroke-linejoin:round;stroke-dasharray:none;stroke-opacity:1"
         id="rect3843-6"
         width="1253.2329"
         height="147.42061"
         x="2692.4861"
         y="3523.957" />
    </clipPath>
    <inkscape:path-effect
       effect="fillet_chamfer"
       id="path-effect24158"
       is_visible="true"
       lpeversion="1"
       nodesatellites_param="F,0,0,1,0,5.2787696,0,1 @ F,0,1,1,0,5.2787696,0,1 @ F,0,1,1,0,5.2787696,0,1 @ F,0,1,1,0,5.2787696,0,1"
       radius="0"
       unit="px"
       method="auto"
       mode="F"
       chamfer_steps="1"
       flexible="false"
       use_knot_distance="true"
       apply_no_radius="true"
       apply_with_radius="true"
       only_selected="false"
       hide_knots="false" />
    <inkscape:path-effect
       effect="fillet_chamfer"
       id="path-effect24160"
       is_visible="true"
       lpeversion="1"
       nodesatellites_param="F,0,0,1,0,5.1421543,0,1 @ F,0,1,1,0,5.1421543,0,1 @ F,0,1,1,0,5.1421543,0,1 @ F,0,1,1,0,5.1421543,0,1"
       radius="0"
       unit="px"
       method="auto"
       mode="F"
       chamfer_steps="1"
       flexible="false"
       use_knot_distance="true"
       apply_no_radius="true"
       apply_with_radius="true"
       only_selected="false"
       hide_knots="false" />
    <clipPath
       clipPathUnits="userSpaceOnUse"
       id="clipPath218">
      <path
         id="path250-7"
         style="fill:#5020df;fill-opacity:1;fill-rule:evenodd;stroke:none;stroke-width:5.00002;stroke-linecap:round;stroke-linejoin:round"
         d="m -2510.4201,4189.3611 26.9362,-11.0482 a 3.4487631,3.4487631 0 0 1 4.7575,3.1906 v 115.5284 a 3.4487631,3.4487631 0 0 1 -4.7575,3.1909 l -26.9362,-11.0482 a 7.6670247,7.6670247 0 0 1 -4.7575,-7.0937 v -85.6264 a 7.6670247,7.6670247 0 0 1 4.7575,-7.0934 z"
         sodipodi:nodetypes="ccccc" />
    </clipPath>
    <filter
       inkscape:collect="always"
       style="color-interpolation-filters:sRGB"
       id="filter250"
       x="-0.049020908"
       y="-0.018630781"
       width="1.0980418"
       height="1.0372616">
      <feGaussianBlur
         inkscape:collect="always"
         stdDeviation="0.74453569"
         id="feGaussianBlur250" />
    </filter>
    <inkscape:path-effect
       effect="fillet_chamfer"
       id="path-effect24150"
       is_visible="true"
       lpeversion="1"
       nodesatellites_param="F,0,0,1,0,5.2787696,0,1 @ F,0,1,1,0,5.2787696,0,1 @ F,0,1,1,0,5.2787696,0,1 @ F,0,1,1,0,5.2787696,0,1"
       radius="0"
       unit="px"
       method="auto"
       mode="F"
       chamfer_steps="1"
       flexible="false"
       use_knot_distance="true"
       apply_no_radius="true"
       apply_with_radius="true"
       only_selected="false"
       hide_knots="false" />
    <inkscape:path-effect
       effect="fillet_chamfer"
       id="path-effect24152"
       is_visible="true"
       lpeversion="1"
       nodesatellites_param="F,0,0,1,0,5.1421543,0,1 @ F,0,1,1,0,5.1421543,0,1 @ F,0,1,1,0,5.1421543,0,1 @ F,0,1,1,0,5.1421543,0,1"
       radius="0"
       unit="px"
       method="auto"
       mode="F"
       chamfer_steps="1"
       flexible="false"
       use_knot_distance="true"
       apply_no_radius="true"
       apply_with_radius="true"
       only_selected="false"
       hide_knots="false" />
    <clipPath
       clipPathUnits="userSpaceOnUse"
       id="clipPath1">
      <path
         id="path1"
         style="fill:#5020df;fill-opacity:1;fill-rule:evenodd;stroke:none;stroke-width:5.00002;stroke-linecap:round;stroke-linejoin:round"
         d="m -2510.4201,4189.3611 26.9362,-11.0482 a 3.4487631,3.4487631 0 0 1 4.7575,3.1906 v 115.5284 a 3.4487631,3.4487631 0 0 1 -4.7575,3.1909 l -26.9362,-11.0482 a 7.6670247,7.6670247 0 0 1 -4.7575,-7.0937 v -85.6264 a 7.6670247,7.6670247 0 0 1 4.7575,-7.0934 z"
         sodipodi:nodetypes="ccccc" />
    </clipPath>
  </defs>
  <g
     inkscape:label="Layer 1"
     inkscape:groupmode="layer"
     id="layer1"
     transform="translate(405.8385,28.039751)">
    <text
       xml:space="preserve"
       style="font-style:normal;font-variant:normal;font-weight:normal;font-stretch:normal;font-size:7.58971px;line-height:1.25;font-family:'IBM Plex Sans Arabic';-inkscape-font-specification:'IBM Plex Sans Arabic, Normal';font-variant-ligatures:normal;font-variant-caps:normal;font-variant-numeric:normal;font-variant-east-asian:normal;letter-spacing:0px;white-space:pre;inline-size:194.542;display:inline;fill:#5020df;fill-opacity:1;stroke:none;stroke-width:0.474356"
       x="-753.65961"
       y="1349.4268"
       id="text6712"
       transform="matrix(0.55777249,0,0,0.55777249,16.886134,-620.25632)"><tspan
         x="-753.65961"
         y="1349.4268"
         id="tspan1952"
         style="font-size:7.58971px;stroke-width:0.474356;fill:#5020df;fill-opacity:1"><tspan
   style="font-weight:bold;font-size:7.58971px;-inkscape-font-specification:'IBM Plex Sans Arabic Bold';stroke-width:0.474356;fill:#5020df;fill-opacity:1"
   id="tspan1951">Memo</tspan>
210 × 99 mm</tspan></text>
    <text
       xml:space="preserve"
       transform="matrix(0.26458333,0,0,0.26458333,-405.8385,-28.039751)"
       id="text39"
       style="line-height:1.25;font-family:Rubik;font-size:24px;letter-spacing:0px;-inkscape-font-specification:'Rubik, Normal';text-orientation:auto;direction:rtl;white-space:pre;shape-inside:url(#rect39)"><tspan
         sodipodi:role="line"
         id="tspan39" /></text>
    <g
       id="g40"
       transform="matrix(0.41654811,0,0,0.41654811,-347.81054,-4825.825)"
       style="stroke-width:2.40068">
      <rect
         style="fill:#ffffff;fill-rule:evenodd;stroke-width:2.54072;stroke-linecap:round;stroke-linejoin:round"
         id="rect40"
         width="221.1465"
         height="286.18958"
         x="-139.30676"
         y="11603.532" />
    </g>
    <path
       style="fill:none;fill-rule:evenodd;stroke:#1d1339;stroke-width:0.125;stroke-linecap:round;stroke-linejoin:round;stroke-dasharray:0.375001, 0.375001;stroke-dashoffset:0;stroke-opacity:1"
       d="m -397.80743,33.924393 h 76.05602"
       id="path2703" />
    <path
       style="fill:none;fill-rule:evenodd;stroke:#1d1339;stroke-width:0.125;stroke-linecap:round;stroke-linejoin:round;stroke-dasharray:0.375001, 0.375001;stroke-dashoffset:0;stroke-opacity:1"
       d="m -397.80743,37.709566 h 76.05602"
       id="path2705" />
    <path
       style="fill:none;fill-rule:evenodd;stroke:#1d1339;stroke-width:0.125;stroke-linecap:round;stroke-linejoin:round;stroke-dasharray:0.375001, 0.375001;stroke-dashoffset:0;stroke-opacity:1"
       d="m -397.80743,41.494739 h 76.05602"
       id="path2706" />
    <path
       style="fill:none;fill-rule:evenodd;stroke:#1d1339;stroke-width:0.125;stroke-linecap:round;stroke-linejoin:round;stroke-dasharray:0.375001, 0.375001;stroke-dashoffset:0;stroke-opacity:1"
       d="m -397.80743,45.279911 h 76.05602"
       id="path2704" />
    <path
       style="fill:none;fill-rule:evenodd;stroke:#1d1339;stroke-width:0.125;stroke-linecap:round;stroke-linejoin:round;stroke-dasharray:0.375001, 0.375001;stroke-dashoffset:0;stroke-opacity:1"
       d="m -397.80743,49.065085 h 76.05602"
       id="path2712" />
    <path
       style="fill:none;fill-rule:evenodd;stroke:#1d1339;stroke-width:0.125;stroke-linecap:round;stroke-linejoin:round;stroke-dasharray:0.375001, 0.375001;stroke-dashoffset:0;stroke-opacity:1"
       d="m -397.80743,64.205776 h 76.05602"
       id="path2708" />
    <path
       style="fill:none;fill-rule:evenodd;stroke:#1d1339;stroke-width:0.125;stroke-linecap:round;stroke-linejoin:round;stroke-dasharray:0.375001, 0.375001;stroke-dashoffset:0;stroke-opacity:1"
       d="m -397.80743,52.850257 h 76.05602"
       id="path2713" />
    <path
       style="fill:none;fill-rule:evenodd;stroke:#1d1339;stroke-width:0.125;stroke-linecap:round;stroke-linejoin:round;stroke-dasharray:0.375001, 0.375001;stroke-dashoffset:0;stroke-opacity:1"
       d="m -397.80743,67.990949 h 76.05602"
       id="path2709" />
    <path
       style="fill:none;fill-rule:evenodd;stroke:#1d1339;stroke-width:0.125;stroke-linecap:round;stroke-linejoin:round;stroke-dasharray:0.375001, 0.375001;stroke-dashoffset:0;stroke-opacity:1"
       d="m -397.80743,56.635431 h 76.05602"
       id="path2714" />
    <path
       style="fill:none;fill-rule:evenodd;stroke:#1d1339;stroke-width:0.125;stroke-linecap:round;stroke-linejoin:round;stroke-dasharray:0.375001, 0.375001;stroke-dashoffset:0;stroke-opacity:1"
       d="m -397.80743,71.776121 h 76.05602"
       id="path2710" />
    <path
       style="fill:none;fill-rule:evenodd;stroke:#1d1339;stroke-width:0.125;stroke-linecap:round;stroke-linejoin:round;stroke-dasharray:0.375001, 0.375001;stroke-dashoffset:0;stroke-opacity:1"
       d="m -397.80743,60.420603 h 76.05602"
       id="path2715" />
    <path
       style="fill:none;fill-rule:evenodd;stroke:#1d1339;stroke-width:0.125;stroke-linecap:round;stroke-linejoin:round;stroke-dasharray:0.375001, 0.375001;stroke-dashoffset:0;stroke-opacity:1"
       d="m -397.80743,75.561295 h 76.05602"
       id="path2711" />
    <path
       style="fill:none;fill-rule:evenodd;stroke:#1d1339;stroke-width:0.125;stroke-linecap:round;stroke-linejoin:round;stroke-dasharray:0.375001, 0.375001;stroke-dashoffset:0;stroke-opacity:1"
       d="m -397.80743,79.346467 h 76.05602"
       id="path2716" />
    <path
       style="fill:none;fill-rule:evenodd;stroke:#1d1339;stroke-width:0.125;stroke-linecap:round;stroke-linejoin:round;stroke-dasharray:0.375001, 0.375001;stroke-dashoffset:0;stroke-opacity:1"
       d="m -397.80743,83.131641 h 76.05602"
       id="path2717" />
    <path
       style="fill:none;fill-rule:evenodd;stroke:#1d1339;stroke-width:0.125;stroke-linecap:round;stroke-linejoin:round;stroke-dasharray:0.375001, 0.375001;stroke-dashoffset:0;stroke-opacity:1"
       d="m -397.80743,86.916813 h 76.05602"
       id="path2718" />
    <path
       style="fill:none;fill-rule:evenodd;stroke:#1d1339;stroke-width:0.125;stroke-linecap:round;stroke-linejoin:round;stroke-dasharray:0.375001, 0.375001;stroke-dashoffset:0;stroke-opacity:1"
       d="m -397.80743,90.701986 h 76.05602"
       id="path2719" />
    <path
       style="fill:none;fill-rule:evenodd;stroke:#1d1339;stroke-width:0.125;stroke-linecap:round;stroke-linejoin:round;stroke-dasharray:0.375001, 0.375001;stroke-dashoffset:0;stroke-opacity:1"
       d="m -397.80743,94.487159 h 76.05602"
       id="path2720" />
    <path
       style="fill:none;fill-rule:evenodd;stroke:#1d1339;stroke-width:0.125;stroke-linecap:round;stroke-linejoin:round;stroke-dasharray:0.375001, 0.375001;stroke-dashoffset:0;stroke-opacity:1"
       d="m -397.80743,109.62785 h 76.05602"
       id="path2721" />
    <path
       style="fill:none;fill-rule:evenodd;stroke:#1d1339;stroke-width:0.125;stroke-linecap:round;stroke-linejoin:round;stroke-dasharray:0.375001, 0.375001;stroke-dashoffset:0;stroke-opacity:1"
       d="m -397.80743,98.272332 h 76.05602"
       id="path2722" />
    <path
       style="fill:none;fill-rule:evenodd;stroke:#1d1339;stroke-width:0.125;stroke-linecap:round;stroke-linejoin:round;stroke-dasharray:0.375001, 0.375001;stroke-dashoffset:0;stroke-opacity:1"
       d="m -397.80743,113.41303 h 76.05602"
       id="path2723" />
    <path
       style="fill:none;fill-rule:evenodd;stroke:#1d1339;stroke-width:0.125;stroke-linecap:round;stroke-linejoin:round;stroke-dasharray:0.375001, 0.375001;stroke-dashoffset:0;stroke-opacity:1"
       d="m -397.80743,102.0575 h 76.05602"
       id="path2724" />
    <path
       style="fill:none;fill-rule:evenodd;stroke:#1d1339;stroke-width:0.125;stroke-linecap:round;stroke-linejoin:round;stroke-dasharray:0.375001, 0.375001;stroke-dashoffset:0;stroke-opacity:1"
       d="m -397.80743,105.84268 h 76.05602"
       id="path2726" />
    <path
       style="font-size:3.175px;line-height:1.5;font-family:'IBM Plex Sans Arabic';-inkscape-font-specification:'IBM Plex Sans Arabic, Normal';letter-spacing:0px;word-spacing:0px;white-space:pre;inline-size:166.594;fill:#5020df;stroke-width:0.250032;stroke-linecap:round;stroke-miterlimit:10"
       d="m -364.06731,121.31466 h 0.10744 l 0.0757,0.30717 0.0758,0.31129 h 0.003 l 0.0868,-0.31129 0.0895,-0.30717 h 0.0978 l 0.0923,0.30717 0.0882,0.31129 h 0.003 l 0.073,-0.31129 0.0771,-0.30717 h 0.1033 l -0.1887,0.71074 h -0.13636 l -0.0992,-0.34159 -0.062,-0.21625 h -0.003 l -0.0606,0.21625 -0.0992,0.34159 h -0.13361 z m 1.05785,0 h 0.10743 l 0.0758,0.30717 0.0758,0.31129 h 0.003 l 0.0868,-0.31129 0.0895,-0.30717 h 0.0978 l 0.0923,0.30717 0.0881,0.31129 h 0.003 l 0.073,-0.31129 0.0771,-0.30717 h 0.10331 l -0.18871,0.71074 h -0.13636 l -0.0992,-0.34159 -0.062,-0.21625 h -0.003 l -0.0606,0.21625 -0.0992,0.34159 h -0.1336 z m 1.05784,0 h 0.10743 l 0.0758,0.30717 0.0758,0.31129 h 0.003 l 0.0868,-0.31129 0.0895,-0.30717 h 0.0978 l 0.0923,0.30717 0.0881,0.31129 h 0.003 l 0.073,-0.31129 0.0771,-0.30717 h 0.10331 l -0.1887,0.71074 h -0.13637 l -0.0992,-0.34159 -0.062,-0.21625 h -0.003 l -0.0606,0.21625 -0.0992,0.34159 h -0.13361 z m 1.16115,0.72727 q -0.0441,0 -0.0647,-0.022 -0.0193,-0.022 -0.0193,-0.0579 v -0.0179 q 0,-0.0358 0.0193,-0.0579 0.0206,-0.022 0.0647,-0.022 0.0441,0 0.0634,0.022 0.0207,0.022 0.0207,0.0579 v 0.0179 q 0,0.0358 -0.0207,0.0579 -0.0193,0.022 -0.0634,0.022 z m 0.55922,0 q -0.0716,0 -0.13085,-0.0262 -0.0592,-0.0262 -0.10193,-0.0744 -0.0413,-0.0496 -0.0647,-0.11708 -0.0234,-0.0689 -0.0234,-0.15427 0,-0.084 0.0234,-0.15289 0.0234,-0.0689 0.0647,-0.11708 0.0427,-0.0496 0.10193,-0.0757 0.0592,-0.0262 0.13085,-0.0262 0.0716,0 0.12947,0.0262 0.0592,0.0262 0.10193,0.0757 0.0427,0.0482 0.0661,0.11708 0.0234,0.0689 0.0234,0.15289 0,0.0854 -0.0234,0.15427 -0.0234,0.0675 -0.0661,0.11708 -0.0427,0.0482 -0.10193,0.0744 -0.0579,0.0262 -0.12947,0.0262 z m 0,-0.0978 q 0.0895,0 0.146,-0.0551 0.0565,-0.0551 0.0565,-0.16804 v -0.10193 q 0,-0.11295 -0.0565,-0.16804 -0.0565,-0.0551 -0.146,-0.0551 -0.0895,0 -0.14601,0.0551 -0.0565,0.0551 -0.0565,0.16804 v 0.10193 q 0,0.11295 0.0565,0.16804 0.0565,0.0551 0.14601,0.0551 z m 0.71625,0.0978 q -0.0992,0 -0.16667,-0.0372 -0.0661,-0.0386 -0.11432,-0.10193 l 0.0785,-0.0634 q 0.0413,0.0523 0.0923,0.0813 0.051,0.0276 0.11846,0.0276 0.0703,0 0.10882,-0.0303 0.04,-0.0303 0.04,-0.0854 0,-0.0413 -0.0275,-0.0702 -0.0262,-0.0303 -0.0964,-0.0413 l -0.0565,-0.008 q -0.0496,-0.007 -0.0909,-0.0206 -0.0413,-0.0151 -0.073,-0.0386 -0.0303,-0.0248 -0.0482,-0.0606 -0.0165,-0.0358 -0.0165,-0.0854 0,-0.0523 0.0193,-0.0909 0.0193,-0.04 0.0523,-0.0661 0.0344,-0.0262 0.0813,-0.0386 0.0468,-0.0137 0.10056,-0.0137 0.0868,0 0.14462,0.0303 0.0592,0.0303 0.10331,0.084 l -0.073,0.0661 q -0.0234,-0.033 -0.0689,-0.0592 -0.0455,-0.0275 -0.11433,-0.0275 -0.0689,0 -0.10468,0.0303 -0.0344,0.0289 -0.0344,0.0799 0,0.0523 0.0344,0.0758 0.0358,0.0234 0.10193,0.0344 l 0.0551,0.008 q 0.11846,0.0179 0.16805,0.0689 0.0496,0.0496 0.0496,0.13085 0,0.1033 -0.0702,0.16253 -0.0702,0.0592 -0.19283,0.0592 z m 0.72588,0 q -0.0716,0 -0.13085,-0.0262 -0.0592,-0.0262 -0.10192,-0.0744 -0.0413,-0.0496 -0.0647,-0.11708 -0.0234,-0.0689 -0.0234,-0.15427 0,-0.084 0.0234,-0.15289 0.0234,-0.0689 0.0647,-0.11708 0.0427,-0.0496 0.10192,-0.0757 0.0592,-0.0262 0.13085,-0.0262 0.0716,0 0.12948,0.0262 0.0592,0.0262 0.10193,0.0757 0.0427,0.0482 0.0661,0.11708 0.0234,0.0689 0.0234,0.15289 0,0.0854 -0.0234,0.15427 -0.0234,0.0675 -0.0661,0.11708 -0.0427,0.0482 -0.10193,0.0744 -0.0579,0.0262 -0.12948,0.0262 z m 0,-0.0978 q 0.0895,0 0.14601,-0.0551 0.0565,-0.0551 0.0565,-0.16804 v -0.10193 q 0,-0.11295 -0.0565,-0.16804 -0.0565,-0.0551 -0.14601,-0.0551 -0.0895,0 -0.146,0.0551 -0.0565,0.0551 -0.0565,0.16804 v 0.10193 q 0,0.11295 0.0565,0.16804 0.0565,0.0551 0.146,0.0551 z m 0.94077,-0.0344 h -0.006 q -0.011,0.0248 -0.0276,0.0496 -0.0151,0.0234 -0.0386,0.0427 -0.0234,0.0179 -0.0565,0.0289 -0.0331,0.011 -0.0771,0.011 -0.1102,0 -0.17493,-0.0702 -0.0647,-0.0716 -0.0647,-0.2011 v -0.45593 h 0.11019 v 0.43664 q 0,0.19146 0.16253,0.19146 0.0331,0 0.0634,-0.008 0.0317,-0.008 0.0551,-0.0248 0.0248,-0.0165 0.0386,-0.0413 0.0151,-0.0262 0.0151,-0.062 v -0.49173 h 0.11019 v 0.71074 h -0.11019 z m 0.46143,0.1157 q -0.0579,0 -0.0882,-0.0317 -0.0289,-0.0331 -0.0289,-0.0826 v -0.90495 h 0.11019 v 0.92285 h 0.10468 v 0.0964 z m 0.34159,0.0165 q -0.0441,0 -0.0647,-0.022 -0.0193,-0.022 -0.0193,-0.0579 v -0.0179 q 0,-0.0358 0.0193,-0.0579 0.0206,-0.022 0.0647,-0.022 0.0441,0 0.0634,0.022 0.0207,0.022 0.0207,0.0579 v 0.0179 q 0,0.0358 -0.0207,0.0579 -0.0193,0.022 -0.0634,0.022 z m 0.5179,0 q -0.0992,0 -0.16666,-0.0372 -0.0661,-0.0386 -0.11433,-0.10192 l 0.0785,-0.0634 q 0.0413,0.0523 0.0923,0.0813 0.051,0.0276 0.11846,0.0276 0.0702,0 0.10881,-0.0303 0.04,-0.0303 0.04,-0.0854 0,-0.0413 -0.0275,-0.0702 -0.0262,-0.0303 -0.0964,-0.0413 l -0.0565,-0.008 q -0.0496,-0.007 -0.0909,-0.0206 -0.0413,-0.0151 -0.073,-0.0386 -0.0303,-0.0248 -0.0482,-0.0606 -0.0165,-0.0358 -0.0165,-0.0854 0,-0.0523 0.0193,-0.0909 0.0193,-0.04 0.0523,-0.0661 0.0344,-0.0262 0.0813,-0.0386 0.0468,-0.0137 0.10056,-0.0137 0.0868,0 0.14462,0.0303 0.0592,0.0303 0.10331,0.084 l -0.073,0.0661 q -0.0234,-0.0331 -0.0689,-0.0592 -0.0455,-0.0275 -0.11433,-0.0275 -0.0689,0 -0.10468,0.0303 -0.0345,0.0289 -0.0345,0.0799 0,0.0523 0.0345,0.0758 0.0358,0.0234 0.10193,0.0344 l 0.0551,0.008 q 0.11846,0.0179 0.16805,0.0689 0.0496,0.0496 0.0496,0.13085 0,0.10331 -0.0703,0.16254 -0.0702,0.0592 -0.19283,0.0592 z m 0.97382,-0.0165 q -0.062,0 -0.0895,-0.0331 -0.0262,-0.0331 -0.033,-0.0827 h -0.007 q -0.0234,0.0661 -0.0771,0.0992 -0.0537,0.0331 -0.12809,0.0331 -0.11295,0 -0.17631,-0.0579 -0.062,-0.0579 -0.062,-0.15702 0,-0.10055 0.073,-0.15427 0.0744,-0.0537 0.23002,-0.0537 h 0.1405 v -0.0702 q 0,-0.0757 -0.0413,-0.1157 -0.0413,-0.04 -0.12672,-0.04 -0.0647,0 -0.10881,0.0289 -0.0427,0.0289 -0.0716,0.0771 l -0.0661,-0.062 q 0.0289,-0.0579 0.0923,-0.0978 0.0634,-0.0413 0.15978,-0.0413 0.12947,0 0.2011,0.0634 0.0716,0.0634 0.0716,0.17631 v 0.39118 h 0.0813 v 0.0964 z m -0.3168,-0.0771 q 0.0413,0 0.0758,-0.01 0.0345,-0.01 0.0592,-0.0275 0.0248,-0.0179 0.0386,-0.0413 0.0138,-0.0234 0.0138,-0.051 v -0.11708 h -0.14601 q -0.095,0 -0.13911,0.0275 -0.0427,0.0275 -0.0427,0.0799 v 0.0289 q 0,0.0523 0.0372,0.0813 0.0386,0.0289 0.1033,0.0289 z"
       id="text2599"
       aria-label="www.osoul.sa" />
    <g
       id="g24149"
       transform="matrix(0.09233389,0,0,0.09233389,-209.51329,-330.049)"
       style="stroke-width:10.8302">
      <g
         id="g24147"
         transform="translate(1635.1419,-735.93259)"
         style="stroke-width:10.8302">
        <path
           id="path24144"
           style="fill:#1d1339;fill-rule:evenodd;stroke-width:54.1514;stroke-linecap:round;stroke-linejoin:round"
           d="m -2509.8987,4191.3125 h 39.5145 a 5.2787641,5.2787641 45.00003 0 1 5.2788,5.2788 l -1e-4,85.353 a 5.2787751,5.2787751 135.00003 0 1 -5.2788,5.2788 h -39.5145 a 5.2787641,5.2787641 45.00003 0 1 -5.2788,-5.2788 l 1e-4,-85.353 a 5.2787751,5.2787751 135.00003 0 1 5.2788,-5.2788 z"
           sodipodi:nodetypes="ccccc"
           transform="translate(-384.9276,242.70973)" />
        <path
           id="path24145"
           style="fill:#5020df;fill-opacity:1;fill-rule:evenodd;stroke:none;stroke-width:54.1514;stroke-linecap:round;stroke-linejoin:round"
           d="m -2510.4201,4189.361 26.9362,-11.0482 a 3.448763,3.448763 33.849143 0 1 4.7575,3.1908 v 115.5283 a 3.448763,3.448763 146.15086 0 1 -4.7575,3.1908 l -26.9362,-11.0482 a 7.6670246,7.6670246 56.150857 0 1 -4.7575,-7.0936 v -85.6263 a 7.6670246,7.6670246 123.84914 0 1 4.7575,-7.0936 z"
           sodipodi:nodetypes="ccccc"
           transform="translate(-384.9276,242.70973)" />
        <path
           id="path24146"
           style="fill:#371a8c;fill-opacity:1;fill-rule:evenodd;stroke-width:54.1514;stroke-linecap:round;stroke-linejoin:round;filter:url(#filter250)"
           d="m -2509.8989,4191.3125 a 5.2787751,5.2787751 0 0 0 -5.2788,5.2787 v 85.3529 a 5.2787641,5.2787641 0 0 0 5.2788,5.2788 h 31.1727 v -95.9104 z"
           transform="translate(-384.9276,242.70978)"
           clip-path="url(#clipPath218)" />
        <path
           id="path24147"
           style="fill:#ffcc00;fill-opacity:1;fill-rule:evenodd;stroke:none;stroke-width:54.1514;stroke-linecap:round;stroke-linejoin:round;stroke-dasharray:none"
           d="m -2875.1396,4478.4566 c -1.3725,0.016 -2.4548,1.2486 -2.4546,2.7546 0,1.506 1.0822,2.7814 2.4546,2.8509 1.4154,0.072 2.5956,-1.1593 2.5955,-2.7515 2e-4,-1.5922 -1.1801,-2.8699 -2.5955,-2.854 z" />
      </g>
      <g
         id="g24148"
         transform="matrix(0.91823404,0,0,0.91823404,1057.5206,-145.27859)"
         style="stroke-width:11.7947">
        <path
           id="path24148"
           style="font-size:15.3852px;line-height:1.25;font-family:'IBM Plex Sans Arabic';-inkscape-font-specification:'IBM Plex Sans Arabic';letter-spacing:10.2645px;fill:#5020df;fill-opacity:1;stroke-width:3.12068"
           d="m -2555.5034,4269.7519 v 7.97 c 0,0.3537 0.1145,1.2769 1.308,1.2769 h 1.0919 v -1.0769 h -1.1689 v -8.17 z m -71.5207,1.1239 c -2.0823,0 -3.5848,1.5854 -3.5848,4.1538 0,2.5034 1.4175,4.1542 3.5848,4.1542 2.1657,0 3.5848,-1.689 3.5848,-4.1542 0,-2.7377 -1.6776,-4.1538 -3.5848,-4.1538 z m 18.28,0 c -1.4279,0 -2.8308,0.6485 -2.8308,2.3389 0,1.7646 1.6612,2.2299 3.1848,2.3844 0.899,0.1411 1.3844,0.5425 1.3844,1.2459 0,0.7852 -0.5791,1.2924 -1.6614,1.2924 -0.5879,0 -1.4797,-0.1082 -2.3538,-1.2154 l -0.877,0.7079 c 1.1424,1.5019 2.464,1.5539 3.1383,1.5539 1.8456,0 2.9389,-0.9468 2.9389,-2.4773 0,-1.6912 -1.4301,-2.0796 -2.4309,-2.2309 -0.8694,-0.13 -2.1113,-0.2125 -2.1383,-1.3229 0,-0.6753 0.4302,-1.2304 1.5533,-1.2304 1.2464,0 1.8634,0.7106 2.0464,0.9689 l 0.8155,-0.7384 c -1.0458,-1.277 -2.301,-1.277 -2.7694,-1.277 z m 18.3571,0 c -2.0823,0 -3.5848,1.5854 -3.5848,4.1538 0,2.5034 1.4175,4.1542 3.5848,4.1542 2.1657,0 3.5848,-1.689 3.5848,-4.1542 0,-2.7377 -1.6776,-4.1538 -3.5848,-4.1538 z m 15.8037,0.1845 v 5.0927 c 0,2.0778 1.1547,3.0308 2.6773,3.0308 0.8757,0 1.6937,-0.2685 2.2309,-1.4769 h 0.061 l 5e-4,1.2925 h 1.2304 v -7.9386 h -1.2304 v 5.4922 c 0,1.3729 -1.5013,1.5229 -1.9234,1.5229 -1.2103,0 -1.8154,-0.7127 -1.8154,-2.1384 v -4.8772 z m -52.4408,0.9075 c 1.9987,0 2.2614,1.9053 2.2614,3.6313 0,0.7426 -0.1763,2.4923 -2.2614,2.4923 -2.0446,0 -2.2619,-1.7496 -2.2619,-2.4923 0,-1.6532 0.1329,-3.6313 2.2619,-3.6313 z m 36.6371,0 c 1.9987,0 2.2618,1.9053 2.2618,3.6313 0,0.7426 -0.1767,2.4923 -2.2618,2.4923 -2.0446,0 -2.2614,-1.7496 -2.2614,-2.4923 0,-1.6532 0.1324,-3.6313 2.2614,-3.6313 z" />
      </g>
      <path
         id="path24149"
         style="font-weight:bold;font-size:66.3308px;line-height:1.25;font-family:'IBM Plex Sans Arabic';-inkscape-font-specification:'IBM Plex Sans Arabic Bold';letter-spacing:0px;fill:#5020df;fill-opacity:1;stroke-width:2.8655"
         d="m -1300.9827,3707.7206 c -3.891,0 -6.7,2.9061 -6.7,6.766 0,2.2351 1.111,4.0184 2.786,5.1072 v 0.3318 l -7.827,3.5817 1.924,4.2452 9.552,-4.3775 c 4.599,-2.0783 6.898,-5.1074 6.898,-9.0873 0,-3.7602 -2.792,-6.5671 -6.633,-6.5671 z m -0.08,4.639 c 0.622,0.024 1.236,0.2583 1.668,0.7338 0.562,0.5106 1.69,2.5999 -0.663,4.3119 -1.636,-0.8182 -4.782,-2.4804 -2.72,-4.5108 0.463,-0.3706 1.093,-0.5584 1.715,-0.5349 z m 11.551,6.9924 c -4.171,0 -7.23,2.6134 -7.23,6.4342 0,1.3708 0.442,2.5427 1.327,3.5156 l -0.07,0.3317 h -2.786 v 5.3728 h 15.721 v -5.8374 h -4.909 c -3.051,0 -4.577,-0.7292 -4.577,-2.1885 0,-0.9495 0.911,-1.7911 2.521,-1.7911 1.371,0 2.587,0.5304 3.648,1.5917 l 3.184,-4.4442 c -1.587,-1.6661 -4.018,-2.9848 -6.832,-2.9848 z m -113.292,9.1932 v 33.06 c -0.08,9.5201 -4.618,12.9239 -14.659,12.0055 -5.02,0 -9.353,-2.4535 -9.353,-8.7556 0,-4.1899 1.942,-8.8549 2.852,-10.8117 l -6.368,-1.8573 c -2.034,4.8998 -3.117,9.9816 -3.117,13.9956 0,7.2062 2.629,18.1746 18.639,18.1746 13.876,0 19.965,-7.3896 19.965,-22.7511 v -33.06 z m 108.45,8.7959 v 31.0957 h 7.96 v -31.0957 z m -22.618,0.3844 c -12.652,-0.263 -19.064,10.1834 -24.675,20.0324 -1.062,-0.7076 -1.592,-2.0126 -1.592,-3.914 v -4.1785 h -7.297 v 4.1785 c 0,3.0954 -1.769,4.6432 -5.306,4.6432 h -5.373 c -0.442,-11.404 -5.317,-18.108 -13.399,-18.108 -6.268,0 -13.598,5.2271 -13.598,16.1184 0,7.6732 4.256,11.9393 11.409,11.9393 h 7.695 c -4.383,6.4245 -12.81,5.9697 -19.767,5.9697 v 9.9498 c 13.385,0.1791 22.096,-1.3461 26.798,-15.9195 h 2.255 c 5.205,0 8.395,-2.177 9.75,-8.9545 h 0.398 c 1.33,6.6457 5.116,8.9545 11.741,8.9545 h 18.971 c 11.793,0 17.644,-4.2668 17.644,-14.5262 0,-6.2847 -2.145,-16.1851 -15.654,-16.1851 z m 0.689,9.9126 c 3.988,0.021 8.173,0.9372 8.331,5.6751 0,4.1613 -2.545,5.1739 -11.01,5.1739 h -16.649 l -0.199,-0.398 c 5.041,-8.1859 7.33,-10.4138 17.842,-10.4138 0.55,-0.025 1.115,-0.04 1.685,-0.037 z m -59.193,2.6903 c 3.639,0 7.628,2.336 7.628,8.1587 h -8.291 c -5.141,0 -5.44,-2.1772 -5.44,-3.3161 0,-3.0717 2.941,-4.8426 6.103,-4.8426 z" />
    </g>
    <g
       id="g2"
       transform="matrix(0.41654811,0,0,0.41654811,-249.42869,-4825.825)"
       style="stroke-width:2.40068">
      <rect
         style="fill:#ffffff;fill-rule:evenodd;stroke-width:2.54072;stroke-linecap:round;stroke-linejoin:round"
         id="rect2"
         width="221.1465"
         height="286.18958"
         x="-139.30676"
         y="11603.532" />
    </g>
    <path
       style="font-size:3.175px;line-height:1.5;font-family:'IBM Plex Sans Arabic';-inkscape-font-specification:'IBM Plex Sans Arabic, Normal';letter-spacing:0px;word-spacing:0px;white-space:pre;inline-size:166.594;fill:#5020df;stroke-width:0.250032;stroke-linecap:round;stroke-miterlimit:10"
       d="m -265.68546,121.31466 h 0.10744 l 0.0757,0.30717 0.0758,0.31129 h 0.003 l 0.0868,-0.31129 0.0895,-0.30717 h 0.0978 l 0.0923,0.30717 0.0882,0.31129 h 0.003 l 0.073,-0.31129 0.0771,-0.30717 h 0.1033 l -0.1887,0.71074 h -0.13636 l -0.0992,-0.34159 -0.062,-0.21625 h -0.003 l -0.0606,0.21625 -0.0992,0.34159 h -0.13361 z m 1.05785,0 h 0.10743 l 0.0758,0.30717 0.0758,0.31129 h 0.003 l 0.0868,-0.31129 0.0895,-0.30717 h 0.0978 l 0.0923,0.30717 0.0881,0.31129 h 0.003 l 0.073,-0.31129 0.0771,-0.30717 h 0.10331 l -0.18871,0.71074 h -0.13636 l -0.0992,-0.34159 -0.062,-0.21625 h -0.003 l -0.0606,0.21625 -0.0992,0.34159 h -0.1336 z m 1.05784,0 h 0.10743 l 0.0758,0.30717 0.0758,0.31129 h 0.003 l 0.0868,-0.31129 0.0895,-0.30717 h 0.0978 l 0.0923,0.30717 0.0881,0.31129 h 0.003 l 0.073,-0.31129 0.0771,-0.30717 h 0.10331 l -0.1887,0.71074 h -0.13637 l -0.0992,-0.34159 -0.062,-0.21625 h -0.003 l -0.0606,0.21625 -0.0992,0.34159 h -0.13361 z m 1.16115,0.72727 q -0.0441,0 -0.0647,-0.022 -0.0193,-0.022 -0.0193,-0.0579 v -0.0179 q 0,-0.0358 0.0193,-0.0579 0.0206,-0.022 0.0647,-0.022 0.0441,0 0.0634,0.022 0.0207,0.022 0.0207,0.0579 v 0.0179 q 0,0.0358 -0.0207,0.0579 -0.0193,0.022 -0.0634,0.022 z m 0.55922,0 q -0.0716,0 -0.13085,-0.0262 -0.0592,-0.0262 -0.10193,-0.0744 -0.0413,-0.0496 -0.0647,-0.11708 -0.0234,-0.0689 -0.0234,-0.15427 0,-0.084 0.0234,-0.15289 0.0234,-0.0689 0.0647,-0.11708 0.0427,-0.0496 0.10193,-0.0757 0.0592,-0.0262 0.13085,-0.0262 0.0716,0 0.12947,0.0262 0.0592,0.0262 0.10193,0.0757 0.0427,0.0482 0.0661,0.11708 0.0234,0.0689 0.0234,0.15289 0,0.0854 -0.0234,0.15427 -0.0234,0.0675 -0.0661,0.11708 -0.0427,0.0482 -0.10193,0.0744 -0.0579,0.0262 -0.12947,0.0262 z m 0,-0.0978 q 0.0895,0 0.146,-0.0551 0.0565,-0.0551 0.0565,-0.16804 v -0.10193 q 0,-0.11295 -0.0565,-0.16804 -0.0565,-0.0551 -0.146,-0.0551 -0.0895,0 -0.14601,0.0551 -0.0565,0.0551 -0.0565,0.16804 v 0.10193 q 0,0.11295 0.0565,0.16804 0.0565,0.0551 0.14601,0.0551 z m 0.71625,0.0978 q -0.0992,0 -0.16667,-0.0372 -0.0661,-0.0386 -0.11432,-0.10193 l 0.0785,-0.0634 q 0.0413,0.0523 0.0923,0.0813 0.051,0.0276 0.11846,0.0276 0.0703,0 0.10882,-0.0303 0.04,-0.0303 0.04,-0.0854 0,-0.0413 -0.0275,-0.0702 -0.0262,-0.0303 -0.0964,-0.0413 l -0.0565,-0.008 q -0.0496,-0.007 -0.0909,-0.0206 -0.0413,-0.0151 -0.073,-0.0386 -0.0303,-0.0248 -0.0482,-0.0606 -0.0165,-0.0358 -0.0165,-0.0854 0,-0.0523 0.0193,-0.0909 0.0193,-0.04 0.0523,-0.0661 0.0344,-0.0262 0.0813,-0.0386 0.0468,-0.0137 0.10056,-0.0137 0.0868,0 0.14462,0.0303 0.0592,0.0303 0.10331,0.084 l -0.073,0.0661 q -0.0234,-0.033 -0.0689,-0.0592 -0.0455,-0.0275 -0.11433,-0.0275 -0.0689,0 -0.10468,0.0303 -0.0344,0.0289 -0.0344,0.0799 0,0.0523 0.0344,0.0758 0.0358,0.0234 0.10193,0.0344 l 0.0551,0.008 q 0.11846,0.0179 0.16805,0.0689 0.0496,0.0496 0.0496,0.13085 0,0.1033 -0.0702,0.16253 -0.0702,0.0592 -0.19283,0.0592 z m 0.72588,0 q -0.0716,0 -0.13085,-0.0262 -0.0592,-0.0262 -0.10192,-0.0744 -0.0413,-0.0496 -0.0647,-0.11708 -0.0234,-0.0689 -0.0234,-0.15427 0,-0.084 0.0234,-0.15289 0.0234,-0.0689 0.0647,-0.11708 0.0427,-0.0496 0.10192,-0.0757 0.0592,-0.0262 0.13085,-0.0262 0.0716,0 0.12948,0.0262 0.0592,0.0262 0.10193,0.0757 0.0427,0.0482 0.0661,0.11708 0.0234,0.0689 0.0234,0.15289 0,0.0854 -0.0234,0.15427 -0.0234,0.0675 -0.0661,0.11708 -0.0427,0.0482 -0.10193,0.0744 -0.0579,0.0262 -0.12948,0.0262 z m 0,-0.0978 q 0.0895,0 0.14601,-0.0551 0.0565,-0.0551 0.0565,-0.16804 v -0.10193 q 0,-0.11295 -0.0565,-0.16804 -0.0565,-0.0551 -0.14601,-0.0551 -0.0895,0 -0.146,0.0551 -0.0565,0.0551 -0.0565,0.16804 v 0.10193 q 0,0.11295 0.0565,0.16804 0.0565,0.0551 0.146,0.0551 z m 0.94077,-0.0344 h -0.006 q -0.011,0.0248 -0.0276,0.0496 -0.0151,0.0234 -0.0386,0.0427 -0.0234,0.0179 -0.0565,0.0289 -0.0331,0.011 -0.0771,0.011 -0.1102,0 -0.17493,-0.0702 -0.0647,-0.0716 -0.0647,-0.2011 v -0.45593 h 0.11019 v 0.43664 q 0,0.19146 0.16253,0.19146 0.0331,0 0.0634,-0.008 0.0317,-0.008 0.0551,-0.0248 0.0248,-0.0165 0.0386,-0.0413 0.0151,-0.0262 0.0151,-0.062 v -0.49173 h 0.11019 v 0.71074 h -0.11019 z m 0.46143,0.1157 q -0.0579,0 -0.0882,-0.0317 -0.0289,-0.0331 -0.0289,-0.0826 v -0.90495 h 0.11019 v 0.92285 h 0.10468 v 0.0964 z m 0.34159,0.0165 q -0.0441,0 -0.0647,-0.022 -0.0193,-0.022 -0.0193,-0.0579 v -0.0179 q 0,-0.0358 0.0193,-0.0579 0.0206,-0.022 0.0647,-0.022 0.0441,0 0.0634,0.022 0.0207,0.022 0.0207,0.0579 v 0.0179 q 0,0.0358 -0.0207,0.0579 -0.0193,0.022 -0.0634,0.022 z m 0.5179,0 q -0.0992,0 -0.16666,-0.0372 -0.0661,-0.0386 -0.11433,-0.10192 l 0.0785,-0.0634 q 0.0413,0.0523 0.0923,0.0813 0.051,0.0276 0.11846,0.0276 0.0702,0 0.10881,-0.0303 0.04,-0.0303 0.04,-0.0854 0,-0.0413 -0.0275,-0.0702 -0.0262,-0.0303 -0.0964,-0.0413 l -0.0565,-0.008 q -0.0496,-0.007 -0.0909,-0.0206 -0.0413,-0.0151 -0.073,-0.0386 -0.0303,-0.0248 -0.0482,-0.0606 -0.0165,-0.0358 -0.0165,-0.0854 0,-0.0523 0.0193,-0.0909 0.0193,-0.04 0.0523,-0.0661 0.0344,-0.0262 0.0813,-0.0386 0.0468,-0.0137 0.10056,-0.0137 0.0868,0 0.14462,0.0303 0.0592,0.0303 0.10331,0.084 l -0.073,0.0661 q -0.0234,-0.0331 -0.0689,-0.0592 -0.0455,-0.0275 -0.11433,-0.0275 -0.0689,0 -0.10468,0.0303 -0.0345,0.0289 -0.0345,0.0799 0,0.0523 0.0345,0.0758 0.0358,0.0234 0.10193,0.0344 l 0.0551,0.008 q 0.11846,0.0179 0.16805,0.0689 0.0496,0.0496 0.0496,0.13085 0,0.10331 -0.0703,0.16254 -0.0702,0.0592 -0.19283,0.0592 z m 0.97382,-0.0165 q -0.062,0 -0.0895,-0.0331 -0.0262,-0.0331 -0.033,-0.0827 h -0.007 q -0.0234,0.0661 -0.0771,0.0992 -0.0537,0.0331 -0.12809,0.0331 -0.11295,0 -0.17631,-0.0579 -0.062,-0.0579 -0.062,-0.15702 0,-0.10055 0.073,-0.15427 0.0744,-0.0537 0.23002,-0.0537 h 0.1405 v -0.0702 q 0,-0.0757 -0.0413,-0.1157 -0.0413,-0.04 -0.12672,-0.04 -0.0647,0 -0.10881,0.0289 -0.0427,0.0289 -0.0716,0.0771 l -0.0661,-0.062 q 0.0289,-0.0579 0.0923,-0.0978 0.0634,-0.0413 0.15978,-0.0413 0.12947,0 0.2011,0.0634 0.0716,0.0634 0.0716,0.17631 v 0.39118 h 0.0813 v 0.0964 z m -0.3168,-0.0771 q 0.0413,0 0.0758,-0.01 0.0345,-0.01 0.0592,-0.0275 0.0248,-0.0179 0.0386,-0.0413 0.0138,-0.0234 0.0138,-0.051 v -0.11708 h -0.14601 q -0.095,0 -0.13911,0.0275 -0.0427,0.0275 -0.0427,0.0799 v 0.0289 q 0,0.0523 0.0372,0.0813 0.0386,0.0289 0.1033,0.0289 z"
       id="path24"
       aria-label="www.osoul.sa" />
    <g
       id="g30"
       transform="matrix(0.09233389,0,0,0.09233389,-111.13144,-330.049)"
       style="stroke-width:10.8302">
      <g
         id="g28"
         transform="translate(1635.1419,-735.93259)"
         style="stroke-width:10.8302">
        <path
           id="path25"
           style="fill:#1d1339;fill-rule:evenodd;stroke-width:54.1514;stroke-linecap:round;stroke-linejoin:round"
           d="m -2509.8987,4191.3125 h 39.5145 a 5.2787641,5.2787641 45.00003 0 1 5.2788,5.2788 l -1e-4,85.353 a 5.2787751,5.2787751 135.00003 0 1 -5.2788,5.2788 h -39.5145 a 5.2787641,5.2787641 45.00003 0 1 -5.2788,-5.2788 l 1e-4,-85.353 a 5.2787751,5.2787751 135.00003 0 1 5.2788,-5.2788 z"
           sodipodi:nodetypes="ccccc"
           transform="translate(-384.9276,242.70973)" />
        <path
           id="path26"
           style="fill:#5020df;fill-opacity:1;fill-rule:evenodd;stroke:none;stroke-width:54.1514;stroke-linecap:round;stroke-linejoin:round"
           d="m -2510.4201,4189.361 26.9362,-11.0482 a 3.448763,3.448763 33.849143 0 1 4.7575,3.1908 v 115.5283 a 3.448763,3.448763 146.15086 0 1 -4.7575,3.1908 l -26.9362,-11.0482 a 7.6670246,7.6670246 56.150857 0 1 -4.7575,-7.0936 v -85.6263 a 7.6670246,7.6670246 123.84914 0 1 4.7575,-7.0936 z"
           sodipodi:nodetypes="ccccc"
           transform="translate(-384.9276,242.70973)" />
        <path
           id="path27"
           style="fill:#371a8c;fill-opacity:1;fill-rule:evenodd;stroke-width:54.1514;stroke-linecap:round;stroke-linejoin:round;filter:url(#filter250)"
           d="m -2509.8989,4191.3125 a 5.2787751,5.2787751 0 0 0 -5.2788,5.2787 v 85.3529 a 5.2787641,5.2787641 0 0 0 5.2788,5.2788 h 31.1727 v -95.9104 z"
           transform="translate(-384.9276,242.70978)"
           clip-path="url(#clipPath218)" />
        <path
           id="path28"
           style="fill:#ffcc00;fill-opacity:1;fill-rule:evenodd;stroke:none;stroke-width:54.1514;stroke-linecap:round;stroke-linejoin:round;stroke-dasharray:none"
           d="m -2875.1396,4478.4566 c -1.3725,0.016 -2.4548,1.2486 -2.4546,2.7546 0,1.506 1.0822,2.7814 2.4546,2.8509 1.4154,0.072 2.5956,-1.1593 2.5955,-2.7515 2e-4,-1.5922 -1.1801,-2.8699 -2.5955,-2.854 z" />
      </g>
      <g
         id="g29"
         transform="matrix(0.91823404,0,0,0.91823404,1057.5206,-145.27859)"
         style="stroke-width:11.7947">
        <path
           id="path29"
           style="font-size:15.3852px;line-height:1.25;font-family:'IBM Plex Sans Arabic';-inkscape-font-specification:'IBM Plex Sans Arabic';letter-spacing:10.2645px;fill:#5020df;fill-opacity:1;stroke-width:3.12068"
           d="m -2555.5034,4269.7519 v 7.97 c 0,0.3537 0.1145,1.2769 1.308,1.2769 h 1.0919 v -1.0769 h -1.1689 v -8.17 z m -71.5207,1.1239 c -2.0823,0 -3.5848,1.5854 -3.5848,4.1538 0,2.5034 1.4175,4.1542 3.5848,4.1542 2.1657,0 3.5848,-1.689 3.5848,-4.1542 0,-2.7377 -1.6776,-4.1538 -3.5848,-4.1538 z m 18.28,0 c -1.4279,0 -2.8308,0.6485 -2.8308,2.3389 0,1.7646 1.6612,2.2299 3.1848,2.3844 0.899,0.1411 1.3844,0.5425 1.3844,1.2459 0,0.7852 -0.5791,1.2924 -1.6614,1.2924 -0.5879,0 -1.4797,-0.1082 -2.3538,-1.2154 l -0.877,0.7079 c 1.1424,1.5019 2.464,1.5539 3.1383,1.5539 1.8456,0 2.9389,-0.9468 2.9389,-2.4773 0,-1.6912 -1.4301,-2.0796 -2.4309,-2.2309 -0.8694,-0.13 -2.1113,-0.2125 -2.1383,-1.3229 0,-0.6753 0.4302,-1.2304 1.5533,-1.2304 1.2464,0 1.8634,0.7106 2.0464,0.9689 l 0.8155,-0.7384 c -1.0458,-1.277 -2.301,-1.277 -2.7694,-1.277 z m 18.3571,0 c -2.0823,0 -3.5848,1.5854 -3.5848,4.1538 0,2.5034 1.4175,4.1542 3.5848,4.1542 2.1657,0 3.5848,-1.689 3.5848,-4.1542 0,-2.7377 -1.6776,-4.1538 -3.5848,-4.1538 z m 15.8037,0.1845 v 5.0927 c 0,2.0778 1.1547,3.0308 2.6773,3.0308 0.8757,0 1.6937,-0.2685 2.2309,-1.4769 h 0.061 l 5e-4,1.2925 h 1.2304 v -7.9386 h -1.2304 v 5.4922 c 0,1.3729 -1.5013,1.5229 -1.9234,1.5229 -1.2103,0 -1.8154,-0.7127 -1.8154,-2.1384 v -4.8772 z m -52.4408,0.9075 c 1.9987,0 2.2614,1.9053 2.2614,3.6313 0,0.7426 -0.1763,2.4923 -2.2614,2.4923 -2.0446,0 -2.2619,-1.7496 -2.2619,-2.4923 0,-1.6532 0.1329,-3.6313 2.2619,-3.6313 z m 36.6371,0 c 1.9987,0 2.2618,1.9053 2.2618,3.6313 0,0.7426 -0.1767,2.4923 -2.2618,2.4923 -2.0446,0 -2.2614,-1.7496 -2.2614,-2.4923 0,-1.6532 0.1324,-3.6313 2.2614,-3.6313 z" />
      </g>
      <path
         id="path30"
         style="font-weight:bold;font-size:66.3308px;line-height:1.25;font-family:'IBM Plex Sans Arabic';-inkscape-font-specification:'IBM Plex Sans Arabic Bold';letter-spacing:0px;fill:#5020df;fill-opacity:1;stroke-width:2.8655"
         d="m -1300.9827,3707.7206 c -3.891,0 -6.7,2.9061 -6.7,6.766 0,2.2351 1.111,4.0184 2.786,5.1072 v 0.3318 l -7.827,3.5817 1.924,4.2452 9.552,-4.3775 c 4.599,-2.0783 6.898,-5.1074 6.898,-9.0873 0,-3.7602 -2.792,-6.5671 -6.633,-6.5671 z m -0.08,4.639 c 0.622,0.024 1.236,0.2583 1.668,0.7338 0.562,0.5106 1.69,2.5999 -0.663,4.3119 -1.636,-0.8182 -4.782,-2.4804 -2.72,-4.5108 0.463,-0.3706 1.093,-0.5584 1.715,-0.5349 z m 11.551,6.9924 c -4.171,0 -7.23,2.6134 -7.23,6.4342 0,1.3708 0.442,2.5427 1.327,3.5156 l -0.07,0.3317 h -2.786 v 5.3728 h 15.721 v -5.8374 h -4.909 c -3.051,0 -4.577,-0.7292 -4.577,-2.1885 0,-0.9495 0.911,-1.7911 2.521,-1.7911 1.371,0 2.587,0.5304 3.648,1.5917 l 3.184,-4.4442 c -1.587,-1.6661 -4.018,-2.9848 -6.832,-2.9848 z m -113.292,9.1932 v 33.06 c -0.08,9.5201 -4.618,12.9239 -14.659,12.0055 -5.02,0 -9.353,-2.4535 -9.353,-8.7556 0,-4.1899 1.942,-8.8549 2.852,-10.8117 l -6.368,-1.8573 c -2.034,4.8998 -3.117,9.9816 -3.117,13.9956 0,7.2062 2.629,18.1746 18.639,18.1746 13.876,0 19.965,-7.3896 19.965,-22.7511 v -33.06 z m 108.45,8.7959 v 31.0957 h 7.96 v -31.0957 z m -22.618,0.3844 c -12.652,-0.263 -19.064,10.1834 -24.675,20.0324 -1.062,-0.7076 -1.592,-2.0126 -1.592,-3.914 v -4.1785 h -7.297 v 4.1785 c 0,3.0954 -1.769,4.6432 -5.306,4.6432 h -5.373 c -0.442,-11.404 -5.317,-18.108 -13.399,-18.108 -6.268,0 -13.598,5.2271 -13.598,16.1184 0,7.6732 4.256,11.9393 11.409,11.9393 h 7.695 c -4.383,6.4245 -12.81,5.9697 -19.767,5.9697 v 9.9498 c 13.385,0.1791 22.096,-1.3461 26.798,-15.9195 h 2.255 c 5.205,0 8.395,-2.177 9.75,-8.9545 h 0.398 c 1.33,6.6457 5.116,8.9545 11.741,8.9545 h 18.971 c 11.793,0 17.644,-4.2668 17.644,-14.5262 0,-6.2847 -2.145,-16.1851 -15.654,-16.1851 z m 0.689,9.9126 c 3.988,0.021 8.173,0.9372 8.331,5.6751 0,4.1613 -2.545,5.1739 -11.01,5.1739 h -16.649 l -0.199,-0.398 c 5.041,-8.1859 7.33,-10.4138 17.842,-10.4138 0.55,-0.025 1.115,-0.04 1.685,-0.037 z m -59.193,2.6903 c 3.639,0 7.628,2.336 7.628,8.1587 h -8.291 c -5.141,0 -5.44,-2.1772 -5.44,-3.3161 0,-3.0717 2.941,-4.8426 6.103,-4.8426 z" />
    </g>
  </g>
</svg>
