<?xml version="1.0" encoding="UTF-8" standalone="no"?>
<!-- Created with Inkscape (http://www.inkscape.org/) -->

<svg
   width="668.86664mm"
   height="668.86664mm"
   viewBox="0 0 668.86664 668.86664"
   version="1.1"
   id="svg1"
   xml:space="preserve"
   inkscape:version="1.4.2 (ebf0e94, 2025-05-08)"
   sodipodi:docname="final-logo V.svg"
   xmlns:inkscape="http://www.inkscape.org/namespaces/inkscape"
   xmlns:sodipodi="http://sodipodi.sourceforge.net/DTD/sodipodi-0.dtd"
   xmlns="http://www.w3.org/2000/svg"
   xmlns:svg="http://www.w3.org/2000/svg"><sodipodi:namedview
     id="namedview1"
     pagecolor="#ffffff"
     bordercolor="#000000"
     borderopacity="0.25"
     inkscape:showpageshadow="2"
     inkscape:pageopacity="0.0"
     inkscape:pagecheckerboard="0"
     inkscape:deskcolor="#d1d1d1"
     inkscape:document-units="mm"
     showguides="false"
     inkscape:zoom="0.1767767"
     inkscape:cx="1555.6349"
     inkscape:cy="1484.9242"
     inkscape:window-width="1920"
     inkscape:window-height="1048"
     inkscape:window-x="0"
     inkscape:window-y="0"
     inkscape:window-maximized="1"
     inkscape:current-layer="layer1"><sodipodi:guide
       position="-1633.0517,1774.8963"
       orientation="0,-1"
       id="guide11"
       inkscape:locked="false" /><sodipodi:guide
       position="-1733.3135,1819.8959"
       orientation="1,0"
       id="guide13"
       inkscape:locked="false" /><sodipodi:guide
       position="-1637.2946,1723.4285"
       orientation="0,-1"
       id="guide59"
       inkscape:locked="false" /><sodipodi:guide
       position="-1633.0892,1733.4284"
       orientation="1,0"
       id="guide63"
       inkscape:locked="false" /><sodipodi:guide
       position="-1705.143,1583.2552"
       orientation="0,-1"
       id="guide66"
       inkscape:locked="false" /><sodipodi:guide
       position="-1669.143,1547.2552"
       orientation="1,0"
       id="guide67"
       inkscape:locked="false" /><sodipodi:guide
       position="167.73551,-717.87719"
       orientation="1,0"
       id="guide106"
       inkscape:locked="false" /><sodipodi:guide
       position="164.47471,-735.12417"
       orientation="1,0"
       id="guide107"
       inkscape:locked="false" /><sodipodi:guide
       position="124.30771,-687.93239"
       orientation="1,0"
       id="guide108"
       inkscape:locked="false" /></sodipodi:namedview><defs
     id="defs1"><inkscape:path-effect
       effect="fillet_chamfer"
       id="path-effect65"
       is_visible="true"
       lpeversion="1"
       nodesatellites_param="F,0,0,1,0,9.99991,0,1 @ F,0,0,1,0,0,0,1 @ F,0,0,1,0,0,0,1 @ F,0,0,1,0,0,0,1 | F,0,0,1,0,0,0,1 @ F,0,0,1,0,0,0,1 @ F,0,0,1,0,0,0,1 @ F,0,0,1,0,0,0,1 | F,0,0,1,0,0,0,1 @ F,0,0,1,0,0,0,1 @ F,0,0,1,0,0,0,1 @ F,0,0,1,0,0,0,1"
       radius="0"
       unit="px"
       method="auto"
       mode="F"
       chamfer_steps="1"
       flexible="false"
       use_knot_distance="true"
       apply_no_radius="true"
       apply_with_radius="true"
       only_selected="false"
       hide_knots="false" /><inkscape:path-effect
       effect="fillet_chamfer"
       id="path-effect14"
       is_visible="true"
       lpeversion="1"
       nodesatellites_param="F,0,0,1,0,0,0,1 @ F,0,0,1,0,0,0,1 @ F,0,0,1,0,0,0,1 @ F,0,1,1,0,9.99991,0,1 | F,0,0,1,0,9.99991,0,1 @ F,0,0,1,0,0,0,1 @ F,0,0,1,0,0,0,1 @ F,0,0,1,0,0,0,1"
       radius="0"
       unit="px"
       method="auto"
       mode="F"
       chamfer_steps="1"
       flexible="false"
       use_knot_distance="true"
       apply_no_radius="true"
       apply_with_radius="true"
       only_selected="false"
       hide_knots="false" /><inkscape:path-effect
       effect="fillet_chamfer"
       id="path-effect13"
       is_visible="true"
       lpeversion="1"
       nodesatellites_param="F,0,0,1,0,0,0,1 @ F,0,0,1,0,0,0,1 @ F,0,0,1,0,0,0,1 @ F,0,0,1,0,0,0,1 @ F,0,0,1,0,0,0,1 @ F,0,0,1,0,0,0,1 | F,0,0,1,0,0,0,1 @ F,0,0,1,0,9.99991,0,1 @ F,0,0,1,0,0,0,1 @ F,0,0,1,0,0,0,1"
       radius="0"
       unit="px"
       method="auto"
       mode="F"
       chamfer_steps="1"
       flexible="false"
       use_knot_distance="true"
       apply_no_radius="true"
       apply_with_radius="true"
       only_selected="false"
       hide_knots="false" /><inkscape:path-effect
       effect="fillet_chamfer"
       id="path-effect11"
       is_visible="true"
       lpeversion="1"
       nodesatellites_param="F,0,0,1,0,0,0,1 @ F,0,0,1,0,0,0,1 @ F,0,0,1,0,0,0,1 @ F,0,0,1,0,0,0,1 @ F,0,0,1,0,0,0,1 @ F,0,0,1,0,0,0,1 | F,0,0,1,0,0,0,1 @ F,0,0,1,0,9.99991,0,1 @ F,0,0,1,0,0,0,1 @ F,0,0,1,0,0,0,1"
       radius="0"
       unit="px"
       method="auto"
       mode="F"
       chamfer_steps="1"
       flexible="false"
       use_knot_distance="true"
       apply_no_radius="true"
       apply_with_radius="true"
       only_selected="false"
       hide_knots="false" /><inkscape:path-effect
       effect="fillet_chamfer"
       id="path-effect9"
       is_visible="true"
       lpeversion="1"
       nodesatellites_param="F,0,0,1,0,0,0,1 @ F,0,0,1,0,0,0,1 @ F,0,0,1,0,0,0,1 @ F,0,0,1,0,0,0,1 @ F,0,0,1,0,0,0,1 @ F,0,0,1,0,0,0,1 | F,0,0,1,0,0,0,1 @ F,0,0,1,0,9.99991,0,1 @ F,0,0,1,0,0,0,1 @ F,0,0,1,0,0,0,1"
       radius="0"
       unit="px"
       method="auto"
       mode="F"
       chamfer_steps="1"
       flexible="false"
       use_knot_distance="true"
       apply_no_radius="true"
       apply_with_radius="true"
       only_selected="false"
       hide_knots="false" /><inkscape:path-effect
       effect="fillet_chamfer"
       id="path-effect4"
       is_visible="true"
       lpeversion="1"
       nodesatellites_param="F,0,0,1,0,11.430208,0,1 @ F,0,0,1,0,0,0,1 @ F,0,0,1,0,0,0,1 @ F,0,0,1,0,0,0,1"
       radius="0"
       unit="px"
       method="auto"
       mode="F"
       chamfer_steps="1"
       flexible="false"
       use_knot_distance="true"
       apply_no_radius="true"
       apply_with_radius="true"
       only_selected="false"
       hide_knots="false" /><inkscape:path-effect
       effect="fillet_chamfer"
       id="path-effect3"
       is_visible="true"
       lpeversion="1"
       nodesatellites_param="F,0,0,1,0,0,0,1 @ F,0,0,1,0,11.430208,0,1 @ F,0,0,1,0,0,0,1 @ F,0,0,1,0,0,0,1"
       radius="0"
       unit="px"
       method="auto"
       mode="F"
       chamfer_steps="1"
       flexible="false"
       use_knot_distance="true"
       apply_no_radius="true"
       apply_with_radius="true"
       only_selected="false"
       hide_knots="false" /><inkscape:path-effect
       effect="fillet_chamfer"
       id="path-effect65-1"
       is_visible="true"
       lpeversion="1"
       nodesatellites_param="F,0,0,1,0,9.99991,0,1 @ F,0,0,1,0,0,0,1 @ F,0,0,1,0,0,0,1 @ F,0,0,1,0,0,0,1 | F,0,0,1,0,0,0,1 @ F,0,0,1,0,0,0,1 @ F,0,0,1,0,0,0,1 @ F,0,0,1,0,0,0,1 | F,0,0,1,0,0,0,1 @ F,0,0,1,0,0,0,1 @ F,0,0,1,0,0,0,1 @ F,0,0,1,0,0,0,1"
       radius="0"
       unit="px"
       method="auto"
       mode="F"
       chamfer_steps="1"
       flexible="false"
       use_knot_distance="true"
       apply_no_radius="true"
       apply_with_radius="true"
       only_selected="false"
       hide_knots="false" /><inkscape:path-effect
       effect="fillet_chamfer"
       id="path-effect14-2"
       is_visible="true"
       lpeversion="1"
       nodesatellites_param="F,0,0,1,0,0,0,1 @ F,0,0,1,0,0,0,1 @ F,0,0,1,0,0,0,1 @ F,0,1,1,0,9.99991,0,1 | F,0,0,1,0,9.99991,0,1 @ F,0,0,1,0,0,0,1 @ F,0,0,1,0,0,0,1 @ F,0,0,1,0,0,0,1"
       radius="0"
       unit="px"
       method="auto"
       mode="F"
       chamfer_steps="1"
       flexible="false"
       use_knot_distance="true"
       apply_no_radius="true"
       apply_with_radius="true"
       only_selected="false"
       hide_knots="false" /><inkscape:path-effect
       effect="fillet_chamfer"
       id="path-effect13-7"
       is_visible="true"
       lpeversion="1"
       nodesatellites_param="F,0,0,1,0,0,0,1 @ F,0,0,1,0,0,0,1 @ F,0,0,1,0,0,0,1 @ F,0,0,1,0,0,0,1 @ F,0,0,1,0,0,0,1 @ F,0,0,1,0,0,0,1 | F,0,0,1,0,0,0,1 @ F,0,0,1,0,9.99991,0,1 @ F,0,0,1,0,0,0,1 @ F,0,0,1,0,0,0,1"
       radius="0"
       unit="px"
       method="auto"
       mode="F"
       chamfer_steps="1"
       flexible="false"
       use_knot_distance="true"
       apply_no_radius="true"
       apply_with_radius="true"
       only_selected="false"
       hide_knots="false" /><inkscape:path-effect
       effect="fillet_chamfer"
       id="path-effect11-0"
       is_visible="true"
       lpeversion="1"
       nodesatellites_param="F,0,0,1,0,0,0,1 @ F,0,0,1,0,0,0,1 @ F,0,0,1,0,0,0,1 @ F,0,0,1,0,0,0,1 @ F,0,0,1,0,0,0,1 @ F,0,0,1,0,0,0,1 | F,0,0,1,0,0,0,1 @ F,0,0,1,0,9.99991,0,1 @ F,0,0,1,0,0,0,1 @ F,0,0,1,0,0,0,1"
       radius="0"
       unit="px"
       method="auto"
       mode="F"
       chamfer_steps="1"
       flexible="false"
       use_knot_distance="true"
       apply_no_radius="true"
       apply_with_radius="true"
       only_selected="false"
       hide_knots="false" /><inkscape:path-effect
       effect="fillet_chamfer"
       id="path-effect9-9"
       is_visible="true"
       lpeversion="1"
       nodesatellites_param="F,0,0,1,0,0,0,1 @ F,0,0,1,0,0,0,1 @ F,0,0,1,0,0,0,1 @ F,0,0,1,0,0,0,1 @ F,0,0,1,0,0,0,1 @ F,0,0,1,0,0,0,1 | F,0,0,1,0,0,0,1 @ F,0,0,1,0,9.99991,0,1 @ F,0,0,1,0,0,0,1 @ F,0,0,1,0,0,0,1"
       radius="0"
       unit="px"
       method="auto"
       mode="F"
       chamfer_steps="1"
       flexible="false"
       use_knot_distance="true"
       apply_no_radius="true"
       apply_with_radius="true"
       only_selected="false"
       hide_knots="false" /><inkscape:path-effect
       effect="fillet_chamfer"
       id="path-effect4-3"
       is_visible="true"
       lpeversion="1"
       nodesatellites_param="F,0,0,1,0,11.430208,0,1 @ F,0,0,1,0,0,0,1 @ F,0,0,1,0,0,0,1 @ F,0,0,1,0,0,0,1"
       radius="0"
       unit="px"
       method="auto"
       mode="F"
       chamfer_steps="1"
       flexible="false"
       use_knot_distance="true"
       apply_no_radius="true"
       apply_with_radius="true"
       only_selected="false"
       hide_knots="false" /><inkscape:path-effect
       effect="fillet_chamfer"
       id="path-effect3-6"
       is_visible="true"
       lpeversion="1"
       nodesatellites_param="F,0,0,1,0,0,0,1 @ F,0,0,1,0,11.430208,0,1 @ F,0,0,1,0,0,0,1 @ F,0,0,1,0,0,0,1"
       radius="0"
       unit="px"
       method="auto"
       mode="F"
       chamfer_steps="1"
       flexible="false"
       use_knot_distance="true"
       apply_no_radius="true"
       apply_with_radius="true"
       only_selected="false"
       hide_knots="false" /><inkscape:path-effect
       effect="fillet_chamfer"
       id="path-effect65-8"
       is_visible="true"
       lpeversion="1"
       nodesatellites_param="F,0,0,1,0,9.99991,0,1 @ F,0,0,1,0,0,0,1 @ F,0,0,1,0,0,0,1 @ F,0,0,1,0,0,0,1 | F,0,0,1,0,0,0,1 @ F,0,0,1,0,0,0,1 @ F,0,0,1,0,0,0,1 @ F,0,0,1,0,0,0,1 | F,0,0,1,0,0,0,1 @ F,0,0,1,0,0,0,1 @ F,0,0,1,0,0,0,1 @ F,0,0,1,0,0,0,1"
       radius="0"
       unit="px"
       method="auto"
       mode="F"
       chamfer_steps="1"
       flexible="false"
       use_knot_distance="true"
       apply_no_radius="true"
       apply_with_radius="true"
       only_selected="false"
       hide_knots="false" /><inkscape:path-effect
       effect="fillet_chamfer"
       id="path-effect14-4"
       is_visible="true"
       lpeversion="1"
       nodesatellites_param="F,0,0,1,0,0,0,1 @ F,0,0,1,0,0,0,1 @ F,0,0,1,0,0,0,1 @ F,0,1,1,0,9.99991,0,1 | F,0,0,1,0,9.99991,0,1 @ F,0,0,1,0,0,0,1 @ F,0,0,1,0,0,0,1 @ F,0,0,1,0,0,0,1"
       radius="0"
       unit="px"
       method="auto"
       mode="F"
       chamfer_steps="1"
       flexible="false"
       use_knot_distance="true"
       apply_no_radius="true"
       apply_with_radius="true"
       only_selected="false"
       hide_knots="false" /><inkscape:path-effect
       effect="fillet_chamfer"
       id="path-effect13-5"
       is_visible="true"
       lpeversion="1"
       nodesatellites_param="F,0,0,1,0,0,0,1 @ F,0,0,1,0,0,0,1 @ F,0,0,1,0,0,0,1 @ F,0,0,1,0,0,0,1 @ F,0,0,1,0,0,0,1 @ F,0,0,1,0,0,0,1 | F,0,0,1,0,0,0,1 @ F,0,0,1,0,9.99991,0,1 @ F,0,0,1,0,0,0,1 @ F,0,0,1,0,0,0,1"
       radius="0"
       unit="px"
       method="auto"
       mode="F"
       chamfer_steps="1"
       flexible="false"
       use_knot_distance="true"
       apply_no_radius="true"
       apply_with_radius="true"
       only_selected="false"
       hide_knots="false" /><inkscape:path-effect
       effect="fillet_chamfer"
       id="path-effect11-03"
       is_visible="true"
       lpeversion="1"
       nodesatellites_param="F,0,0,1,0,0,0,1 @ F,0,0,1,0,0,0,1 @ F,0,0,1,0,0,0,1 @ F,0,0,1,0,0,0,1 @ F,0,0,1,0,0,0,1 @ F,0,0,1,0,0,0,1 | F,0,0,1,0,0,0,1 @ F,0,0,1,0,9.99991,0,1 @ F,0,0,1,0,0,0,1 @ F,0,0,1,0,0,0,1"
       radius="0"
       unit="px"
       method="auto"
       mode="F"
       chamfer_steps="1"
       flexible="false"
       use_knot_distance="true"
       apply_no_radius="true"
       apply_with_radius="true"
       only_selected="false"
       hide_knots="false" /><inkscape:path-effect
       effect="fillet_chamfer"
       id="path-effect9-6"
       is_visible="true"
       lpeversion="1"
       nodesatellites_param="F,0,0,1,0,0,0,1 @ F,0,0,1,0,0,0,1 @ F,0,0,1,0,0,0,1 @ F,0,0,1,0,0,0,1 @ F,0,0,1,0,0,0,1 @ F,0,0,1,0,0,0,1 | F,0,0,1,0,0,0,1 @ F,0,0,1,0,9.99991,0,1 @ F,0,0,1,0,0,0,1 @ F,0,0,1,0,0,0,1"
       radius="0"
       unit="px"
       method="auto"
       mode="F"
       chamfer_steps="1"
       flexible="false"
       use_knot_distance="true"
       apply_no_radius="true"
       apply_with_radius="true"
       only_selected="false"
       hide_knots="false" /><inkscape:path-effect
       effect="fillet_chamfer"
       id="path-effect4-1"
       is_visible="true"
       lpeversion="1"
       nodesatellites_param="F,0,0,1,0,11.430208,0,1 @ F,0,0,1,0,0,0,1 @ F,0,0,1,0,0,0,1 @ F,0,0,1,0,0,0,1"
       radius="0"
       unit="px"
       method="auto"
       mode="F"
       chamfer_steps="1"
       flexible="false"
       use_knot_distance="true"
       apply_no_radius="true"
       apply_with_radius="true"
       only_selected="false"
       hide_knots="false" /><inkscape:path-effect
       effect="fillet_chamfer"
       id="path-effect3-0"
       is_visible="true"
       lpeversion="1"
       nodesatellites_param="F,0,0,1,0,0,0,1 @ F,0,0,1,0,11.430208,0,1 @ F,0,0,1,0,0,0,1 @ F,0,0,1,0,0,0,1"
       radius="0"
       unit="px"
       method="auto"
       mode="F"
       chamfer_steps="1"
       flexible="false"
       use_knot_distance="true"
       apply_no_radius="true"
       apply_with_radius="true"
       only_selected="false"
       hide_knots="false" /><clipPath
       clipPathUnits="userSpaceOnUse"
       id="clipPath180"><rect
         style="fill:#ffffff;fill-opacity:1;fill-rule:evenodd;stroke:none;stroke-width:0.500002;stroke-dasharray:none;stroke-opacity:1"
         id="rect181"
         width="944.47827"
         height="531.26898"
         x="2838.5586"
         y="3332.0281" /></clipPath><inkscape:path-effect
       effect="fillet_chamfer"
       id="path-effect23"
       is_visible="true"
       lpeversion="1"
       nodesatellites_param="F,0,0,1,0,5.1421543,0,1 @ F,0,1,1,0,5.1421543,0,1 @ F,0,1,1,0,5.1421543,0,1 @ F,0,1,1,0,5.1421543,0,1"
       radius="0"
       unit="px"
       method="auto"
       mode="F"
       chamfer_steps="1"
       flexible="false"
       use_knot_distance="true"
       apply_no_radius="true"
       apply_with_radius="true"
       only_selected="false"
       hide_knots="false" /><inkscape:path-effect
       effect="fillet_chamfer"
       id="path-effect21"
       is_visible="true"
       lpeversion="1"
       nodesatellites_param="F,0,0,1,0,5.2787696,0,1 @ F,0,1,1,0,5.2787696,0,1 @ F,0,1,1,0,5.2787696,0,1 @ F,0,1,1,0,5.2787696,0,1"
       radius="0"
       unit="px"
       method="auto"
       mode="F"
       chamfer_steps="1"
       flexible="false"
       use_knot_distance="true"
       apply_no_radius="true"
       apply_with_radius="true"
       only_selected="false"
       hide_knots="false" /><inkscape:path-effect
       effect="fillet_chamfer"
       id="path-effect15"
       is_visible="true"
       lpeversion="1"
       nodesatellites_param="F,0,0,1,0,5.1421543,0,1 @ F,0,1,1,0,5.1421543,0,1 @ F,0,1,1,0,5.1421543,0,1 @ F,0,1,1,0,5.1421543,0,1"
       radius="0"
       unit="px"
       method="auto"
       mode="F"
       chamfer_steps="1"
       flexible="false"
       use_knot_distance="true"
       apply_no_radius="true"
       apply_with_radius="true"
       only_selected="false"
       hide_knots="false" /><inkscape:path-effect
       effect="fillet_chamfer"
       id="path-effect12"
       is_visible="true"
       lpeversion="1"
       nodesatellites_param="F,0,0,1,0,5.2787696,0,1 @ F,0,1,1,0,5.2787696,0,1 @ F,0,1,1,0,5.2787696,0,1 @ F,0,1,1,0,5.2787696,0,1"
       radius="0"
       unit="px"
       method="auto"
       mode="F"
       chamfer_steps="1"
       flexible="false"
       use_knot_distance="true"
       apply_no_radius="true"
       apply_with_radius="true"
       only_selected="false"
       hide_knots="false" /><inkscape:path-effect
       effect="fillet_chamfer"
       id="path-effect13-0"
       is_visible="true"
       lpeversion="1"
       nodesatellites_param="F,0,0,1,0,5.1421543,0,1 @ F,0,1,1,0,5.1421543,0,1 @ F,0,1,1,0,5.1421543,0,1 @ F,0,1,1,0,5.1421543,0,1"
       radius="0"
       unit="px"
       method="auto"
       mode="F"
       chamfer_steps="1"
       flexible="false"
       use_knot_distance="true"
       apply_no_radius="true"
       apply_with_radius="true"
       only_selected="false"
       hide_knots="false" /><inkscape:path-effect
       effect="fillet_chamfer"
       id="path-effect11-6"
       is_visible="true"
       lpeversion="1"
       nodesatellites_param="F,0,0,1,0,5.2787696,0,1 @ F,0,1,1,0,5.2787696,0,1 @ F,0,1,1,0,5.2787696,0,1 @ F,0,1,1,0,5.2787696,0,1"
       radius="0"
       unit="px"
       method="auto"
       mode="F"
       chamfer_steps="1"
       flexible="false"
       use_knot_distance="true"
       apply_no_radius="true"
       apply_with_radius="true"
       only_selected="false"
       hide_knots="false" /><inkscape:path-effect
       effect="fillet_chamfer"
       id="path-effect9659"
       is_visible="true"
       lpeversion="1"
       nodesatellites_param="F,0,0,1,0,5.2787696,0,1 @ F,0,1,1,0,5.2787696,0,1 @ F,0,1,1,0,5.2787696,0,1 @ F,0,1,1,0,5.2787696,0,1"
       radius="0"
       unit="px"
       method="auto"
       mode="F"
       chamfer_steps="1"
       flexible="false"
       use_knot_distance="true"
       apply_no_radius="true"
       apply_with_radius="true"
       only_selected="false"
       hide_knots="false" /><inkscape:path-effect
       effect="fillet_chamfer"
       id="path-effect9661"
       is_visible="true"
       lpeversion="1"
       nodesatellites_param="F,0,0,1,0,5.1421543,0,1 @ F,0,1,1,0,5.1421543,0,1 @ F,0,1,1,0,5.1421543,0,1 @ F,0,1,1,0,5.1421543,0,1"
       radius="0"
       unit="px"
       method="auto"
       mode="F"
       chamfer_steps="1"
       flexible="false"
       use_knot_distance="true"
       apply_no_radius="true"
       apply_with_radius="true"
       only_selected="false"
       hide_knots="false" /><clipPath
       clipPathUnits="userSpaceOnUse"
       id="clipPath218"><path
         id="path250-7"
         style="fill:#5020df;fill-opacity:1;fill-rule:evenodd;stroke:none;stroke-width:5.00002;stroke-linecap:round;stroke-linejoin:round"
         d="m -2510.4201,4189.3611 26.9362,-11.0482 a 3.4487631,3.4487631 0 0 1 4.7575,3.1906 v 115.5284 a 3.4487631,3.4487631 0 0 1 -4.7575,3.1909 l -26.9362,-11.0482 a 7.6670247,7.6670247 0 0 1 -4.7575,-7.0937 v -85.6264 a 7.6670247,7.6670247 0 0 1 4.7575,-7.0934 z"
         sodipodi:nodetypes="ccccc" /></clipPath><inkscape:path-effect
       effect="fillet_chamfer"
       id="path-effect9680"
       is_visible="true"
       lpeversion="1"
       nodesatellites_param="F,0,0,1,0,5.2787696,0,1 @ F,0,1,1,0,5.2787696,0,1 @ F,0,1,1,0,5.2787696,0,1 @ F,0,1,1,0,5.2787696,0,1"
       radius="0"
       unit="px"
       method="auto"
       mode="F"
       chamfer_steps="1"
       flexible="false"
       use_knot_distance="true"
       apply_no_radius="true"
       apply_with_radius="true"
       only_selected="false"
       hide_knots="false" /><inkscape:path-effect
       effect="fillet_chamfer"
       id="path-effect9682"
       is_visible="true"
       lpeversion="1"
       nodesatellites_param="F,0,0,1,0,5.1421543,0,1 @ F,0,1,1,0,5.1421543,0,1 @ F,0,1,1,0,5.1421543,0,1 @ F,0,1,1,0,5.1421543,0,1"
       radius="0"
       unit="px"
       method="auto"
       mode="F"
       chamfer_steps="1"
       flexible="false"
       use_knot_distance="true"
       apply_no_radius="true"
       apply_with_radius="true"
       only_selected="false"
       hide_knots="false" /><clipPath
       clipPathUnits="userSpaceOnUse"
       id="clipPath1"><path
         id="path1"
         style="fill:#5020df;fill-opacity:1;fill-rule:evenodd;stroke:none;stroke-width:5.00002;stroke-linecap:round;stroke-linejoin:round"
         d="m -2510.4201,4189.3611 26.9362,-11.0482 a 3.4487631,3.4487631 0 0 1 4.7575,3.1906 v 115.5284 a 3.4487631,3.4487631 0 0 1 -4.7575,3.1909 l -26.9362,-11.0482 a 7.6670247,7.6670247 0 0 1 -4.7575,-7.0937 v -85.6264 a 7.6670247,7.6670247 0 0 1 4.7575,-7.0934 z"
         sodipodi:nodetypes="ccccc" /></clipPath><inkscape:path-effect
       effect="fillet_chamfer"
       id="path-effect9903"
       is_visible="true"
       lpeversion="1"
       nodesatellites_param="F,0,0,1,0,5.2787696,0,1 @ F,0,1,1,0,5.2787696,0,1 @ F,0,1,1,0,5.2787696,0,1 @ F,0,1,1,0,5.2787696,0,1"
       radius="0"
       unit="px"
       method="auto"
       mode="F"
       chamfer_steps="1"
       flexible="false"
       use_knot_distance="true"
       apply_no_radius="true"
       apply_with_radius="true"
       only_selected="false"
       hide_knots="false" /><inkscape:path-effect
       effect="fillet_chamfer"
       id="path-effect9905"
       is_visible="true"
       lpeversion="1"
       nodesatellites_param="F,0,0,1,0,5.1421543,0,1 @ F,0,1,1,0,5.1421543,0,1 @ F,0,1,1,0,5.1421543,0,1 @ F,0,1,1,0,5.1421543,0,1"
       radius="0"
       unit="px"
       method="auto"
       mode="F"
       chamfer_steps="1"
       flexible="false"
       use_knot_distance="true"
       apply_no_radius="true"
       apply_with_radius="true"
       only_selected="false"
       hide_knots="false" /><clipPath
       clipPathUnits="userSpaceOnUse"
       id="clipPath2"><path
         id="path2"
         style="fill:#5020df;fill-opacity:1;fill-rule:evenodd;stroke:none;stroke-width:5.00002;stroke-linecap:round;stroke-linejoin:round"
         d="m -2510.4201,4189.3611 26.9362,-11.0482 a 3.4487631,3.4487631 0 0 1 4.7575,3.1906 v 115.5284 a 3.4487631,3.4487631 0 0 1 -4.7575,3.1909 l -26.9362,-11.0482 a 7.6670247,7.6670247 0 0 1 -4.7575,-7.0937 v -85.6264 a 7.6670247,7.6670247 0 0 1 4.7575,-7.0934 z"
         sodipodi:nodetypes="ccccc" /></clipPath><inkscape:path-effect
       effect="fillet_chamfer"
       id="path-effect9907"
       is_visible="true"
       lpeversion="1"
       nodesatellites_param="F,0,0,1,0,5.2787696,0,1 @ F,0,1,1,0,5.2787696,0,1 @ F,0,1,1,0,5.2787696,0,1 @ F,0,1,1,0,5.2787696,0,1"
       radius="0"
       unit="px"
       method="auto"
       mode="F"
       chamfer_steps="1"
       flexible="false"
       use_knot_distance="true"
       apply_no_radius="true"
       apply_with_radius="true"
       only_selected="false"
       hide_knots="false" /><inkscape:path-effect
       effect="fillet_chamfer"
       id="path-effect9909"
       is_visible="true"
       lpeversion="1"
       nodesatellites_param="F,0,0,1,0,5.1421543,0,1 @ F,0,1,1,0,5.1421543,0,1 @ F,0,1,1,0,5.1421543,0,1 @ F,0,1,1,0,5.1421543,0,1"
       radius="0"
       unit="px"
       method="auto"
       mode="F"
       chamfer_steps="1"
       flexible="false"
       use_knot_distance="true"
       apply_no_radius="true"
       apply_with_radius="true"
       only_selected="false"
       hide_knots="false" /><clipPath
       clipPathUnits="userSpaceOnUse"
       id="clipPath3"><path
         id="path3"
         style="fill:#5020df;fill-opacity:1;fill-rule:evenodd;stroke:none;stroke-width:5.00002;stroke-linecap:round;stroke-linejoin:round"
         d="m -2510.4201,4189.3611 26.9362,-11.0482 a 3.4487631,3.4487631 0 0 1 4.7575,3.1906 v 115.5284 a 3.4487631,3.4487631 0 0 1 -4.7575,3.1909 l -26.9362,-11.0482 a 7.6670247,7.6670247 0 0 1 -4.7575,-7.0937 v -85.6264 a 7.6670247,7.6670247 0 0 1 4.7575,-7.0934 z"
         sodipodi:nodetypes="ccccc" /></clipPath><inkscape:path-effect
       effect="fillet_chamfer"
       id="path-effect8966"
       is_visible="true"
       lpeversion="1"
       nodesatellites_param="F,0,0,1,0,5.2787696,0,1 @ F,0,1,1,0,5.2787696,0,1 @ F,0,1,1,0,5.2787696,0,1 @ F,0,1,1,0,5.2787696,0,1"
       radius="0"
       unit="px"
       method="auto"
       mode="F"
       chamfer_steps="1"
       flexible="false"
       use_knot_distance="true"
       apply_no_radius="true"
       apply_with_radius="true"
       only_selected="false"
       hide_knots="false" /><inkscape:path-effect
       effect="fillet_chamfer"
       id="path-effect8968"
       is_visible="true"
       lpeversion="1"
       nodesatellites_param="F,0,0,1,0,5.1421543,0,1 @ F,0,1,1,0,5.1421543,0,1 @ F,0,1,1,0,5.1421543,0,1 @ F,0,1,1,0,5.1421543,0,1"
       radius="0"
       unit="px"
       method="auto"
       mode="F"
       chamfer_steps="1"
       flexible="false"
       use_knot_distance="true"
       apply_no_radius="true"
       apply_with_radius="true"
       only_selected="false"
       hide_knots="false" /><clipPath
       clipPathUnits="userSpaceOnUse"
       id="clipPath218-1"><path
         id="path250-7-8"
         style="fill:#5020df;fill-opacity:1;fill-rule:evenodd;stroke:none;stroke-width:5.00002;stroke-linecap:round;stroke-linejoin:round"
         d="m -2510.4201,4189.3611 26.9362,-11.0482 a 3.4487631,3.4487631 0 0 1 4.7575,3.1906 v 115.5284 a 3.4487631,3.4487631 0 0 1 -4.7575,3.1909 l -26.9362,-11.0482 a 7.6670247,7.6670247 0 0 1 -4.7575,-7.0937 v -85.6264 a 7.6670247,7.6670247 0 0 1 4.7575,-7.0934 z"
         sodipodi:nodetypes="ccccc" /></clipPath><filter
       inkscape:collect="always"
       style="color-interpolation-filters:sRGB"
       id="filter250-7"
       x="-0.049020908"
       y="-0.018630781"
       width="1.0980418"
       height="1.0372616"><feGaussianBlur
         inkscape:collect="always"
         stdDeviation="0.74453569"
         id="feGaussianBlur250-9" /></filter></defs><g
     inkscape:label="Layer 1"
     inkscape:groupmode="layer"
     id="layer1"
     transform="translate(-1246.1776,-1530.3044)"><g
       id="g10"
       transform="matrix(5.0025346,0,0,5.0025346,1045.7205,-22445.649)"
       style="stroke-width:0.199898"><g
         id="g8"
         transform="matrix(0.609714,0,0,0.609714,1859.8938,2102.2231)"
         style="stroke-width:0.327856"><path
           id="path5"
           style="fill:#1d1339;fill-rule:evenodd;stroke-width:1.63929;stroke-linecap:round;stroke-linejoin:round"
           d="m -2509.8987,4191.3125 h 39.5145 a 5.2787641,5.2787641 45.00003 0 1 5.2788,5.2788 l -1e-4,85.353 a 5.2787751,5.2787751 135.00003 0 1 -5.2788,5.2788 h -39.5145 a 5.2787641,5.2787641 45.00003 0 1 -5.2788,-5.2788 l 1e-4,-85.353 a 5.2787751,5.2787751 135.00003 0 1 5.2788,-5.2788 z"
           inkscape:path-effect="#path-effect12"
           inkscape:original-d="m -2515.1775,4191.3125 h 50.0721 l -1e-4,95.9106 h -50.0721 z"
           sodipodi:nodetypes="ccccc"
           transform="translate(-384.9276,242.70973)" /><path
           id="path6"
           style="fill:#5020df;fill-opacity:1;fill-rule:evenodd;stroke:none;stroke-width:1.63929;stroke-linecap:round;stroke-linejoin:round"
           d="m -2510.4201,4189.361 26.9362,-11.0482 a 3.448763,3.448763 33.849143 0 1 4.7575,3.1908 v 115.5283 a 3.448763,3.448763 146.15086 0 1 -4.7575,3.1908 l -26.9362,-11.0482 a 7.6670246,7.6670246 56.150857 0 1 -4.7575,-7.0936 v -85.6263 a 7.6670246,7.6670246 123.84914 0 1 4.7575,-7.0936 z"
           sodipodi:nodetypes="ccccc"
           inkscape:path-effect="#path-effect15"
           inkscape:original-d="m -2515.1776,4191.3124 36.4512,-14.951 v 125.8127 l -36.4512,-14.951 z"
           transform="translate(-384.9276,242.70973)" /><path
           id="path7"
           style="fill:#371a8c;fill-opacity:1;fill-rule:evenodd;stroke-width:1.63929;stroke-linecap:round;stroke-linejoin:round;filter:url(#filter250-7)"
           d="m -2509.8989,4191.3125 a 5.2787751,5.2787751 0 0 0 -5.2788,5.2787 v 85.3529 a 5.2787641,5.2787641 0 0 0 5.2788,5.2788 h 31.1727 v -95.9104 z"
           transform="translate(-384.9276,242.70978)"
           clip-path="url(#clipPath218-1)" /><path
           id="path8"
           style="fill:#ffcc00;fill-opacity:1;fill-rule:evenodd;stroke:none;stroke-width:1.63929;stroke-linecap:round;stroke-linejoin:round;stroke-dasharray:none"
           d="m -2875.1396,4478.4566 c -1.3725,0.016 -2.4548,1.2486 -2.4546,2.7546 0,1.506 1.0822,2.7814 2.4546,2.8509 1.4154,0.072 2.5956,-1.1593 2.5955,-2.7515 2e-4,-1.5922 -1.1801,-2.8699 -2.5955,-2.854 z" /></g><g
         id="g9"
         transform="matrix(0.55986015,0,0,0.55986015,1579.7002,2525.6414)"
         style="stroke-width:0.357051"><path
           id="path9"
           style="font-size:15.3852px;line-height:1.25;font-family:'IBM Plex Sans Arabic';-inkscape-font-specification:'IBM Plex Sans Arabic';letter-spacing:10.2645px;fill:#5020df;fill-opacity:1;stroke-width:0.09447"
           d="m -2555.5034,4269.7519 v 7.97 c 0,0.3537 0.1145,1.2769 1.308,1.2769 h 1.0919 v -1.0769 h -1.1689 v -8.17 z m -71.5207,1.1239 c -2.0823,0 -3.5848,1.5854 -3.5848,4.1538 0,2.5034 1.4175,4.1542 3.5848,4.1542 2.1657,0 3.5848,-1.689 3.5848,-4.1542 0,-2.7377 -1.6776,-4.1538 -3.5848,-4.1538 z m 18.28,0 c -1.4279,0 -2.8308,0.6485 -2.8308,2.3389 0,1.7646 1.6612,2.2299 3.1848,2.3844 0.899,0.1411 1.3844,0.5425 1.3844,1.2459 0,0.7852 -0.5791,1.2924 -1.6614,1.2924 -0.5879,0 -1.4797,-0.1082 -2.3538,-1.2154 l -0.877,0.7079 c 1.1424,1.5019 2.464,1.5539 3.1383,1.5539 1.8456,0 2.9389,-0.9468 2.9389,-2.4773 0,-1.6912 -1.4301,-2.0796 -2.4309,-2.2309 -0.8694,-0.13 -2.1113,-0.2125 -2.1383,-1.3229 0,-0.6753 0.4302,-1.2304 1.5533,-1.2304 1.2464,0 1.8634,0.7106 2.0464,0.9689 l 0.8155,-0.7384 c -1.0458,-1.277 -2.301,-1.277 -2.7694,-1.277 z m 18.3571,0 c -2.0823,0 -3.5848,1.5854 -3.5848,4.1538 0,2.5034 1.4175,4.1542 3.5848,4.1542 2.1657,0 3.5848,-1.689 3.5848,-4.1542 0,-2.7377 -1.6776,-4.1538 -3.5848,-4.1538 z m 15.8037,0.1845 v 5.0927 c 0,2.0778 1.1547,3.0308 2.6773,3.0308 0.8757,0 1.6937,-0.2685 2.2309,-1.4769 h 0.061 l 5e-4,1.2925 h 1.2304 v -7.9386 h -1.2304 v 5.4922 c 0,1.3729 -1.5013,1.5229 -1.9234,1.5229 -1.2103,0 -1.8154,-0.7127 -1.8154,-2.1384 v -4.8772 z m -52.4408,0.9075 c 1.9987,0 2.2614,1.9053 2.2614,3.6313 0,0.7426 -0.1763,2.4923 -2.2614,2.4923 -2.0446,0 -2.2619,-1.7496 -2.2619,-2.4923 0,-1.6532 0.1329,-3.6313 2.2619,-3.6313 z m 36.6371,0 c 1.9987,0 2.2618,1.9053 2.2618,3.6313 0,0.7426 -0.1767,2.4923 -2.2618,2.4923 -2.0446,0 -2.2614,-1.7496 -2.2614,-2.4923 0,-1.6532 0.1324,-3.6313 2.2614,-3.6313 z" /></g><path
         id="path10"
         style="font-weight:bold;font-size:66.3308px;line-height:1.25;font-family:'IBM Plex Sans Arabic';-inkscape-font-specification:'IBM Plex Sans Arabic Bold';letter-spacing:0px;fill:#5020df;fill-opacity:1;stroke-width:0.0528898"
         d="m 141.68768,4874.869 c -2.37239,0 -4.08508,1.7718 -4.08508,4.1253 0,1.3628 0.67739,2.4501 1.69866,3.1139 v 0.2023 l -4.77223,2.1838 1.17309,2.5884 5.82399,-2.669 c 2.80407,-1.2672 4.20581,-3.1141 4.20581,-5.5407 0,-2.2926 -1.70232,-4.004 -4.04424,-4.004 z m -0.0488,2.8284 c 0.37924,0.015 0.7536,0.1575 1.017,0.4474 0.34266,0.3113 1.03042,1.5852 -0.40424,2.6291 -0.99749,-0.4989 -2.91565,-1.5124 -1.65842,-2.7503 0.2823,-0.226 0.66641,-0.3405 1.04566,-0.3262 z m 7.0428,4.2634 c -2.54311,0 -4.40823,1.5934 -4.40823,3.923 0,0.8358 0.26949,1.5503 0.80909,2.1435 l -0.0427,0.2023 h -1.69866 v 3.2758 h 9.58531 v -3.5591 h -2.99308 c -1.86024,0 -2.79066,-0.4446 -2.79066,-1.3344 0,-0.5789 0.55544,-1.092 1.53708,-1.092 0.83592,0 1.57733,0.3234 2.22424,0.9705 l 1.94133,-2.7097 c -0.96762,-1.0159 -2.44983,-1.8199 -4.16557,-1.8199 z m -69.075715,5.6052 v 20.1572 c -0.04878,5.8045 -2.815659,7.8798 -8.937798,7.3199 -3.060764,0 -5.702655,-1.496 -5.702655,-5.3384 0,-2.5547 1.184065,-5.399 1.738905,-6.5921 l -3.882659,-1.1324 c -1.240158,2.9875 -1.900479,6.0859 -1.900479,8.5333 0,4.3937 1.602938,11.0813 11.36446,11.0813 8.460391,0 12.17294,-4.5055 12.17294,-13.8716 v -20.1572 z m 66.123485,5.363 v 18.9595 h 4.85332 v -18.9595 z m -13.79051,0.2344 c -7.7141,-0.1604 -11.62359,6.2089 -15.0447,12.214 -0.64751,-0.4314 -0.97066,-1.2271 -0.97066,-2.3864 v -2.5477 h -4.44908 v 2.5477 c 0,1.8873 -1.07859,2.831 -3.23515,2.831 h -3.27599 c -0.26949,-6.9532 -3.24185,-11.0407 -8.169557,-11.0407 -3.821688,0 -8.290891,3.187 -8.290891,9.8276 0,4.6785 2.594942,7.2796 6.956227,7.2796 h 4.691751 c -2.672379,3.9171 -7.810439,3.6398 -12.052219,3.6398 v 6.0665 c 8.161022,0.1092 13.472239,-0.8207 16.339119,-9.7063 h 1.3749 c 3.17356,0 5.11855,-1.3274 5.94471,-5.4597 h 0.24267 c 0.81092,4.052 3.1193,5.4597 7.15865,5.4597 h 11.56689 c 7.19035,0 10.75779,-2.6016 10.75779,-8.8569 0,-3.8318 -1.30784,-9.8682 -9.54446,-9.8682 z m 0.42009,6.0438 c 2.43154,0.013 4.98319,0.5714 5.07953,3.4602 0,2.5372 -1.55172,3.1546 -6.71295,3.1546 h -10.15113 l -0.12134,-0.2427 c 3.07357,-4.991 4.46921,-6.3494 10.87852,-6.3494 0.33534,-0.015 0.67983,-0.024 1.02737,-0.023 z m -36.090801,1.6403 c 2.218749,0 4.650901,1.4243 4.650901,4.9745 h -5.055141 c -3.13454,0 -3.316844,-1.3275 -3.316844,-2.0219 0,-1.8728 1.793168,-2.9526 3.721084,-2.9526 z" /></g></g></svg>
