<?xml version="1.0" encoding="UTF-8" standalone="no"?>
<!-- Created with Inkscape (http://www.inkscape.org/) -->

<svg
   width="309.75879mm"
   height="138.34625mm"
   viewBox="0 0 309.75879 138.34625"
   version="1.1"
   id="svg1"
   inkscape:version="1.4.2 (ebf0e94, 2025-05-08)"
   sodipodi:docname="ge1.svg"
   xmlns:inkscape="http://www.inkscape.org/namespaces/inkscape"
   xmlns:sodipodi="http://sodipodi.sourceforge.net/DTD/sodipodi-0.dtd"
   xmlns:xlink="http://www.w3.org/1999/xlink"
   xmlns="http://www.w3.org/2000/svg"
   xmlns:svg="http://www.w3.org/2000/svg">
  <sodipodi:namedview
     id="namedview1"
     pagecolor="#505050"
     bordercolor="#eeeeee"
     borderopacity="1"
     inkscape:showpageshadow="0"
     inkscape:pageopacity="0"
     inkscape:pagecheckerboard="0"
     inkscape:deskcolor="#505050"
     inkscape:document-units="mm"
     inkscape:zoom="0.71713664"
     inkscape:cx="306.77557"
     inkscape:cy="106.67423"
     inkscape:window-width="1920"
     inkscape:window-height="1048"
     inkscape:window-x="0"
     inkscape:window-y="0"
     inkscape:window-maximized="1"
     inkscape:current-layer="layer1" />
  <defs
     id="defs1">
    <linearGradient
       id="linearGradient120"
       inkscape:collect="always">
      <stop
         style="stop-color:#003c66;stop-opacity:1"
         offset="0"
         id="stop119" />
      <stop
         style="stop-color:#e79c19;stop-opacity:1"
         offset="1"
         id="stop120" />
    </linearGradient>
    <clipPath
       clipPathUnits="userSpaceOnUse"
       id="clipPath3515">
      <rect
         style="opacity:1;mix-blend-mode:normal;fill:url(#linearGradient3516);fill-opacity:1;fill-rule:evenodd;stroke-width:0.25;stroke-linecap:square"
         id="rect3516"
         width="700.3205"
         height="210.95604"
         x="361.85052"
         y="8845.21" />
    </clipPath>
    <linearGradient
       inkscape:collect="always"
       xlink:href="#linearGradient120"
       id="linearGradient3516"
       gradientUnits="userSpaceOnUse"
       gradientTransform="matrix(1.0339378,0,0,0.55369036,1346.7474,8631.237)"
       x1="-952.56866"
       y1="767.448"
       x2="-282.15781"
       y2="397.31195" />
    <clipPath
       clipPathUnits="userSpaceOnUse"
       id="clipPath2967">
      <rect
         style="opacity:1;fill:#73828c;fill-opacity:1;fill-rule:evenodd;stroke:none;stroke-width:0.249998;stroke-linecap:square;stroke-linejoin:miter;stroke-dasharray:none;stroke-opacity:1"
         id="rect2968"
         width="182.80602"
         height="81.645874"
         x="478.35138"
         y="7779.895" />
    </clipPath>
    <clipPath
       clipPathUnits="userSpaceOnUse"
       id="clipPath13117">
      <path
         style="opacity:1;fill:#ffcc00;fill-opacity:1;fill-rule:evenodd;stroke:none;stroke-width:0.500002;stroke-linecap:square;stroke-dasharray:none;stroke-opacity:1"
         d="M 9.2264281,7713.0834 V 7851.429 H 318.9853 v -138.3456 z"
         id="path13118" />
    </clipPath>
  </defs>
  <g
     inkscape:label="Layer 1"
     inkscape:groupmode="layer"
     id="layer1"
     transform="translate(-24.077082,-120.64993)">
    <g
       id="g13117"
       transform="translate(14.850617,-7592.4331)"
       clip-path="url(#clipPath13117)">
      <path
         id="path13115"
         style="font-weight:bold;font-size:66.3308px;line-height:1.25;font-family:'IBM Plex Sans Arabic';-inkscape-font-specification:'IBM Plex Sans Arabic Bold';letter-spacing:0px;fill:#5020df;fill-opacity:1;stroke-width:0.264584"
         d="m -654.6565,7733.4351 c -7.98724,0 -13.75345,5.9653 -13.75345,13.8887 0,4.588 2.2806,8.2488 5.71897,10.4838 v 0.6811 l -16.06693,7.3522 3.94952,8.7146 19.60794,-8.9858 c 9.44062,-4.2663 14.1599,-10.4844 14.1599,-18.6542 0,-7.7184 -5.73127,-13.4804 -13.61595,-13.4804 z m -0.16421,9.5223 c 1.27681,0.051 2.53721,0.5305 3.42401,1.5067 1.15367,1.0478 3.46916,5.3366 -1.36101,8.8513 -3.35827,-1.6799 -9.81629,-5.0919 -5.58346,-9.2596 0.95042,-0.761 2.24363,-1.1464 3.52046,-1.0984 z m 23.7114,14.354 c -8.56203,0 -14.84144,5.3644 -14.84144,13.2079 0,2.8137 0.90732,5.2193 2.72404,7.2166 l -0.14378,0.6813 h -5.71897 v 11.0285 h 32.27139 v -11.9826 h -10.07698 c -6.26296,0 -9.39546,-1.497 -9.39546,-4.4927 0,-1.949 1.87001,-3.6764 5.17497,-3.6764 2.81431,0 5.31047,1.0887 7.48844,3.2675 l 6.53599,-9.1229 c -3.25772,-3.4202 -8.24798,-6.1272 -14.02443,-6.1272 z m -232.56091,18.8716 v 67.864 c -0.16421,19.5423 -9.47961,26.5293 -30.09135,24.6442 -10.30487,0 -19.19942,-5.0365 -19.19942,-17.9726 0,-8.6015 3.98644,-18.1775 5.85446,-22.1945 l -13.07196,-3.8122 c -4.17531,10.0579 -6.39844,20.4893 -6.39844,28.7294 0,14.7925 5.39669,37.3079 38.26133,37.3079 28.48401,0 40.98325,-15.1686 40.98325,-46.7022 v -67.864 z m 222.62148,18.0556 v 63.8321 h 16.33991 v -63.8321 z m -46.42925,0.7891 c -25.97147,-0.5401 -39.13375,20.904 -50.65183,41.1216 -2.17998,-1.4523 -3.26795,-4.1312 -3.26795,-8.0345 v -8.5775 h -14.97895 v 8.5775 c 0,6.3539 -3.63133,9.5312 -10.89193,9.5312 h -11.02946 c -0.90732,-23.4097 -10.91453,-37.1712 -27.50489,-37.1712 -12.86666,0 -27.9134,10.7297 -27.9134,33.0873 0,15.7511 8.73653,24.5086 23.41994,24.5086 h 15.79592 c -8.99723,13.1875 -26.29584,12.2541 -40.57686,12.2541 v 20.4244 c 27.47615,0.3678 45.35775,-2.7628 55.00983,-32.6785 h 4.62894 c 10.68461,0 17.2329,-4.4692 20.01437,-18.3817 h 0.81701 c 2.73017,13.6423 10.50192,18.3817 24.1014,18.3817 h 38.94285 c 24.20817,0 36.21883,-8.7592 36.21883,-29.8191 0,-12.9009 -4.40316,-33.2239 -32.13382,-33.2239 z m 1.41433,20.3481 c 8.18641,0.043 16.77719,1.9237 17.10152,11.6498 0,8.542 -5.22424,10.6204 -22.60084,10.6204 h -34.17634 l -0.40854,-0.8166 c 10.34795,-16.8041 15.04676,-21.377 36.62528,-21.377 1.12903,-0.051 2.28883,-0.082 3.45892,-0.077 z m -121.50881,5.5224 c 7.46998,0 15.65842,4.7954 15.65842,16.7478 h -17.01938 c -10.55325,0 -11.16704,-4.469 -11.16704,-6.8072 0,-6.3051 6.03717,-9.9406 12.528,-9.9406 z"
         clip-path="none"
         transform="translate(935.80336)" />
      <path
         id="path13117"
         style="font-weight:bold;font-size:66.3308px;line-height:1.25;font-family:'IBM Plex Sans Arabic';-inkscape-font-specification:'IBM Plex Sans Arabic Bold';letter-spacing:0px;fill:#5020df;fill-opacity:1;stroke-width:0.264584"
         d="m 47.06486,7831.0773 c 7.98724,0 13.75345,-5.9653 13.75345,-13.8887 0,-4.588 -2.2806,-8.2488 -5.71897,-10.4838 v -0.6811 l 16.06693,-7.3522 -3.94952,-8.7146 -19.60794,8.9858 c -9.44062,4.2663 -14.1599,10.4844 -14.1599,18.6542 0,7.7184 5.73127,13.4804 13.61595,13.4804 z m 0.16421,-9.5223 c -1.27681,-0.051 -2.53721,-0.5305 -3.42401,-1.5067 -1.15367,-1.0478 -3.46916,-5.3366 1.36101,-8.8513 3.35827,1.6799 9.81629,5.0919 5.58346,9.2596 -0.95042,0.761 -2.24363,1.1464 -3.52046,1.0984 z m -23.7114,-14.354 c 8.56203,0 14.84144,-5.3644 14.84144,-13.2079 0,-2.8137 -0.90732,-5.2193 -2.72404,-7.2166 l 0.14378,-0.6813 h 5.71897 v -11.0285 H 9.22643 v 11.9826 h 10.07698 c 6.26296,0 9.39546,1.497 9.39546,4.4927 0,1.949 -1.87001,3.6764 -5.17497,3.6764 -2.81431,0 -5.31047,-1.0887 -7.48844,-3.2675 l -6.53599,9.1229 c 3.25772,3.4202 8.24798,6.1272 14.02443,6.1272 z m 232.56091,-18.8716 v -67.864 c 0.16421,-19.5423 9.47961,-26.5293 30.09135,-24.6442 10.30487,0 19.19942,5.0365 19.19942,17.9726 0,8.6015 -3.98644,18.1775 -5.85446,22.1945 l 13.07196,3.8122 c 4.17531,-10.0579 6.39844,-20.4893 6.39844,-28.7294 0,-14.7925 -5.39669,-37.3079 -38.26133,-37.3079 -28.48401,0 -40.98325,15.1686 -40.98325,46.7022 v 67.864 z M 33.4571,7770.2738 v -63.8321 H 17.11719 v 63.8321 z m 46.42925,-0.7891 c 25.97147,0.5401 39.13375,-20.904 50.65183,-41.1216 2.17998,1.4523 3.26795,4.1312 3.26795,8.0345 v 8.5775 h 14.97895 v -8.5775 c 0,-6.3539 3.63133,-9.5312 10.89193,-9.5312 h 11.02946 c 0.90732,23.4097 10.91453,37.1712 27.50489,37.1712 12.86666,0 27.9134,-10.7297 27.9134,-33.0873 0,-15.7511 -8.73653,-24.5086 -23.41994,-24.5086 H 186.9089 c 8.99723,-13.1875 26.29584,-12.2541 40.57686,-12.2541 v -20.4244 c -27.47615,-0.3678 -45.35775,2.7628 -55.00983,32.6785 h -4.62894 c -10.68461,0 -17.2329,4.4692 -20.01437,18.3817 h -0.81701 c -2.73017,-13.6423 -10.50192,-18.3817 -24.1014,-18.3817 H 83.97136 c -24.20817,0 -36.21883,8.7592 -36.21883,29.8191 0,12.9009 4.40316,33.2239 32.13382,33.2239 z m -1.41433,-20.3481 c -8.18641,-0.043 -16.77719,-1.9237 -17.10152,-11.6498 0,-8.542 5.22424,-10.6204 22.60084,-10.6204 h 34.17634 l 0.40854,0.8166 c -10.34795,16.8041 -15.04676,21.377 -36.62528,21.377 -1.12903,0.051 -2.28883,0.082 -3.45892,0.077 z m 121.50881,-5.5224 c -7.46998,0 -15.65842,-4.7954 -15.65842,-16.7478 h 17.01938 c 10.55325,0 11.16704,4.469 11.16704,6.8072 0,6.3051 -6.03717,9.9406 -12.528,9.9406 z"
         clip-path="none" />
    </g>
  </g>
</svg>
