<?xml version="1.0" encoding="UTF-8" standalone="no"?>
<!-- Created with Inkscape (http://www.inkscape.org/) -->

<svg
   width="668.86664mm"
   height="668.86664mm"
   viewBox="0 0 668.86664 668.86664"
   version="1.1"
   id="svg1"
   xml:space="preserve"
   inkscape:version="1.4.2 (ebf0e94, 2025-05-08)"
   sodipodi:docname="final-logo V.svg"
   xmlns:inkscape="http://www.inkscape.org/namespaces/inkscape"
   xmlns:sodipodi="http://sodipodi.sourceforge.net/DTD/sodipodi-0.dtd"
   xmlns="http://www.w3.org/2000/svg"
   xmlns:svg="http://www.w3.org/2000/svg"><sodipodi:namedview
     id="namedview1"
     pagecolor="#ffffff"
     bordercolor="#000000"
     borderopacity="0.25"
     inkscape:showpageshadow="2"
     inkscape:pageopacity="0.0"
     inkscape:pagecheckerboard="0"
     inkscape:deskcolor="#d1d1d1"
     inkscape:document-units="mm"
     showguides="false"
     inkscape:zoom="0.1767767"
     inkscape:cx="1069.1455"
     inkscape:cy="1745.1395"
     inkscape:window-width="1920"
     inkscape:window-height="1048"
     inkscape:window-x="0"
     inkscape:window-y="0"
     inkscape:window-maximized="1"
     inkscape:current-layer="layer1"><sodipodi:guide
       position="-1633.0517,1774.8963"
       orientation="0,-1"
       id="guide11"
       inkscape:locked="false" /><sodipodi:guide
       position="-1733.3135,1819.8959"
       orientation="1,0"
       id="guide13"
       inkscape:locked="false" /><sodipodi:guide
       position="-1637.2946,1723.4285"
       orientation="0,-1"
       id="guide59"
       inkscape:locked="false" /><sodipodi:guide
       position="-1633.0892,1733.4284"
       orientation="1,0"
       id="guide63"
       inkscape:locked="false" /><sodipodi:guide
       position="-1705.143,1583.2552"
       orientation="0,-1"
       id="guide66"
       inkscape:locked="false" /><sodipodi:guide
       position="-1669.143,1547.2552"
       orientation="1,0"
       id="guide67"
       inkscape:locked="false" /><sodipodi:guide
       position="167.73551,-717.87719"
       orientation="1,0"
       id="guide106"
       inkscape:locked="false" /><sodipodi:guide
       position="164.47471,-735.12417"
       orientation="1,0"
       id="guide107"
       inkscape:locked="false" /><sodipodi:guide
       position="124.30771,-687.93239"
       orientation="1,0"
       id="guide108"
       inkscape:locked="false" /></sodipodi:namedview><defs
     id="defs1"><inkscape:path-effect
       effect="fillet_chamfer"
       id="path-effect65"
       is_visible="true"
       lpeversion="1"
       nodesatellites_param="F,0,0,1,0,9.99991,0,1 @ F,0,0,1,0,0,0,1 @ F,0,0,1,0,0,0,1 @ F,0,0,1,0,0,0,1 | F,0,0,1,0,0,0,1 @ F,0,0,1,0,0,0,1 @ F,0,0,1,0,0,0,1 @ F,0,0,1,0,0,0,1 | F,0,0,1,0,0,0,1 @ F,0,0,1,0,0,0,1 @ F,0,0,1,0,0,0,1 @ F,0,0,1,0,0,0,1"
       radius="0"
       unit="px"
       method="auto"
       mode="F"
       chamfer_steps="1"
       flexible="false"
       use_knot_distance="true"
       apply_no_radius="true"
       apply_with_radius="true"
       only_selected="false"
       hide_knots="false" /><inkscape:path-effect
       effect="fillet_chamfer"
       id="path-effect14"
       is_visible="true"
       lpeversion="1"
       nodesatellites_param="F,0,0,1,0,0,0,1 @ F,0,0,1,0,0,0,1 @ F,0,0,1,0,0,0,1 @ F,0,1,1,0,9.99991,0,1 | F,0,0,1,0,9.99991,0,1 @ F,0,0,1,0,0,0,1 @ F,0,0,1,0,0,0,1 @ F,0,0,1,0,0,0,1"
       radius="0"
       unit="px"
       method="auto"
       mode="F"
       chamfer_steps="1"
       flexible="false"
       use_knot_distance="true"
       apply_no_radius="true"
       apply_with_radius="true"
       only_selected="false"
       hide_knots="false" /><inkscape:path-effect
       effect="fillet_chamfer"
       id="path-effect13"
       is_visible="true"
       lpeversion="1"
       nodesatellites_param="F,0,0,1,0,0,0,1 @ F,0,0,1,0,0,0,1 @ F,0,0,1,0,0,0,1 @ F,0,0,1,0,0,0,1 @ F,0,0,1,0,0,0,1 @ F,0,0,1,0,0,0,1 | F,0,0,1,0,0,0,1 @ F,0,0,1,0,9.99991,0,1 @ F,0,0,1,0,0,0,1 @ F,0,0,1,0,0,0,1"
       radius="0"
       unit="px"
       method="auto"
       mode="F"
       chamfer_steps="1"
       flexible="false"
       use_knot_distance="true"
       apply_no_radius="true"
       apply_with_radius="true"
       only_selected="false"
       hide_knots="false" /><inkscape:path-effect
       effect="fillet_chamfer"
       id="path-effect11"
       is_visible="true"
       lpeversion="1"
       nodesatellites_param="F,0,0,1,0,0,0,1 @ F,0,0,1,0,0,0,1 @ F,0,0,1,0,0,0,1 @ F,0,0,1,0,0,0,1 @ F,0,0,1,0,0,0,1 @ F,0,0,1,0,0,0,1 | F,0,0,1,0,0,0,1 @ F,0,0,1,0,9.99991,0,1 @ F,0,0,1,0,0,0,1 @ F,0,0,1,0,0,0,1"
       radius="0"
       unit="px"
       method="auto"
       mode="F"
       chamfer_steps="1"
       flexible="false"
       use_knot_distance="true"
       apply_no_radius="true"
       apply_with_radius="true"
       only_selected="false"
       hide_knots="false" /><inkscape:path-effect
       effect="fillet_chamfer"
       id="path-effect9"
       is_visible="true"
       lpeversion="1"
       nodesatellites_param="F,0,0,1,0,0,0,1 @ F,0,0,1,0,0,0,1 @ F,0,0,1,0,0,0,1 @ F,0,0,1,0,0,0,1 @ F,0,0,1,0,0,0,1 @ F,0,0,1,0,0,0,1 | F,0,0,1,0,0,0,1 @ F,0,0,1,0,9.99991,0,1 @ F,0,0,1,0,0,0,1 @ F,0,0,1,0,0,0,1"
       radius="0"
       unit="px"
       method="auto"
       mode="F"
       chamfer_steps="1"
       flexible="false"
       use_knot_distance="true"
       apply_no_radius="true"
       apply_with_radius="true"
       only_selected="false"
       hide_knots="false" /><inkscape:path-effect
       effect="fillet_chamfer"
       id="path-effect4"
       is_visible="true"
       lpeversion="1"
       nodesatellites_param="F,0,0,1,0,11.430208,0,1 @ F,0,0,1,0,0,0,1 @ F,0,0,1,0,0,0,1 @ F,0,0,1,0,0,0,1"
       radius="0"
       unit="px"
       method="auto"
       mode="F"
       chamfer_steps="1"
       flexible="false"
       use_knot_distance="true"
       apply_no_radius="true"
       apply_with_radius="true"
       only_selected="false"
       hide_knots="false" /><inkscape:path-effect
       effect="fillet_chamfer"
       id="path-effect3"
       is_visible="true"
       lpeversion="1"
       nodesatellites_param="F,0,0,1,0,0,0,1 @ F,0,0,1,0,11.430208,0,1 @ F,0,0,1,0,0,0,1 @ F,0,0,1,0,0,0,1"
       radius="0"
       unit="px"
       method="auto"
       mode="F"
       chamfer_steps="1"
       flexible="false"
       use_knot_distance="true"
       apply_no_radius="true"
       apply_with_radius="true"
       only_selected="false"
       hide_knots="false" /><inkscape:path-effect
       effect="fillet_chamfer"
       id="path-effect65-1"
       is_visible="true"
       lpeversion="1"
       nodesatellites_param="F,0,0,1,0,9.99991,0,1 @ F,0,0,1,0,0,0,1 @ F,0,0,1,0,0,0,1 @ F,0,0,1,0,0,0,1 | F,0,0,1,0,0,0,1 @ F,0,0,1,0,0,0,1 @ F,0,0,1,0,0,0,1 @ F,0,0,1,0,0,0,1 | F,0,0,1,0,0,0,1 @ F,0,0,1,0,0,0,1 @ F,0,0,1,0,0,0,1 @ F,0,0,1,0,0,0,1"
       radius="0"
       unit="px"
       method="auto"
       mode="F"
       chamfer_steps="1"
       flexible="false"
       use_knot_distance="true"
       apply_no_radius="true"
       apply_with_radius="true"
       only_selected="false"
       hide_knots="false" /><inkscape:path-effect
       effect="fillet_chamfer"
       id="path-effect14-2"
       is_visible="true"
       lpeversion="1"
       nodesatellites_param="F,0,0,1,0,0,0,1 @ F,0,0,1,0,0,0,1 @ F,0,0,1,0,0,0,1 @ F,0,1,1,0,9.99991,0,1 | F,0,0,1,0,9.99991,0,1 @ F,0,0,1,0,0,0,1 @ F,0,0,1,0,0,0,1 @ F,0,0,1,0,0,0,1"
       radius="0"
       unit="px"
       method="auto"
       mode="F"
       chamfer_steps="1"
       flexible="false"
       use_knot_distance="true"
       apply_no_radius="true"
       apply_with_radius="true"
       only_selected="false"
       hide_knots="false" /><inkscape:path-effect
       effect="fillet_chamfer"
       id="path-effect13-7"
       is_visible="true"
       lpeversion="1"
       nodesatellites_param="F,0,0,1,0,0,0,1 @ F,0,0,1,0,0,0,1 @ F,0,0,1,0,0,0,1 @ F,0,0,1,0,0,0,1 @ F,0,0,1,0,0,0,1 @ F,0,0,1,0,0,0,1 | F,0,0,1,0,0,0,1 @ F,0,0,1,0,9.99991,0,1 @ F,0,0,1,0,0,0,1 @ F,0,0,1,0,0,0,1"
       radius="0"
       unit="px"
       method="auto"
       mode="F"
       chamfer_steps="1"
       flexible="false"
       use_knot_distance="true"
       apply_no_radius="true"
       apply_with_radius="true"
       only_selected="false"
       hide_knots="false" /><inkscape:path-effect
       effect="fillet_chamfer"
       id="path-effect11-0"
       is_visible="true"
       lpeversion="1"
       nodesatellites_param="F,0,0,1,0,0,0,1 @ F,0,0,1,0,0,0,1 @ F,0,0,1,0,0,0,1 @ F,0,0,1,0,0,0,1 @ F,0,0,1,0,0,0,1 @ F,0,0,1,0,0,0,1 | F,0,0,1,0,0,0,1 @ F,0,0,1,0,9.99991,0,1 @ F,0,0,1,0,0,0,1 @ F,0,0,1,0,0,0,1"
       radius="0"
       unit="px"
       method="auto"
       mode="F"
       chamfer_steps="1"
       flexible="false"
       use_knot_distance="true"
       apply_no_radius="true"
       apply_with_radius="true"
       only_selected="false"
       hide_knots="false" /><inkscape:path-effect
       effect="fillet_chamfer"
       id="path-effect9-9"
       is_visible="true"
       lpeversion="1"
       nodesatellites_param="F,0,0,1,0,0,0,1 @ F,0,0,1,0,0,0,1 @ F,0,0,1,0,0,0,1 @ F,0,0,1,0,0,0,1 @ F,0,0,1,0,0,0,1 @ F,0,0,1,0,0,0,1 | F,0,0,1,0,0,0,1 @ F,0,0,1,0,9.99991,0,1 @ F,0,0,1,0,0,0,1 @ F,0,0,1,0,0,0,1"
       radius="0"
       unit="px"
       method="auto"
       mode="F"
       chamfer_steps="1"
       flexible="false"
       use_knot_distance="true"
       apply_no_radius="true"
       apply_with_radius="true"
       only_selected="false"
       hide_knots="false" /><inkscape:path-effect
       effect="fillet_chamfer"
       id="path-effect4-3"
       is_visible="true"
       lpeversion="1"
       nodesatellites_param="F,0,0,1,0,11.430208,0,1 @ F,0,0,1,0,0,0,1 @ F,0,0,1,0,0,0,1 @ F,0,0,1,0,0,0,1"
       radius="0"
       unit="px"
       method="auto"
       mode="F"
       chamfer_steps="1"
       flexible="false"
       use_knot_distance="true"
       apply_no_radius="true"
       apply_with_radius="true"
       only_selected="false"
       hide_knots="false" /><inkscape:path-effect
       effect="fillet_chamfer"
       id="path-effect3-6"
       is_visible="true"
       lpeversion="1"
       nodesatellites_param="F,0,0,1,0,0,0,1 @ F,0,0,1,0,11.430208,0,1 @ F,0,0,1,0,0,0,1 @ F,0,0,1,0,0,0,1"
       radius="0"
       unit="px"
       method="auto"
       mode="F"
       chamfer_steps="1"
       flexible="false"
       use_knot_distance="true"
       apply_no_radius="true"
       apply_with_radius="true"
       only_selected="false"
       hide_knots="false" /><inkscape:path-effect
       effect="fillet_chamfer"
       id="path-effect65-8"
       is_visible="true"
       lpeversion="1"
       nodesatellites_param="F,0,0,1,0,9.99991,0,1 @ F,0,0,1,0,0,0,1 @ F,0,0,1,0,0,0,1 @ F,0,0,1,0,0,0,1 | F,0,0,1,0,0,0,1 @ F,0,0,1,0,0,0,1 @ F,0,0,1,0,0,0,1 @ F,0,0,1,0,0,0,1 | F,0,0,1,0,0,0,1 @ F,0,0,1,0,0,0,1 @ F,0,0,1,0,0,0,1 @ F,0,0,1,0,0,0,1"
       radius="0"
       unit="px"
       method="auto"
       mode="F"
       chamfer_steps="1"
       flexible="false"
       use_knot_distance="true"
       apply_no_radius="true"
       apply_with_radius="true"
       only_selected="false"
       hide_knots="false" /><inkscape:path-effect
       effect="fillet_chamfer"
       id="path-effect14-4"
       is_visible="true"
       lpeversion="1"
       nodesatellites_param="F,0,0,1,0,0,0,1 @ F,0,0,1,0,0,0,1 @ F,0,0,1,0,0,0,1 @ F,0,1,1,0,9.99991,0,1 | F,0,0,1,0,9.99991,0,1 @ F,0,0,1,0,0,0,1 @ F,0,0,1,0,0,0,1 @ F,0,0,1,0,0,0,1"
       radius="0"
       unit="px"
       method="auto"
       mode="F"
       chamfer_steps="1"
       flexible="false"
       use_knot_distance="true"
       apply_no_radius="true"
       apply_with_radius="true"
       only_selected="false"
       hide_knots="false" /><inkscape:path-effect
       effect="fillet_chamfer"
       id="path-effect13-5"
       is_visible="true"
       lpeversion="1"
       nodesatellites_param="F,0,0,1,0,0,0,1 @ F,0,0,1,0,0,0,1 @ F,0,0,1,0,0,0,1 @ F,0,0,1,0,0,0,1 @ F,0,0,1,0,0,0,1 @ F,0,0,1,0,0,0,1 | F,0,0,1,0,0,0,1 @ F,0,0,1,0,9.99991,0,1 @ F,0,0,1,0,0,0,1 @ F,0,0,1,0,0,0,1"
       radius="0"
       unit="px"
       method="auto"
       mode="F"
       chamfer_steps="1"
       flexible="false"
       use_knot_distance="true"
       apply_no_radius="true"
       apply_with_radius="true"
       only_selected="false"
       hide_knots="false" /><inkscape:path-effect
       effect="fillet_chamfer"
       id="path-effect11-03"
       is_visible="true"
       lpeversion="1"
       nodesatellites_param="F,0,0,1,0,0,0,1 @ F,0,0,1,0,0,0,1 @ F,0,0,1,0,0,0,1 @ F,0,0,1,0,0,0,1 @ F,0,0,1,0,0,0,1 @ F,0,0,1,0,0,0,1 | F,0,0,1,0,0,0,1 @ F,0,0,1,0,9.99991,0,1 @ F,0,0,1,0,0,0,1 @ F,0,0,1,0,0,0,1"
       radius="0"
       unit="px"
       method="auto"
       mode="F"
       chamfer_steps="1"
       flexible="false"
       use_knot_distance="true"
       apply_no_radius="true"
       apply_with_radius="true"
       only_selected="false"
       hide_knots="false" /><inkscape:path-effect
       effect="fillet_chamfer"
       id="path-effect9-6"
       is_visible="true"
       lpeversion="1"
       nodesatellites_param="F,0,0,1,0,0,0,1 @ F,0,0,1,0,0,0,1 @ F,0,0,1,0,0,0,1 @ F,0,0,1,0,0,0,1 @ F,0,0,1,0,0,0,1 @ F,0,0,1,0,0,0,1 | F,0,0,1,0,0,0,1 @ F,0,0,1,0,9.99991,0,1 @ F,0,0,1,0,0,0,1 @ F,0,0,1,0,0,0,1"
       radius="0"
       unit="px"
       method="auto"
       mode="F"
       chamfer_steps="1"
       flexible="false"
       use_knot_distance="true"
       apply_no_radius="true"
       apply_with_radius="true"
       only_selected="false"
       hide_knots="false" /><inkscape:path-effect
       effect="fillet_chamfer"
       id="path-effect4-1"
       is_visible="true"
       lpeversion="1"
       nodesatellites_param="F,0,0,1,0,11.430208,0,1 @ F,0,0,1,0,0,0,1 @ F,0,0,1,0,0,0,1 @ F,0,0,1,0,0,0,1"
       radius="0"
       unit="px"
       method="auto"
       mode="F"
       chamfer_steps="1"
       flexible="false"
       use_knot_distance="true"
       apply_no_radius="true"
       apply_with_radius="true"
       only_selected="false"
       hide_knots="false" /><inkscape:path-effect
       effect="fillet_chamfer"
       id="path-effect3-0"
       is_visible="true"
       lpeversion="1"
       nodesatellites_param="F,0,0,1,0,0,0,1 @ F,0,0,1,0,11.430208,0,1 @ F,0,0,1,0,0,0,1 @ F,0,0,1,0,0,0,1"
       radius="0"
       unit="px"
       method="auto"
       mode="F"
       chamfer_steps="1"
       flexible="false"
       use_knot_distance="true"
       apply_no_radius="true"
       apply_with_radius="true"
       only_selected="false"
       hide_knots="false" /><clipPath
       clipPathUnits="userSpaceOnUse"
       id="clipPath180"><rect
         style="fill:#ffffff;fill-opacity:1;fill-rule:evenodd;stroke:none;stroke-width:0.500002;stroke-dasharray:none;stroke-opacity:1"
         id="rect181"
         width="944.47827"
         height="531.26898"
         x="2838.5586"
         y="3332.0281" /></clipPath></defs><g
     inkscape:label="Layer 1"
     inkscape:groupmode="layer"
     id="layer1"
     transform="translate(-1246.1776,-1530.3044)"><g
       id="g277"
       transform="matrix(6.0508445,0,0,6.0508445,5295.2363,-17231.858)"
       style="stroke-width:0.165266"><g
         id="g276"
         transform="matrix(1.5949337,0,0,1.5949337,694.47031,-1992.4791)"
         style="stroke-width:0.10362"><path
           id="path268"
           style="color:#000000;fill:#003c66;fill-opacity:1;fill-rule:evenodd;stroke-width:0.103619;-inkscape-stroke:none"
           d="m -826.23041,3201.2309 v 10.2917 h 1.50883 v -8.783 h 17.56583 v 17.5662 h -8.78295 v 1.5084 h 10.29174 v -20.5833 z" /><path
           style="color:#000000;fill:#003c66;fill-opacity:1;fill-rule:evenodd;stroke-width:0.103619;-inkscape-stroke:none"
           d="m -840.2609,3208.1445 v 6.7562 h 20.94411 v 20.9441 h 6.75617 v -27.7003 z"
           id="path269" /><path
           style="fill:#e79c19;fill-opacity:1;fill-rule:evenodd;stroke:none;stroke-width:0.0259049;stroke-dasharray:none"
           d="m -831.47782,3195.9834 v 3.9403 8.2207 h 3.94032 v -8.2207 h 23.19763 v 23.1977 h -8.22071 v 3.9403 h 8.22071 3.94033 v -3.9403 -27.138 z"
           id="path270" /></g><g
         id="g275"
         transform="matrix(7.4850772,0,0,7.4850772,782.0796,1936.944)"
         style="stroke-width:0.0220794"><path
           id="path274"
           style="font-weight:bold;font-size:3.52777px;line-height:1.25;font-family:Helvetica;-inkscape-font-specification:'Helvetica Bold';text-align:justify;letter-spacing:0px;fill:#003c66;fill-opacity:1;stroke-width:0.00584184"
           d="m -184.21193,165.62191 v 0.41548 h 0.45682 v -0.41548 z m -9.60406,0.004 v 0.4129 h 0.70073 v 1.91771 h 0.48989 v -1.91771 h 0.69712 v -0.4129 z m 14.1087,0.0103 v 2.33061 h 0.45062 v -2.33061 z m -8.46357,0.009 v 2.32286 h 0.44907 v -0.93328 c 0,-0.29094 0.12184,-0.45992 0.3638,-0.45992 0.0668,0 0.28112,8.9e-4 0.28112,0.34468 v 1.04852 h 0.45992 v -1.01234 c 0,-0.41064 -0.11042,-0.74361 -0.6072,-0.75551 -0.10662,-0.003 -0.32833,0.009 -0.49764,0.26871 v -0.82372 z m -2.9254,0.55294 c -0.74098,0 -0.81546,0.65873 -0.81546,0.92501 0,0.84214 0.64924,0.90123 0.83148,0.90123 0.59368,0 0.76498,-0.43704 0.77928,-0.56275 h -0.45992 c -0.0404,0.0845 -0.11702,0.19792 -0.30954,0.19792 -0.12234,0 -0.37288,-0.0473 -0.38758,-0.42892 h 1.17926 c -0.006,-0.5358 -0.17384,-1.03249 -0.81752,-1.03249 z m 10.25674,0.004 c -0.49081,0 -0.71601,0.22037 -0.74001,0.59944 h 0.4346 c 0.0284,-0.1777 0.12283,-0.23719 0.28939,-0.23719 0.26384,0 0.2899,0.10405 0.2899,0.18655 0,0.12267 -0.14029,0.15033 -0.27543,0.16743 -0.39439,0.0519 -0.76729,0.12186 -0.79479,0.58963 0,0.38394 0.28936,0.51263 0.53899,0.51263 0.2159,-0.0315 0.39401,-0.0838 0.54363,-0.25632 0.005,0.0733 0.0149,0.13568 0.0413,0.20258 h 0.48989 v -0.0667 c -0.0728,-0.0338 -0.088,-0.0771 -0.093,-0.17208 -0.001,-0.078 -0.002,-0.14457 -0.002,-0.19947 V 166.738 c 0,-0.4367 -0.37832,-0.53588 -0.72243,-0.53588 z m -4.4018,5.1e-4 c -0.22043,0 -0.39809,0.0892 -0.51677,0.29559 v -0.25115 h -0.43511 v 1.7198 h 0.44907 v -0.93276 c 0,-0.36504 0.1791,-0.45682 0.35915,-0.45682 0.26649,0 0.28939,0.20162 0.28939,0.34158 v 1.048 h 0.46147 v -1.16014 c 0,-0.50878 -0.34737,-0.6041 -0.6072,-0.6041 z m 2.63911,0 c -0.48855,0 -0.81442,0.32048 -0.81442,0.93741 0,0.3068 0.0946,0.88677 0.80822,0.88677 0.61799,0 0.76258,-0.50668 0.77618,-0.68419 h -0.45992 c -0.0568,0.18696 -0.0871,0.28964 -0.30541,0.30644 -0.30419,0 -0.34778,-0.30275 -0.34778,-0.52039 0,-0.18638 0.0249,-0.54518 0.35554,-0.54518 0.22309,0 0.28535,0.16074 0.30075,0.27802 h 0.46147 c -0.083,-0.43905 -0.31506,-0.65388 -0.77463,-0.65888 z m -6.65644,0.001 c -0.48855,0 -0.81442,0.32048 -0.81442,0.93741 0,0.3068 0.0946,0.88676 0.80822,0.88676 0.61799,0 0.76258,-0.50665 0.77618,-0.68419 h -0.45992 c -0.0568,0.18699 -0.0871,0.28964 -0.30541,0.30644 -0.30419,0 -0.34778,-0.30274 -0.34778,-0.52038 0,-0.18638 0.025,-0.54519 0.35553,-0.54519 0.22309,0 0.28536,0.16074 0.30076,0.27802 h 0.46147 c -0.083,-0.43905 -0.31506,-0.65387 -0.77463,-0.65887 z m 5.04672,0.0398 v 1.72341 h 0.45682 v -1.72341 z m -6.88433,0.32659 c 0.28873,0 0.34185,0.23764 0.34985,0.3638 h -0.70073 c 0.0224,-0.16905 0.10209,-0.3638 0.35088,-0.3638 z m 10.52907,0.55862 v 0.16795 c -0.007,0.35418 -0.26974,0.39688 -0.39532,0.39688 -0.0754,0 -0.21963,-0.0256 -0.21963,-0.21859 0,-0.18191 0.14781,-0.2222 0.30799,-0.2527 0.10583,-0.0201 0.21496,-0.0322 0.30696,-0.0935 z" /><path
           id="path275"
           style="font-size:16.5195px;line-height:1.25;font-family:Helvetica;-inkscape-font-specification:Helvetica;text-align:justify;letter-spacing:0px;fill:#394146;fill-opacity:1;stroke-width:0.00584188"
           d="m -183.92719,168.41088 c -0.21852,0.009 -0.31109,0.15225 -0.31109,0.29818 0,0.16809 0.14297,0.21258 0.20619,0.22737 l 0.1974,0.046 c 0.15869,0.0376 0.20567,0.0696 0.20567,0.17053 0,0.13853 -0.15855,0.16278 -0.25269,0.16278 -0.12373,0 -0.26614,-0.0511 -0.26614,-0.22583 h -0.12247 c 0,0.0901 0.0161,0.17098 0.0982,0.24495 0.043,0.039 0.11311,0.0925 0.29198,0.0925 0.16541,0 0.37775,-0.0633 0.37775,-0.29197 0,-0.15332 -0.094,-0.22827 -0.21911,-0.25787 l -0.27595,-0.0636 c -0.0564,-0.0135 -0.1142,-0.0399 -0.1142,-0.12196 0,-0.14658 0.13861,-0.1695 0.22065,-0.1695 0.10893,0 0.23256,0.0471 0.23927,0.19638 h 0.12247 c -0.006,-0.10625 -0.0392,-0.308 -0.37672,-0.308 -0.007,0 -0.0141,-2.8e-4 -0.0212,0 z m -9.58391,0.0119 c -0.11566,0 -0.18294,0.0482 -0.18294,0.15451 v 0.12144 h -0.0966 v 0.0982 h 0.0966 v 0.60513 h 0.11834 v -0.60513 h 0.11834 v -0.0982 h -0.11834 v -0.0879 c 0,-0.0564 0.0187,-0.0822 0.0698,-0.0822 0.0149,0 0.0338,0.002 0.0486,0.003 v -0.10594 c -0.0188,-0.002 -0.0361,-0.003 -0.0537,-0.003 z m 1.72031,0.0134 v 0.96583 h 0.71262 v -0.11576 h -0.5824 v -0.32298 h 0.52865 v -0.11575 h -0.52865 v -0.29559 h 0.57309 v -0.11575 z m 2.36678,0 v 0.13435 h 0.11834 v -0.13435 z m 3.01015,0 v 0.13435 h 0.11834 v -0.13435 z m 4.97334,0 v 0.13435 h 0.11834 v -0.13435 z m -8.47442,0.24132 v 5.2e-4 c -0.18694,0 -0.293,0.1537 -0.293,0.3514 0,0.16812 0.0696,0.39274 0.30902,0.39274 0.0941,0 0.15614,-0.0443 0.18707,-0.0941 v -0.006 h 0.003 v 0.0294 c 0,0.0834 0.004,0.24753 -0.2005,0.24753 -0.0283,0 -0.13714,1e-5 -0.15865,-0.11162 h -0.11834 c 0.0229,0.18694 0.18585,0.20981 0.26923,0.20981 0.32546,0 0.3266,-0.25261 0.3266,-0.35347 v -0.64544 h -0.11162 v 0.0992 h -0.003 c -0.0394,-0.0682 -0.0951,-0.11989 -0.20981,-0.11989 z m 3.35794,0 c -0.0464,-7.9e-4 -0.12696,0.0188 -0.19534,0.13798 h -0.003 v -0.11731 h -0.11163 v 0.70332 h 0.11834 v -0.40876 c 0,-0.10222 0.0701,-0.1881 0.18035,-0.1881 h 0.0444 v -0.12247 c -0.006,-0.002 -0.0181,-0.004 -0.0336,-0.005 z m 1.4459,0 v 5.2e-4 c -0.18694,0 -0.293,0.15371 -0.293,0.3514 0,0.16813 0.0701,0.39222 0.30954,0.39222 0.0941,0 0.1556,-0.0443 0.18655,-0.0941 v -0.006 h 0.003 v 0.0294 c 0,0.0834 0.004,0.24753 -0.2005,0.24753 -0.0283,0 -0.13713,1e-5 -0.15865,-0.11162 h -0.11834 c 0.0229,0.18694 0.18585,0.20981 0.26924,0.20981 0.32546,0 0.32659,-0.25261 0.32659,-0.35347 v -0.64595 h -0.11162 v 0.0997 h -0.003 c -0.0394,-0.0682 -0.0951,-0.11989 -0.20981,-0.11989 z m -7.99124,5.2e-4 c -0.22461,0 -0.3266,0.18999 -0.3266,0.37155 0,0.18157 0.10199,0.37104 0.3266,0.37104 0.2246,0 0.32659,-0.18947 0.32659,-0.37104 0,-0.18156 -0.10199,-0.37155 -0.32659,-0.37155 z m 0.77463,0 c -0.0475,0.003 -0.12077,0.0282 -0.18345,0.13746 h -0.003 v -0.11731 h -0.11162 v 0.70384 h 0.11834 v -0.40928 c 0,-0.10221 0.07,-0.1881 0.18035,-0.1881 h 0.0444 v -0.12247 c -0.008,-0.002 -0.0239,-0.005 -0.0455,-0.004 z m 1.73168,0 c -0.12071,2.4e-4 -0.18637,0.0823 -0.21188,0.11989 h -0.003 v -0.0992 h -0.11162 v 0.70332 h 0.11834 v -0.38344 c 0,-0.19098 0.11827,-0.2341 0.18552,-0.2341 0.11565,0 0.15089,0.0622 0.15089,0.18449 v 0.43305 h 0.11834 V 168.923 c 0,-0.2123 -0.15318,-0.24483 -0.24598,-0.24495 z m 1.7942,0 c -0.12071,2.3e-4 -0.18636,0.0823 -0.21187,0.11989 h -0.003 v -0.0992 h -0.11162 v 0.70332 h 0.11834 v -0.38344 c 0,-0.19098 0.11827,-0.2341 0.18551,-0.2341 0.11566,0 0.1509,0.0622 0.1509,0.18449 v 0.43305 h 0.11834 V 168.923 c 0,-0.2123 -0.15319,-0.24483 -0.24598,-0.24495 z m 0.71572,0 c -0.23267,0 -0.32763,0.17385 -0.32763,0.39171 0,0.20308 0.11701,0.35243 0.31471,0.35243 0.28546,0 0.31506,-0.23517 0.31574,-0.24081 h -0.11833 c -0.004,0.0525 -0.0697,0.13849 -0.18139,0.13849 -0.13583,0 -0.20464,-0.085 -0.20464,-0.23151 h 0.51367 c 0,-0.30951 -0.15345,-0.41031 -0.31213,-0.41031 z m 0.74776,0 c -0.23267,0 -0.32763,0.17385 -0.32763,0.39171 0,0.20308 0.117,0.35243 0.31471,0.35243 0.28546,0 0.31506,-0.23517 0.31574,-0.24081 h -0.11834 c -0.004,0.0525 -0.0697,0.13849 -0.18138,0.13849 -0.13582,0 -0.20464,-0.085 -0.20464,-0.23151 h 0.51366 c 0,-0.30951 -0.15343,-0.41031 -0.31212,-0.41031 z m 1.54616,0 c -0.1207,2.4e-4 -0.18636,0.0823 -0.21188,0.11989 h -0.003 v -0.0997 h -0.1111 v 0.70384 h 0.11834 v -0.38344 c 0,-0.19097 0.11827,-0.2341 0.18552,-0.2341 0.11566,0 0.15037,0.062 0.15037,0.18449 v 0.43305 h 0.11834 V 168.923 c 0,-0.21229 -0.15318,-0.24483 -0.24598,-0.24495 z m 2.74453,0 c -0.23266,0 -0.33796,0.17385 -0.33796,0.39171 0,0.2031 0.11702,0.35243 0.31471,0.35243 0.11298,0 0.15892,-0.0271 0.1912,-0.0486 0.0888,-0.0591 0.12102,-0.15862 0.12506,-0.19224 h -0.11834 c -0.004,0.0525 -0.0697,0.13849 -0.18139,0.13849 -0.13584,0 -0.20463,-0.085 -0.20463,-0.23151 h 0.51366 c 0,-0.2488 -0.0992,-0.41031 -0.30231,-0.41031 z m 0.77153,0 c -0.0888,0 -0.15033,0.0554 -0.1974,0.13746 h -0.003 v -0.11731 h -0.11162 v 0.70332 h 0.11834 v -0.40876 c 0,-0.10223 0.0701,-0.1881 0.18035,-0.1881 h 0.0444 v -0.12247 c -0.009,-0.003 -0.0162,-0.004 -0.031,-0.004 z m 1.42162,0 c -0.23267,0 -0.33745,0.17384 -0.33745,0.39171 0,0.20309 0.11701,0.35191 0.31471,0.35191 0.20576,0 0.27419,-0.15709 0.28629,-0.26871 h -0.1142 c -0.0201,0.1076 -0.0886,0.16691 -0.16795,0.16691 -0.16274,0 -0.19224,-0.14924 -0.19224,-0.27027 0,-0.12509 0.0472,-0.2651 0.19379,-0.2651 0.0995,0 0.1516,0.0562 0.1664,0.15038 h 0.1142 c -0.009,-0.12239 -0.0792,-0.25683 -0.26355,-0.25683 z m 0.68626,0 c -0.23267,0 -0.33796,0.17384 -0.33796,0.39171 0,0.20309 0.11702,0.35191 0.31471,0.35191 0.11297,0 0.15893,-0.0267 0.1912,-0.0481 0.0888,-0.0591 0.12102,-0.15861 0.12506,-0.19224 h -0.11834 c -0.004,0.0525 -0.0697,0.13849 -0.18138,0.13849 -0.13585,0 -0.20464,-0.085 -0.20464,-0.23151 h 0.51366 c 0,-0.24879 -0.0992,-0.41031 -0.30231,-0.41031 z m 0.68833,0 c -0.13852,0 -0.26613,0.0701 -0.26613,0.22479 0,0.0968 0.0646,0.14632 0.16278,0.17054 l 0.13694,0.0336 c 0.10088,0.0255 0.14005,0.0448 0.14005,0.10128 0,0.078 -0.0765,0.11162 -0.16123,0.11162 -0.16676,0 -0.18304,-0.0891 -0.18707,-0.14418 h -0.11421 c 0.004,0.0848 0.0238,0.24598 0.30231,0.24598 0.1587,0 0.27854,-0.0874 0.27854,-0.23254 0,-0.0955 -0.0514,-0.14921 -0.19793,-0.18552 l -0.11833,-0.0294 c -0.0914,-0.0228 -0.12765,-0.0363 -0.12765,-0.0941 0,-0.0874 0.10374,-0.0997 0.14005,-0.0997 0.14929,0 0.16505,0.074 0.1664,0.11834 h 0.11472 c 0,-0.035 -0.0177,-0.22066 -0.26924,-0.22066 z m -6.93394,0.0202 v 0.70384 h 0.11834 v -0.70384 z m 4.22145,0 0.25683,0.70332 h 0.12661 l 0.26716,-0.70332 h -0.12867 l -0.19947,0.5731 h -0.003 l -0.18293,-0.5731 z m 0.75189,0 v 0.70332 h 0.11834 v -0.70332 z m -7.98349,5.2e-4 v 0.70332 h 0.11834 v -0.70332 z m -3.67833,0.0816 c 0.16944,0 0.20464,0.17509 0.20464,0.26923 0,0.0941 -0.0352,0.26872 -0.20464,0.26872 -0.16948,0 -0.20412,-0.17458 -0.20412,-0.26872 0,-0.0941 0.0347,-0.26923 0.20412,-0.26923 z m 3.20911,0.004 c 0.1708,0 0.18965,0.18439 0.18965,0.29869 0,0.18695 -0.11743,0.23668 -0.19275,0.23668 -0.12911,0 -0.18966,-0.11716 -0.18966,-0.27182 0,-0.0901 0.0104,-0.26355 0.19276,-0.26355 z m 1.79989,0 c 0.1439,0 0.18964,0.10087 0.19637,0.20981 h -0.39119 c 0,-0.10894 0.0859,-0.20981 0.19482,-0.20981 z m 0.74775,0 c 0.1439,0 0.18965,0.10087 0.19637,0.20981 h -0.39119 c 0,-0.10894 0.0859,-0.20981 0.19482,-0.20981 z m 2.2562,0 c 0.17081,0 0.18965,0.18438 0.18965,0.29869 0,0.18694 -0.11693,0.23668 -0.19224,0.23668 -0.12911,0 -0.18965,-0.11715 -0.18965,-0.27182 0,-0.09 0.01,-0.26356 0.19224,-0.26355 z m 2.0252,0 c 0.14389,0 0.18964,0.10087 0.19637,0.20981 h -0.39119 c 0,-0.10894 0.0859,-0.20981 0.19482,-0.20981 z m 2.86959,0 c 0.003,-1.9e-4 0.006,0 0.01,0 0.1439,0 0.18964,0.10088 0.19637,0.20981 h -0.39119 c 0,-0.10553 0.0809,-0.20379 0.185,-0.20981 z" /></g></g></g></svg>
