<?xml version="1.0" encoding="UTF-8" standalone="no"?>
<!-- Created with Inkscape (http://www.inkscape.org/) -->

<svg
   width="624.8241mm"
   height="188.21483mm"
   viewBox="0 0 624.8241 188.21483"
   version="1.1"
   id="svg1"
   inkscape:version="1.4.2 (ebf0e94, 2025-05-08)"
   sodipodi:docname="pattern1.svg"
   xmlns:inkscape="http://www.inkscape.org/namespaces/inkscape"
   xmlns:sodipodi="http://sodipodi.sourceforge.net/DTD/sodipodi-0.dtd"
   xmlns:xlink="http://www.w3.org/1999/xlink"
   xmlns="http://www.w3.org/2000/svg"
   xmlns:svg="http://www.w3.org/2000/svg">
  <sodipodi:namedview
     id="namedview1"
     pagecolor="#505050"
     bordercolor="#eeeeee"
     borderopacity="1"
     inkscape:showpageshadow="0"
     inkscape:pageopacity="0"
     inkscape:pagecheckerboard="0"
     inkscape:deskcolor="#505050"
     inkscape:document-units="mm"
     inkscape:zoom="0.71713664"
     inkscape:cx="730.68362"
     inkscape:cy="414.84423"
     inkscape:window-width="1920"
     inkscape:window-height="1048"
     inkscape:window-x="0"
     inkscape:window-y="0"
     inkscape:window-maximized="1"
     inkscape:current-layer="layer1" />
  <defs
     id="defs1">
    <linearGradient
       inkscape:collect="always"
       xlink:href="#linearGradient120"
       id="linearGradient3548"
       gradientUnits="userSpaceOnUse"
       gradientTransform="matrix(0.92247657,0,0,0.49400109,922.92256,8012.2888)"
       x1="-952.56866"
       y1="767.448"
       x2="-282.15781"
       y2="397.31195" />
    <linearGradient
       id="linearGradient120"
       inkscape:collect="always">
      <stop
         style="stop-color:#003c66;stop-opacity:1"
         offset="0"
         id="stop119" />
      <stop
         style="stop-color:#e79c19;stop-opacity:1"
         offset="1"
         id="stop120" />
    </linearGradient>
    <clipPath
       clipPathUnits="userSpaceOnUse"
       id="clipPath3515">
      <rect
         style="opacity:1;mix-blend-mode:normal;fill:url(#linearGradient3516);fill-opacity:1;fill-rule:evenodd;stroke-width:0.25;stroke-linecap:square"
         id="rect3516"
         width="700.3205"
         height="210.95604"
         x="361.85052"
         y="8845.21" />
    </clipPath>
    <linearGradient
       inkscape:collect="always"
       xlink:href="#linearGradient120"
       id="linearGradient3516"
       gradientUnits="userSpaceOnUse"
       gradientTransform="matrix(1.0339378,0,0,0.55369036,1346.7474,8631.237)"
       x1="-952.56866"
       y1="767.448"
       x2="-282.15781"
       y2="397.31195" />
    <linearGradient
       inkscape:collect="always"
       xlink:href="#linearGradient120"
       id="linearGradient1"
       gradientUnits="userSpaceOnUse"
       gradientTransform="matrix(0.92247657,0,0,0.49400109,922.92256,8012.2888)"
       x1="-952.56866"
       y1="767.448"
       x2="-282.15781"
       y2="397.31195" />
  </defs>
  <g
     inkscape:label="Layer 1"
     inkscape:groupmode="layer"
     id="layer1"
     transform="translate(88.106252,-38.629236)">
    <g
       id="g4356"
       transform="translate(-132.30647,-8164.5651)">
      <rect
         style="mix-blend-mode:normal;fill:url(#linearGradient1);fill-opacity:1;fill-rule:evenodd;stroke-width:0.25;stroke-linecap:square"
         id="rect3456"
         width="624.8241"
         height="188.21442"
         x="44.200218"
         y="8203.1943" />
      <g
         id="g3515"
         transform="matrix(0.89219736,0,0,0.89219736,-278.64186,311.52177)"
         style="stroke-width:1.12083"
         clip-path="url(#clipPath3515)">
        <g
           id="g3500"
           style="stroke-width:1.12083">
          <path
             style="color:#000000;fill:#e79c19;fill-opacity:1;fill-rule:evenodd;stroke-width:1.12082;-inkscape-stroke:none"
             d="m 83.850139,8727.2812 v 45.5247 h 45.524591 v -16.7188 -14.7072 h 41.50145 v 41.5014 h -14.70719 v 0 H 139.4502 v 45.5246 h 45.52467 v -16.7188 -14.7072 h 41.50137 v 41.5011 h -14.70718 v 4e-4 h -16.7188 v 45.5246 h 45.52467 v -16.7187 -14.7072 h 41.50137 v 41.5014 h -14.70718 v 0 h -16.71873 v 45.5245 h 45.5246 v -16.7187 -14.7072 h 41.50145 v 41.5014 h -14.70719 -16.71879 v 45.5246 h 45.52459 v -16.7188 -14.7072 h 41.50145 v 41.5015 h -14.70719 v 0 h -16.71879 v 45.5246 h 45.52459 v -16.7188 -14.7071 h 41.50145 v 41.5013 h -14.70719 v 5e-4 h -16.71879 v 45.5246 h 45.52466 v -16.7188 -14.7072 h 41.50138 v 41.5014 h -14.70718 v 0 h -16.7188 v 45.5247 h 45.52467 v -16.7188 -14.7072 h 41.50137 v 41.5014 H 545.3695 v 7.0495 h 14.70718 7.04917 v -7.0495 -48.5505 h -55.60006 v 7.0491 14.7072 9.6693 h -31.42563 v -31.4264 h 9.66928 14.70718 7.04917 v -7.0495 -48.5506 h -55.60007 v 7.0492 14.7072 9.6692 H 424.5001 v -31.4263 h 9.66927 v 3e-4 h 14.70719 7.04916 v -7.0495 -48.5505 h -55.60013 v 7.0491 14.7072 9.6693 h -31.42555 v -31.4263 h 9.66927 14.70719 7.04909 v -7.0496 -48.5505 h -55.60006 v 7.0491 14.7072 9.6693 h -31.42555 v -31.4264 h 9.66927 v 0 h 14.70719 7.04909 v -7.0495 -48.5506 h -55.60006 v 7.0491 14.7072 9.6693 h -31.42563 v -31.4263 h 9.66928 14.70718 7.04917 v -7.0496 -48.5505 h -55.60006 v 7.0492 14.7072 9.6692 h -31.42563 v -31.4263 h 9.66928 v 3e-4 h 14.70718 7.04917 v -7.0495 -48.5505 h -55.60007 v 7.0494 14.7072 9.6693 h -31.42562 v -31.4263 h 9.66927 14.70719 7.04916 v -7.0495 -48.5506 h -55.60006 v 7.0492 14.7071 9.6693 H 90.89966 v -31.4263 h 9.66927 v -7.0488 z"
             id="path3499" />
          <path
             style="color:#000000;fill:#003c66;fill-opacity:1;fill-rule:evenodd;stroke-width:1.12082;-inkscape-stroke:none"
             d="m 78.812584,8722.2433 v 55.6001 h 55.600066 v -7.0491 -14.7072 -9.6693 h 31.42562 v 31.4263 h -9.66928 -21.75634 v 55.6001 h 55.60013 v -7.0492 -14.7072 -9.6692 h 31.42555 v 31.4263 h -9.66927 v -3e-4 h -21.75628 v 55.5997 h 55.60006 v -7.0491 -14.7072 -9.6693 h 31.42555 v 31.4263 h -9.66927 -21.75628 v 55.6001 h 55.60006 v -7.0492 -14.7071 -9.6693 h 31.42562 v 31.4263 h -9.66927 v 0 H 301.2129 v 55.6001 h 55.60006 v -7.0492 -14.7072 -9.6692 h 31.42563 v 31.4263 h -9.66928 -21.75635 v 55.6001 h 55.60006 v -7.0491 -14.7072 -9.6693 h 31.42563 v 31.4264 h -9.66928 v -4e-4 h -21.75635 v 55.6001 h 55.60007 v -7.0492 -14.7072 -9.6693 h 31.42562 v 31.4264 h -9.66927 -21.75635 v 55.6 h 55.60013 v -7.0491 -14.7071 -9.6693 h 31.42555 v 31.4263 h -9.66927 v 2.6987 h 12.3687 v -36.8244 h -36.82441 v 12.3687 19.0572 h -50.20163 v -50.2016 h 19.05728 v 0 h 12.3687 v -36.8245 h -36.82448 v 12.3687 19.0573 h -50.20157 v -50.2016 h 19.05728 v -3e-4 h 12.36871 v -36.8245 H 409.7136 v 12.3687 19.0573 h -50.20157 v -50.2017 h 19.05728 v 0 h 12.3687 v -36.8244 h -36.82447 v 12.3687 19.0573 h -50.20157 v -50.2016 h 19.05728 12.3687 v -36.8245 h -36.82448 v 12.3687 19.0573 h -50.20156 v -50.2016 h 19.05721 v 0 h 12.36877 v -36.8244 h -36.82448 v 12.3687 19.0572 h -50.20156 v -50.2012 h 19.05721 v -3e-4 h 12.3687 v -36.8245 h -36.82448 v 12.3687 19.0573 h -50.20157 v -50.2016 h 19.05728 v 0 h 12.36871 v -36.8245 h -36.82448 v 12.3687 19.0573 H 81.511653 v -50.2016 h 19.057277 v -2.6995 z"
             id="path3500" />
        </g>
        <g
           id="g3502"
           transform="translate(110.88006)"
           style="stroke-width:1.12083">
          <path
             style="color:#000000;fill:#e79c19;fill-opacity:1;fill-rule:evenodd;stroke-width:1.12082;-inkscape-stroke:none"
             d="m 83.850139,8727.2812 v 45.5247 h 45.524591 v -16.7188 -14.7072 h 41.50145 v 41.5014 h -14.70719 v 0 H 139.4502 v 45.5246 h 45.52467 v -16.7188 -14.7072 h 41.50137 v 41.5011 h -14.70718 v 4e-4 h -16.7188 v 45.5246 h 45.52467 v -16.7187 -14.7072 h 41.50137 v 41.5014 h -14.70718 v 0 h -16.71873 v 45.5245 h 45.5246 v -16.7187 -14.7072 h 41.50145 v 41.5014 h -14.70719 -16.71879 v 45.5246 h 45.52459 v -16.7188 -14.7072 h 41.50145 v 41.5015 h -14.70719 v 0 h -16.71879 v 45.5246 h 45.52459 v -16.7188 -14.7071 h 41.50145 v 41.5013 h -14.70719 v 5e-4 h -16.71879 v 45.5246 h 45.52466 v -16.7188 -14.7072 h 41.50138 v 41.5014 h -14.70718 v 0 h -16.7188 v 45.5247 h 45.52467 v -16.7188 -14.7072 h 41.50137 v 41.5014 H 545.3695 v 7.0495 h 14.70718 7.04917 v -7.0495 -48.5505 h -55.60006 v 7.0491 14.7072 9.6693 h -31.42563 v -31.4264 h 9.66928 14.70718 7.04917 v -7.0495 -48.5506 h -55.60007 v 7.0492 14.7072 9.6692 H 424.5001 v -31.4263 h 9.66927 v 3e-4 h 14.70719 7.04916 v -7.0495 -48.5505 h -55.60013 v 7.0491 14.7072 9.6693 h -31.42555 v -31.4263 h 9.66927 14.70719 7.04909 v -7.0496 -48.5505 h -55.60006 v 7.0491 14.7072 9.6693 h -31.42555 v -31.4264 h 9.66927 v 0 h 14.70719 7.04909 v -7.0495 -48.5506 h -55.60006 v 7.0491 14.7072 9.6693 h -31.42563 v -31.4263 h 9.66928 14.70718 7.04917 v -7.0496 -48.5505 h -55.60006 v 7.0492 14.7072 9.6692 h -31.42563 v -31.4263 h 9.66928 v 3e-4 h 14.70718 7.04917 v -7.0495 -48.5505 h -55.60007 v 7.0494 14.7072 9.6693 h -31.42562 v -31.4263 h 9.66927 14.70719 7.04916 v -7.0495 -48.5506 h -55.60006 v 7.0492 14.7071 9.6693 H 90.89966 v -31.4263 h 9.66927 v -7.0488 z"
             id="path3501" />
          <path
             style="color:#000000;fill:#003c66;fill-opacity:1;fill-rule:evenodd;stroke-width:1.12082;-inkscape-stroke:none"
             d="m 78.812584,8722.2433 v 55.6001 h 55.600066 v -7.0491 -14.7072 -9.6693 h 31.42562 v 31.4263 h -9.66928 -21.75634 v 55.6001 h 55.60013 v -7.0492 -14.7072 -9.6692 h 31.42555 v 31.4263 h -9.66927 v -3e-4 h -21.75628 v 55.5997 h 55.60006 v -7.0491 -14.7072 -9.6693 h 31.42555 v 31.4263 h -9.66927 -21.75628 v 55.6001 h 55.60006 v -7.0492 -14.7071 -9.6693 h 31.42562 v 31.4263 h -9.66927 v 0 H 301.2129 v 55.6001 h 55.60006 v -7.0492 -14.7072 -9.6692 h 31.42563 v 31.4263 h -9.66928 -21.75635 v 55.6001 h 55.60006 v -7.0491 -14.7072 -9.6693 h 31.42563 v 31.4264 h -9.66928 v -4e-4 h -21.75635 v 55.6001 h 55.60007 v -7.0492 -14.7072 -9.6693 h 31.42562 v 31.4264 h -9.66927 -21.75635 v 55.6 h 55.60013 v -7.0491 -14.7071 -9.6693 h 31.42555 v 31.4263 h -9.66927 v 2.6987 h 12.3687 v -36.8244 h -36.82441 v 12.3687 19.0572 h -50.20163 v -50.2016 h 19.05728 v 0 h 12.3687 v -36.8245 h -36.82448 v 12.3687 19.0573 h -50.20157 v -50.2016 h 19.05728 v -3e-4 h 12.36871 v -36.8245 H 409.7136 v 12.3687 19.0573 h -50.20157 v -50.2017 h 19.05728 v 0 h 12.3687 v -36.8244 h -36.82447 v 12.3687 19.0573 h -50.20157 v -50.2016 h 19.05728 12.3687 v -36.8245 h -36.82448 v 12.3687 19.0573 h -50.20156 v -50.2016 h 19.05721 v 0 h 12.36877 v -36.8244 h -36.82448 v 12.3687 19.0572 h -50.20156 v -50.2012 h 19.05721 v -3e-4 h 12.3687 v -36.8245 h -36.82448 v 12.3687 19.0573 h -50.20157 v -50.2016 h 19.05728 v 0 h 12.36871 v -36.8245 h -36.82448 v 12.3687 19.0573 H 81.511653 v -50.2016 h 19.057277 v -2.6995 z"
             id="path3502" />
        </g>
        <g
           id="g3504"
           transform="translate(222.4011)"
           style="stroke-width:1.12083">
          <path
             style="color:#000000;fill:#e79c19;fill-opacity:1;fill-rule:evenodd;stroke-width:1.12082;-inkscape-stroke:none"
             d="m 83.850139,8727.2812 v 45.5247 h 45.524591 v -16.7188 -14.7072 h 41.50145 v 41.5014 h -14.70719 v 0 H 139.4502 v 45.5246 h 45.52467 v -16.7188 -14.7072 h 41.50137 v 41.5011 h -14.70718 v 4e-4 h -16.7188 v 45.5246 h 45.52467 v -16.7187 -14.7072 h 41.50137 v 41.5014 h -14.70718 v 0 h -16.71873 v 45.5245 h 45.5246 v -16.7187 -14.7072 h 41.50145 v 41.5014 h -14.70719 -16.71879 v 45.5246 h 45.52459 v -16.7188 -14.7072 h 41.50145 v 41.5015 h -14.70719 v 0 h -16.71879 v 45.5246 h 45.52459 v -16.7188 -14.7071 h 41.50145 v 41.5013 h -14.70719 v 5e-4 h -16.71879 v 45.5246 h 45.52466 v -16.7188 -14.7072 h 41.50138 v 41.5014 h -14.70718 v 0 h -16.7188 v 45.5247 h 45.52467 v -16.7188 -14.7072 h 41.50137 v 41.5014 H 545.3695 v 7.0495 h 14.70718 7.04917 v -7.0495 -48.5505 h -55.60006 v 7.0491 14.7072 9.6693 h -31.42563 v -31.4264 h 9.66928 14.70718 7.04917 v -7.0495 -48.5506 h -55.60007 v 7.0492 14.7072 9.6692 H 424.5001 v -31.4263 h 9.66927 v 3e-4 h 14.70719 7.04916 v -7.0495 -48.5505 h -55.60013 v 7.0491 14.7072 9.6693 h -31.42555 v -31.4263 h 9.66927 14.70719 7.04909 v -7.0496 -48.5505 h -55.60006 v 7.0491 14.7072 9.6693 h -31.42555 v -31.4264 h 9.66927 v 0 h 14.70719 7.04909 v -7.0495 -48.5506 h -55.60006 v 7.0491 14.7072 9.6693 h -31.42563 v -31.4263 h 9.66928 14.70718 7.04917 v -7.0496 -48.5505 h -55.60006 v 7.0492 14.7072 9.6692 h -31.42563 v -31.4263 h 9.66928 v 3e-4 h 14.70718 7.04917 v -7.0495 -48.5505 h -55.60007 v 7.0494 14.7072 9.6693 h -31.42562 v -31.4263 h 9.66927 14.70719 7.04916 v -7.0495 -48.5506 h -55.60006 v 7.0492 14.7071 9.6693 H 90.89966 v -31.4263 h 9.66927 v -7.0488 z"
             id="path3503" />
          <path
             style="color:#000000;fill:#003c66;fill-opacity:1;fill-rule:evenodd;stroke-width:1.12082;-inkscape-stroke:none"
             d="m 78.812584,8722.2433 v 55.6001 h 55.600066 v -7.0491 -14.7072 -9.6693 h 31.42562 v 31.4263 h -9.66928 -21.75634 v 55.6001 h 55.60013 v -7.0492 -14.7072 -9.6692 h 31.42555 v 31.4263 h -9.66927 v -3e-4 h -21.75628 v 55.5997 h 55.60006 v -7.0491 -14.7072 -9.6693 h 31.42555 v 31.4263 h -9.66927 -21.75628 v 55.6001 h 55.60006 v -7.0492 -14.7071 -9.6693 h 31.42562 v 31.4263 h -9.66927 v 0 H 301.2129 v 55.6001 h 55.60006 v -7.0492 -14.7072 -9.6692 h 31.42563 v 31.4263 h -9.66928 -21.75635 v 55.6001 h 55.60006 v -7.0491 -14.7072 -9.6693 h 31.42563 v 31.4264 h -9.66928 v -4e-4 h -21.75635 v 55.6001 h 55.60007 v -7.0492 -14.7072 -9.6693 h 31.42562 v 31.4264 h -9.66927 -21.75635 v 55.6 h 55.60013 v -7.0491 -14.7071 -9.6693 h 31.42555 v 31.4263 h -9.66927 v 2.6987 h 12.3687 v -36.8244 h -36.82441 v 12.3687 19.0572 h -50.20163 v -50.2016 h 19.05728 v 0 h 12.3687 v -36.8245 h -36.82448 v 12.3687 19.0573 h -50.20157 v -50.2016 h 19.05728 v -3e-4 h 12.36871 v -36.8245 H 409.7136 v 12.3687 19.0573 h -50.20157 v -50.2017 h 19.05728 v 0 h 12.3687 v -36.8244 h -36.82447 v 12.3687 19.0573 h -50.20157 v -50.2016 h 19.05728 12.3687 v -36.8245 h -36.82448 v 12.3687 19.0573 h -50.20156 v -50.2016 h 19.05721 v 0 h 12.36877 v -36.8244 h -36.82448 v 12.3687 19.0572 h -50.20156 v -50.2012 h 19.05721 v -3e-4 h 12.3687 v -36.8245 h -36.82448 v 12.3687 19.0573 h -50.20157 v -50.2016 h 19.05728 v 0 h 12.36871 v -36.8245 h -36.82448 v 12.3687 19.0573 H 81.511653 v -50.2016 h 19.057277 v -2.6995 z"
             id="path3504" />
        </g>
        <g
           id="g3506"
           transform="translate(333.60151)"
           style="stroke-width:1.12083">
          <path
             style="color:#000000;fill:#e79c19;fill-opacity:1;fill-rule:evenodd;stroke-width:1.12082;-inkscape-stroke:none"
             d="m 83.850139,8727.2812 v 45.5247 h 45.524591 v -16.7188 -14.7072 h 41.50145 v 41.5014 h -14.70719 v 0 H 139.4502 v 45.5246 h 45.52467 v -16.7188 -14.7072 h 41.50137 v 41.5011 h -14.70718 v 4e-4 h -16.7188 v 45.5246 h 45.52467 v -16.7187 -14.7072 h 41.50137 v 41.5014 h -14.70718 v 0 h -16.71873 v 45.5245 h 45.5246 v -16.7187 -14.7072 h 41.50145 v 41.5014 h -14.70719 -16.71879 v 45.5246 h 45.52459 v -16.7188 -14.7072 h 41.50145 v 41.5015 h -14.70719 v 0 h -16.71879 v 45.5246 h 45.52459 v -16.7188 -14.7071 h 41.50145 v 41.5013 h -14.70719 v 5e-4 h -16.71879 v 45.5246 h 45.52466 v -16.7188 -14.7072 h 41.50138 v 41.5014 h -14.70718 v 0 h -16.7188 v 45.5247 h 45.52467 v -16.7188 -14.7072 h 41.50137 v 41.5014 H 545.3695 v 7.0495 h 14.70718 7.04917 v -7.0495 -48.5505 h -55.60006 v 7.0491 14.7072 9.6693 h -31.42563 v -31.4264 h 9.66928 14.70718 7.04917 v -7.0495 -48.5506 h -55.60007 v 7.0492 14.7072 9.6692 H 424.5001 v -31.4263 h 9.66927 v 3e-4 h 14.70719 7.04916 v -7.0495 -48.5505 h -55.60013 v 7.0491 14.7072 9.6693 h -31.42555 v -31.4263 h 9.66927 14.70719 7.04909 v -7.0496 -48.5505 h -55.60006 v 7.0491 14.7072 9.6693 h -31.42555 v -31.4264 h 9.66927 v 0 h 14.70719 7.04909 v -7.0495 -48.5506 h -55.60006 v 7.0491 14.7072 9.6693 h -31.42563 v -31.4263 h 9.66928 14.70718 7.04917 v -7.0496 -48.5505 h -55.60006 v 7.0492 14.7072 9.6692 h -31.42563 v -31.4263 h 9.66928 v 3e-4 h 14.70718 7.04917 v -7.0495 -48.5505 h -55.60007 v 7.0494 14.7072 9.6693 h -31.42562 v -31.4263 h 9.66927 14.70719 7.04916 v -7.0495 -48.5506 h -55.60006 v 7.0492 14.7071 9.6693 H 90.89966 v -31.4263 h 9.66927 v -7.0488 z"
             id="path3505" />
          <path
             style="color:#000000;fill:#003c66;fill-opacity:1;fill-rule:evenodd;stroke-width:1.12082;-inkscape-stroke:none"
             d="m 78.812584,8722.2433 v 55.6001 h 55.600066 v -7.0491 -14.7072 -9.6693 h 31.42562 v 31.4263 h -9.66928 -21.75634 v 55.6001 h 55.60013 v -7.0492 -14.7072 -9.6692 h 31.42555 v 31.4263 h -9.66927 v -3e-4 h -21.75628 v 55.5997 h 55.60006 v -7.0491 -14.7072 -9.6693 h 31.42555 v 31.4263 h -9.66927 -21.75628 v 55.6001 h 55.60006 v -7.0492 -14.7071 -9.6693 h 31.42562 v 31.4263 h -9.66927 v 0 H 301.2129 v 55.6001 h 55.60006 v -7.0492 -14.7072 -9.6692 h 31.42563 v 31.4263 h -9.66928 -21.75635 v 55.6001 h 55.60006 v -7.0491 -14.7072 -9.6693 h 31.42563 v 31.4264 h -9.66928 v -4e-4 h -21.75635 v 55.6001 h 55.60007 v -7.0492 -14.7072 -9.6693 h 31.42562 v 31.4264 h -9.66927 -21.75635 v 55.6 h 55.60013 v -7.0491 -14.7071 -9.6693 h 31.42555 v 31.4263 h -9.66927 v 2.6987 h 12.3687 v -36.8244 h -36.82441 v 12.3687 19.0572 h -50.20163 v -50.2016 h 19.05728 v 0 h 12.3687 v -36.8245 h -36.82448 v 12.3687 19.0573 h -50.20157 v -50.2016 h 19.05728 v -3e-4 h 12.36871 v -36.8245 H 409.7136 v 12.3687 19.0573 h -50.20157 v -50.2017 h 19.05728 v 0 h 12.3687 v -36.8244 h -36.82447 v 12.3687 19.0573 h -50.20157 v -50.2016 h 19.05728 12.3687 v -36.8245 h -36.82448 v 12.3687 19.0573 h -50.20156 v -50.2016 h 19.05721 v 0 h 12.36877 v -36.8244 h -36.82448 v 12.3687 19.0572 h -50.20156 v -50.2012 h 19.05721 v -3e-4 h 12.3687 v -36.8245 h -36.82448 v 12.3687 19.0573 h -50.20157 v -50.2016 h 19.05728 v 0 h 12.36871 v -36.8245 h -36.82448 v 12.3687 19.0573 H 81.511653 v -50.2016 h 19.057277 v -2.6995 z"
             id="path3506" />
        </g>
        <g
           id="g3508"
           transform="translate(444.48158)"
           style="stroke-width:1.12083">
          <path
             style="color:#000000;fill:#e79c19;fill-opacity:1;fill-rule:evenodd;stroke-width:1.12082;-inkscape-stroke:none"
             d="m 83.850139,8727.2812 v 45.5247 h 45.524591 v -16.7188 -14.7072 h 41.50145 v 41.5014 h -14.70719 v 0 H 139.4502 v 45.5246 h 45.52467 v -16.7188 -14.7072 h 41.50137 v 41.5011 h -14.70718 v 4e-4 h -16.7188 v 45.5246 h 45.52467 v -16.7187 -14.7072 h 41.50137 v 41.5014 h -14.70718 v 0 h -16.71873 v 45.5245 h 45.5246 v -16.7187 -14.7072 h 41.50145 v 41.5014 h -14.70719 -16.71879 v 45.5246 h 45.52459 v -16.7188 -14.7072 h 41.50145 v 41.5015 h -14.70719 v 0 h -16.71879 v 45.5246 h 45.52459 v -16.7188 -14.7071 h 41.50145 v 41.5013 h -14.70719 v 5e-4 h -16.71879 v 45.5246 h 45.52466 v -16.7188 -14.7072 h 41.50138 v 41.5014 h -14.70718 v 0 h -16.7188 v 45.5247 h 45.52467 v -16.7188 -14.7072 h 41.50137 v 41.5014 H 545.3695 v 7.0495 h 14.70718 7.04917 v -7.0495 -48.5505 h -55.60006 v 7.0491 14.7072 9.6693 h -31.42563 v -31.4264 h 9.66928 14.70718 7.04917 v -7.0495 -48.5506 h -55.60007 v 7.0492 14.7072 9.6692 H 424.5001 v -31.4263 h 9.66927 v 3e-4 h 14.70719 7.04916 v -7.0495 -48.5505 h -55.60013 v 7.0491 14.7072 9.6693 h -31.42555 v -31.4263 h 9.66927 14.70719 7.04909 v -7.0496 -48.5505 h -55.60006 v 7.0491 14.7072 9.6693 h -31.42555 v -31.4264 h 9.66927 v 0 h 14.70719 7.04909 v -7.0495 -48.5506 h -55.60006 v 7.0491 14.7072 9.6693 h -31.42563 v -31.4263 h 9.66928 14.70718 7.04917 v -7.0496 -48.5505 h -55.60006 v 7.0492 14.7072 9.6692 h -31.42563 v -31.4263 h 9.66928 v 3e-4 h 14.70718 7.04917 v -7.0495 -48.5505 h -55.60007 v 7.0494 14.7072 9.6693 h -31.42562 v -31.4263 h 9.66927 14.70719 7.04916 v -7.0495 -48.5506 h -55.60006 v 7.0492 14.7071 9.6693 H 90.89966 v -31.4263 h 9.66927 v -7.0488 z"
             id="path3507" />
          <path
             style="color:#000000;fill:#003c66;fill-opacity:1;fill-rule:evenodd;stroke-width:1.12082;-inkscape-stroke:none"
             d="m 78.812584,8722.2433 v 55.6001 h 55.600066 v -7.0491 -14.7072 -9.6693 h 31.42562 v 31.4263 h -9.66928 -21.75634 v 55.6001 h 55.60013 v -7.0492 -14.7072 -9.6692 h 31.42555 v 31.4263 h -9.66927 v -3e-4 h -21.75628 v 55.5997 h 55.60006 v -7.0491 -14.7072 -9.6693 h 31.42555 v 31.4263 h -9.66927 -21.75628 v 55.6001 h 55.60006 v -7.0492 -14.7071 -9.6693 h 31.42562 v 31.4263 h -9.66927 v 0 H 301.2129 v 55.6001 h 55.60006 v -7.0492 -14.7072 -9.6692 h 31.42563 v 31.4263 h -9.66928 -21.75635 v 55.6001 h 55.60006 v -7.0491 -14.7072 -9.6693 h 31.42563 v 31.4264 h -9.66928 v -4e-4 h -21.75635 v 55.6001 h 55.60007 v -7.0492 -14.7072 -9.6693 h 31.42562 v 31.4264 h -9.66927 -21.75635 v 55.6 h 55.60013 v -7.0491 -14.7071 -9.6693 h 31.42555 v 31.4263 h -9.66927 v 2.6987 h 12.3687 v -36.8244 h -36.82441 v 12.3687 19.0572 h -50.20163 v -50.2016 h 19.05728 v 0 h 12.3687 v -36.8245 h -36.82448 v 12.3687 19.0573 h -50.20157 v -50.2016 h 19.05728 v -3e-4 h 12.36871 v -36.8245 H 409.7136 v 12.3687 19.0573 h -50.20157 v -50.2017 h 19.05728 v 0 h 12.3687 v -36.8244 h -36.82447 v 12.3687 19.0573 h -50.20157 v -50.2016 h 19.05728 12.3687 v -36.8245 h -36.82448 v 12.3687 19.0573 h -50.20156 v -50.2016 h 19.05721 v 0 h 12.36877 v -36.8244 h -36.82448 v 12.3687 19.0572 h -50.20156 v -50.2012 h 19.05721 v -3e-4 h 12.3687 v -36.8245 h -36.82448 v 12.3687 19.0573 h -50.20157 v -50.2016 h 19.05728 v 0 h 12.36871 v -36.8245 h -36.82448 v 12.3687 19.0573 H 81.511653 v -50.2016 h 19.057277 v -2.6995 z"
             id="path3508" />
        </g>
        <g
           id="g3510"
           transform="translate(555.36164)"
           style="stroke-width:1.12083">
          <path
             style="color:#000000;fill:#e79c19;fill-opacity:1;fill-rule:evenodd;stroke-width:1.12082;-inkscape-stroke:none"
             d="m 83.850139,8727.2812 v 45.5247 h 45.524591 v -16.7188 -14.7072 h 41.50145 v 41.5014 h -14.70719 v 0 H 139.4502 v 45.5246 h 45.52467 v -16.7188 -14.7072 h 41.50137 v 41.5011 h -14.70718 v 4e-4 h -16.7188 v 45.5246 h 45.52467 v -16.7187 -14.7072 h 41.50137 v 41.5014 h -14.70718 v 0 h -16.71873 v 45.5245 h 45.5246 v -16.7187 -14.7072 h 41.50145 v 41.5014 h -14.70719 -16.71879 v 45.5246 h 45.52459 v -16.7188 -14.7072 h 41.50145 v 41.5015 h -14.70719 v 0 h -16.71879 v 45.5246 h 45.52459 v -16.7188 -14.7071 h 41.50145 v 41.5013 h -14.70719 v 5e-4 h -16.71879 v 45.5246 h 45.52466 v -16.7188 -14.7072 h 41.50138 v 41.5014 h -14.70718 v 0 h -16.7188 v 45.5247 h 45.52467 v -16.7188 -14.7072 h 41.50137 v 41.5014 H 545.3695 v 7.0495 h 14.70718 7.04917 v -7.0495 -48.5505 h -55.60006 v 7.0491 14.7072 9.6693 h -31.42563 v -31.4264 h 9.66928 14.70718 7.04917 v -7.0495 -48.5506 h -55.60007 v 7.0492 14.7072 9.6692 H 424.5001 v -31.4263 h 9.66927 v 3e-4 h 14.70719 7.04916 v -7.0495 -48.5505 h -55.60013 v 7.0491 14.7072 9.6693 h -31.42555 v -31.4263 h 9.66927 14.70719 7.04909 v -7.0496 -48.5505 h -55.60006 v 7.0491 14.7072 9.6693 h -31.42555 v -31.4264 h 9.66927 v 0 h 14.70719 7.04909 v -7.0495 -48.5506 h -55.60006 v 7.0491 14.7072 9.6693 h -31.42563 v -31.4263 h 9.66928 14.70718 7.04917 v -7.0496 -48.5505 h -55.60006 v 7.0492 14.7072 9.6692 h -31.42563 v -31.4263 h 9.66928 v 3e-4 h 14.70718 7.04917 v -7.0495 -48.5505 h -55.60007 v 7.0494 14.7072 9.6693 h -31.42562 v -31.4263 h 9.66927 14.70719 7.04916 v -7.0495 -48.5506 h -55.60006 v 7.0492 14.7071 9.6693 H 90.89966 v -31.4263 h 9.66927 v -7.0488 z"
             id="path3509" />
          <path
             style="color:#000000;fill:#003c66;fill-opacity:1;fill-rule:evenodd;stroke-width:1.12082;-inkscape-stroke:none"
             d="m 78.812584,8722.2433 v 55.6001 h 55.600066 v -7.0491 -14.7072 -9.6693 h 31.42562 v 31.4263 h -9.66928 -21.75634 v 55.6001 h 55.60013 v -7.0492 -14.7072 -9.6692 h 31.42555 v 31.4263 h -9.66927 v -3e-4 h -21.75628 v 55.5997 h 55.60006 v -7.0491 -14.7072 -9.6693 h 31.42555 v 31.4263 h -9.66927 -21.75628 v 55.6001 h 55.60006 v -7.0492 -14.7071 -9.6693 h 31.42562 v 31.4263 h -9.66927 v 0 H 301.2129 v 55.6001 h 55.60006 v -7.0492 -14.7072 -9.6692 h 31.42563 v 31.4263 h -9.66928 -21.75635 v 55.6001 h 55.60006 v -7.0491 -14.7072 -9.6693 h 31.42563 v 31.4264 h -9.66928 v -4e-4 h -21.75635 v 55.6001 h 55.60007 v -7.0492 -14.7072 -9.6693 h 31.42562 v 31.4264 h -9.66927 -21.75635 v 55.6 h 55.60013 v -7.0491 -14.7071 -9.6693 h 31.42555 v 31.4263 h -9.66927 v 2.6987 h 12.3687 v -36.8244 h -36.82441 v 12.3687 19.0572 h -50.20163 v -50.2016 h 19.05728 v 0 h 12.3687 v -36.8245 h -36.82448 v 12.3687 19.0573 h -50.20157 v -50.2016 h 19.05728 v -3e-4 h 12.36871 v -36.8245 H 409.7136 v 12.3687 19.0573 h -50.20157 v -50.2017 h 19.05728 v 0 h 12.3687 v -36.8244 h -36.82447 v 12.3687 19.0573 h -50.20157 v -50.2016 h 19.05728 12.3687 v -36.8245 h -36.82448 v 12.3687 19.0573 h -50.20156 v -50.2016 h 19.05721 v 0 h 12.36877 v -36.8244 h -36.82448 v 12.3687 19.0572 h -50.20156 v -50.2012 h 19.05721 v -3e-4 h 12.3687 v -36.8245 h -36.82448 v 12.3687 19.0573 h -50.20157 v -50.2016 h 19.05728 v 0 h 12.36871 v -36.8245 h -36.82448 v 12.3687 19.0573 H 81.511653 v -50.2016 h 19.057277 v -2.6995 z"
             id="path3510" />
        </g>
        <g
           id="g3512"
           transform="translate(666.88268)"
           style="stroke-width:1.12083">
          <path
             style="color:#000000;fill:#e79c19;fill-opacity:1;fill-rule:evenodd;stroke-width:1.12082;-inkscape-stroke:none"
             d="m 83.850139,8727.2812 v 45.5247 h 45.524591 v -16.7188 -14.7072 h 41.50145 v 41.5014 h -14.70719 v 0 H 139.4502 v 45.5246 h 45.52467 v -16.7188 -14.7072 h 41.50137 v 41.5011 h -14.70718 v 4e-4 h -16.7188 v 45.5246 h 45.52467 v -16.7187 -14.7072 h 41.50137 v 41.5014 h -14.70718 v 0 h -16.71873 v 45.5245 h 45.5246 v -16.7187 -14.7072 h 41.50145 v 41.5014 h -14.70719 -16.71879 v 45.5246 h 45.52459 v -16.7188 -14.7072 h 41.50145 v 41.5015 h -14.70719 v 0 h -16.71879 v 45.5246 h 45.52459 v -16.7188 -14.7071 h 41.50145 v 41.5013 h -14.70719 v 5e-4 h -16.71879 v 45.5246 h 45.52466 v -16.7188 -14.7072 h 41.50138 v 41.5014 h -14.70718 v 0 h -16.7188 v 45.5247 h 45.52467 v -16.7188 -14.7072 h 41.50137 v 41.5014 H 545.3695 v 7.0495 h 14.70718 7.04917 v -7.0495 -48.5505 h -55.60006 v 7.0491 14.7072 9.6693 h -31.42563 v -31.4264 h 9.66928 14.70718 7.04917 v -7.0495 -48.5506 h -55.60007 v 7.0492 14.7072 9.6692 H 424.5001 v -31.4263 h 9.66927 v 3e-4 h 14.70719 7.04916 v -7.0495 -48.5505 h -55.60013 v 7.0491 14.7072 9.6693 h -31.42555 v -31.4263 h 9.66927 14.70719 7.04909 v -7.0496 -48.5505 h -55.60006 v 7.0491 14.7072 9.6693 h -31.42555 v -31.4264 h 9.66927 v 0 h 14.70719 7.04909 v -7.0495 -48.5506 h -55.60006 v 7.0491 14.7072 9.6693 h -31.42563 v -31.4263 h 9.66928 14.70718 7.04917 v -7.0496 -48.5505 h -55.60006 v 7.0492 14.7072 9.6692 h -31.42563 v -31.4263 h 9.66928 v 3e-4 h 14.70718 7.04917 v -7.0495 -48.5505 h -55.60007 v 7.0494 14.7072 9.6693 h -31.42562 v -31.4263 h 9.66927 14.70719 7.04916 v -7.0495 -48.5506 h -55.60006 v 7.0492 14.7071 9.6693 H 90.89966 v -31.4263 h 9.66927 v -7.0488 z"
             id="path3511" />
          <path
             style="color:#000000;fill:#003c66;fill-opacity:1;fill-rule:evenodd;stroke-width:1.12082;-inkscape-stroke:none"
             d="m 78.812584,8722.2433 v 55.6001 h 55.600066 v -7.0491 -14.7072 -9.6693 h 31.42562 v 31.4263 h -9.66928 -21.75634 v 55.6001 h 55.60013 v -7.0492 -14.7072 -9.6692 h 31.42555 v 31.4263 h -9.66927 v -3e-4 h -21.75628 v 55.5997 h 55.60006 v -7.0491 -14.7072 -9.6693 h 31.42555 v 31.4263 h -9.66927 -21.75628 v 55.6001 h 55.60006 v -7.0492 -14.7071 -9.6693 h 31.42562 v 31.4263 h -9.66927 v 0 H 301.2129 v 55.6001 h 55.60006 v -7.0492 -14.7072 -9.6692 h 31.42563 v 31.4263 h -9.66928 -21.75635 v 55.6001 h 55.60006 v -7.0491 -14.7072 -9.6693 h 31.42563 v 31.4264 h -9.66928 v -4e-4 h -21.75635 v 55.6001 h 55.60007 v -7.0492 -14.7072 -9.6693 h 31.42562 v 31.4264 h -9.66927 -21.75635 v 55.6 h 55.60013 v -7.0491 -14.7071 -9.6693 h 31.42555 v 31.4263 h -9.66927 v 2.6987 h 12.3687 v -36.8244 h -36.82441 v 12.3687 19.0572 h -50.20163 v -50.2016 h 19.05728 v 0 h 12.3687 v -36.8245 h -36.82448 v 12.3687 19.0573 h -50.20157 v -50.2016 h 19.05728 v -3e-4 h 12.36871 v -36.8245 H 409.7136 v 12.3687 19.0573 h -50.20157 v -50.2017 h 19.05728 v 0 h 12.3687 v -36.8244 h -36.82447 v 12.3687 19.0573 h -50.20157 v -50.2016 h 19.05728 12.3687 v -36.8245 h -36.82448 v 12.3687 19.0573 h -50.20156 v -50.2016 h 19.05721 v 0 h 12.36877 v -36.8244 h -36.82448 v 12.3687 19.0572 h -50.20156 v -50.2012 h 19.05721 v -3e-4 h 12.3687 v -36.8245 h -36.82448 v 12.3687 19.0573 h -50.20157 v -50.2016 h 19.05728 v 0 h 12.36871 v -36.8245 h -36.82448 v 12.3687 19.0573 H 81.511653 v -50.2016 h 19.057277 v -2.6995 z"
             id="path3512" />
        </g>
        <g
           id="g3514"
           transform="translate(778.08309)"
           style="stroke-width:1.12083">
          <path
             style="color:#000000;fill:#e79c19;fill-opacity:1;fill-rule:evenodd;stroke-width:1.12082;-inkscape-stroke:none"
             d="m 83.850139,8727.2812 v 45.5247 h 45.524591 v -16.7188 -14.7072 h 41.50145 v 41.5014 h -14.70719 v 0 H 139.4502 v 45.5246 h 45.52467 v -16.7188 -14.7072 h 41.50137 v 41.5011 h -14.70718 v 4e-4 h -16.7188 v 45.5246 h 45.52467 v -16.7187 -14.7072 h 41.50137 v 41.5014 h -14.70718 v 0 h -16.71873 v 45.5245 h 45.5246 v -16.7187 -14.7072 h 41.50145 v 41.5014 h -14.70719 -16.71879 v 45.5246 h 45.52459 v -16.7188 -14.7072 h 41.50145 v 41.5015 h -14.70719 v 0 h -16.71879 v 45.5246 h 45.52459 v -16.7188 -14.7071 h 41.50145 v 41.5013 h -14.70719 v 5e-4 h -16.71879 v 45.5246 h 45.52466 v -16.7188 -14.7072 h 41.50138 v 41.5014 h -14.70718 v 0 h -16.7188 v 45.5247 h 45.52467 v -16.7188 -14.7072 h 41.50137 v 41.5014 H 545.3695 v 7.0495 h 14.70718 7.04917 v -7.0495 -48.5505 h -55.60006 v 7.0491 14.7072 9.6693 h -31.42563 v -31.4264 h 9.66928 14.70718 7.04917 v -7.0495 -48.5506 h -55.60007 v 7.0492 14.7072 9.6692 H 424.5001 v -31.4263 h 9.66927 v 3e-4 h 14.70719 7.04916 v -7.0495 -48.5505 h -55.60013 v 7.0491 14.7072 9.6693 h -31.42555 v -31.4263 h 9.66927 14.70719 7.04909 v -7.0496 -48.5505 h -55.60006 v 7.0491 14.7072 9.6693 h -31.42555 v -31.4264 h 9.66927 v 0 h 14.70719 7.04909 v -7.0495 -48.5506 h -55.60006 v 7.0491 14.7072 9.6693 h -31.42563 v -31.4263 h 9.66928 14.70718 7.04917 v -7.0496 -48.5505 h -55.60006 v 7.0492 14.7072 9.6692 h -31.42563 v -31.4263 h 9.66928 v 3e-4 h 14.70718 7.04917 v -7.0495 -48.5505 h -55.60007 v 7.0494 14.7072 9.6693 h -31.42562 v -31.4263 h 9.66927 14.70719 7.04916 v -7.0495 -48.5506 h -55.60006 v 7.0492 14.7071 9.6693 H 90.89966 v -31.4263 h 9.66927 v -7.0488 z"
             id="path3513" />
          <path
             style="color:#000000;fill:#003c66;fill-opacity:1;fill-rule:evenodd;stroke-width:1.12082;-inkscape-stroke:none"
             d="m 78.812584,8722.2433 v 55.6001 h 55.600066 v -7.0491 -14.7072 -9.6693 h 31.42562 v 31.4263 h -9.66928 -21.75634 v 55.6001 h 55.60013 v -7.0492 -14.7072 -9.6692 h 31.42555 v 31.4263 h -9.66927 v -3e-4 h -21.75628 v 55.5997 h 55.60006 v -7.0491 -14.7072 -9.6693 h 31.42555 v 31.4263 h -9.66927 -21.75628 v 55.6001 h 55.60006 v -7.0492 -14.7071 -9.6693 h 31.42562 v 31.4263 h -9.66927 v 0 H 301.2129 v 55.6001 h 55.60006 v -7.0492 -14.7072 -9.6692 h 31.42563 v 31.4263 h -9.66928 -21.75635 v 55.6001 h 55.60006 v -7.0491 -14.7072 -9.6693 h 31.42563 v 31.4264 h -9.66928 v -4e-4 h -21.75635 v 55.6001 h 55.60007 v -7.0492 -14.7072 -9.6693 h 31.42562 v 31.4264 h -9.66927 -21.75635 v 55.6 h 55.60013 v -7.0491 -14.7071 -9.6693 h 31.42555 v 31.4263 h -9.66927 v 2.6987 h 12.3687 v -36.8244 h -36.82441 v 12.3687 19.0572 h -50.20163 v -50.2016 h 19.05728 v 0 h 12.3687 v -36.8245 h -36.82448 v 12.3687 19.0573 h -50.20157 v -50.2016 h 19.05728 v -3e-4 h 12.36871 v -36.8245 H 409.7136 v 12.3687 19.0573 h -50.20157 v -50.2017 h 19.05728 v 0 h 12.3687 v -36.8244 h -36.82447 v 12.3687 19.0573 h -50.20157 v -50.2016 h 19.05728 12.3687 v -36.8245 h -36.82448 v 12.3687 19.0573 h -50.20156 v -50.2016 h 19.05721 v 0 h 12.36877 v -36.8244 h -36.82448 v 12.3687 19.0572 h -50.20156 v -50.2012 h 19.05721 v -3e-4 h 12.3687 v -36.8245 h -36.82448 v 12.3687 19.0573 h -50.20157 v -50.2016 h 19.05728 v 0 h 12.36871 v -36.8245 h -36.82448 v 12.3687 19.0573 H 81.511653 v -50.2016 h 19.057277 v -2.6995 z"
             id="path3514" />
        </g>
      </g>
      <rect
         style="mix-blend-mode:screen;fill:url(#linearGradient3548);fill-opacity:1;fill-rule:evenodd;stroke-width:0.25;stroke-linecap:square"
         id="rect3532"
         width="624.8241"
         height="188.21442"
         x="44.200218"
         y="8203.1943" />
    </g>
  </g>
</svg>
