<?xml version="1.0" encoding="UTF-8" standalone="no"?>
<!-- Generator: Adobe Illustrator 19.0.0, SVG Export Plug-In . SVG Version: 6.00 Build 0)  -->

<svg
   xmlns:dc="http://purl.org/dc/elements/1.1/"
   xmlns:cc="http://creativecommons.org/ns#"
   xmlns:rdf="http://www.w3.org/1999/02/22-rdf-syntax-ns#"
   xmlns:svg="http://www.w3.org/2000/svg"
   xmlns="http://www.w3.org/2000/svg"
   xmlns:sodipodi="http://sodipodi.sourceforge.net/DTD/sodipodi-0.dtd"
   xmlns:inkscape="http://www.inkscape.org/namespaces/inkscape"
   version="1.1"
   id="Layer_1"
   x="0px"
   y="0px"
   viewBox="0 0 458.443 458.443"
   style="enable-background:new 0 0 458.443 458.443;"
   xml:space="preserve"
   sodipodi:docname="047-behance.svg"
   inkscape:version="0.92.4 5da689c313, 2019-01-14"><metadata
   id="metadata45"><rdf:RDF><cc:Work
       rdf:about=""><dc:format>image/svg+xml</dc:format><dc:type
         rdf:resource="http://purl.org/dc/dcmitype/StillImage" /></cc:Work></rdf:RDF></metadata><defs
   id="defs43" /><sodipodi:namedview
   pagecolor="#ffffff"
   bordercolor="#666666"
   borderopacity="1"
   objecttolerance="10"
   gridtolerance="10"
   guidetolerance="10"
   inkscape:pageopacity="0"
   inkscape:pageshadow="2"
   inkscape:window-width="1366"
   inkscape:window-height="674"
   id="namedview41"
   showgrid="false"
   inkscape:zoom="0.51478592"
   inkscape:cx="-716.80281"
   inkscape:cy="229.2215"
   inkscape:window-x="0"
   inkscape:window-y="26"
   inkscape:window-maximized="1"
   inkscape:current-layer="Layer_1" />
<g
   id="g8"
   style="fill:#ffffff;fill-opacity:1">
	<path
   style="fill:#ffffff;fill-opacity:1"
   d="M194.019,206.642c7.935-12.351,12.466-27.086,12.204-42.884   c-0.702-42.275-35.884-75.87-78.166-75.87H10.012C4.483,87.888,0,92.371,0,97.9v259.595c0,5.529,4.483,10.012,10.012,10.012   h131.861c48.941,0,89.482-39.226,89.682-88.167C231.678,249.346,216.804,222.754,194.019,206.642z M51.787,139.675h77.278   c13.995,0,25.382,11.386,25.382,25.382c0,13.995-11.386,25.382-25.382,25.382H51.787V139.675z M143.023,315.72H51.787v-73.494   h77.278h13.957c20.262,0,36.747,16.485,36.747,36.747C179.769,299.235,163.285,315.72,143.023,315.72z"
   id="path2" />
	<path
   style="fill:#ffffff;fill-opacity:1"
   d="M458.443,260.931c0-60.447-47.642-109.623-106.203-109.623s-106.203,49.177-106.203,109.623   S293.68,370.555,352.24,370.555c35.534,0,68.552-18.216,88.324-48.729c2.465-3.804,4.704-7.779,6.691-11.876   c1.442-2.974-0.746-6.435-4.052-6.443l-52.206-0.13c-1.155-0.003-2.25,0.469-3.078,1.274c-9.858,9.585-21.944,14.116-35.679,14.116   c-25.945,0-47.694-19.405-53.108-45.274H448.05c5.74,0,10.393-4.653,10.393-10.393V260.931z M352.24,203.095   c19.002,0,35.75,10.413,45.486,26.145h-90.971C316.49,213.508,333.239,203.095,352.24,203.095z"
   id="path4" />
	<path
   style="fill:#ffffff;fill-opacity:1"
   d="M396.37,138.44h-94.197c-4.395,0-7.958-3.563-7.958-7.958v-23.631c0-4.395,3.563-7.958,7.958-7.958   h94.197c4.395,0,7.958,3.563,7.958,7.958v23.631C404.328,134.878,400.765,138.44,396.37,138.44z"
   id="path6" />
</g>
<g
   id="g10">
</g>
<g
   id="g12">
</g>
<g
   id="g14">
</g>
<g
   id="g16">
</g>
<g
   id="g18">
</g>
<g
   id="g20">
</g>
<g
   id="g22">
</g>
<g
   id="g24">
</g>
<g
   id="g26">
</g>
<g
   id="g28">
</g>
<g
   id="g30">
</g>
<g
   id="g32">
</g>
<g
   id="g34">
</g>
<g
   id="g36">
</g>
<g
   id="g38">
</g>
</svg>