<?xml version="1.0" encoding="UTF-8" standalone="no"?>
<!-- Generator: Adobe Illustrator 19.0.0, SVG Export Plug-In . SVG Version: 6.00 Build 0)  -->

<svg
   xmlns:dc="http://purl.org/dc/elements/1.1/"
   xmlns:cc="http://creativecommons.org/ns#"
   xmlns:rdf="http://www.w3.org/1999/02/22-rdf-syntax-ns#"
   xmlns:svg="http://www.w3.org/2000/svg"
   xmlns="http://www.w3.org/2000/svg"
   xmlns:sodipodi="http://sodipodi.sourceforge.net/DTD/sodipodi-0.dtd"
   xmlns:inkscape="http://www.inkscape.org/namespaces/inkscape"
   version="1.1"
   id="Capa_1"
   x="0px"
   y="0px"
   viewBox="0 0 512.001 512.001"
   style="enable-background:new 0 0 512.001 512.001;"
   xml:space="preserve"
   sodipodi:docname="about.svg"
   inkscape:version="0.92.4 5da689c313, 2019-01-14"><metadata
   id="metadata55"><rdf:RDF><cc:Work
       rdf:about=""><dc:format>image/svg+xml</dc:format><dc:type
         rdf:resource="http://purl.org/dc/dcmitype/StillImage" /></cc:Work></rdf:RDF></metadata><defs
   id="defs53" /><sodipodi:namedview
   pagecolor="#ffffff"
   bordercolor="#666666"
   borderopacity="1"
   objecttolerance="10"
   gridtolerance="10"
   guidetolerance="10"
   inkscape:pageopacity="0"
   inkscape:pageshadow="2"
   inkscape:window-width="815"
   inkscape:window-height="487"
   id="namedview51"
   showgrid="false"
   inkscape:zoom="0.46093662"
   inkscape:cx="256.00049"
   inkscape:cy="256.00049"
   inkscape:window-x="0"
   inkscape:window-y="26"
   inkscape:window-maximized="0"
   inkscape:current-layer="Capa_1" />
<g
   id="g6"
   style="fill:#1c1f24;fill-opacity:1">
	<g
   id="g4"
   style="fill:#1c1f24;fill-opacity:1">
		<path
   d="M317.015,329.981h-14.999v-134.99c0-8.283-6.716-14.999-14.999-14.999h-89.993c-8.283,0-14.999,6.715-14.999,14.999    v59.995c0,8.283,6.715,14.999,14.999,14.999h14.999v59.995h-14.999c-8.283,0-14.999,6.715-14.999,14.999v59.995    c0,8.283,6.715,14.999,14.999,14.999h119.991c8.283,0,14.999-6.715,14.999-14.999V344.98    C332.014,336.697,325.298,329.981,317.015,329.981z M302.016,389.977h-89.993v-29.998h14.999c8.283,0,14.999-6.715,14.999-14.999    v-89.993c0-8.283-6.716-14.999-14.999-14.999h-14.999V209.99h59.995v134.99c0,8.283,6.716,14.999,14.999,14.999h14.999V389.977z"
   id="path2"
   style="fill:#1c1f24;fill-opacity:1" />
	</g>
</g>
<g
   id="g12"
   style="fill:#1b1f24;fill-opacity:0.90980393">
	<g
   id="g10"
   style="fill:#1b1f24;fill-opacity:0.90980393">
		<path
   d="M257.019,60.002c-24.811,0-44.997,20.185-44.997,44.997s20.185,44.997,44.997,44.997s44.997-20.185,44.997-44.997    S281.831,60.002,257.019,60.002z M257.019,119.997c-8.27,0-14.999-6.728-14.999-14.999c0-8.27,6.729-14.999,14.999-14.999    c8.27,0,14.999,6.729,14.999,14.999C272.018,113.269,265.29,119.997,257.019,119.997z"
   id="path8"
   style="fill:#1b1f24;fill-opacity:0.90980393" />
	</g>
</g>
<g
   id="g18"
   style="fill:#1c1f24;fill-opacity:1">
	<g
   id="g16"
   style="fill:#1c1f24;fill-opacity:1">
		<path
   d="M257.019,0.006c-139.884,0-256.98,113.016-256.98,254.981c0,49.355,14.161,98.404,40.017,139.052l-38.944,97.36    c-4.921,12.3,7.376,24.345,19.496,19.497l97.36-38.944c40.648,25.855,89.697,40.017,139.052,40.017    c142.119,0,254.981-117.248,254.981-256.98C512,114.059,397.959,0.006,257.019,0.006z M257.019,482.17    c-46.136,0-91.903-14.134-128.869-39.435c-4.135-2.83-9.401-3.405-14.042-1.549l-72.147,28.859l28.859-72.146    c1.858-4.646,1.277-9.913-1.549-14.042c-25.301-36.966-39.435-82.733-39.435-128.869c0-124.056,102.024-225.183,227.183-225.183    c124.056,0,225.183,101.327,225.183,225.383C482.202,380.346,381.076,482.17,257.019,482.17z"
   id="path14"
   style="fill:#1c1f24;fill-opacity:1" />
	</g>
</g>
<g
   id="g20">
</g>
<g
   id="g22">
</g>
<g
   id="g24">
</g>
<g
   id="g26">
</g>
<g
   id="g28">
</g>
<g
   id="g30">
</g>
<g
   id="g32">
</g>
<g
   id="g34">
</g>
<g
   id="g36">
</g>
<g
   id="g38">
</g>
<g
   id="g40">
</g>
<g
   id="g42">
</g>
<g
   id="g44">
</g>
<g
   id="g46">
</g>
<g
   id="g48">
</g>
</svg>