<?xml version="1.0" encoding="UTF-8" standalone="no"?>
<!-- Generator: Adobe Illustrator 19.0.0, SVG Export Plug-In . SVG Version: 6.00 Build 0)  -->

<svg
   xmlns:dc="http://purl.org/dc/elements/1.1/"
   xmlns:cc="http://creativecommons.org/ns#"
   xmlns:rdf="http://www.w3.org/1999/02/22-rdf-syntax-ns#"
   xmlns:svg="http://www.w3.org/2000/svg"
   xmlns="http://www.w3.org/2000/svg"
   xmlns:sodipodi="http://sodipodi.sourceforge.net/DTD/sodipodi-0.dtd"
   xmlns:inkscape="http://www.inkscape.org/namespaces/inkscape"
   version="1.1"
   id="Layer_1"
   x="0px"
   y="0px"
   viewBox="0 0 512 512"
   style="enable-background:new 0 0 512 512;"
   xml:space="preserve"
   sodipodi:docname="portfolio.svg"
   inkscape:version="0.92.4 5da689c313, 2019-01-14"><metadata
   id="metadata43"><rdf:RDF><cc:Work
       rdf:about=""><dc:format>image/svg+xml</dc:format><dc:type
         rdf:resource="http://purl.org/dc/dcmitype/StillImage" /></cc:Work></rdf:RDF></metadata><defs
   id="defs41" /><sodipodi:namedview
   pagecolor="#ffffff"
   bordercolor="#666666"
   borderopacity="1"
   objecttolerance="10"
   gridtolerance="10"
   guidetolerance="10"
   inkscape:pageopacity="0"
   inkscape:pageshadow="2"
   inkscape:window-width="1366"
   inkscape:window-height="674"
   id="namedview39"
   showgrid="false"
   inkscape:zoom="0.4609375"
   inkscape:cx="256"
   inkscape:cy="256"
   inkscape:window-x="0"
   inkscape:window-y="26"
   inkscape:window-maximized="1"
   inkscape:current-layer="Layer_1" />
<g
   id="g6"
   style="fill:#1c1f24;fill-opacity:1">
	<g
   id="g4"
   style="fill:#1c1f24;fill-opacity:1">
		<path
   d="M463.313,346.29c-0.758-2.274-2.224-4.747-4.085-6.608l-83.683-83.682l131.503-131.502c6.603-6.603,6.603-17.307,0-23.909    L411.411,4.952C408.241,1.782,403.941,0,399.456,0s-8.785,1.782-11.954,4.952c-4.677,4.677-123.793,123.793-131.502,131.502    l-71.724-71.725c-0.001-0.001-0.002-0.002-0.003-0.005c-0.001-0.002-0.002-0.002-0.005-0.003l-47.815-47.815    c-19.819-19.821-51.904-19.826-71.727,0L16.908,64.726c-19.776,19.775-19.776,51.952,0,71.727l119.547,119.547    C134.263,258.19,16.761,375.691,4.952,387.5c-6.603,6.603-6.603,17.307,0,23.909l95.637,95.639    c3.171,3.17,7.47,4.952,11.954,4.952s8.785-1.782,11.954-4.952l131.502-131.502l83.682,83.682    c1.853,1.853,4.317,3.322,6.608,4.085l143.456,47.818c6.058,2.02,12.762,0.455,17.301-4.085c4.529-4.528,6.11-11.226,4.085-17.301    L463.313,346.29z M303.82,136.453l23.909,23.91c3.301,3.301,7.628,4.952,11.954,4.952s8.654-1.651,11.954-4.952    c6.603-6.601,6.603-17.307,0-23.909l-23.909-23.909l23.909-23.909l23.91,23.909c3.301,3.301,7.628,4.952,11.954,4.952    c4.326,0,8.654-1.65,11.954-4.952c6.603-6.603,6.603-17.307,0-23.909l-23.909-23.909l23.909-23.909l71.728,71.728L351.638,232.09    l-71.728-71.728L303.82,136.453z M423.366,351.637l-23.91,23.91L148.408,124.499l23.909-23.909L423.366,351.637z M76.681,148.408    l-35.864-35.864c-6.591-6.592-6.591-17.318,0-23.909l47.819-47.819c6.607-6.606,17.301-6.609,23.909,0l35.864,35.864    C145.133,79.956,79.944,145.145,76.681,148.408z M112.545,471.183l-71.728-71.728l23.91-23.909l23.909,23.91    c3.301,3.301,7.628,4.952,11.954,4.952c4.326,0,8.654-1.651,11.954-4.952c6.603-6.601,6.603-17.307,0-23.909l-23.908-23.91    l23.909-23.909l23.91,23.909c3.301,3.301,7.628,4.952,11.954,4.952c4.326,0,8.654-1.65,11.954-4.952    c6.603-6.603,6.603-17.307,0-23.909l-23.91-23.909l23.909-23.909l71.728,71.728L112.545,471.183z M351.637,423.366L100.59,172.317    l23.909-23.909l251.048,251.048L351.637,423.366z M382.935,439.886l56.952-56.952l28.475,85.427L382.935,439.886z"
   id="path2"
   style="fill:#1c1f24;fill-opacity:1" />
	</g>
</g>
<g
   id="g8">
</g>
<g
   id="g10">
</g>
<g
   id="g12">
</g>
<g
   id="g14">
</g>
<g
   id="g16">
</g>
<g
   id="g18">
</g>
<g
   id="g20">
</g>
<g
   id="g22">
</g>
<g
   id="g24">
</g>
<g
   id="g26">
</g>
<g
   id="g28">
</g>
<g
   id="g30">
</g>
<g
   id="g32">
</g>
<g
   id="g34">
</g>
<g
   id="g36">
</g>
</svg>